<svg width="685" height="598" viewBox="0 0 685 598" fill="none" xmlns="http://www.w3.org/2000/svg">
<path d="M682.77 593.541H3.31027C2.11551 593.541 1.08005 594.457 1.0004 595.611C0.920751 596.925 1.95621 598 3.23062 598H682.77C684.005 598 685 597.005 685 595.77C685 594.536 684.005 593.541 682.77 593.541Z" fill="#064C91"/>
<path d="M246.963 95.1545C228.325 102.958 206.82 94.1591 199.014 75.5264C191.248 56.9334 200.049 35.4341 218.648 27.6306C237.286 19.8272 258.792 28.626 266.597 47.2587C274.403 65.8517 265.602 87.351 246.963 95.1545Z" fill="#FFCB83"/>
<path d="M246.604 94.2785C228.483 101.883 207.535 93.323 199.929 75.168C192.322 57.0528 200.884 36.1109 219.045 28.5065C237.165 20.9021 258.113 29.462 265.72 47.617C273.327 65.7322 264.724 86.6741 246.604 94.2785Z" fill="#FFCB83"/>
<path d="M259.747 50.2846C265.96 65.1351 258.99 82.1753 244.136 88.3862C229.281 94.5971 212.236 87.6298 206.023 72.7793C199.81 57.9288 206.779 40.8886 221.634 34.6777C236.449 28.4668 253.534 35.474 259.747 50.2846Z" fill="white"/>
<path d="M243.498 86.8732C229.439 92.7656 213.23 86.1168 207.376 72.1024C201.482 58.0482 208.133 41.844 222.151 35.9914C236.21 30.099 252.419 36.7479 258.273 50.7623C264.167 64.7767 257.516 80.9808 243.498 86.8732Z" fill="white"/>
<path d="M210.203 69.2755L205.663 71.1865C204.906 71.505 204.548 72.3809 204.866 73.0976C205.185 73.854 206.061 74.2124 206.778 73.8939L211.318 71.9828C212.075 71.6643 212.433 70.7884 212.115 70.0718C211.836 69.3153 210.96 68.957 210.203 69.2755Z" fill="#FFCB83"/>
<path d="M241.507 82.0955C240.75 82.414 240.392 83.2899 240.71 84.0065L242.622 88.5453C242.94 89.3018 243.816 89.6601 244.533 89.3416C245.29 89.0231 245.648 88.1472 245.33 87.4305L243.418 82.8918C243.1 82.1353 242.223 81.777 241.507 82.0955Z" fill="#FFCB83"/>
<path d="M258.83 48.891L254.29 50.802C253.533 51.1205 253.175 51.9964 253.493 52.7131C253.812 53.4696 254.688 53.8279 255.405 53.5094L259.945 51.5983C260.702 51.2798 261.06 50.4039 260.742 49.6873C260.463 48.9308 259.587 48.6123 258.83 48.891Z" fill="#FFCB83"/>
<path d="M221.116 33.4434C220.359 33.7619 220.001 34.6378 220.319 35.3544L222.231 39.8932C222.55 40.6496 223.426 41.0079 224.143 40.6894C224.899 40.3709 225.258 39.495 224.939 38.7784L223.028 34.2396C222.709 33.4832 221.873 33.1647 221.116 33.4434Z" fill="#FFCB83"/>
<path d="M231.351 21.0614L231.749 15.2885C231.789 14.8107 232.187 14.4524 232.665 14.4922L239.316 14.97C239.794 15.0098 240.152 15.4079 240.112 15.8857L239.714 21.6586C239.674 22.1364 239.276 22.4947 238.798 22.4549L232.147 21.9772C231.669 21.9373 231.311 21.5392 231.351 21.0614Z" fill="#FFCB83"/>
<path d="M205.465 32.05L201.044 28.2677C200.686 27.9492 200.128 27.989 199.849 28.3473L195.548 33.4434C195.229 33.8018 195.269 34.3591 195.628 34.6378L200.048 38.4201C200.407 38.7386 200.964 38.6988 201.283 38.3405L205.584 33.2842C205.863 32.9259 205.823 32.3685 205.465 32.05Z" fill="#FFCB83"/>
<path d="M212.593 22.5743C212.155 22.7336 211.677 22.5345 211.478 22.1364L209.885 18.2745C209.726 17.8365 209.925 17.3588 210.323 17.1597L218.169 13.8552C218.607 13.6959 219.085 13.895 219.284 14.2931L220.877 18.155C221.036 18.593 220.837 19.0708 220.439 19.2698L212.593 22.5743Z" fill="#FFCB83"/>
<path d="M214.625 23.9678C210.802 24.2465 207.058 22.0966 205.465 18.3939C203.514 13.7357 205.704 8.36088 210.363 6.41001C215.023 4.45915 220.399 6.64889 222.351 11.3071C223.904 15.0496 222.829 19.23 219.922 21.7382L220.798 23.8086C224.78 20.7429 226.373 15.2884 224.342 10.4312C221.992 4.69803 215.342 1.99071 209.567 4.37952C203.792 6.80815 201.084 13.457 203.474 19.23C205.505 24.0872 210.523 26.7548 215.501 26.0779L214.625 23.9678Z" fill="#FFCB83"/>
<path d="M218.368 26.9538C219.284 26.5557 220.2 26.2372 221.116 25.9187L218.806 20.3846L214.465 22.1762L216.775 27.6705C217.292 27.4316 217.85 27.1927 218.368 26.9538Z" fill="#FFCB83"/>
<path d="M235.294 60.3176C235.852 61.6712 235.215 63.2638 233.861 63.8212C232.507 64.3786 230.914 63.7415 230.356 62.3879C229.798 61.0342 230.436 59.4417 231.79 58.8843C233.144 58.2871 234.737 58.9639 235.294 60.3176Z" fill="#FFCB83"/>
<path d="M235.692 39.4155L233.781 61.4722C233.741 62.0296 233.223 62.4277 232.705 62.3879C232.148 62.3481 231.749 61.8305 231.789 61.3129C231.749 61.1935 231.59 62.1888 235.692 39.4155Z" fill="#FFCB83"/>
<path d="M252.221 72.2616L232.428 62.3082C231.91 62.0693 231.711 61.4323 231.99 60.9546C232.228 60.437 232.866 60.2379 233.344 60.5166C233.423 60.5564 232.587 60.0388 252.221 72.2616Z" fill="#FFCB83"/>
<path d="M233.82 60.9147C234.059 61.4721 233.78 62.1091 233.223 62.348C232.665 62.5869 232.028 62.3082 231.789 61.7508C231.55 61.1934 231.829 60.5564 232.386 60.3175C232.944 60.1185 233.581 60.3573 233.82 60.9147Z" fill="#FFCB83"/>
<path d="M512.875 264.163C512.597 263.845 512.198 263.725 511.8 263.845C509.849 264.362 506.344 263.606 504.632 262.969L502.76 253.612C504.114 252.378 507.061 250.308 509.052 250.029C509.45 249.989 509.809 249.711 509.928 249.313L512.318 242.226C512.437 241.828 512.358 241.429 512.039 241.111C510.605 239.678 509.53 236.254 509.211 234.462L516.34 228.172C518.093 228.729 521.358 230.242 522.593 231.834C522.832 232.153 523.27 232.312 523.668 232.233L530.996 230.759C531.394 230.68 531.713 230.361 531.832 229.963C532.35 228.012 534.779 225.385 536.173 224.19L545.214 227.216C545.612 229.008 545.93 232.591 545.174 234.422C545.014 234.781 545.094 235.219 545.373 235.537L550.311 241.151C550.59 241.469 550.988 241.589 551.386 241.469C553.338 240.952 556.843 241.708 558.555 242.345L560.427 251.701C559.073 252.936 556.126 255.006 554.134 255.285C553.736 255.324 553.378 255.603 553.258 256.001L550.869 263.088C550.749 263.486 550.829 263.884 551.148 264.203C552.581 265.636 553.657 269.06 553.975 270.852L546.846 277.142C545.094 276.585 541.828 275.072 540.594 273.479C540.355 273.161 539.917 273.002 539.518 273.081L532.191 274.554C531.792 274.634 531.474 274.953 531.354 275.351C530.837 277.302 528.407 279.929 527.013 281.124L517.973 278.098C517.575 276.306 517.256 272.723 518.013 270.892C518.172 270.533 518.092 270.095 517.814 269.777L512.875 264.163ZM533.425 261.854C538.523 260.819 541.789 255.882 540.753 250.786C539.718 245.69 534.779 242.425 529.682 243.46C524.584 244.495 521.318 249.432 522.354 254.528C523.389 259.584 528.328 262.889 533.425 261.854ZM534.62 267.746C542.944 266.074 548.36 257.952 546.687 249.591C545.014 241.27 536.89 235.856 528.527 237.528C520.163 239.2 514.787 247.322 516.46 255.683C518.132 264.044 526.257 269.458 534.62 267.746Z" fill="#FF6E53"/>
<path d="M573.529 297.567C573.609 297.248 573.848 297.009 574.167 296.969L579.981 295.815C580.3 295.735 580.618 295.855 580.817 296.133C581.773 297.407 584.362 298.562 585.756 299L591.411 294.023C591.132 292.59 590.296 289.883 589.181 288.768C588.942 288.529 588.862 288.21 588.982 287.892L590.853 282.278C590.973 281.96 591.212 281.761 591.53 281.721C593.084 281.522 595.433 279.85 596.509 278.894L594.995 271.489C593.641 271.011 590.853 270.374 589.3 270.812C588.982 270.892 588.663 270.812 588.424 270.573L584.481 266.114C584.282 265.875 584.203 265.517 584.322 265.238C584.919 263.765 584.641 260.938 584.362 259.505L577.193 257.116C576.078 258.072 574.167 260.142 573.768 261.695C573.689 262.013 573.45 262.252 573.131 262.292L567.317 263.446C566.998 263.526 566.679 263.407 566.48 263.128C565.524 261.854 562.936 260.699 561.542 260.261L555.887 265.238C556.166 266.671 557.002 269.379 558.117 270.493C558.356 270.732 558.436 271.051 558.316 271.369L556.444 276.983C556.325 277.302 556.086 277.501 555.767 277.54C554.214 277.739 551.864 279.412 550.789 280.367L552.302 287.773C553.657 288.25 556.444 288.887 557.997 288.449C558.316 288.37 558.635 288.449 558.874 288.688L562.816 293.147C563.015 293.386 563.095 293.745 562.976 294.023C562.378 295.496 562.657 298.323 562.936 299.756L570.104 302.145C571.219 301.23 573.131 299.119 573.529 297.567ZM575.56 288.648C570.542 289.644 565.684 286.419 564.648 281.402C563.653 276.386 566.879 271.529 571.897 270.493C576.915 269.498 581.773 272.723 582.809 277.739C583.804 282.796 580.539 287.653 575.56 288.648Z" fill="#FF6E53"/>
<path d="M164.244 197.873L157.793 195.445L152.138 199.386C151.5 199.824 150.624 199.347 150.664 198.55L150.983 191.663L145.487 187.482C144.849 187.004 145.049 186.009 145.805 185.81L152.456 183.979L154.726 177.449C154.965 176.693 156.001 176.573 156.399 177.25L160.182 183.023L167.072 183.182C167.869 183.182 168.267 184.098 167.789 184.735L163.488 190.11L165.479 196.719C165.678 197.475 164.961 198.152 164.244 197.873Z" fill="#65CEFE"/>
<path d="M190.848 127.642L187.343 118.207L178.343 120.914L174.48 111.757L165.559 113.27L161.536 106.899L158.311 108.93L163.687 117.45L172.13 116.017L176.152 125.532L184.993 122.865L188.18 131.425L190.848 127.642Z" fill="#65CEFE"/>
<path d="M532.51 167.695L523.708 162.877L518.65 170.76L509.769 166.381L503.995 173.348L496.786 171.158L495.711 174.821L505.309 177.728L510.765 171.158L520.044 175.697L524.983 167.934L532.988 172.313L532.51 167.695Z" fill="#65CEFE"/>
<path d="M311.838 19.1105L308.055 28.4667L316.498 32.5277L313.192 41.8839L320.759 46.781L319.445 54.1863L323.188 54.8631L324.98 44.9495L317.772 40.3312L321.237 30.5768L312.913 26.5955L316.338 18.1152L311.838 19.1105Z" fill="#C9EDF9"/>
<path d="M530.318 322.729L528.486 319.066L524.304 319.225L522.512 314.965L518.091 316.478L515.861 311.78L511.64 312.696L508.732 308.515L510.325 307.401L512.476 310.546L516.936 309.59L519.087 314.129L523.587 312.576L525.539 317.235L529.641 317.115L531.353 320.499L534.021 319.862L534.46 321.733L530.318 322.729Z" fill="#FF6E53"/>
<path d="M449.913 103.237L447.961 97.4238L456.962 93.2434L455.169 84.4048L461.382 80.1845L459.271 77.0393L450.908 82.6928L452.621 91.0537L443.262 95.4332L446.209 104.152L449.913 103.237Z" fill="#FF6E53"/>
<path d="M540.633 65.3341C550.55 80.503 537.049 101.564 519.366 98.4191C516.18 97.8617 512.875 98.5784 510.047 100.33L500.29 106.342C497.582 108.014 494.197 107.298 492.524 104.67L488.78 98.9367C487.068 96.3488 487.626 92.7258 490.055 90.6555C498.896 83.0909 502.64 80.941 503.834 74.6106C507.299 56.0575 530.717 50.1651 540.633 65.3341Z" fill="#FFCB83"/>
<path d="M517.335 73.6551C517.136 72.819 516.937 71.9033 516.857 70.9876C516.419 65.6924 520.521 63.861 522.671 65.2147C524.065 66.0906 524.623 68.121 523.826 70.0321C523.11 71.7441 521.556 73.0181 520.003 74.3718C520.839 77.318 522.154 80.0253 523.946 82.4539C528.765 79.5475 532.23 81.1401 532.468 83.7678C532.628 85.4399 531.513 87.1917 529.88 87.9084C528.884 88.3463 526.375 88.9037 523.388 85.5992C515.224 91.3323 504.591 99.8525 504.551 99.8923L503.197 98.021C503.237 97.9812 513.83 89.5407 521.955 83.8076C520.282 81.4984 518.968 78.9105 518.052 76.1236C508.772 84.2455 500.568 90.6555 500.29 90.8944L498.936 89.0232C499.493 88.5454 507.418 82.3345 517.335 73.6551ZM521.238 67.2053C520.521 66.9266 518.609 67.7229 519.366 71.8635C521.556 69.9923 522.194 69.1562 521.238 67.2053ZM525.419 84.2853C526.614 85.5196 528.406 86.6344 529.601 85.3205C531.154 83.6085 528.924 82.3345 525.419 84.2853Z" fill="#EEFBFF"/>
<path d="M510.325 100.171C510.246 100.211 510.166 100.251 510.086 100.33L500.329 106.342C497.621 108.014 494.236 107.298 492.563 104.67L488.82 98.9367C487.107 96.3489 487.665 92.7258 490.094 90.6555C494.037 87.2714 496.944 85.002 499.094 82.9317L510.325 100.171Z" fill="#65CEFE"/>
<path d="M66.5132 466.854C66.5132 466.854 66.1946 465.301 66.115 464.784C66.0353 464.187 65.9557 462.315 65.9557 462.315C65.9557 462.315 65.9557 455.826 66.4336 455.866C66.9115 455.905 67.5487 457.02 67.6682 457.418C67.8275 457.816 68.0266 458.254 68.1461 458.692C68.3054 459.09 68.7036 459.329 69.2214 459.17C69.7391 459.011 69.5001 457.299 69.3408 456.741C68.7435 454.95 66.1548 450.451 65.9159 449.933C65.6371 449.336 67.708 438.109 68.1063 434.167C68.9426 427.797 70.1373 421.268 70.2568 420.591L81.6469 395.429L74.0402 387.665C74.0402 387.665 61.0173 415.375 60.5394 416.848C60.3005 417.525 59.4642 432.495 59.504 432.495C59.5438 439.9 59.6235 446.39 59.6235 447.664C59.6235 447.664 58.5482 451.406 57.7118 453.716C56.8755 456.065 57.0746 458.533 56.9552 459.21C56.9552 459.329 56.3578 461.678 56.756 464.625C57.1145 467.173 57.9508 464.585 57.9508 464.585C57.9508 464.585 58.1499 459.767 58.5482 459.847C58.827 459.927 58.5482 462.554 58.9066 465.341C58.9863 466.058 59.1057 466.774 59.1854 467.451C59.4243 469.163 60.5394 469.522 60.5793 467.65C60.5793 467.013 60.5793 465.938 60.4996 465.142C60.3801 464.306 60.5394 463.51 60.5394 462.793C60.5394 461.36 60.5394 460.325 60.6191 460.365C60.6987 460.404 60.8979 460.126 61.0173 460.882C61.1766 461.798 61.0173 463.828 61.336 465.182C61.5351 465.938 61.774 467.531 61.774 467.531C61.774 467.531 62.5307 470.079 62.6502 470.079C63.4865 470.039 63.4865 468.049 63.1281 467.053C63.2077 466.297 62.8891 464.625 62.8891 464.625C62.8891 464.625 62.9688 461.041 63.4865 461.041C63.8848 461.041 65.3583 469.601 66.1946 469.482C66.8318 469.442 66.5132 466.854 66.5132 466.854Z" fill="#F7A491"/>
<path d="M76.9883 410C76.9883 410 72.249 409.164 69.7799 408.248C66.4345 407.014 64.2441 405.899 64.2441 405.899C64.2441 405.899 67.9081 390.213 72.488 380.698C74.3598 376.756 76.3112 374.845 78.9397 374.407C78.9397 374.407 84.5551 378.11 84.3559 386.988C84.2763 389.058 76.9883 410 76.9883 410Z" fill="#E74A60"/>
<path d="M91.5234 462.714L97.6565 519.01C97.6565 519.01 94.6696 530.914 95.0281 534.298C95.3865 537.683 101.679 582.035 101.679 582.035L101.4 584.543V591.909H124.738C124.738 591.909 119.799 589.639 112.83 585.101C112.312 584.782 111.117 583.707 110.839 581.597C109.007 567.941 112.631 522.315 112.631 522.315L115.498 462.953L91.5234 462.714Z" fill="#F7A491"/>
<path d="M72.726 474.578C71.4118 474.936 69.3807 523.31 68.2656 525.46C61.336 539.076 59.7031 580.402 59.7031 580.402L57.6721 586.295L55.5215 593.501C55.5215 593.501 62.4511 595.412 66.0752 593.342L65.6769 586.215L65.3185 579.686L82.8018 528.167L92.3599 475.613L72.726 474.578Z" fill="#F7A491"/>
<path d="M107.495 380.777C104.667 376.796 93.0381 365.329 91.7637 365.369C87.9803 365.449 75.6344 365.449 73.2051 366.723V369.43C73.2847 381.534 74.7981 393.557 77.8646 405.263C79.9754 413.424 82.0065 422.143 81.7277 425.249L81.7675 425.289C88.9361 432.415 100.207 431.818 106.738 424.055C106.738 424.055 106.698 415.375 107.734 407.492C109.366 395.11 114.504 390.651 107.495 380.777Z" fill="#FF6E53"/>
<path d="M87.9787 353.067C87.9787 353.067 88.2973 361.149 87.6202 364.175C86.9034 367.24 85.9874 367.479 92.0409 368.395C94.4304 368.753 96.7004 369.311 96.7004 369.311C96.7004 369.311 96.0632 364.812 95.9836 362.941C95.8243 359.835 96.7004 350.16 96.7004 350.16L87.9787 353.067Z" fill="#F7A491"/>
<path d="M92.5594 357.088C93.794 357.765 94.9489 358.203 96.0242 358.362C96.2233 354.54 96.6216 350.2 96.6216 350.2L88.3379 352.947C89.3335 354.58 90.6876 356.013 92.5594 357.088Z" fill="#F47458"/>
<path d="M89.8916 330.453C89.8916 330.453 86.4268 331.687 84.5151 335.469C82.6035 339.252 81.8867 349.962 89.4137 354.142C93.1174 356.212 97.4186 356.61 99.4496 354.779C101.521 352.908 101.242 348.807 101.043 345.383C100.644 338.615 99.131 328.303 89.8916 330.453Z" fill="#F7A491"/>
<path d="M84.3557 343.87C84.7938 345.661 84.1964 347.373 83.0813 347.732C81.9662 348.09 80.6918 346.896 80.2537 345.104C79.8156 343.312 80.413 341.601 81.5281 341.242C82.6432 340.924 83.9177 342.118 84.3557 343.87Z" fill="#F7A491"/>
<path d="M65.7168 586.215C62.5307 587.688 59.1058 586.773 57.7517 586.295L55.5215 593.541C55.5215 593.541 62.4909 595.611 66.115 593.541L65.7168 586.215Z" fill="#E74A60"/>
<path d="M101.162 593.7H125.455C126.371 593.621 126.57 592.864 126.252 592.386C125.615 591.431 122.787 590.714 119.601 589.201C114.025 589.799 102.317 585.857 101.401 584.503C100.883 587.211 100.644 593.621 101.162 593.7Z" fill="#E74A60"/>
<path d="M149.907 399.131C150.385 398.494 151.938 395.269 151.938 395.269C151.938 395.269 153.571 389.775 153.213 389.855C153.014 389.895 152.337 390.691 151.54 392.323C151.062 393.319 150.505 395.11 150.027 395.986C149.151 397.539 148.155 398.176 148.394 397.579C148.553 397.141 149.19 396.782 149.708 395.867C151.022 393.637 152.137 389.974 151.66 390.014C151.221 390.094 149.947 392.602 148.593 394.553C147.996 395.429 146.283 396.464 145.168 397.18C145.168 396.703 145.327 396.225 145.407 395.986C145.526 395.548 147.478 393 146.721 392.681C145.964 392.363 141.385 397.897 141.385 397.897L139.513 401.122L139.353 401.241C139.353 401.241 116.454 410.199 115.697 409.961C113.905 409.403 107.732 391.567 107.732 391.567L94.9084 393.876C94.7093 393.756 108.369 420.432 110.918 421.706C113.148 422.86 136.964 410.438 141.424 407.811C147.597 405.422 149.987 402.635 150.982 401.162C151.5 400.405 153.571 397.021 153.571 397.021C153.571 397.021 154.009 392.363 153.691 392.323C152.575 392.204 152.257 396.583 152.257 396.583C152.257 396.583 150.744 398.654 150.465 398.932C149.788 399.649 149.907 399.131 149.907 399.131Z" fill="#F8A492"/>
<path d="M86.6257 376.039C84.8733 383.445 94.1925 399.967 94.1925 399.967C94.1925 399.967 107.494 393.518 109.804 390.731C109.804 390.731 100.644 375.601 100.087 374.606C98.852 372.456 94.5509 368.077 91.6437 368.873C89.8117 369.43 86.6257 376.039 86.6257 376.039Z" fill="#E74A60"/>
<path d="M88.7363 357.805C89.7319 350.997 101.003 337.142 96.6615 331.369C93.1569 326.671 86.984 328.104 83.0811 329.418C65.319 335.509 66.3545 357.845 60.7391 361.308C50.5836 367.639 44.3311 371.58 43.6142 385.834C42.7381 402.754 57.115 411.354 74.3594 407.213C83.6387 404.984 86.1078 401.958 89.8116 393.199C91.4842 389.257 94.8694 376.915 93.9534 370.903C93.1171 365.529 87.9398 363.259 88.7363 357.805Z" fill="#031322"/>
<path d="M95.4669 345.343C95.4669 347.374 94.75 349.006 93.834 349.006C92.918 349.006 92.2012 347.374 92.2012 345.343C92.2012 343.313 92.918 341.68 93.834 341.68C94.75 341.68 95.4669 343.313 95.4669 345.343Z" fill="#F7A491"/>
<path d="M117.73 499.342L118.566 465.938C118.725 456.503 116.853 447.146 113.11 438.547L106.778 424.055C104.229 424.891 101.799 425.607 99.1311 425.926C93.2768 426.603 87.542 425.926 81.7275 425.249C81.7275 425.488 81.6876 425.687 81.6478 425.846C80.6123 430.783 74.7182 441.732 72.249 456.702C69.4613 473.702 68.386 499.143 68.7444 501.173C95.6265 502.368 101.999 503.363 117.73 499.342Z" fill="#FFCB83"/>
<path d="M451.981 332.125L472.172 352.31C472.172 352.31 510.643 367.36 514.945 376.597C519.246 385.833 511.082 385.395 502.041 384.121C493.001 382.847 467.433 366.922 467.433 366.922L444.016 339.849L451.981 332.125Z" fill="#063E70"/>
<path d="M511.122 372.575L506.104 370.784L496.426 375.283C496.426 375.283 491.408 378.667 489.019 387.067C486.589 395.468 489.019 445.593 493.041 453.636C497.103 461.718 511.122 372.575 511.122 372.575Z" fill="#FFCB83"/>
<path d="M542.861 573.634C542.861 573.634 546.406 575.903 546.724 576.978C547.003 578.013 549.632 589.44 548.636 590.754C547.68 592.068 544.096 591.431 545.49 592.386C546.525 593.103 553.296 593.66 557.597 592.506C558.871 592.147 558.274 581.517 558.473 579.885C558.752 577.536 560.384 572.201 559.389 570.807C558.911 570.13 556.123 568.936 553.654 567.98C551.026 566.945 548.118 564.079 548.118 564.079L542.861 573.634Z" fill="#F7A491"/>
<path d="M553.415 567.861C553.415 567.861 551.304 588.086 548.875 589.559C548.238 589.957 544.773 590.236 544.455 591.908C544.455 591.948 544.375 593.62 545.41 593.66L558.513 593.62C558.513 593.62 558.632 583.667 558.553 579.805C558.553 579.805 560.345 569.852 559.787 569.135C559.15 568.339 553.415 567.861 553.415 567.861Z" fill="#063E70"/>
<path d="M594.117 573.634C594.117 573.634 597.662 575.903 597.98 576.978C598.259 578.013 600.887 589.44 599.892 590.754C598.896 592.068 595.352 591.431 596.746 592.386C597.781 593.103 604.551 593.66 608.853 592.506C610.127 592.147 609.53 581.517 609.729 579.885C610.007 577.536 611.64 572.201 610.645 570.807C610.167 570.13 607.379 568.936 604.91 567.98C602.281 566.945 599.374 564.079 599.374 564.079L594.117 573.634Z" fill="#F7A491"/>
<path d="M529.8 442.289C529.8 442.289 541.788 466.058 544.217 472.468L562.457 518.771L602.72 566.109C602.72 566.109 599.773 573.714 595.313 575.744C595.313 575.744 546.766 536.567 542.783 530.396C536.69 521 508.971 463.35 508.971 463.35L503.834 452.282L529.8 442.289Z" fill="#4054E7"/>
<path d="M500.807 442.05L501.006 462.315C501.006 462.315 492.324 528.565 494.036 532.506C498.138 542.102 543.181 574.629 543.181 574.629L549.314 564.079L516.976 527.968L529.242 492.812C532.667 484.651 539.955 468.884 539.796 460.006C539.636 452.402 524.582 434.844 524.582 434.844L500.807 442.05Z" fill="#6577FF"/>
<path d="M519.206 471.99C531.154 469.282 540.792 465.062 541.787 461.758C542.225 460.245 535.575 445.116 530.676 424.93C529.083 418.321 529.362 412.15 526.813 389.018C526.255 384.121 524.224 373.849 516.658 371.182C513.989 370.266 512.516 370.386 512.516 370.386C512.436 370.386 502.838 370.465 498.457 372.894C497.382 374.367 493.32 382.409 492.245 404.347C491.767 413.902 489.855 444.638 490.253 449.654C490.293 450.411 490.373 451.128 490.492 451.804C492.205 465.062 506.184 474.976 519.206 471.99Z" fill="#063E70"/>
<path d="M498.139 387.904C503.037 387.346 515.264 371.341 515.264 371.341L515.224 371.301L507.657 359.357C507.657 359.357 496.546 361.388 498.696 364.772C500.887 368.156 502.081 376.278 502.081 376.278C502.042 376.358 502.002 376.477 501.922 376.636C501.205 378.229 498.736 383.166 498.139 387.904Z" fill="#F7A491"/>
<path d="M498.736 364.732C496.546 361.348 507.697 359.317 507.697 359.317L508.334 360.313C508.334 361.149 508.254 361.905 508.015 362.582C506.821 365.966 503.914 368.952 500.927 370.386C500.369 368.315 499.612 366.126 498.736 364.732Z" fill="#FE875E"/>
<path d="M501.405 340.446C501.644 340.207 510.087 354.102 508.056 359.795C506.025 365.489 499.215 370.067 495.192 368.037C490.732 365.767 483.962 349.882 488.024 343.153C492.086 336.385 501.405 340.446 501.405 340.446Z" fill="#F7A491"/>
<path d="M489.179 334.235C494.157 333.16 502.998 334.633 508.016 338.137C514.149 342.436 514.348 350.12 511.6 355.137C508.852 360.154 510.485 363.816 510.485 363.816C510.485 363.816 501.843 363.259 500.131 357.406C499.414 354.938 500.29 353.266 498.657 351.872C497.383 350.797 496.307 347.692 495.033 345.184C495.033 345.184 489.457 342.237 487.347 344.666C486.63 345.502 482.846 335.589 489.179 334.235Z" fill="#031322"/>
<path d="M497.78 352.947C498.537 354.739 500.01 355.854 501.046 355.416C502.081 354.978 502.36 353.146 501.603 351.355C500.847 349.563 499.373 348.448 498.338 348.886C497.263 349.324 497.024 351.156 497.78 352.947Z" fill="#F7A491"/>
<path d="M604.71 567.861C604.71 567.861 602.56 588.046 600.091 589.52C599.453 589.918 595.989 590.196 595.67 591.869C595.67 591.908 595.55 593.62 596.626 593.581L609.728 593.541C609.728 593.541 609.888 583.587 609.808 579.725C609.808 579.725 611.6 569.772 611.042 569.055C610.445 568.339 604.71 567.861 604.71 567.861Z" fill="#063E70"/>
<path d="M315.341 474.578C304.946 452.84 302.079 420.352 313.429 394.632C332.545 351.156 385.115 333.439 381.252 284.189C380.296 271.767 374.76 261.814 366.636 255.364C345.25 238.483 310.801 247.402 286.229 259.226C270.537 266.751 255.961 277.461 242.5 291.316L235.65 204.323C265.161 183.381 300.844 172.433 336.488 169.646C409.488 163.912 465.881 191.304 471.616 264.322C476.833 330.93 431.83 360.432 401.642 393.716C384.876 412.19 381.093 426.443 382.407 442.926C383.084 451.446 386.27 461.957 391.407 468.685L315.341 474.578ZM367.751 593.541C296.782 599.115 288.538 503.801 360.264 498.147C430.874 492.613 438.481 588.007 367.751 593.541Z" fill="#FF6E53"/>
<path d="M441.15 336.544C441.03 335.947 441.508 336.425 440.592 331.727C440.313 330.373 439.477 328.94 438.84 328.183C438.481 327.785 437.725 327.068 437.247 326.79C436.45 326.312 435.813 327.108 435.972 327.546C436.132 327.984 436.968 329.537 437.127 329.975C437.287 330.413 437.366 331.528 437.008 331.886C436.649 332.244 430.755 325.516 430.397 324.918C430.078 324.401 429.401 322.211 429.401 322.211C429.401 322.211 428.883 320.619 428.246 321.017C427.848 321.295 427.37 322.609 428.565 325.197C429.6 327.467 431.034 329.258 430.875 329.378C430.437 329.736 427.888 326.67 427.888 326.67C427.888 326.67 427.012 324.958 426.374 324.361C425.976 323.246 425.299 321.813 424.582 322.37C424.463 322.49 424.941 324.879 424.941 324.879C424.941 324.879 425.817 326.471 426.215 327.267C426.892 328.661 428.405 330.333 428.923 331.249C429.361 332.005 428.923 331.806 428.883 331.926C428.844 332.005 428.206 331.169 427.211 329.935C426.693 329.298 426.016 328.741 425.538 327.904C425.1 327.148 424.343 326.193 423.865 325.635C422.551 324.043 421.834 325.118 422.83 326.79C423.228 327.427 423.626 328.104 424.064 328.82C425.737 331.528 427.808 333.638 427.609 333.877C427.33 334.195 423.786 330.134 423.786 330.134C423.786 330.134 421.277 328.462 422.79 330.93C424.503 333.797 426.374 335.589 426.494 335.668C427.091 336.186 428.644 338.614 430.954 340.048C433.264 341.521 437.008 343.75 437.008 343.75C437.446 344.268 438.521 345.94 440.034 348.329L445.65 341.6C443.659 339.57 441.229 336.942 441.15 336.544Z" fill="#F8A492"/>
<path d="M436.729 346.02L444.455 339.251L471.018 365.489C471.018 365.489 512.158 369.112 512.277 369.112L513.91 369.629C528.845 374.765 522.672 386.948 519.804 388.859C513.114 393.239 475.917 390.611 463.969 383.245C454.212 377.114 436.729 346.02 436.729 346.02Z" fill="#064C91"/>
<path d="M159.744 383.644C160.023 384.719 160.222 385.077 160.58 385.833C163.01 390.571 168.665 397.3 168.665 397.3L173.046 386.829C173.046 386.829 172.329 383.524 171.094 378.826C166.873 379.941 162.851 380.658 159.744 383.644Z" fill="#F8A492"/>
<path d="M184.794 374.526C184.794 374.526 160.46 385.714 159.664 385.475C159.146 385.356 149.668 368.395 149.588 352.509C149.548 345.144 156.677 336.305 164.682 338.057C168.704 338.933 168.625 340.127 174.598 349.364C180.493 358.601 184.794 374.526 184.794 374.526Z" fill="#6577FF"/>
<path d="M205.543 575.028C205.543 575.028 204.946 585.22 204.946 585.26C204.746 586.574 203.91 589.759 203.91 590.913C203.91 595.332 223.584 587.171 219.163 585.18C218.765 585.021 216.654 583.667 216.535 582.154C216.336 579.845 215.818 575.147 215.818 575.147L205.543 575.028Z" fill="#F7A491"/>
<path d="M219.162 585.14C219.162 585.14 214.543 586.494 212.193 586.812C209.843 587.131 206.697 584.304 205.024 585.061C203.192 585.897 203.272 593.541 203.272 593.541C203.272 593.541 228.043 595.691 235.013 593.461C237.721 592.625 228.601 588.325 219.162 585.14Z" fill="#063E70"/>
<path d="M165.279 575.028C165.279 575.028 164.682 585.22 164.682 585.26C164.483 586.574 163.646 589.759 163.646 590.913C163.646 595.332 183.32 587.171 178.9 585.18C178.501 585.021 175.793 582.672 175.674 581.159C175.475 578.85 175.594 575.147 175.594 575.147L165.279 575.028Z" fill="#F7A491"/>
<path d="M178.899 585.14C178.899 585.14 174.279 586.494 171.93 586.812C169.58 587.131 166.434 584.304 164.761 585.061C162.929 585.897 162.85 593.541 162.85 593.541C162.85 593.541 187.74 596.089 194.75 593.461C197.418 592.506 188.338 588.325 178.899 585.14Z" fill="#063E70"/>
<path d="M171.293 389.297L188.617 363.379C188.697 363.14 188.856 362.702 189.095 361.985C189.971 359.397 191.803 354.062 193.356 348.727V348.687C193.834 346.816 194.909 343.591 195.945 340.446C197.06 336.942 198.494 332.642 198.534 331.886C198.494 331.767 198.414 331.528 198.295 331.249C197.657 329.497 196.781 325.317 196.502 323.485C196.303 322.331 196.104 319.504 197.418 319.504C199.449 319.504 198.494 322.331 199.41 324.083C199.768 322.888 200.445 320.579 200.804 318.23L201.162 312.736C201.242 312.338 200.804 309.272 202.237 309.272H202.317C203.591 309.391 203.552 312.616 204.109 318.071C204.268 317.434 204.428 316.677 204.587 316C204.587 315.642 204.826 313.97 205.025 313.134C204.786 311.621 204.906 309.192 206.419 309.431C207.176 309.551 207.136 312.895 207.136 312.895C207.136 313.373 207.096 316.916 207.096 317.593C207.255 316.399 207.853 311.342 209.047 311.342C210.043 311.342 210.123 312.696 210.083 313.771C210.083 314.408 209.446 319.902 209.406 320.539C209.884 319.703 210.441 314.846 210.879 314.846C212.791 314.846 212.114 321.734 211.397 323.525C211.317 323.724 211.278 324.083 211.158 324.481C210.919 325.715 210.521 327.745 209.485 329.617C208.291 331.806 206.618 335.35 206.339 335.867C206.14 336.982 205.583 340.924 204.826 345.861C204.507 347.971 204.189 350.32 203.83 352.709C203.751 353.226 203.392 354.898 202.038 361.109C200.166 369.629 199.967 369.988 199.888 370.147C199.091 371.7 180.373 398.773 179.577 399.927L179.099 400.604L171.293 389.297Z" fill="#F7A491"/>
<path d="M203.551 328.86C203.551 328.86 202.157 325.038 199.648 324.998C199.648 324.998 201.042 324.441 202.237 325.476C203.432 326.511 203.551 328.86 203.551 328.86Z" fill="#F47458"/>
<path d="M167.111 321.455L164.881 336.504C164.881 336.504 173.364 343.79 178.342 342.237C182.484 340.963 179.656 335.151 179.656 335.151C179.656 335.151 177.426 327.108 178.103 322.888C178.82 318.708 167.111 321.455 167.111 321.455Z" fill="#F7A491"/>
<path d="M168.744 325.994C170.895 327.069 175.076 328.542 178.382 328.9C178.063 326.79 177.904 324.56 178.143 322.928C178.461 320.977 176.151 320.539 173.563 320.579C170.178 320.898 167.151 321.455 167.151 321.455L166.713 324.361C167.35 325.078 168.027 325.635 168.744 325.994Z" fill="#FE875E"/>
<path d="M156.399 304.096C156.04 304.096 159.744 320.898 165.519 323.804C171.254 326.71 179.816 325.197 181.449 320.659C183.241 315.642 176.75 298.482 168.665 296.293C160.541 294.103 156.399 304.096 156.399 304.096Z" fill="#F7A491"/>
<path d="M163.049 288.609C158.469 291.435 156.358 295.616 155.641 297.328C153.491 298.403 150.862 300.792 149.628 307.122C148.075 314.925 153.571 320.977 159.345 322.769C165.16 324.6 166.116 328.661 166.116 328.661L166.673 324.242C166.673 324.242 165.399 320.42 163.447 318.469C161.496 316.558 164.363 313.771 164.602 311.462C164.801 309.71 163.567 306.286 163.846 303.419C163.846 303.419 167.071 298.204 170.257 296.93C175.714 294.82 168.943 284.986 163.049 288.609Z" fill="#031322"/>
<path d="M165.479 314.487C166.235 316.438 165.917 318.349 164.801 318.787C163.686 319.225 162.133 317.991 161.416 316.08C160.66 314.129 160.978 312.218 162.093 311.78C163.208 311.302 164.722 312.537 165.479 314.487Z" fill="#F7A491"/>
<path d="M186.865 389.695L220.319 383.883C220.319 383.883 216.495 373.65 215.141 373.65C213.787 373.65 189.852 384.798 189.852 384.798L187.941 388.859L186.865 389.695Z" fill="#F8A492"/>
<path d="M169.74 414.141C169.74 414.141 166.395 431.34 167.749 444.399C169.103 457.458 169.222 503.801 169.222 503.801L164.045 577.934L176.351 578.213C176.351 578.213 190.927 504.12 190.688 505.991C190.409 507.902 195.587 453.795 195.587 453.795L178.183 412.469L169.74 414.141Z" fill="#063E70"/>
<path d="M173.005 413.345C173.005 413.345 170.815 428.832 173.562 435.64C176.271 442.448 196.86 509.096 197.139 514.551C197.418 520.005 204.268 580.044 204.268 580.044L218.565 579.606L221.671 512.799L215.18 428.832L208.888 407.611L173.005 413.345Z" fill="#064C91"/>
<path d="M164.881 336.504C164.881 336.504 168.425 338.973 171.691 338.694C174.996 338.415 179.616 335.151 179.616 335.151L178.979 332.802C178.979 332.802 170.456 331.488 170.257 331.607C170.058 331.767 164.881 336.504 164.881 336.504Z" fill="#F7A491"/>
<path d="M202.516 373.173C202.516 373.173 215.18 385.913 220.875 383.723C226.57 381.534 228.96 374.128 215.021 363.259C202.516 353.505 202.516 373.173 202.516 373.173Z" fill="#F8A492"/>
<path d="M211.079 388.899C209.207 377.99 195.587 344.069 194.512 337.818C193.994 334.792 186.626 334.713 179.657 335.111C172.25 335.549 164.922 336.544 164.922 336.544C164.922 336.544 158.39 337.699 155.483 340.565C152.616 343.432 151.859 351.395 155.961 366.524C159.227 378.428 163.289 384.997 165.28 393.677C165.678 396.583 166.037 399.45 166.475 402.834C167.192 415.813 166.475 432.973 166.475 432.973C166.475 432.973 202.079 440.856 215.42 428.912C215.42 428.832 212.991 400.047 211.079 388.899Z" fill="#65CEFE"/>
<path d="M220.159 365.449C220.159 365.449 206.18 377.751 205.384 377.751C204.866 377.751 185.431 362.503 180.971 350.001C178.501 343.074 183.679 335.35 189.613 335.35C193.715 335.35 195.547 336.504 203.711 343.83C211.835 351.156 220.159 365.449 220.159 365.449Z" fill="#6577FF"/>
<path d="M423.387 78.6716L393.08 99.1358C390.014 101.206 385.832 100.41 383.761 97.3442L363.251 67.0461C361.18 63.9804 361.977 59.8 365.043 57.7297L395.35 37.2257C398.417 35.1554 402.599 35.9517 404.669 39.0173L425.179 69.3154C427.25 72.4209 426.454 76.5615 423.387 78.6716Z" fill="#FF6E53"/>
<path d="M408.134 57.1724C413.43 65.0156 411.399 75.6857 403.554 80.9809C395.708 86.2761 385.035 84.2456 379.738 76.4023C374.442 68.559 376.473 57.889 384.318 52.5938C392.164 47.2986 402.837 49.3291 408.134 57.1724Z" fill="white"/>
<path d="M388.301 59.7601L395.35 67.4442C395.868 68.0015 395.828 68.8774 395.27 69.395C394.713 69.9126 393.836 69.8728 393.319 69.3154C393.239 69.2358 393.159 69.1163 393.12 69.0367L388.301 59.7601Z" fill="#FF6E53"/>
<path d="M393.638 67.484L404.231 61.5517L394.992 69.4348C394.474 69.8728 393.757 69.7931 393.319 69.3154C392.881 68.7978 392.961 68.0812 393.439 67.6432C393.518 67.5636 393.598 67.5238 393.638 67.484Z" fill="#FF6E53"/>
<path d="M134.973 287.374H73.6025C62.531 287.374 53.5703 278.416 53.5703 267.348V254.648C53.5703 243.579 62.531 234.621 73.6025 234.621H134.973C146.045 234.621 155.005 243.579 155.005 254.648V267.348C155.005 278.377 146.005 287.374 134.973 287.374Z" fill="#C9EDF9"/>
<path d="M142.938 267.428L167.908 278.655L151.221 255.245L142.938 267.428Z" fill="#C9EDF9"/>
<path d="M87.3417 259.266C87.3417 261.416 85.3902 263.168 82.9609 263.168C80.5315 263.168 78.5801 261.416 78.5801 259.266C78.5801 257.116 80.5315 255.364 82.9609 255.364C85.3902 255.364 87.3417 257.116 87.3417 259.266Z" fill="white"/>
<path d="M107.693 259.266C107.693 261.416 105.742 263.168 103.312 263.168C100.883 263.168 98.9316 261.416 98.9316 259.266C98.9316 257.116 100.883 255.364 103.312 255.364C105.742 255.404 107.693 257.116 107.693 259.266Z" fill="white"/>
<path d="M128.043 259.266C128.043 261.416 126.091 263.168 123.662 263.168C121.233 263.168 119.281 261.416 119.281 259.266C119.281 257.116 121.233 255.364 123.662 255.364C126.091 255.404 128.043 257.116 128.043 259.266Z" fill="white"/>
<path d="M357.358 10.3913L353.256 1.59254L356.681 0L358.991 4.9767L364.726 1.51292L366.677 4.73782L357.358 10.3913Z" fill="#C9EDF9"/>
<path d="M122.268 180.077L113.108 183.341L111.834 179.798L117.011 177.927L114.144 171.955L117.529 170.322L122.268 180.077Z" fill="#FF6E53"/>
<path d="M507.618 34.8767C508.375 37.3451 509.171 39.7738 509.928 42.2422C510.526 44.1533 510.964 47.2587 512.835 48.3735C513.313 48.6522 514.07 48.5328 514.309 47.9754C515.225 45.9449 513.911 43.3172 513.274 41.3265C512.477 38.8979 511.72 36.4294 510.924 34.0008C510.247 31.8907 506.941 32.7666 507.618 34.8767Z" fill="#FFCB83"/>
<path d="M533.545 32.249C529.562 45.7856 529.522 45.3874 529.841 46.7809C530.08 47.8559 531.553 48.1744 532.27 47.4179C533.186 46.4624 532.947 46.7411 536.81 33.1647C537.408 31.0545 534.182 30.1388 533.545 32.249Z" fill="#FFCB83"/>
<path d="M548.719 62.3879C551.069 61.2731 553.379 60.1583 555.728 59.0037C557.799 58.0084 560.507 57.2121 561.901 55.3409C562.538 54.5048 561.662 53.4298 560.786 53.39C558.476 53.3104 556.007 55.102 553.976 56.0575C551.626 57.1723 549.316 58.3269 546.967 59.4417C545.015 60.3972 546.768 63.3036 548.719 62.3879Z" fill="#FFCB83"/>
<path d="M541.032 103.077C543.422 106.183 545.851 109.328 548.559 112.155C550.033 113.668 552.144 111.438 550.829 109.886C548.32 106.86 545.732 103.913 543.302 100.808C542.028 99.1756 539.798 101.485 541.032 103.077Z" fill="#FFCB83"/>
<path d="M549.873 87.2714C552.024 88.2269 554.214 89.1028 556.445 89.9787C558.436 90.775 560.825 92.1685 563.016 91.8499C564.171 91.6907 564.29 90.138 563.653 89.4213C562.856 88.5454 562.418 88.5852 557.639 86.7538C555.489 85.9177 553.338 85.0418 551.188 84.2455C549.395 83.6085 548.161 86.5149 549.873 87.2714Z" fill="#FFCB83"/>
</svg>
