<svg width="512" height="418" viewBox="0 0 512 418" fill="none" xmlns="http://www.w3.org/2000/svg">
<path opacity="0.6" d="M512 403.368C512 411.349 397.41 418 255.917 418C114.59 418 0 411.516 0 403.368C0 395.387 114.59 388.737 256.083 388.737C397.41 388.737 512 395.387 512 403.368Z" fill="#D1E3F1"/>
<path d="M86.3582 403.202H90.8421L74.401 360.471C75.2313 356.481 76.8921 351.16 80.5457 344.842C87.3546 333.037 92.5028 319.07 83.701 320.068C76.2278 320.899 70.9135 336.861 71.2456 352.49L65.267 337.193C64.2706 332.205 62.7759 324.889 63.2742 316.742C64.4367 297.788 61.9456 279.831 52.8116 284.652C43.6777 289.64 48.4938 320.567 62.1117 340.519L65.101 348.5C55.3027 333.702 36.8687 321.897 29.7276 327.051C22.5865 332.205 35.7062 339.022 48.6598 343.345C58.6241 346.504 64.2706 350.994 66.9277 353.488L81.2099 390.732C65.7652 367.454 36.3705 348.666 25.0776 356.813C13.7847 364.96 34.5437 375.768 55.1366 382.585C70.7474 387.739 79.8814 394.556 84.0332 398.547L86.3582 403.202Z" fill="#1C47C1"/>
<path d="M422.655 403.202C423.485 399.378 423.153 394.889 421.326 390.898C416.51 380.423 422.655 376.932 430.46 371.611C438.266 366.291 437.103 355.816 429.132 348.5C421.16 341.184 430.626 332.039 423.817 320.068C417.008 308.096 404.885 319.569 404.387 332.205C404.055 341.184 392.43 341.683 390.769 353.654C389.274 363.963 403.224 370.281 390.271 377.763C386.119 380.091 384.458 384.081 383.96 388.404C383.462 393.891 385.123 399.212 388.444 403.202H422.655Z" fill="#1C47C1"/>
<path d="M404.719 403.202L416.345 336.528C416.511 335.863 416.012 335.364 415.514 335.364C414.85 335.198 414.352 335.697 414.352 336.196L402.561 403.368H404.719V403.202Z" fill="#0036AC"/>
<path d="M455.37 403.202C455.536 402.205 455.536 401.373 455.536 400.376C455.37 385.744 464.171 384.746 475.963 382.585C487.754 380.423 491.739 367.454 486.259 354.984C480.613 342.514 496.389 336.528 494.563 319.07C492.736 301.612 472.641 308.928 465.832 323.393C460.85 333.702 447.066 328.547 438.928 341.516C431.953 352.823 444.907 367.288 426.141 369.283C420.162 369.948 416.177 373.606 413.519 378.428C409.202 386.243 409.202 395.554 413.187 403.202H455.37Z" fill="#0172D0"/>
<path d="M431.788 403.202L477.292 334.201C477.624 333.536 477.458 332.704 476.96 332.372C476.295 332.039 475.465 332.205 475.133 332.704L428.633 403.202H431.788Z" fill="#1C47C1"/>
<path d="M127.212 382.086C123.06 349.664 116.916 315.911 110.107 294.13C101.305 265.531 90.3441 246.577 77.3905 237.765C76.5602 237.266 75.3977 237.432 74.7334 238.263C74.2352 239.095 74.4012 240.259 75.2316 240.924C97.8174 256.22 114.425 305.935 123.559 384.58L127.212 382.086Z" fill="#1C47C1"/>
<path d="M100.143 269.189C100.143 269.189 115.421 266.197 109.111 239.427C109.111 239.427 87.0231 250.734 100.143 269.189Z" fill="#0172D0"/>
<path d="M104.127 282.823C104.127 282.823 101.968 267.36 74.8984 272.182C74.8984 272.182 85.0288 294.961 104.127 282.823Z" fill="#0172D0"/>
<path d="M85.0297 247.242C85.0297 247.242 88.185 231.945 60.9492 227.456C61.1153 227.456 62.9421 252.396 85.0297 247.242Z" fill="#0172D0"/>
<path d="M113.095 310.092C113.095 310.092 128.54 312.419 131.695 285.151C131.529 285.151 106.951 288.144 113.095 310.092Z" fill="#0172D0"/>
<path d="M115.089 324.557C115.089 324.557 115.587 308.928 88.185 309.094C88.0189 309.094 93.9975 333.203 115.089 324.557Z" fill="#0172D0"/>
<path d="M119.738 344.177C119.738 344.177 135.183 346.837 138.67 319.569C138.67 319.569 113.925 322.229 119.738 344.177Z" fill="#0172D0"/>
<path d="M485.595 246.078L485.429 246.244L452.215 309.593L439.427 286.481L282.323 372.941L256.914 326.552L115.421 404.366H60.9492L267.211 290.971L292.62 337.193L426.806 263.37L414.184 240.259L485.595 246.078Z" fill="#FFAC00"/>
<path d="M485.429 246.244L452.215 309.593L439.427 286.481L282.323 372.941L256.914 326.552L115.421 404.366H84.1992L260.734 307.431L286.143 353.654L485.429 246.244Z" fill="#FA8A00"/>
<path d="M192.977 294.795L183.843 301.113C183.843 301.113 183.677 305.27 187.33 309.759L198.125 302.609L192.977 294.795Z" fill="#FDA893"/>
<path d="M188.658 306.434C189.987 308.096 190.651 309.26 189.323 311.422C188.492 312.752 186.001 327.384 186.832 331.873C187.496 336.196 184.174 336.528 182.348 336.362C180.521 336.196 170.889 303.275 170.889 303.275C170.889 303.275 180.023 298.785 183.344 298.785C186.666 298.785 186.832 303.441 188.658 306.434Z" fill="#0172D0"/>
<path d="M263.06 204.511C263.06 204.511 262.063 258.216 256.417 268.691C250.77 279.332 196.133 304.771 196.133 304.771C196.133 304.771 192.313 300.448 191.15 294.296C191.15 294.296 206.595 280.828 212.574 274.676C221.708 265.531 235.159 257.551 235.159 257.551L233.831 196.53L263.06 204.511Z" fill="#001F37"/>
<path d="M192.976 291.469C192.976 291.469 188.991 293.963 187.828 295.127C187.828 295.127 190.983 305.436 196.132 306.6L200.117 304.106C200.284 304.272 194.637 297.289 192.976 291.469Z" fill="#043C62"/>
<path d="M351.74 275.508L357.387 284.985C357.387 284.985 361.538 285.318 366.188 281.992L359.712 270.852L351.74 275.508Z" fill="#FDA893"/>
<path d="M363.365 280.163C364.693 278.5 365.856 277.835 368.181 278.833C369.675 279.498 384.456 279.664 388.774 278.334C393.092 277.004 395.583 281.161 393.922 281.992C385.286 286.814 363.033 298.286 363.033 298.286C363.033 298.286 357.22 289.807 356.722 286.648C356.224 283.322 360.708 282.491 363.365 280.163Z" fill="#0172D0"/>
<path d="M260.235 174.084C260.235 174.084 320.353 197.361 328.159 206.506C335.964 215.651 362.204 272.681 362.204 272.681C362.204 272.681 357.72 280.662 351.575 279.166C351.575 279.166 338.123 259.38 333.473 251.897C328.491 243.917 316.866 234.439 311.219 217.314C311.219 217.314 279.167 216.15 254.589 212.159C238.148 209.499 226.689 197.694 230.674 181.399C230.674 181.399 230.674 181.399 230.674 181.233C231.007 180.236 231.837 179.57 232.833 179.404L260.235 174.084Z" fill="#043C62"/>
<path d="M348.586 276.173C348.586 276.173 350.579 279.664 351.907 280.828C351.907 280.828 359.713 278.667 363.532 272.681L361.54 268.691C361.54 268.857 354.565 273.845 348.586 276.173Z" fill="#005982"/>
<path d="M383.293 64.6786C381.466 64.1798 373.494 69.0016 373.162 69.1679C372.83 69.1679 371.169 68.8353 369.675 68.6691C368.014 68.5028 367.184 69.1679 366.021 71.3294C364.859 73.4909 363.862 77.3151 363.862 77.3151C363.032 77.6476 362.201 77.9801 361.371 78.4789C362.7 80.8067 364.194 83.3007 365.689 85.4622C367.018 84.6309 368.18 83.7996 369.343 83.1345C370.173 83.467 371.003 83.467 371.668 83.3007C373.66 82.8019 375.321 82.1369 376.152 81.6381C376.65 81.4718 376.982 81.3055 376.982 81.3055C377.148 81.3055 378.144 81.6381 379.805 81.1392C381.798 80.4742 383.127 78.9778 382.96 77.9801C382.96 76.9825 381.798 76.4837 381.798 76.4837C381.798 76.4837 382.628 75.6524 382.462 74.6548C382.296 73.6572 380.469 72.6595 380.469 72.6595C380.469 72.6595 381.3 71.4957 380.469 70.498C379.639 69.5004 377.314 70.6643 377.148 70.6643C377.48 70.3318 385.119 65.0112 383.293 64.6786Z" fill="#FDA893"/>
<path d="M368.678 74.9873H368.512C368.346 74.821 368.18 74.6547 368.346 74.3222L369.176 72.4932C369.176 72.327 369.343 72.327 369.509 72.327C369.675 72.327 369.675 72.327 369.841 72.327C369.841 72.327 372 73.4908 373.827 72.992C374.325 72.8258 374.823 72.4932 374.823 72.1607C374.989 71.8281 374.823 71.4956 374.823 71.4956C374.657 71.3293 374.823 70.9968 374.989 70.8305C375.155 70.6643 375.487 70.8305 375.653 70.9968C375.653 70.9968 375.985 71.6619 375.653 72.4932C375.487 72.992 374.823 73.4908 373.993 73.8234C372.332 74.3222 370.505 73.6571 369.841 73.3246L369.176 74.821C369.01 74.821 368.844 74.9873 368.678 74.9873Z" fill="#FD896B"/>
<path d="M376.982 81.3055C376.982 81.3055 376.65 81.4718 375.985 81.638C375.155 80.8067 374.989 79.6428 374.989 78.8115C374.823 77.9801 374.823 77.3151 374.325 76.8162C373.826 76.3174 373.66 75.8186 373.494 75.1536C373.494 74.6547 373.494 74.1559 373.66 73.6571C373.66 73.4909 373.66 73.3246 373.826 73.1583C373.992 72.8258 373.992 72.6595 373.992 72.6595C374.158 72.4933 374.325 72.327 374.657 72.4932C374.823 72.6595 374.989 72.8258 374.823 73.1583C374.823 73.1583 374.823 73.1583 374.823 73.3246C374.657 73.6571 374.491 74.3222 374.491 74.9873C374.491 75.4861 374.657 75.8186 374.989 76.3174C375.653 76.9825 375.819 77.9801 375.819 78.8115C375.985 79.6428 376.151 80.6404 376.982 81.3055Z" fill="#FD896B"/>
<path d="M370.671 78.3127C370.504 78.3127 370.338 78.3127 370.172 78.1464C370.006 77.9801 370.172 77.6476 370.338 77.4813C370.338 77.4813 372.829 75.9849 372.996 73.4909C372.996 73.3246 373.162 72.9921 373.494 72.9921C373.66 72.9921 373.992 73.1583 373.992 73.4909C373.826 76.4837 371.003 78.1464 370.837 78.1464C370.837 78.3127 370.671 78.3127 370.671 78.3127Z" fill="#FD896B"/>
<path d="M366.852 85.296C366.852 85.296 342.107 101.092 334.966 102.422C327.825 103.586 306.07 100.426 306.07 100.426C303.579 100.26 301.42 99.9276 299.427 99.5951C292.784 98.4312 288.964 96.1035 286.639 93.2769C282.82 88.4551 285.145 81.6381 287.303 75.9849C287.303 75.9849 290.791 78.6452 308.062 82.3031C308.062 82.3031 332.641 87.1249 333.97 87.2912C333.97 87.2912 352.57 81.3055 362.7 76.65C362.7 76.9825 365.025 83.9658 366.852 85.296Z" fill="#0172D0"/>
<path d="M362.866 76.1512L359.545 77.6476L364.527 87.6237L367.682 85.9611L362.866 76.1512Z" fill="#0056C5"/>
<path d="M299.426 99.5951C292.783 98.4312 288.963 96.1034 286.638 93.2769C285.144 87.1249 284.313 80.4742 286.638 78.8115C286.638 78.8115 293.779 92.113 299.426 99.5951Z" fill="#1C47C1"/>
<path d="M219.879 188.549L196.131 240.259C195.134 242.254 192.809 243.251 190.817 242.254L106.784 203.679C104.791 202.682 103.795 200.354 104.791 198.359L128.54 146.649C129.536 144.654 131.861 143.656 133.854 144.654L217.886 183.228C220.045 184.226 220.876 186.554 219.879 188.549Z" fill="#001F37"/>
<path d="M207.092 216.648L219.879 188.549C220.876 186.554 219.879 184.06 217.886 183.228L133.854 144.654C131.861 143.656 129.37 144.654 128.54 146.649L115.752 174.582L207.092 216.648Z" fill="#043C62"/>
<path d="M192.643 161.613L188.823 169.761L184.671 167.932L188.325 159.951L184.339 158.122L184.173 157.955L181.682 156.792L181.35 156.625L170.721 151.804L167.068 159.784L162.916 157.955L166.736 149.808C167.732 147.647 170.223 146.649 172.382 147.647L182.346 152.302L183.177 152.635L184.505 153.3L184.838 153.466L190.484 156.127C192.643 156.958 193.639 159.452 192.643 161.613Z" fill="#FFAC00"/>
<path d="M184.173 158.122L181.682 156.958L181.35 156.792C181.516 155.129 182.014 153.466 182.346 152.136L183.176 152.469L184.505 153.134C184.173 155.129 184.173 156.792 184.173 158.122Z" fill="#FA8A00"/>
<path d="M164.315 154.959L162.928 157.98L167.155 159.92L168.542 156.899L164.315 154.959Z" fill="#FA8A00"/>
<path d="M186.054 164.98L184.668 168.002L188.894 169.945L190.28 166.923L186.054 164.98Z" fill="#FA8A00"/>
<path d="M140.497 181.067L136.678 189.214C136.511 189.713 136.013 189.879 135.515 189.713L131.363 187.718C130.865 187.551 130.699 187.053 130.865 186.554L134.685 178.407C134.851 177.908 135.349 177.742 135.847 177.908L139.999 179.903C140.497 180.069 140.829 180.734 140.497 181.067Z" fill="#FA8A00"/>
<path d="M140.497 181.067L138.67 185.224L132.857 182.563L134.684 178.407C134.85 177.908 135.349 177.742 135.847 177.908L139.999 179.903C140.497 180.069 140.829 180.734 140.497 181.067Z" fill="#FFAC00"/>
<path d="M191.814 204.677L187.994 212.824C187.828 213.323 187.33 213.489 186.831 213.323L182.68 211.328C182.181 211.162 182.015 210.663 182.181 210.164L186.001 202.017C186.167 201.518 186.665 201.352 187.164 201.518L191.315 203.513C191.814 203.679 191.98 204.178 191.814 204.677Z" fill="#FA8A00"/>
<path d="M191.813 204.677L189.986 208.834L184.174 206.174L186.001 202.017C186.167 201.518 186.665 201.352 187.163 201.518L191.315 203.513C191.813 203.679 191.979 204.178 191.813 204.677Z" fill="#FFAC00"/>
<path d="M188.491 154.963C187.661 154.63 186.498 154.131 185.834 153.799C185.834 153.632 185.834 153.3 185.668 152.801C185.17 151.97 184.007 152.302 183.841 152.801C183.177 153.632 182.512 155.461 182.346 157.124L183.509 157.789C183.509 157.789 182.346 159.119 181.516 158.953C180.187 158.621 180.354 157.29 180.354 157.29C180.354 157.29 179.689 158.454 178.693 158.122C177.696 157.789 177.696 156.459 177.696 156.459C176.036 157.29 175.371 155.628 175.371 155.628C175.371 155.628 173.711 156.293 173.378 154.796C173.046 153.3 175.205 148.977 175.205 148.977C176.866 144.986 179.357 140.497 181.682 137.671C182.18 136.341 183.011 134.844 183.675 133.348C185.336 134.512 187.162 135.675 188.823 136.839C189.82 137.504 190.816 138.169 191.812 139.001C190.318 140.996 188.989 142.659 188.159 143.823C188.159 144.986 188.325 146.317 188.159 147.314C187.993 148.977 189.321 152.801 188.491 154.963Z" fill="#FDA893"/>
<path d="M231.505 107.576L253.427 98.5975C253.427 98.5975 262.561 82.8019 257.08 72.327C257.08 72.327 234.494 82.8019 222.869 89.2864C222.869 89.2864 205.598 98.5975 199.785 105.082L181.85 135.675C181.85 135.675 187.33 141.827 190.984 141.495C197.626 132.35 206.926 119.381 208.753 115.058L231.505 107.576Z" fill="#0172D0"/>
<path d="M182.513 133.514C181.35 134.345 180.354 135.675 180.021 137.338L189.986 143.823C190.982 142.825 191.979 141.661 192.643 140.165L182.513 133.514Z" fill="#0056C5"/>
<path d="M286.141 169.762C284.979 176.579 286.141 185.058 286.141 185.058C277.173 181.567 263.721 174.75 250.934 180.403C240.637 184.892 230.507 182.398 230.507 182.398C230.507 182.398 229.511 170.759 232.5 158.788C235.489 146.983 238.479 132.019 239.475 126.199C240.305 121.211 241.136 116.556 241.966 112.233C242.464 109.572 242.962 106.912 243.461 104.418C246.284 90.2851 247.612 78.3138 249.771 76.3186C256.082 71.1642 270.53 66.0099 270.53 66.0099L280.329 68.6702C280.329 68.6702 290.791 76.8174 290.625 82.6368C289.629 134.513 288.3 134.845 287.304 150.641C287.304 155.463 287.47 162.612 286.141 169.762Z" fill="#0172D0"/>
<path d="M241.301 160.45C241.135 160.45 240.969 160.45 240.969 160.45C240.637 160.45 240.305 160.117 240.305 159.784C240.305 159.452 240.637 159.119 240.969 159.119C240.969 159.119 240.969 159.119 241.135 159.119C242.63 159.286 254.919 159.951 263.555 156.625C274.682 152.469 281.324 143.823 281.324 143.656C281.491 143.324 281.989 143.324 282.321 143.49C282.653 143.656 282.653 144.155 282.487 144.488C282.155 144.82 275.512 153.633 264.053 157.956C255.417 161.281 243.46 160.616 241.301 160.45Z" fill="#1C47C1"/>
<path d="M272.025 161.281C272.025 160.782 271.527 160.45 271.029 160.782C265.714 163.775 255.916 167.932 245.287 166.269C244.955 166.269 244.623 166.435 244.457 166.768C244.457 167.1 244.623 167.433 244.955 167.599C246.284 167.765 247.612 167.932 248.941 167.932C258.241 168.264 266.711 164.606 271.527 161.946C271.859 161.614 272.025 161.447 272.025 161.281Z" fill="#1C47C1"/>
<path d="M261.231 96.6024C261.231 96.6024 254.09 104.583 242.465 110.403C242.963 107.742 243.627 104.916 244.126 102.422L245.122 102.089L261.231 96.6024Z" fill="#1C47C1"/>
<path d="M285.311 143.656L279.333 161.281L272.025 144.488L277.34 87.125L277.506 84.7972L280.163 84.631L280.329 87.6238L285.311 143.656Z" fill="white"/>
<path d="M280.329 87.6238L279.001 89.1202L277.34 87.125L277.506 84.7972L280.163 84.631L280.329 87.6238Z" fill="#EDEDED"/>
<path d="M282.321 80.4742L279 87.4575L274.018 79.9754L279 73.9897L282.321 80.4742Z" fill="white"/>
<path d="M267.043 74.6548C266.545 72.6596 266.379 70.4981 266.877 68.5029C267.043 68.0041 267.209 67.5053 267.375 67.1727C268.538 65.1775 271.361 66.0089 271.361 66.0089C272.689 71.8283 279 73.9898 279 73.9898L273.022 83.6334C273.022 83.6334 269.036 82.3032 267.043 74.6548Z" fill="#1C47C1"/>
<path d="M282.819 68.6691C282.819 68.6691 286.639 72.1608 285.476 76.4838L283.816 83.6333L279.166 73.9897C279 73.9897 281.657 71.4957 282.819 68.6691Z" fill="#1C47C1"/>
<path d="M285.644 61.5195L283.651 67.6715L282.322 71.6619C282.156 72.327 280.994 73.9897 280.329 73.9897C275.845 73.8234 272.856 71.1631 271.029 68.8353L272.358 59.1917C272.358 59.1917 274.849 58.6929 277.838 58.6929L285.644 61.5195Z" fill="#FDA893"/>
<path d="M285.644 61.5195L283.651 67.6715C278.835 64.8449 277.34 60.0231 277.008 58.6929C277.34 58.6929 277.506 58.6929 277.838 58.6929L285.644 61.5195Z" fill="#FD896B"/>
<path d="M295.44 38.907C295.939 42.0661 296.271 46.2228 296.271 49.3819C296.271 50.2133 296.271 50.8783 296.105 51.7097C296.105 52.0422 296.105 52.541 295.939 53.0398C295.772 53.8712 295.772 54.7025 295.772 55.7001V55.8664C295.606 57.1966 295.606 58.693 295.274 60.0231C295.108 60.6882 294.942 61.187 294.776 61.8521C294.61 62.1846 294.61 62.5172 294.444 62.8497C292.783 67.0064 291.455 70.1655 281.158 63.3485C276.342 60.1894 271.028 61.187 268.869 55.3676C268.869 55.3676 268.869 55.3676 268.869 55.2013C267.374 51.2109 266.378 47.0542 265.879 44.2276C265.381 41.2347 266.544 38.0756 268.869 36.0804C275.179 30.7598 282.985 30.7598 288.299 31.7574C292.119 32.2562 294.942 35.0828 295.44 38.907Z" fill="#FDA893"/>
<path d="M294.943 61.6858C294.776 62.0184 294.776 62.3509 294.61 62.6834C294.444 62.6834 294.278 62.6834 294.112 62.6834C292.95 62.5172 291.953 61.8521 291.953 61.8521C291.787 61.6858 291.787 61.3533 291.787 61.187C291.953 61.0207 292.285 61.0208 292.451 61.0208C292.451 61.0208 293.282 61.5196 294.112 61.6858C294.444 61.6858 294.61 61.6858 294.943 61.6858Z" fill="#FD896B"/>
<path d="M276.674 53.0399C276.674 53.0399 278.667 52.541 279.664 50.8784C279.664 50.8784 279.331 55.5339 275.512 55.5339L276.674 53.0399Z" fill="#FD896B"/>
<path d="M297.268 32.2562C300.257 28.9308 300.257 23.6102 295.607 22.7789C287.636 21.4487 283.152 19.9523 278.502 19.786C273.686 19.6198 271.361 25.1067 266.379 26.4368C261.396 27.767 258.407 36.4129 259.902 41.2347C260.068 41.8998 260.4 42.5649 260.566 43.23C262.725 49.5482 266.046 55.3676 270.032 60.6882C270.198 60.8545 270.364 61.0207 270.53 61.3533C270.862 61.6858 273.187 62.3509 275.679 58.3604C277.671 55.035 277.505 52.541 277.505 52.541C272.855 51.8759 269.202 46.0565 271.361 43.0637C271.361 43.0637 272.357 41.8998 273.52 41.8998C276.343 41.5673 278.502 43.23 279.166 45.0589C279.664 46.8879 280.162 48.0518 280.162 48.0518L282.82 48.218C282.82 48.218 281.491 43.7288 281.491 42.0661C281.491 40.4034 283.816 41.0685 283.484 37.9094C282.986 34.7502 280.329 34.4177 281.491 33.2538C282.654 32.0899 290.459 33.0876 292.784 34.2514C294.943 35.7479 297.268 32.2562 297.268 32.2562Z" fill="#20363C"/>
<path d="M277.672 48.7168C277.506 48.7168 277.339 48.7168 277.173 48.5506C276.011 46.2228 273.188 45.5577 273.188 45.5577C273.022 45.5577 272.855 45.3915 272.855 45.0589C272.855 44.8926 273.022 44.7264 273.354 44.7264C273.52 44.7264 276.675 45.3915 278.004 48.0518C278.004 48.3843 277.838 48.5506 277.672 48.7168Z" fill="#FD896B"/>
<path d="M274.682 47.8855H274.516C274.35 47.8855 274.184 47.5529 274.35 47.3866C274.35 47.3866 274.682 46.5553 275.513 45.8902C275.679 45.724 276.011 45.8902 276.011 46.0565C276.177 46.2228 276.011 46.5553 275.845 46.5553C275.18 47.0541 274.848 47.7192 274.848 47.7192C275.014 47.7192 274.848 47.8855 274.682 47.8855Z" fill="#FD896B"/>
<path d="M293.448 44.3939C293.614 45.2252 293.282 46.0566 292.784 46.2228C292.286 46.3891 291.621 45.724 291.455 44.8927C291.289 44.0613 291.621 43.23 292.12 43.0637C292.618 42.8975 293.282 43.3963 293.448 44.3939Z" fill="#20363C"/>
<path d="M286.971 40.5697C286.971 40.5697 290.791 38.0756 294.279 38.907V40.7359C294.279 40.7359 289.462 41.2347 287.304 42.7312C286.971 42.0661 286.805 41.401 286.971 40.5697Z" fill="#20363C"/>
<path d="M295.774 43.895C295.774 43.895 298.597 49.0494 298.763 51.3771C298.929 52.7073 295.275 53.7049 295.275 53.7049L295.774 43.895Z" fill="#FDA893"/>
<path d="M295.773 55.5339C295.773 55.7001 295.773 55.7001 295.773 55.5339C295.607 57.0303 295.607 58.5267 295.275 59.8569C295.109 59.8569 295.109 59.8569 294.943 59.8569C291.622 60.0231 290.459 57.1966 290.127 55.7001L295.773 55.5339Z" fill="white"/>
<path d="M369.012 141.329C365.524 141.329 362.535 138.502 362.535 134.844C362.535 131.352 365.358 128.36 369.012 128.36C372.666 128.36 375.489 131.186 375.489 134.844C375.489 138.502 372.499 141.329 369.012 141.329ZM369.012 130.521C366.521 130.521 364.528 132.516 364.528 135.01C364.528 137.504 366.521 139.5 369.012 139.5C371.503 139.5 373.496 137.504 373.496 135.01C373.33 132.516 371.337 130.521 369.012 130.521Z" fill="#0172D0"/>
<path d="M392.262 164.107C388.774 164.107 385.785 161.281 385.785 157.623C385.785 154.131 388.608 151.138 392.262 151.138C395.916 151.138 398.739 153.965 398.739 157.623C398.739 161.115 395.75 164.107 392.262 164.107ZM392.262 153.134C389.771 153.134 387.778 155.129 387.778 157.623C387.778 160.117 389.771 162.112 392.262 162.112C394.753 162.112 396.746 160.117 396.746 157.623C396.746 155.129 394.587 153.134 392.262 153.134Z" fill="#FFAC00"/>
<path d="M400.233 185.057C399.735 185.057 399.236 184.558 399.236 184.06V179.57C399.236 179.072 399.735 178.573 400.233 178.573C400.731 178.573 401.229 179.072 401.229 179.57V184.06C401.229 184.558 400.731 185.057 400.233 185.057Z" fill="#0172D0"/>
<path d="M400.233 192.872C399.735 192.872 399.236 192.373 399.236 191.874V187.385C399.236 186.886 399.735 186.387 400.233 186.387C400.731 186.387 401.229 186.886 401.229 187.385V191.874C401.229 192.373 400.731 192.872 400.233 192.872Z" fill="#0172D0"/>
<path d="M406.379 186.72H402.393C401.895 186.72 401.396 186.221 401.396 185.722C401.396 185.223 401.895 184.725 402.393 184.725H406.379C406.877 184.725 407.375 185.223 407.375 185.722C407.375 186.221 407.043 186.72 406.379 186.72Z" fill="#0172D0"/>
<path d="M397.908 186.72H393.922C393.424 186.72 392.926 186.221 392.926 185.722C392.926 185.223 393.424 184.725 393.922 184.725H397.908C398.406 184.725 398.904 185.223 398.904 185.722C398.904 186.221 398.406 186.72 397.908 186.72Z" fill="#0172D0"/>
<path d="M364.528 159.951C364.029 159.951 363.531 159.452 363.531 158.953V154.464C363.531 153.965 364.029 153.466 364.528 153.466C365.026 153.466 365.524 153.965 365.524 154.464V158.953C365.524 159.618 365.026 159.951 364.528 159.951Z" fill="#FFAC00"/>
<path d="M364.528 167.765C364.029 167.765 363.531 167.266 363.531 166.768V162.278C363.531 161.78 364.029 161.281 364.528 161.281C365.026 161.281 365.524 161.78 365.524 162.278V166.768C365.524 167.433 365.026 167.765 364.528 167.765Z" fill="#FFAC00"/>
<path d="M370.838 161.613H366.852C366.354 161.613 365.855 161.115 365.855 160.616C365.855 160.117 366.354 159.618 366.852 159.618H370.838C371.336 159.618 371.834 160.117 371.834 160.616C371.834 161.281 371.336 161.613 370.838 161.613Z" fill="#FFAC00"/>
<path d="M362.369 161.613H358.383C357.885 161.613 357.387 161.115 357.387 160.616C357.387 160.117 357.885 159.618 358.383 159.618H362.369C362.867 159.618 363.365 160.117 363.365 160.616C363.365 161.281 362.867 161.613 362.369 161.613Z" fill="#FFAC00"/>
<path d="M130.201 49.7144C126.714 49.7144 123.725 46.8878 123.725 43.2299C123.725 39.572 126.548 36.7454 130.201 36.7454C133.855 36.7454 136.678 39.572 136.678 43.2299C136.678 46.8878 133.855 49.7144 130.201 49.7144ZM130.201 47.7192C132.693 47.7192 134.685 45.7239 134.685 43.2299C134.685 40.7359 132.693 38.7406 130.201 38.7406C127.71 38.7406 125.717 40.7359 125.717 43.2299C125.884 45.7239 127.876 47.7192 130.201 47.7192Z" fill="#0172D0"/>
<path d="M153.783 70.9969C150.296 70.9969 147.307 68.1703 147.307 64.5124C147.307 61.0207 150.13 58.0279 153.783 58.0279C157.271 58.0279 160.26 60.8545 160.26 64.5124C160.26 68.1703 157.271 70.9969 153.783 70.9969ZM153.783 69.0016C156.275 69.0016 158.267 67.0064 158.267 64.5124C158.267 62.0183 156.275 60.0231 153.783 60.0231C151.292 60.0231 149.3 62.0183 149.3 64.5124C149.3 67.0064 151.292 69.0016 153.783 69.0016Z" fill="#FFAC00"/>
<path d="M162.252 34.0851C162.252 33.5863 161.754 33.0875 161.256 33.0875H156.772C156.274 33.0875 155.775 33.5863 155.775 34.0851C155.775 34.5839 156.274 35.0828 156.772 35.0828H161.256C161.92 35.0828 162.252 34.5839 162.252 34.0851Z" fill="#0172D0"/>
<path d="M170.057 34.0851C170.057 33.5863 169.559 33.0875 169.06 33.0875H164.577C164.078 33.0875 163.58 33.5863 163.58 34.0851C163.58 34.5839 164.078 35.0828 164.577 35.0828H169.06C169.725 35.0828 170.057 34.5839 170.057 34.0851Z" fill="#0172D0"/>
<path d="M163.913 40.4033V36.4128C163.913 35.914 163.415 35.4152 162.916 35.4152C162.418 35.4152 161.92 35.914 161.92 36.4128V40.4033C161.92 40.9021 162.418 41.4009 162.916 41.4009C163.415 41.4009 163.913 40.9021 163.913 40.4033Z" fill="#0172D0"/>
<path d="M163.913 31.7574V27.7669C163.913 27.2681 163.415 26.7693 162.916 26.7693C162.418 26.7693 161.92 27.2681 161.92 27.7669V31.7574C161.92 32.2562 162.418 32.755 162.916 32.755C163.415 32.755 163.913 32.4224 163.913 31.7574Z" fill="#0172D0"/>
<path d="M115.088 69.0016C115.088 68.5028 114.59 68.004 114.092 68.004H109.608C109.11 68.004 108.611 68.5028 108.611 69.0016C108.611 69.5004 109.11 69.9992 109.608 69.9992H114.092C114.59 69.9992 115.088 69.5004 115.088 69.0016Z" fill="#FFAC00"/>
<path d="M122.893 69.0016C122.893 68.5028 122.395 68.004 121.896 68.004H117.412C116.914 68.004 116.416 68.5028 116.416 69.0016C116.416 69.5004 116.914 69.9992 117.412 69.9992H121.896C122.395 69.9992 122.893 69.5004 122.893 69.0016Z" fill="#FFAC00"/>
<path d="M116.749 75.3198V71.3293C116.749 70.8305 116.251 70.3317 115.752 70.3317C115.254 70.3317 114.756 70.8305 114.756 71.3293V75.3198C114.756 75.8186 115.254 76.3174 115.752 76.3174C116.251 76.3174 116.749 75.8186 116.749 75.3198Z" fill="#FFAC00"/>
<path d="M116.749 66.6739V62.6834C116.749 62.1846 116.251 61.6858 115.752 61.6858C115.254 61.6858 114.756 62.1846 114.756 62.6834V66.6739C114.756 67.1727 115.254 67.6715 115.752 67.6715C116.251 67.8377 116.749 67.3389 116.749 66.6739Z" fill="#FFAC00"/>
<path d="M356.389 36.9117H343.27C336.793 36.9117 331.312 31.5911 331.312 24.9403V11.9714C331.312 5.48687 336.627 0 343.27 0H356.389C362.866 0 368.347 5.3206 368.347 11.9714V25.1066C368.181 31.5911 362.866 36.9117 356.389 36.9117Z" fill="#FFAC00"/>
<path d="M337.955 14.1329C337.955 10.8075 340.114 8.97852 342.937 8.97852C345.76 8.97852 347.919 10.8075 347.919 14.1329C347.919 17.4582 345.76 19.2872 342.937 19.2872C340.114 19.2872 337.955 17.4582 337.955 14.1329ZM353.898 9.14478H358.382L345.594 27.9332H341.11L353.898 9.14478ZM344.1 14.1329C344.1 12.3039 343.435 11.8051 342.937 11.8051C342.273 11.8051 341.775 12.3039 341.775 14.1329C341.775 15.9618 342.439 16.4606 342.937 16.4606C343.435 16.4606 344.1 15.7955 344.1 14.1329ZM351.573 22.9451C351.573 19.6197 353.732 17.7908 356.555 17.7908C359.378 17.7908 361.537 19.6197 361.537 22.9451C361.537 26.2705 359.378 28.0994 356.555 28.0994C353.732 28.0994 351.573 26.2705 351.573 22.9451ZM357.718 22.9451C357.718 21.1161 357.053 20.6173 356.555 20.6173C355.891 20.6173 355.393 21.1161 355.393 22.9451C355.393 24.7741 356.057 25.2729 356.555 25.2729C357.219 25.2729 357.718 24.7741 357.718 22.9451Z" fill="white"/>
<path d="M77.7214 189.38H64.6017C58.1249 189.38 52.6445 184.06 52.6445 177.409V164.274C52.6445 157.789 57.9588 152.302 64.6017 152.302H77.7214C84.1982 152.302 89.6786 157.623 89.6786 164.274V177.409C89.5125 184.06 84.1982 189.38 77.7214 189.38Z" fill="#FFAC00"/>
<path d="M73.2379 180.069V182.896H69.5843V180.236C67.0932 180.069 64.6021 179.404 62.9414 178.407L64.9343 173.917C66.595 174.915 68.92 175.58 70.9129 175.58C72.5736 175.58 73.2379 175.247 73.2379 174.582C73.2379 172.255 63.2735 174.084 63.2735 167.433C63.2735 164.606 65.4325 162.112 69.5843 161.447V158.621H73.2379V161.281C75.0647 161.447 76.8914 161.946 78.3861 162.777L76.5593 167.1C74.7325 166.269 73.0718 165.77 71.5771 165.77C69.7504 165.77 69.2521 166.269 69.2521 166.934C69.2521 169.096 79.2165 167.267 79.2165 173.917C79.2165 176.91 77.2236 179.404 73.2379 180.069Z" fill="white"/>
</svg>
