<svg width="575" height="575" viewBox="0 0 575 575" fill="none" xmlns="http://www.w3.org/2000/svg">
<g clip-path="url(#clip0)">
<path d="M574.527 439.398H0V439.686H574.527V439.398Z" fill="#EBEBEB"/>
<path d="M516.96 457.887H478.903V458.174H516.96V457.887Z" fill="#EBEBEB"/>
<path d="M380.59 461.012H370.604V461.299H380.59V461.012Z" fill="#EBEBEB"/>
<path d="M477.754 447.224H455.703V447.511H477.754V447.224Z" fill="#EBEBEB"/>
<path d="M109.907 449.154H60.2793V449.442H109.907V449.154Z" fill="#EBEBEB"/>
<path d="M127.418 449.154H120.145V449.442H127.418V449.154Z" fill="#EBEBEB"/>
<path d="M258.71 454.003H151.066V454.291H258.71V454.003Z" fill="#EBEBEB"/>
<path d="M272.326 388.151H50.4549C48.7168 388.148 47.0509 387.455 45.8229 386.225C44.595 384.995 43.9053 383.328 43.9053 381.59V69.7019C43.9204 67.9737 44.6168 66.3213 45.8431 65.1036C47.0694 63.8859 48.7267 63.2012 50.4549 63.1982H272.326C274.066 63.1982 275.735 63.8895 276.965 65.1199C278.196 66.3504 278.887 68.0192 278.887 69.7593V381.59C278.887 383.33 278.196 384.999 276.965 386.229C275.735 387.46 274.066 388.151 272.326 388.151ZM50.4549 63.4281C48.793 63.4311 47.2001 64.0934 46.026 65.2697C44.852 66.4459 44.1925 68.04 44.1925 69.7019V381.59C44.1925 383.252 44.852 384.846 46.026 386.022C47.2001 387.198 48.793 387.861 50.4549 387.864H272.326C273.989 387.861 275.583 387.199 276.759 386.023C277.935 384.847 278.597 383.253 278.6 381.59V69.7019C278.597 68.0389 277.935 66.4449 276.759 65.269C275.583 64.0931 273.989 63.4311 272.326 63.4281H50.4549Z" fill="#EBEBEB"/>
<path d="M520.878 388.151H298.996C297.256 388.148 295.589 387.456 294.36 386.226C293.13 384.996 292.438 383.329 292.435 381.59V69.7019C292.453 67.9727 293.152 66.3203 294.38 65.1029C295.608 63.8855 297.266 63.2012 298.996 63.1982H520.878C522.604 63.2042 524.259 63.8903 525.482 65.1077C526.706 66.3251 527.401 67.9757 527.416 69.7019V381.59C527.416 383.326 526.728 384.991 525.503 386.221C524.277 387.451 522.614 388.145 520.878 388.151ZM298.996 63.4281C297.333 63.4311 295.739 64.0931 294.563 65.269C293.387 66.4449 292.725 68.0389 292.722 69.7019V381.59C292.725 383.253 293.387 384.847 294.563 386.023C295.739 387.199 297.333 387.861 298.996 387.864H520.878C522.541 387.861 524.135 387.199 525.311 386.023C526.487 384.847 527.149 383.253 527.152 381.59V69.7019C527.149 68.0389 526.487 66.4449 525.311 65.269C524.135 64.0931 522.541 63.4311 520.878 63.4281H298.996Z" fill="#EBEBEB"/>
<path d="M171.703 228.076H163.97V439.686H171.703V228.076Z" fill="#F5F5F5"/>
<path d="M202.279 254.941H194.546V439.686H202.279V254.941Z" fill="#F5F5F5"/>
<path d="M232.569 281.806H224.836V439.686H232.569V281.806Z" fill="#F5F5F5"/>
<path d="M262.87 263.892H255.137V439.686H262.87V263.892Z" fill="#F5F5F5"/>
<path d="M293.17 254.941H285.437V439.686H293.17V254.941Z" fill="#F5F5F5"/>
<path d="M323.459 237.027H315.726V439.686H323.459V237.027Z" fill="#F5F5F5"/>
<path d="M353.76 245.99H346.026V439.686H353.76V245.99Z" fill="#F5F5F5"/>
<path d="M384.059 237.027H376.326V439.686H384.059V237.027Z" fill="#F5F5F5"/>
<path d="M414.349 219.113H406.616V439.674H414.349V219.113Z" fill="#F5F5F5"/>
<path d="M444.649 201.211H436.916V439.686H444.649V201.211Z" fill="#F5F5F5"/>
<path d="M474.939 183.297H467.206V439.686H474.939V183.297Z" fill="#F5F5F5"/>
<path d="M228.662 269.224C228.231 269.207 227.822 269.031 227.513 268.73L162.775 205.612C162.447 205.292 162.26 204.855 162.255 204.397C162.25 203.939 162.426 203.498 162.746 203.17C163.066 202.843 163.503 202.656 163.961 202.65C164.419 202.645 164.86 202.822 165.188 203.142L228.88 265.248L318.587 199.752C318.934 199.504 319.36 199.393 319.784 199.44C320.208 199.486 320.6 199.687 320.885 200.005L350.255 233.258L471.825 163.603C472.022 163.49 472.239 163.418 472.464 163.389C472.689 163.361 472.917 163.377 473.136 163.437C473.355 163.496 473.559 163.599 473.739 163.737C473.918 163.876 474.068 164.049 474.18 164.246C474.293 164.443 474.365 164.66 474.394 164.885C474.422 165.11 474.406 165.338 474.346 165.557C474.287 165.776 474.184 165.981 474.046 166.16C473.907 166.339 473.734 166.489 473.537 166.602L350.749 236.97C350.404 237.165 350.003 237.236 349.612 237.171C349.221 237.106 348.864 236.909 348.6 236.614L319.345 203.521L229.719 268.891C229.413 269.115 229.041 269.232 228.662 269.224Z" fill="#F0F0F0"/>
<path d="M221.366 438.365L164.867 215.552L167.694 204.417H164.752V140.783H157.168V204.417H154.227L157.053 215.552L100.543 438.365H108.368L157.168 245.921V439.537H164.752V245.921L213.552 438.365H221.366Z" fill="#E0E0E0"/>
<path d="M203.53 213.338C209.08 189.824 194.517 166.264 171.004 160.715C147.49 155.165 123.93 169.727 118.381 193.241C112.831 216.754 127.393 240.314 150.907 245.864C174.42 251.414 197.98 236.851 203.53 213.338Z" fill="#E6E6E6"/>
<path d="M160.96 240.647C181.584 240.647 198.304 223.927 198.304 203.302C198.304 182.678 181.584 165.958 160.96 165.958C140.335 165.958 123.615 182.678 123.615 203.302C123.615 223.927 140.335 240.647 160.96 240.647Z" fill="#F5F5F5"/>
<path d="M160.959 232.535C177.104 232.535 190.191 219.447 190.191 203.303C190.191 187.158 177.104 174.071 160.959 174.071C144.815 174.071 131.728 187.158 131.728 203.303C131.728 219.447 144.815 232.535 160.959 232.535Z" fill="#E6E6E6"/>
<path d="M170.134 225.432C182.358 220.368 188.163 206.353 183.1 194.129C178.036 181.905 164.022 176.1 151.797 181.163C139.573 186.227 133.768 200.241 138.831 212.466C143.895 224.69 157.909 230.495 170.134 225.432Z" fill="#F5F5F5"/>
<path d="M177.138 207.109C179.247 198.172 173.712 189.217 164.775 187.107C155.838 184.998 146.883 190.533 144.773 199.47C142.664 208.407 148.199 217.362 157.136 219.472C166.073 221.581 175.028 216.046 177.138 207.109Z" fill="#E6E6E6"/>
<path d="M165.535 214.328C171.626 211.804 174.519 204.821 171.996 198.729C169.472 192.637 162.489 189.744 156.397 192.268C150.305 194.791 147.413 201.775 149.936 207.866C152.459 213.958 159.443 216.851 165.535 214.328Z" fill="#F5F5F5"/>
<path d="M166.371 203.302C166.371 204.376 166.053 205.425 165.457 206.317C164.86 207.209 164.012 207.904 163.021 208.314C162.029 208.724 160.938 208.831 159.886 208.621C158.833 208.411 157.867 207.893 157.109 207.133C156.351 206.374 155.835 205.406 155.627 204.353C155.419 203.301 155.528 202.21 155.941 201.219C156.353 200.228 157.05 199.382 157.943 198.787C158.837 198.193 159.886 197.877 160.959 197.879C161.671 197.879 162.376 198.019 163.033 198.292C163.691 198.565 164.288 198.964 164.79 199.468C165.293 199.972 165.691 200.57 165.963 201.228C166.234 201.886 166.373 202.591 166.371 203.302Z" fill="#E6E6E6"/>
<path d="M104.817 167.222L106.001 175.127L97.7734 177.896L106.001 182.217L114.205 179.333L112.769 171.542L104.817 167.222Z" fill="#E6E6E6"/>
<path d="M160.959 204.451C160.776 204.449 160.595 204.406 160.431 204.325L101.565 174.151C101.303 174.007 101.107 173.767 101.019 173.481C100.932 173.195 100.959 172.887 101.095 172.621C101.231 172.355 101.465 172.152 101.748 172.056C102.031 171.96 102.34 171.977 102.61 172.106L161.476 202.234C161.747 202.372 161.952 202.611 162.047 202.899C162.142 203.188 162.118 203.502 161.982 203.773C161.893 203.972 161.75 204.14 161.569 204.26C161.388 204.38 161.176 204.447 160.959 204.451Z" fill="#E0E0E0"/>
<path d="M241.968 154.157C241.962 152.576 242.328 151.016 243.035 149.602C243.743 148.188 244.772 146.96 246.041 146.017C247.31 145.073 248.782 144.441 250.34 144.17C251.898 143.9 253.497 143.999 255.01 144.459C254.56 141.411 254.774 138.301 255.635 135.342C256.496 132.383 257.985 129.644 260 127.313C262.016 124.981 264.51 123.112 267.313 121.831C270.116 120.551 273.162 119.889 276.244 119.893C277.566 119.892 278.886 120.015 280.185 120.26C282.3 116.785 285.488 114.092 289.267 112.587C293.046 111.081 297.213 110.846 301.138 111.916C305.063 112.986 308.533 115.304 311.026 118.519C313.518 121.734 314.898 125.672 314.956 129.74H315.278C319.861 129.74 324.257 131.561 327.498 134.802C330.739 138.043 332.559 142.438 332.559 147.022C332.559 151.605 330.739 156.001 327.498 159.242C324.257 162.483 319.861 164.304 315.278 164.304H251.804C249.165 164.229 246.66 163.126 244.823 161.231C242.985 159.335 241.961 156.797 241.968 154.157Z" fill="#F0F0F0"/>
<path d="M422.242 148.596C422.242 147.301 422.757 146.059 423.673 145.143C424.589 144.227 425.831 143.713 427.126 143.713C427.6 143.717 428.072 143.786 428.528 143.919C428.455 143.425 428.416 142.926 428.413 142.426C428.412 140.906 428.746 139.404 429.392 138.028C430.038 136.652 430.979 135.435 432.149 134.464C433.318 133.493 434.687 132.792 436.159 132.41C437.63 132.029 439.168 131.976 440.662 132.257C441.685 130.586 443.224 129.292 445.046 128.572C446.869 127.851 448.876 127.741 450.765 128.26C452.655 128.778 454.325 129.896 455.525 131.446C456.724 132.996 457.387 134.893 457.415 136.853H457.564C459.774 136.853 461.893 137.73 463.455 139.293C465.017 140.855 465.895 142.974 465.895 145.183C465.895 147.393 465.017 149.512 463.455 151.074C461.893 152.636 459.774 153.514 457.564 153.514H426.988C425.71 153.481 424.496 152.947 423.608 152.027C422.72 151.107 422.23 149.875 422.242 148.596Z" fill="#F0F0F0"/>
<path d="M108.839 154.674C108.839 154.243 108.924 153.817 109.089 153.419C109.255 153.02 109.497 152.659 109.802 152.355C110.107 152.05 110.47 151.809 110.868 151.646C111.267 151.482 111.694 151.398 112.125 151.4C112.444 151.399 112.762 151.445 113.067 151.538C113.017 151.203 112.99 150.865 112.987 150.526C113.002 148.702 113.733 146.958 115.023 145.668C116.313 144.378 118.057 143.647 119.881 143.632C120.313 143.634 120.744 143.676 121.168 143.758C121.85 142.629 122.882 141.752 124.107 141.261C125.332 140.771 126.684 140.693 127.957 141.04C129.23 141.387 130.356 142.14 131.163 143.184C131.97 144.228 132.414 145.507 132.429 146.826H132.532C133.974 146.892 135.335 147.51 136.332 148.554C137.33 149.597 137.886 150.985 137.886 152.428C137.886 153.871 137.33 155.259 136.332 156.302C135.335 157.346 133.974 157.964 132.532 158.03H112.033C111.603 158.019 111.179 157.924 110.786 157.75C110.393 157.576 110.038 157.325 109.741 157.014C109.444 156.702 109.212 156.335 109.057 155.934C108.902 155.532 108.828 155.105 108.839 154.674Z" fill="#F0F0F0"/>
<path d="M287.264 491.29C410.307 491.29 510.054 485.466 510.054 478.283C510.054 471.099 410.307 465.275 287.264 465.275C164.22 465.275 64.4736 471.099 64.4736 478.283C64.4736 485.466 164.22 491.29 287.264 491.29Z" fill="#F5F5F5"/>
<path d="M159.007 259.18L166.889 254.676C166.889 254.676 169.923 249.999 170.831 249.781C171.738 249.563 181.735 249.781 181.735 249.781C181.735 249.781 180.23 256.262 180.069 257.537C179.908 258.813 170.371 257.537 170.371 257.537L162.649 262.133L159.007 259.18Z" fill="#EBB376"/>
<path d="M85.5938 468.814L77.3436 467.17C77.1963 467.17 77.0532 467.219 76.9382 467.311C76.8232 467.403 76.7432 467.532 76.7117 467.676L74.494 475.926C74.4473 476.208 74.5073 476.497 74.6624 476.738C74.8175 476.978 75.0565 477.151 75.3328 477.225H75.5741C78.4927 477.225 80.6184 476.995 84.2724 476.995C86.5705 476.995 93.327 477.236 96.4409 477.236C99.5549 477.236 99.9685 474.157 98.739 473.881C92.9938 472.628 88.7193 470.905 86.8923 469.285C86.5384 468.963 86.0718 468.793 85.5938 468.814Z" fill="#263238"/>
<path d="M186.56 468.538H177.552C177.404 468.535 177.259 468.584 177.144 468.677C177.029 468.769 176.949 468.899 176.92 469.044L175.449 475.708C175.406 475.99 175.469 476.278 175.626 476.516C175.783 476.754 176.023 476.924 176.299 476.995H176.54C179.459 476.938 181.573 476.766 185.239 476.766C187.537 476.766 194.293 476.995 197.407 476.995C200.521 476.995 200.923 473.927 199.648 473.64C193.903 472.399 189.628 470.664 187.801 469.044C187.639 468.88 187.445 468.751 187.232 468.665C187.019 468.578 186.79 468.535 186.56 468.538Z" fill="#263238"/>
<path d="M101.496 316.76L139.644 307.084C148.297 325.975 180.045 403.536 187.744 468.067L174.828 471.342C174.828 471.342 151.962 376.177 132.784 348.393C132.784 348.393 131.762 390.632 129.682 396.78C127.97 401.835 88.7067 469.48 88.7067 469.48L75.9521 468.044C75.9521 468.044 108.011 399.009 109.895 390.402C111.228 384.542 105.391 341.499 105.391 341.499C104.368 337.661 102.829 321.769 102.829 321.769C102.829 321.769 101.679 317.552 101.496 316.76Z" fill="#4F52FF"/>
<path opacity="0.2" d="M132.796 348.416C136.034 353.313 138.858 358.471 141.242 363.836C138.599 348.967 130.406 334.57 130.406 334.57L132.796 348.416Z" fill="black"/>
<path opacity="0.3" d="M101.496 316.76L139.644 307.084C148.297 325.975 180.045 403.536 187.744 468.067L174.828 471.342C174.828 471.342 151.962 376.177 132.784 348.393C132.784 348.393 131.762 390.632 129.682 396.78C127.97 401.835 88.7067 469.48 88.7067 469.48L75.9521 468.044C75.9521 468.044 108.011 399.009 109.895 390.402C111.228 384.542 105.391 341.499 105.391 341.499C104.368 337.661 102.829 321.769 102.829 321.769C102.829 321.769 101.679 317.552 101.496 316.76Z" fill="black"/>
<path d="M167.82 259.835C167.82 259.835 150.423 271.579 145.838 272.199C144.011 272.452 140.242 271.831 136.347 271.05C130.441 269.786 124.282 268.017 124.282 268.017L123.512 262.191L122.696 255.963C124.075 255.503 142.069 262.857 144.758 264.006C147.447 265.155 164.832 254.814 164.832 254.814L167.82 259.835Z" fill="#263238"/>
<path d="M114.021 314.071L115.147 318.483L102.829 321.769L101.68 317.196L114.021 314.071Z" fill="black"/>
<path d="M133.451 309.142L134.519 313.324L116.514 318.127L115.388 313.726L133.451 309.142Z" fill="black"/>
<path d="M141.609 311.44L135.875 312.968L134.818 308.797L140.081 307.464L141.609 311.44Z" fill="black"/>
<path d="M123.656 316.224L130.762 314.422L129.462 309.299L122.356 311.101L123.656 316.224Z" fill="white"/>
<path d="M140.069 307.452L101.668 317.196C99.7949 312.129 97.8875 307.027 96.026 302.052C94.6586 298.409 93.3142 294.835 92.0043 291.377C91.6749 290.488 91.3417 289.615 91.0046 288.757L89.8556 285.7C89.0053 283.464 88.1856 281.307 87.3966 279.231L85.2823 273.704L84.2827 271.085L82.3867 266.144L122.707 255.917C136.002 279.116 140.069 307.452 140.069 307.452Z" fill="#263238"/>
<path d="M97.0263 265.156C101.174 267.143 108.827 263.639 108.827 263.639C108.827 263.639 111.366 260.835 109.85 259.594C106.77 259.996 106.966 258.985 105.851 257.411C105.214 256.417 104.777 255.309 104.564 254.148C104.426 253.506 104.323 252.858 104.254 252.206L92.1543 247.862C94.9005 252.298 99.1635 260.697 97.0263 265.156Z" fill="#EBB376"/>
<path opacity="0.2" d="M95.8311 251.827C98.0143 257.629 103.369 257.802 105.851 257.411C105.213 256.417 104.776 255.309 104.564 254.148L95.8311 251.827Z" fill="black"/>
<path d="M111.596 229.811C111.596 229.811 114.755 239.348 110.194 244.002C105.632 248.656 102.541 230.42 102.541 230.42L111.596 229.811Z" fill="#263238"/>
<path d="M96.4285 254.389C97.7935 255.813 99.5878 256.751 101.537 257.058C103.485 257.365 105.481 257.025 107.218 256.09C109.495 254.913 111.238 252.911 112.09 250.494C112.205 250.172 112.308 249.827 112.4 249.482C113.94 243.059 112.975 232.454 105.977 229.604C104.435 228.968 102.755 228.737 101.099 228.934C99.4421 229.13 97.8633 229.747 96.5124 230.726C95.1615 231.705 94.0835 233.013 93.381 234.526C92.6785 236.039 92.3748 237.707 92.4987 239.371C92.9124 246.529 92.8205 250.735 96.4285 254.389Z" fill="#EBB376"/>
<path d="M103.334 241.404C103.334 241.979 103.633 242.45 104.023 242.45C104.414 242.45 104.701 241.979 104.713 241.404C104.724 240.83 104.403 240.347 104.023 240.347C103.644 240.347 103.334 240.818 103.334 241.404Z" fill="#263238"/>
<path d="M109.907 241.405C109.907 241.991 110.217 242.462 110.597 242.462C110.976 242.462 111.275 241.979 111.286 241.405C111.298 240.83 110.964 240.359 110.597 240.359C110.229 240.359 109.907 240.853 109.907 241.405Z" fill="#263238"/>
<path d="M107.816 241.692C108.503 243.471 109.435 245.146 110.585 246.667C110.186 246.953 109.729 247.148 109.247 247.237C108.764 247.326 108.268 247.308 107.793 247.184L107.816 241.692Z" fill="#D58745"/>
<path d="M112.308 238.716C112.253 238.744 112.192 238.759 112.13 238.759C112.068 238.759 112.007 238.744 111.952 238.716C111.612 238.454 111.215 238.277 110.794 238.197C110.373 238.117 109.939 238.137 109.527 238.256C109.443 238.288 109.35 238.285 109.268 238.249C109.187 238.212 109.123 238.145 109.091 238.061C109.059 237.977 109.061 237.884 109.098 237.802C109.134 237.72 109.202 237.656 109.286 237.624C109.801 237.461 110.348 237.425 110.88 237.519C111.413 237.613 111.914 237.835 112.342 238.164C112.38 238.188 112.412 238.22 112.438 238.257C112.463 238.294 112.48 238.336 112.489 238.38C112.497 238.424 112.497 238.469 112.487 238.513C112.478 238.557 112.46 238.599 112.434 238.635C112.396 238.667 112.353 238.694 112.308 238.716Z" fill="#263238"/>
<path d="M102.036 238.797C101.971 238.788 101.908 238.764 101.852 238.728C101.789 238.663 101.754 238.576 101.754 238.486C101.754 238.396 101.789 238.309 101.852 238.245C102.254 237.877 102.739 237.612 103.265 237.472C103.791 237.332 104.343 237.321 104.874 237.441C104.958 237.467 105.029 237.525 105.072 237.602C105.114 237.679 105.126 237.769 105.104 237.854C105.078 237.941 105.019 238.015 104.94 238.059C104.861 238.104 104.767 238.117 104.679 238.096C104.26 238.011 103.827 238.028 103.415 238.144C103.004 238.26 102.626 238.471 102.312 238.762C102.271 238.787 102.225 238.802 102.178 238.808C102.13 238.814 102.082 238.81 102.036 238.797Z" fill="#263238"/>
<path d="M97.7387 230.5L98.4281 231.821C96.13 232.706 96.7045 235.418 97.2791 236.624C98.4281 239.221 97.1067 243.392 95.1648 245.127C95.1648 245.127 95.0384 243.978 94.0847 244.3C93.131 244.622 93.6825 250.574 95.7049 253.332C95.7049 253.332 92.7288 250.884 90.8214 244.702C89.0633 238.957 88.6497 234.165 89.7413 231.867L97.7387 230.5Z" fill="#263238"/>
<path d="M89.3735 245.254C89.7644 246.056 90.3096 246.774 90.978 247.365C91.6464 247.957 92.4248 248.411 93.2688 248.701C95.5669 249.459 96.7159 247.472 96.2563 245.254C95.7737 243.312 94.0386 240.497 91.6601 240.715C91.1586 240.771 90.6789 240.951 90.2646 241.239C89.8502 241.527 89.5143 241.914 89.2873 242.365C89.0602 242.816 88.9492 243.316 88.9642 243.82C88.9793 244.325 89.1199 244.818 89.3735 245.254Z" fill="#EBB376"/>
<path d="M97.6694 257.262C101.048 259.629 107.632 260.399 110.861 256.113C114.089 251.827 113.055 244.944 113.055 244.944C112.684 246.481 111.978 247.917 110.987 249.149C109.16 246.943 106.058 248.196 106.058 248.196C105.404 247.345 104.466 246.757 103.415 246.541C101.909 246.392 97.6694 246.644 97.6694 246.644C96.3136 245.783 96.2561 241.945 96.2561 241.945L95.4288 242.634C95.4288 242.634 94.2797 254.883 97.6694 257.262Z" fill="#263238"/>
<path d="M106.701 232.936C106.701 232.936 114.744 229.029 113.791 225.123C112.837 221.216 110.493 225.674 110.493 225.674C110.493 225.674 111.573 222.71 109.459 222.227C107.344 221.744 108.011 223.64 106.862 224.778C105.713 225.915 94.5669 224.261 90.9703 226.49C87.3738 228.719 90.1201 236.429 90.1201 236.429C92.2442 234.297 94.9443 232.83 97.8895 232.21C100.835 231.59 103.897 231.842 106.701 232.936Z" fill="#263238"/>
<path opacity="0.2" d="M97.6694 257.262C101.048 259.629 107.632 260.399 110.861 256.113C114.089 251.827 113.055 244.944 113.055 244.944C112.684 246.481 111.978 247.917 110.987 249.149C109.16 246.943 106.058 248.196 106.058 248.196C105.404 247.345 104.466 246.757 103.415 246.541C101.909 246.392 97.6694 246.644 97.6694 246.644C96.3136 245.783 96.2561 241.945 96.2561 241.945L95.4288 242.634C95.4288 242.634 94.2797 254.883 97.6694 257.262Z" fill="white"/>
<path d="M106.402 250.379C105.784 251.206 105.227 252.078 104.736 252.987L104.219 252.792C101.921 251.953 101.093 250.804 100.909 249.77C100.835 249.269 100.878 248.757 101.036 248.276C101.12 247.997 101.239 247.731 101.392 247.483C102.601 248.637 104.043 249.518 105.621 250.068C106.092 250.275 106.402 250.379 106.402 250.379Z" fill="#263238"/>
<path d="M105.621 250.08L105.104 250.838C102.921 250.046 101.484 249.195 101.036 248.287C101.12 248.009 101.24 247.742 101.392 247.495C102.601 248.649 104.043 249.53 105.621 250.08Z" fill="white"/>
<path d="M104.219 252.792C101.921 251.953 101.094 250.804 100.91 249.77C101.788 250.111 102.6 250.601 103.312 251.218C103.772 251.634 104.09 252.185 104.219 252.792Z" fill="#DE5753"/>
<path d="M110.344 263.65L109.666 269.603L122.075 296.042L120.846 299.547L116.79 297.674L107.942 270.706L101.438 266.305L106.173 263.708L110.344 263.65Z" fill="#4F52FF"/>
<path d="M97.3027 259.583L105.518 262.973L105.852 257.411L111.907 258.905L112.424 267.373L106.599 264.995L104.163 270.418L93.8096 263.501L97.3027 259.583Z" fill="#263238"/>
<path opacity="0.2" d="M97.3027 259.583L105.518 262.973L105.852 257.411L111.907 258.905L112.424 267.373L106.599 264.995L104.163 270.418L93.8096 263.501L97.3027 259.583Z" fill="white"/>
<path opacity="0.2" d="M89.8444 285.701C88.9941 283.464 88.1745 281.307 87.3854 279.231L85.2712 273.704L84.2715 271.085C85.4205 270.522 88.3506 270.855 89.1665 272.234C92.154 277.45 89.8444 285.701 89.8444 285.701Z" fill="black"/>
<path opacity="0.2" d="M104.243 291.538C103.752 293.795 102.758 295.913 101.336 297.733C99.9133 299.554 98.0987 301.03 96.0269 302.052C94.6595 298.409 93.3151 294.836 92.0052 291.377C91.6758 290.488 91.3426 289.615 91.0055 288.757L89.8564 285.701L103.163 287.39L104.243 291.538Z" fill="black"/>
<path opacity="0.2" d="M136.347 271.004C130.441 269.74 124.282 267.971 124.282 267.971L123.512 262.145C123.512 262.145 134.37 263.306 136.347 271.004Z" fill="black"/>
<path d="M82.3758 406.765C82.0156 406.777 81.6606 406.676 81.3609 406.476C81.0612 406.275 80.8318 405.986 80.705 405.649C80.5781 405.312 80.5603 404.943 80.6539 404.595C80.7474 404.247 80.9478 403.937 81.2267 403.709C100.404 387.966 100.037 363.296 99.6805 339.43C99.4048 321.436 99.152 304.43 107.621 292.871C119.502 276.623 167.291 250.85 175.208 250.114C180.873 249.551 353.656 201.532 444.236 176.219C444.676 176.095 445.148 176.152 445.546 176.376C445.945 176.6 446.238 176.973 446.362 177.414C446.485 177.854 446.429 178.326 446.205 178.724C445.98 179.123 445.607 179.416 445.167 179.54C434.446 182.539 182.631 252.895 175.53 253.55C168.716 254.182 121.409 279.852 110.401 294.916C102.622 305.545 102.863 321.988 103.128 339.384C103.472 362.917 103.875 389.598 83.4099 406.386C83.1168 406.623 82.753 406.757 82.3758 406.765Z" fill="#263238"/>
<g opacity="0.4">
<path opacity="0.4" d="M445.224 179.528L421.6 186.147C356.62 204.279 181.447 253.022 175.587 253.562C168.773 254.194 121.466 279.863 110.459 294.928C102.679 305.556 102.921 321.999 103.185 339.396C103.53 362.929 103.932 389.61 83.4672 406.397C83.1453 406.664 82.7362 406.804 82.3182 406.788C81.9579 406.8 81.603 406.699 81.3033 406.499C81.0036 406.298 80.7742 406.009 80.6474 405.672C80.5205 405.335 80.5026 404.966 80.5962 404.618C80.6898 404.27 80.8902 403.96 81.1691 403.732C100.347 387.989 99.9791 363.319 99.6229 339.453C99.3472 321.459 99.0944 304.453 107.563 292.894C119.444 276.646 167.233 250.873 175.15 250.137C180.482 249.609 333.559 207.117 427.115 181.01L444.178 176.242C444.619 176.118 445.09 176.175 445.489 176.399C445.887 176.623 446.181 176.996 446.304 177.437C446.428 177.877 446.371 178.348 446.147 178.747C445.923 179.146 445.55 179.439 445.109 179.562L445.224 179.528Z" fill="white"/>
</g>
<path opacity="0.2" d="M445.224 179.528L421.6 186.147C423.256 184.204 425.147 182.475 427.23 180.999L444.293 176.23C444.734 176.107 445.205 176.164 445.604 176.388C446.002 176.612 446.296 176.985 446.419 177.426C446.543 177.866 446.486 178.337 446.262 178.736C446.038 179.135 445.665 179.428 445.224 179.551V179.528Z" fill="black"/>
<path d="M94.1182 288.183L103.15 287.39C103.15 287.39 107.872 284.402 108.78 284.598C109.688 284.793 118.685 289.194 118.685 289.194C118.685 289.194 114.606 294.445 113.928 295.537C113.25 296.628 105.126 291.48 105.126 291.48L96.175 292.434L94.1182 288.183Z" fill="#EBB376"/>
<path d="M82.3757 266.144C78.2735 269.074 67.5873 292.963 68.7249 296.651C69.8624 300.34 103.116 293.066 103.116 293.066L101.645 286.85H83.7545L88.006 280.14C88.006 280.14 90.6259 277.589 89.0172 271.66C87.8566 267.385 82.3757 266.144 82.3757 266.144Z" fill="#263238"/>
<path d="M428.839 268.546L422.025 265.317C422.025 265.317 418.578 258.721 417.567 257.664C416.555 256.607 411.672 260.709 411.672 261.422C411.672 262.134 415.211 268.799 416.13 269.201C417.498 269.402 418.888 269.402 420.255 269.201L426.736 272.338L428.839 268.546Z" fill="#9F5B53"/>
<path d="M444.742 227.674L446.109 222.791C446.109 222.791 448.269 216.425 448.039 214.954C447.617 213.213 447.072 211.505 446.408 209.841C446.408 209.841 440.433 217.114 440.433 218.022C440.433 218.93 442.8 222.228 442.8 222.228L441.651 227.674H444.742Z" fill="#9F5B53"/>
<path d="M449.993 264.053C449.993 264.053 444.845 257.653 443.328 251.701C441.811 245.749 446.396 226.422 446.396 226.422L441.559 225.135C441.559 225.135 435.813 244.91 435.618 252.126C435.423 259.342 446.155 280.519 446.155 280.519L449.993 264.053Z" fill="#4F52FF"/>
<path opacity="0.2" d="M446.879 277.336L446.144 280.473C446.144 280.473 442.444 273.176 439.422 265.685C442.567 267.944 444.938 271.118 446.213 274.774C446.504 275.608 446.727 276.465 446.879 277.336Z" fill="black"/>
<path d="M477.248 278.072C477.183 279.407 477.022 280.735 476.765 282.047C476.237 284.92 475.34 288.31 474.318 292.044C473.766 294.009 473.169 296.112 472.64 298.329C470.078 308.292 468.687 312.256 466.791 324.976L430.424 316.347C432.389 305.458 435.387 294.781 439.375 284.46C440.432 281.714 441.673 278.968 442.926 276.256C444.934 272.004 447.298 267.93 449.992 264.076C449.992 264.076 455.875 269.454 474.352 272.683C476.593 273.027 477.363 274.981 477.248 278.072Z" fill="#4F52FF"/>
<path opacity="0.2" d="M472.675 273.923C472.675 275.073 477.03 280.542 476.766 281.967C476.272 282.3 475.686 282.668 475.019 283.116C462.713 290.275 446.569 286.643 439.398 284.426C440.456 281.68 442.846 276.635 444.087 273.923L452.716 275.842C452.716 275.842 466.826 272.625 472.675 273.923Z" fill="black"/>
<path d="M457.887 266.248C459.208 265.742 470.055 268.443 469.251 268.672C468.447 268.902 464.402 281.312 458.737 280.381C453.072 279.451 453.176 268.041 457.887 266.248Z" fill="#4F52FF"/>
<path d="M408.776 469.573L401.951 471.055L397.964 455.359L404.801 453.877L408.776 469.573Z" fill="#9F5B53"/>
<path d="M400.25 468.206H408.741C408.88 468.206 409.014 468.254 409.121 468.342C409.228 468.43 409.301 468.552 409.327 468.688L410.706 474.905C410.737 475.037 410.74 475.175 410.716 475.309C410.693 475.444 410.643 475.572 410.569 475.686C410.495 475.801 410.399 475.899 410.286 475.976C410.174 476.053 410.047 476.107 409.913 476.134H409.684C406.937 476.134 404.938 475.916 401.491 475.916C399.365 475.916 392.953 476.134 390 476.134C387.047 476.134 386.691 473.238 387.886 472.974C393.275 471.825 397.331 470.17 399.055 468.631C399.216 468.484 399.405 468.371 399.61 468.298C399.815 468.225 400.032 468.194 400.25 468.206Z" fill="#263238"/>
<path d="M397.941 469.435C397.466 469.471 396.992 469.345 396.597 469.079C396.468 468.974 396.368 468.837 396.308 468.682C396.248 468.527 396.228 468.359 396.252 468.194C396.247 468.097 396.27 468.001 396.319 467.917C396.368 467.833 396.441 467.766 396.528 467.723C397.309 467.321 399.561 468.711 399.814 468.872C399.843 468.887 399.867 468.91 399.881 468.939C399.896 468.968 399.9 469.001 399.894 469.033C399.89 469.066 399.876 469.098 399.853 469.122C399.831 469.147 399.801 469.164 399.768 469.171C399.171 469.327 398.558 469.416 397.941 469.435ZM396.895 467.987C396.828 467.965 396.756 467.965 396.689 467.987C396.689 467.987 396.585 468.045 396.574 468.183C396.562 468.292 396.576 468.402 396.616 468.504C396.657 468.606 396.721 468.697 396.804 468.769C397.584 469.126 398.472 469.171 399.285 468.895C398.555 468.441 397.743 468.133 396.895 467.987Z" fill="#4F52FF"/>
<path d="M399.722 469.182H399.641C398.929 468.792 397.527 467.252 397.665 466.516C397.691 466.393 397.759 466.282 397.857 466.203C397.956 466.123 398.078 466.08 398.205 466.08C398.33 466.063 398.458 466.074 398.579 466.112C398.7 466.149 398.812 466.213 398.906 466.298C399.71 466.953 399.882 468.964 399.894 469.056C399.896 469.086 399.889 469.116 399.875 469.142C399.861 469.168 399.84 469.19 399.814 469.205C399.798 469.21 399.781 469.211 399.764 469.207C399.748 469.203 399.733 469.194 399.722 469.182ZM398.32 466.344H398.239C398.021 466.344 398.009 466.471 397.998 466.516C397.906 466.976 398.802 468.137 399.515 468.677C399.475 467.893 399.199 467.14 398.722 466.516C398.67 466.462 398.608 466.418 398.539 466.389C398.469 466.359 398.395 466.344 398.32 466.344Z" fill="#4F52FF"/>
<path d="M467.091 325.93C467.091 325.93 461.196 354.036 447.407 361.55C445.825 362.44 444.091 363.029 442.294 363.285C442.294 363.285 428.31 369.031 416.222 374.466C408.868 377.787 402.215 381.027 399.836 382.842C393.54 387.634 408.96 462.437 408.96 462.437L398.481 462.552C398.481 462.552 376.43 396.321 380.096 378.936C383.761 361.55 423.335 334.938 423.335 334.938L429.425 318.185L467.091 325.93Z" fill="#263238"/>
<path opacity="0.2" d="M447.407 361.585C445.825 362.475 444.091 363.063 442.294 363.32C442.294 363.32 428.31 369.065 416.222 374.501C424.001 360.195 437.87 350.899 437.87 350.899L447.407 361.585Z" fill="black"/>
<path d="M496.633 469.573L489.808 471.055L485.82 455.359L492.657 453.877L496.633 469.573Z" fill="#9F5B53"/>
<path d="M488.107 468.206H496.599C496.737 468.206 496.871 468.254 496.978 468.342C497.085 468.43 497.158 468.552 497.185 468.688L498.564 474.905C498.594 475.037 498.597 475.175 498.574 475.309C498.55 475.444 498.5 475.572 498.426 475.686C498.352 475.801 498.256 475.899 498.144 475.976C498.031 476.053 497.904 476.107 497.771 476.134H497.541C494.795 476.134 492.795 475.916 489.348 475.916C487.223 475.916 480.811 476.134 477.858 476.134C474.905 476.134 474.549 473.238 475.744 472.974C481.133 471.825 485.189 470.17 486.912 468.631C487.073 468.484 487.262 468.371 487.467 468.298C487.672 468.225 487.89 468.194 488.107 468.206Z" fill="#263238"/>
<path d="M485.798 469.435C485.322 469.471 484.849 469.345 484.453 469.079C484.324 468.974 484.225 468.837 484.164 468.682C484.104 468.527 484.085 468.359 484.108 468.194C484.103 468.097 484.126 468.001 484.175 467.917C484.224 467.833 484.297 467.766 484.384 467.723C485.166 467.321 487.418 468.711 487.671 468.872C487.7 468.887 487.723 468.91 487.738 468.939C487.752 468.968 487.757 469.001 487.751 469.033C487.747 469.066 487.733 469.098 487.71 469.122C487.687 469.147 487.657 469.164 487.625 469.171C487.027 469.327 486.415 469.416 485.798 469.435ZM484.752 467.987C484.685 467.965 484.612 467.965 484.545 467.987C484.545 467.987 484.442 468.045 484.43 468.183C484.418 468.292 484.433 468.402 484.473 468.504C484.513 468.606 484.577 468.697 484.66 468.769C485.441 469.126 486.329 469.171 487.142 468.895C486.411 468.441 485.6 468.133 484.752 467.987Z" fill="#4F52FF"/>
<path d="M487.578 469.182H487.497C486.785 468.792 485.383 467.252 485.521 466.516C485.548 466.393 485.616 466.282 485.714 466.203C485.812 466.123 485.935 466.08 486.061 466.08C486.187 466.063 486.315 466.074 486.436 466.112C486.557 466.149 486.668 466.213 486.762 466.298C487.566 466.953 487.739 468.964 487.75 469.056C487.752 469.086 487.746 469.116 487.731 469.142C487.717 469.168 487.696 469.19 487.67 469.205C487.654 469.21 487.637 469.211 487.621 469.207C487.604 469.203 487.59 469.194 487.578 469.182ZM486.176 466.344H486.05C485.831 466.344 485.82 466.471 485.808 466.516C485.717 466.976 486.613 468.137 487.325 468.677C487.281 467.881 486.992 467.119 486.498 466.494C486.41 466.41 486.297 466.357 486.176 466.344Z" fill="#4F52FF"/>
<path d="M469.446 272.2C467.734 273.349 459.84 272.912 459.84 272.912L456.175 276.922L455.818 270.292C455.818 270.292 453.348 269.27 454.026 268.557C454.885 268.621 455.749 268.513 456.566 268.239C457.383 267.964 458.136 267.53 458.783 266.96C460.38 265.397 460.69 262.881 460.667 260.387C460.667 260.387 460.667 260.318 460.667 260.295L467.412 256.848L472.078 254.447C469.883 259.181 466.746 268.063 469.446 272.2Z" fill="#9F5B53"/>
<path opacity="0.2" d="M469.642 258.423C467.413 264.065 461.598 266.581 458.737 266.949C460.334 265.386 460.645 262.87 460.622 260.376C460.627 260.342 460.627 260.307 460.622 260.273L467.367 256.826C467.378 257.745 469.964 257.561 469.642 258.423Z" fill="black"/>
<path d="M473.927 258.193C473.927 258.193 478.305 260.491 479.764 257.745C481.224 254.998 479.144 254.838 481.293 253.849C483.441 252.861 486.498 252.172 485.797 250.092C485.096 248.012 482.924 247.794 485.337 245.496C487.75 243.198 488.279 239.957 484.671 239.325C481.063 238.693 482.442 235.878 482.258 234.729C482.074 233.58 480.052 232.776 477.857 233.235C475.662 233.695 474.743 230.443 473.387 229.432C472.031 228.421 470.158 229.662 469.664 231.029C469.17 232.397 467.872 230.581 465.941 230.351C464.011 230.121 464.459 232.155 463.861 234.051C463.264 235.947 462.08 234.718 460.702 236.28C459.323 237.843 459.196 248.506 473.927 258.193Z" fill="#263238"/>
<path d="M475.835 251.643C472.537 256.814 470.664 260.227 466.964 261.904C466.466 262.134 465.951 262.326 465.424 262.479C458.231 264.593 452.302 257.664 454.198 250.805C454.559 249.566 455.02 248.36 455.577 247.197C458.151 241.808 463.103 236.292 469.021 237.016C470.256 237.157 471.452 237.541 472.539 238.145C473.627 238.749 474.584 239.561 475.357 240.536C476.129 241.51 476.702 242.627 477.043 243.824C477.383 245.02 477.484 246.271 477.34 247.507C477.166 248.984 476.651 250.4 475.835 251.643Z" fill="#9F5B53"/>
<path d="M465.712 248.196C465.47 248.713 464.953 248.943 464.632 248.771C464.31 248.598 464.275 248.035 464.54 247.553C464.804 247.07 465.309 246.806 465.62 246.978C465.93 247.15 465.987 247.725 465.712 248.196Z" fill="#263238"/>
<path d="M460.139 245.128C460.067 245.344 459.915 245.524 459.713 245.629C459.511 245.734 459.276 245.756 459.058 245.691C458.748 245.507 458.702 244.967 458.978 244.473C459.254 243.979 459.736 243.726 460.058 243.91C460.38 244.094 460.403 244.657 460.139 245.128Z" fill="#263238"/>
<path d="M461.782 246.357C460.354 247.531 458.773 248.505 457.082 249.253C457.284 249.683 457.578 250.064 457.943 250.367C458.309 250.671 458.736 250.891 459.196 251.011L461.782 246.357Z" fill="#892B29"/>
<path d="M469.044 246.909C468.984 246.918 468.923 246.912 468.866 246.889C468.81 246.867 468.76 246.83 468.722 246.783C468.49 246.439 468.179 246.156 467.815 245.956C467.452 245.757 467.046 245.646 466.631 245.634C466.583 245.643 466.533 245.641 466.486 245.629C466.439 245.617 466.395 245.594 466.357 245.563C466.319 245.532 466.289 245.492 466.268 245.448C466.247 245.404 466.236 245.355 466.236 245.306C466.236 245.257 466.247 245.209 466.268 245.165C466.289 245.12 466.319 245.081 466.357 245.05C466.395 245.019 466.439 244.996 466.486 244.984C466.533 244.972 466.583 244.97 466.631 244.979C467.155 244.982 467.67 245.113 468.132 245.359C468.594 245.605 468.99 245.96 469.285 246.392C469.313 246.426 469.333 246.465 469.345 246.506C469.356 246.548 469.36 246.591 469.354 246.634C469.349 246.677 469.335 246.719 469.313 246.756C469.292 246.793 469.263 246.826 469.228 246.852C469.172 246.886 469.109 246.905 469.044 246.909Z" fill="#263238"/>
<path d="M460.541 254.091C461.313 254.341 462.134 254.402 462.934 254.268C463.734 254.134 464.49 253.809 465.138 253.321C465.167 253.287 465.183 253.245 465.183 253.2C465.183 253.156 465.167 253.113 465.138 253.08C465.105 253.048 465.062 253.03 465.017 253.03C464.972 253.03 464.928 253.048 464.896 253.08C464.283 253.521 463.575 253.812 462.829 253.932C462.083 254.052 461.319 253.996 460.599 253.769C460.579 253.76 460.557 253.755 460.535 253.756C460.512 253.756 460.491 253.762 460.471 253.772C460.451 253.782 460.434 253.796 460.42 253.813C460.406 253.831 460.397 253.851 460.392 253.872C460.383 253.893 460.378 253.915 460.379 253.937C460.379 253.959 460.385 253.981 460.395 254C460.405 254.02 460.419 254.037 460.436 254.051C460.454 254.065 460.474 254.074 460.495 254.079L460.541 254.091Z" fill="#263238"/>
<path d="M459.622 240.36C459.604 240.296 459.604 240.228 459.622 240.164C459.659 240.086 459.726 240.025 459.807 239.995C459.889 239.965 459.979 239.968 460.058 240.004C460.54 240.219 460.963 240.548 461.291 240.962C461.619 241.376 461.843 241.863 461.943 242.382C461.952 242.469 461.928 242.556 461.874 242.625C461.82 242.693 461.742 242.738 461.655 242.75C461.569 242.76 461.482 242.735 461.413 242.681C461.344 242.628 461.299 242.549 461.288 242.463C461.197 242.057 461.013 241.678 460.75 241.357C460.486 241.036 460.151 240.781 459.771 240.613C459.73 240.583 459.696 240.545 459.67 240.502C459.644 240.458 459.628 240.41 459.622 240.36Z" fill="#263238"/>
<path d="M464.355 237.499C466.033 237.706 466.86 239.797 466.86 239.797C468.889 240.538 470.849 241.453 472.721 242.532C473.291 242.997 473.721 243.613 473.96 244.309C474.2 245.006 474.24 245.755 474.076 246.473C474.019 247.025 472.663 247.53 472.663 247.53C472.663 247.53 470.181 253.39 469.503 255.01L469.848 260.423C474.409 257.538 478.062 253.424 480.385 248.553C484.303 240.394 467.952 233.213 467.952 233.213L464.355 237.499Z" fill="#263238"/>
<path d="M474.847 259.825C473.319 260.662 471.522 260.86 469.848 260.376C467.631 259.71 467.757 257.435 469.4 255.976C470.871 254.712 473.824 253.459 475.536 254.93C475.911 255.25 476.199 255.659 476.373 256.12C476.548 256.581 476.603 257.079 476.535 257.567C476.466 258.055 476.275 258.517 475.98 258.912C475.685 259.307 475.295 259.621 474.847 259.825Z" fill="#9F5B53"/>
<path d="M469.251 268.673L460.116 271.304L456.174 276.647L457.243 270.109C457.243 270.109 456.266 268.604 457.886 266.248L452.325 267.397L448.97 273.004L455.496 271.476L455.944 277.991L459.748 273.51L462.862 278.428L472.123 272.556L469.251 268.673Z" fill="#4F52FF"/>
<path opacity="0.2" d="M469.251 268.673L460.116 271.304L456.174 276.647L457.243 270.109C457.243 270.109 456.266 268.604 457.886 266.248L452.325 267.397L448.97 273.004L455.496 271.476L455.944 277.991L459.748 273.51L462.862 278.428L472.123 272.556L469.251 268.673Z" fill="black"/>
<path d="M430.906 312.543L429.481 318.22L467.079 325.93L467.642 319.622L430.906 312.543Z" fill="black"/>
<path d="M447.694 315.519C447.395 315.094 439.03 313.29 438.237 313.888C438.237 313.888 436.617 319.484 436.893 320.07C437.169 320.656 445.304 321.793 446.085 321.954C446.867 322.115 447.993 315.99 447.694 315.519ZM445.396 321.265C444.775 321.138 438.088 320.207 437.858 319.725C437.628 319.242 439.007 314.646 439.007 314.646C439.662 314.152 446.534 315.634 446.775 315.979C447.016 316.324 446.016 321.334 445.396 321.207V321.265Z" fill="white"/>
<path d="M445.718 317.427L444.052 317.082C443.9 317.053 443.743 317.081 443.611 317.162C443.479 317.243 443.383 317.37 443.34 317.518C443.316 317.602 443.309 317.689 443.321 317.774C443.333 317.86 443.363 317.942 443.408 318.016C443.453 318.089 443.514 318.153 443.585 318.202C443.656 318.251 443.737 318.284 443.822 318.3L445.488 318.622C445.65 318.654 445.817 318.62 445.954 318.529C446.091 318.437 446.186 318.295 446.218 318.133C446.25 317.972 446.216 317.804 446.125 317.667C446.033 317.53 445.891 317.436 445.73 317.404L445.718 317.427Z" fill="white"/>
<path d="M467.079 325.93C467.079 325.93 467.803 368.445 466.608 380.855C465.413 393.264 496.392 461.185 496.392 461.185H486.36C486.36 461.185 455.968 411.454 449.005 396.148C442.041 380.843 436.894 344.326 436.894 344.326L467.079 325.93Z" fill="#263238"/>
<path d="M477.375 275.084C475.824 271.568 452.004 276.773 449.855 276.164C447.707 275.555 425.346 266.19 425.346 266.19L423.404 271.177C423.404 271.177 443.455 282.668 447.845 284.483C452.234 286.299 469.78 285.426 474.273 283.484C475.042 283.152 475.735 282.668 476.311 282.06C476.888 281.453 477.334 280.734 477.624 279.949C477.914 279.163 478.042 278.327 477.999 277.491C477.956 276.655 477.744 275.836 477.375 275.084Z" fill="#4F52FF"/>
<path d="M473.158 183.768L465.942 137.806L427.931 164.683L440.571 170.037C428.368 198.005 388.783 279.944 320.667 340.361C233.695 417.521 111.964 455.485 110.746 455.853L117.48 477.834C122.65 476.249 245.117 438.1 335.961 357.517C408.351 293.308 449.051 208.622 461.828 178.977L473.158 183.768Z" fill="#4F52FF"/>
<path opacity="0.4" d="M466.264 175.725L465.942 137.806L427.931 164.683L440.571 170.037C428.368 198.005 388.783 279.944 320.667 340.361C233.695 417.521 111.964 455.485 110.746 455.853L112.883 469.791C118.054 468.205 240.52 433.504 331.365 352.921C403.755 288.712 442.156 202.877 454.934 173.231L466.264 175.725Z" fill="white"/>
<path d="M459.622 185.711C459.443 185.712 459.264 185.685 459.093 185.63L437.02 178.495C436.793 178.436 436.58 178.331 436.394 178.187C436.209 178.043 436.055 177.862 435.942 177.656C435.829 177.45 435.759 177.224 435.736 176.99C435.714 176.756 435.74 176.52 435.812 176.297C435.884 176.073 436.001 175.867 436.156 175.69C436.311 175.513 436.5 175.37 436.712 175.269C436.924 175.169 437.155 175.112 437.389 175.104C437.624 175.095 437.858 175.135 438.077 175.22L460.15 182.344C460.543 182.468 460.879 182.73 461.096 183.08C461.313 183.431 461.397 183.847 461.333 184.254C461.269 184.662 461.061 185.033 460.747 185.3C460.433 185.567 460.034 185.713 459.622 185.711Z" fill="#263238"/>
<g opacity="0.4">
<path opacity="0.4" d="M459.622 185.711C459.443 185.712 459.264 185.685 459.093 185.63L437.02 178.495C436.793 178.436 436.58 178.331 436.394 178.187C436.209 178.043 436.055 177.862 435.942 177.656C435.829 177.45 435.759 177.224 435.736 176.99C435.714 176.756 435.74 176.52 435.812 176.297C435.884 176.073 436.001 175.867 436.156 175.69C436.311 175.513 436.5 175.37 436.712 175.269C436.924 175.169 437.155 175.112 437.389 175.104C437.624 175.095 437.858 175.135 438.077 175.22L460.15 182.344C460.543 182.468 460.879 182.73 461.096 183.08C461.313 183.431 461.397 183.847 461.333 184.254C461.269 184.662 461.061 185.033 460.747 185.3C460.433 185.567 460.034 185.713 459.622 185.711Z" fill="white"/>
</g>
<path d="M195.26 400.813C194.803 400.813 194.364 400.632 194.041 400.308C193.718 399.985 193.536 399.547 193.536 399.09C193.536 344.234 209.474 337.041 212.461 336.156L263.134 300.708L263.249 300.639L457.922 185.205C458.315 184.981 458.78 184.92 459.216 185.036C459.653 185.152 460.027 185.434 460.258 185.823C460.488 186.212 460.557 186.675 460.449 187.114C460.341 187.553 460.065 187.932 459.68 188.169L265.099 303.569L214.185 339.189C213.968 339.34 213.721 339.442 213.461 339.488C213.334 339.488 196.983 343.51 196.983 399.124C196.974 399.575 196.789 400.005 196.466 400.321C196.144 400.636 195.711 400.813 195.26 400.813Z" fill="#263238"/>
<g opacity="0.4">
<path opacity="0.4" d="M195.26 400.813C194.803 400.813 194.364 400.632 194.041 400.308C193.718 399.985 193.536 399.547 193.536 399.09C193.536 344.234 209.474 337.041 212.461 336.156L263.134 300.708L263.249 300.639L457.922 185.205C458.315 184.981 458.78 184.92 459.216 185.036C459.653 185.152 460.027 185.434 460.258 185.823C460.488 186.212 460.557 186.675 460.449 187.114C460.341 187.553 460.065 187.932 459.68 188.169L265.099 303.569L214.185 339.189C213.968 339.34 213.721 339.442 213.461 339.488C213.334 339.488 196.983 343.51 196.983 399.124C196.974 399.575 196.789 400.005 196.466 400.321C196.144 400.636 195.711 400.813 195.26 400.813Z" fill="white"/>
</g>
<path d="M208.496 343.889C208.496 343.889 199.637 349.634 192.904 351.37C191.242 351.931 189.458 352.031 187.744 351.657C182.734 350.071 185.711 340.373 188.698 334.249C189.181 333.249 189.663 332.353 190.111 331.594L198.867 337.006C198.867 337.006 193.559 344.579 194.168 345.05C194.777 345.521 202.958 340.959 203.36 340.81C203.762 340.66 208.496 343.889 208.496 343.889Z" fill="#4F52FF"/>
<path opacity="0.2" d="M208.495 343.889C208.495 343.889 199.636 349.634 192.903 351.369C191.033 345.788 189.627 340.061 188.697 334.249C189.18 333.249 189.662 332.353 190.111 331.594L198.866 337.006C198.866 337.006 193.558 344.579 194.167 345.05C194.776 345.521 202.957 340.959 203.359 340.81C203.761 340.66 208.495 343.889 208.495 343.889Z" fill="black"/>
<path d="M251.644 310.543L256.837 305.947C257.253 304.635 257.823 303.377 258.538 302.201C259.101 301.73 268.558 300.995 268.558 300.995C268.558 300.995 268.741 305.993 267.995 307.291C267.248 308.59 259.526 309.153 259.526 309.153L255.389 313.14L251.644 310.543Z" fill="#EEC1BB"/>
<path d="M279.313 419.462C277.831 440.789 273.866 471.055 273.866 471.055L268.765 472.204C268.765 472.204 264.053 446.867 264.8 423.358C264.934 418.233 265.418 413.123 266.248 408.064C266.248 408.064 248.576 401.273 236.304 395.194C230.444 392.299 225.813 389.552 224.928 387.783C222.193 382.325 234.626 369.501 234.626 369.501C235.017 369.812 242.52 374.592 251.253 380.257C262.847 387.771 276.601 396.849 278.83 399.113C280.163 400.411 280.048 408.822 279.313 419.462Z" fill="#EEC1BB"/>
<path opacity="0.2" d="M279.313 419.462C274.597 421.172 269.741 422.468 264.8 423.334C264.934 418.209 265.418 413.1 266.248 408.04C266.248 408.04 248.576 401.25 236.304 395.171L251.241 380.233C262.835 387.748 276.59 396.826 278.819 399.089C280.163 400.411 280.048 408.822 279.313 419.462Z" fill="black"/>
<path d="M239.532 365.939C239.532 365.939 288.562 394.126 295.227 400.492C301.891 406.857 340.362 466.344 340.362 466.344L337.121 469.435C337.121 469.435 305.178 442.018 292.435 415.958L239.578 390.414L239.532 365.939Z" fill="#EEC1BB"/>
<path d="M202.234 313.899C202.313 313.953 202.398 314 202.487 314.037C203.691 314.719 205.019 315.153 206.394 315.312C210.392 315.668 212.966 314.772 214.437 312.773C216.482 309.808 216.436 305.074 215.31 299.501C214.937 297.271 214.212 295.114 213.162 293.112C213.162 293.112 213.162 293.032 213.162 293.02L213.024 292.791C212.384 291.67 211.474 290.727 210.376 290.048C209.278 289.37 208.027 288.977 206.738 288.907C205.616 288.814 204.487 288.845 203.372 288.999C192.456 290.412 193.042 308.82 202.234 313.899Z" fill="#EEC1BB"/>
<path opacity="0.2" d="M202.532 314.037C203.739 314.681 205.064 315.072 206.428 315.186C210.415 315.542 212.977 314.508 214.471 312.497C212.236 313.388 209.772 313.529 207.45 312.899C206.598 312.702 205.712 312.702 204.86 312.899C204.007 313.096 203.211 313.485 202.532 314.037Z" fill="black"/>
<path d="M201.797 323.022C200.843 326.102 204.785 327.733 204.785 327.733C211.679 325.435 213.23 322.069 213.23 322.069C207.945 318.621 210.266 310.647 210.266 310.647L209.117 311.107L201.073 311.957C201.073 311.957 202.9 316.358 203.107 317.346C204.118 322.528 201.797 323.022 201.797 323.022Z" fill="#EBB376"/>
<path d="M213.23 293.009C213.23 293.009 214.907 300.604 208.093 304.913C208.093 304.913 206.083 313.335 201.498 314.105C195.247 315.139 188.479 306.993 189.375 297.593C190.547 285.436 208.266 281.978 213.23 293.009Z" fill="#263238"/>
<path d="M211.426 302.202C211.254 301.053 210.013 299.122 208.186 299.662C206.359 300.202 205.888 305.109 210.783 305.511C211.53 305.649 211.828 304.73 211.426 302.202Z" fill="#EBB376"/>
<path d="M338.224 462.69L332.938 466.757C332.83 466.845 332.754 466.966 332.723 467.101C332.692 467.236 332.707 467.378 332.766 467.504L335.455 473.25C335.512 473.371 335.594 473.48 335.694 473.571C335.794 473.661 335.911 473.73 336.038 473.775C336.165 473.82 336.3 473.839 336.434 473.832C336.569 473.824 336.701 473.791 336.822 473.732C336.891 473.7 336.956 473.662 337.017 473.617C339.155 471.905 339.224 471.641 341.947 469.55C343.613 468.263 348.841 464.54 351.139 462.759C353.437 460.978 351.99 458.461 350.886 458.978C345.923 461.276 341.694 462.506 339.396 462.334C338.974 462.301 338.556 462.429 338.224 462.69Z" fill="#263238"/>
<path d="M339.374 462.587C339.345 462.601 339.312 462.606 339.28 462.601C339.247 462.596 339.217 462.581 339.194 462.559C339.17 462.536 339.154 462.507 339.147 462.475C339.14 462.443 339.143 462.41 339.156 462.38C339.259 462.104 340.202 459.634 341.052 459.484C341.146 459.464 341.244 459.472 341.334 459.506C341.424 459.541 341.501 459.601 341.557 459.68C341.675 459.796 341.761 459.941 341.807 460.099C341.853 460.258 341.858 460.426 341.822 460.587C341.685 461.057 341.388 461.463 340.983 461.736C340.481 462.081 339.941 462.366 339.374 462.587ZM339.616 462.116C340.427 461.84 341.101 461.265 341.5 460.507C341.523 460.398 341.518 460.285 341.485 460.179C341.453 460.073 341.395 459.976 341.316 459.898C341.224 459.806 341.144 459.783 341.109 459.817C341.038 459.831 340.97 459.863 340.914 459.909C340.345 460.556 339.904 461.304 339.616 462.116Z" fill="#4F52FF"/>
<path d="M339.362 462.644C339.333 462.645 339.305 462.639 339.279 462.627C339.253 462.615 339.23 462.597 339.213 462.575C339.213 462.494 338.063 460.805 338.305 459.794C338.332 459.671 338.384 459.555 338.457 459.452C338.53 459.35 338.623 459.263 338.73 459.197C338.828 459.118 338.949 459.076 339.075 459.076C339.2 459.076 339.322 459.118 339.419 459.197C339.982 459.691 339.81 461.748 339.477 462.494L339.419 462.552L339.362 462.644ZM338.592 459.817C338.589 460.611 338.825 461.388 339.27 462.046C339.544 461.187 339.504 460.258 339.155 459.426C339.155 459.426 339.029 459.3 338.868 459.426H338.799C338.685 459.528 338.612 459.666 338.592 459.817Z" fill="#4F52FF"/>
<path d="M274.762 467.665L268.086 467.792C267.95 467.799 267.819 467.851 267.715 467.941C267.611 468.03 267.54 468.152 267.512 468.286L266.259 474.502C266.222 474.762 266.286 475.026 266.438 475.24C266.59 475.454 266.818 475.601 267.075 475.651C267.151 475.663 267.229 475.663 267.305 475.651C270.028 475.548 270.247 475.375 273.682 475.306C275.797 475.306 282.174 475.364 285.092 475.306C288.011 475.249 288.333 472.353 287.138 472.112C281.749 471.055 277.692 469.515 275.946 468.01C275.61 467.748 275.186 467.625 274.762 467.665Z" fill="#263238"/>
<path d="M275.36 468.401C275.327 468.396 275.296 468.379 275.273 468.354C275.25 468.329 275.236 468.297 275.234 468.263C275.225 468.232 275.227 468.199 275.24 468.17C275.252 468.141 275.275 468.117 275.303 468.102C275.544 467.941 277.762 466.516 278.543 466.895C278.632 466.935 278.707 467 278.76 467.081C278.813 467.163 278.842 467.258 278.842 467.355C278.865 467.519 278.846 467.685 278.788 467.84C278.73 467.995 278.634 468.132 278.509 468.24C278.123 468.518 277.651 468.653 277.176 468.619C276.564 468.616 275.955 468.542 275.36 468.401ZM275.831 468.159C276.647 468.42 277.531 468.359 278.302 467.987C278.383 467.912 278.445 467.819 278.481 467.714C278.517 467.61 278.526 467.499 278.509 467.39C278.509 467.263 278.44 467.206 278.405 467.206C278.334 467.189 278.259 467.189 278.187 467.206C277.349 467.373 276.55 467.696 275.831 468.159Z" fill="#4F52FF"/>
<path d="M275.314 468.435C275.287 468.421 275.265 468.4 275.25 468.373C275.236 468.346 275.23 468.316 275.233 468.286C275.233 468.194 275.36 466.194 276.153 465.516C276.247 465.431 276.358 465.368 276.479 465.33C276.6 465.292 276.728 465.281 276.854 465.298C276.979 465.295 277.101 465.336 277.2 465.414C277.298 465.491 277.367 465.601 277.394 465.723C277.543 466.447 276.245 468.021 275.475 468.412H275.394C275.371 468.43 275.343 468.438 275.314 468.435ZM276.371 465.712C275.897 466.349 275.625 467.113 275.59 467.906C276.302 467.355 277.164 466.171 277.06 465.723C277.06 465.723 277.06 465.562 276.819 465.562H276.739C276.602 465.565 276.471 465.618 276.371 465.712Z" fill="#4F52FF"/>
<path d="M238.165 358.39L213.839 368.605C203.785 343.613 190.111 331.594 190.111 331.594C199.855 319.908 217.85 314.531 217.85 314.531C220.507 316.694 222.8 319.27 224.64 322.16C226.669 325.301 228.437 328.602 229.926 332.031C233.54 340.522 236.3 349.352 238.165 358.39Z" fill="#4F52FF"/>
<path d="M213 298.087C213 298.087 220.642 290.297 213.322 285.161C206.003 280.024 198.741 286.884 198.741 286.884C198.741 286.884 181.355 291.262 185.17 302.81C188.985 314.358 191.421 315.312 185.963 321.31C180.505 327.308 174.944 336.156 180.643 341.729C186.342 347.301 205.991 341.326 211.886 332.777C217.78 324.228 207.048 306.108 213 298.087Z" fill="#263238"/>
<path d="M236.395 350.898L209.967 359.964C209.967 359.964 215.815 388.748 220.055 393.563C224.296 398.377 252.643 420.669 256.653 418.911C260.663 417.153 287.264 393.563 287.264 393.563L242.255 362.699L236.395 350.898Z" fill="#263238"/>
<path d="M232.546 356.31L238.165 354.449L236.774 351.668L231.454 353.541L232.546 356.31Z" fill="black"/>
<path d="M215.747 359.068L209.99 361.09L210.76 363.549L216.39 361.676L215.747 359.068Z" fill="black"/>
<path d="M217.597 361.274L231.42 356.689L230.386 353.909L216.839 358.677L217.597 361.274Z" fill="black"/>
<path opacity="0.2" d="M229.926 332.077C224.112 331.399 220.837 322.655 220.837 322.655C222.095 322.429 223.365 322.279 224.64 322.207C226.669 325.347 228.437 328.648 229.926 332.077Z" fill="black"/>
<path d="M217.85 314.531C224.17 313.589 238.303 318.713 239.532 318.656C240.762 318.598 254.47 307.82 254.47 307.82L258.032 310.957C258.032 310.957 243.669 325.769 240.716 325.895C237.763 326.021 222.331 324.907 222.331 324.907C222.331 324.907 218.551 323.562 217.827 320.15C217.386 318.302 217.394 316.375 217.85 314.531Z" fill="#4F52FF"/>
</g>
<defs>
<clipPath id="clip0">
<rect width="574.527" height="574.527" fill="white"/>
</clipPath>
</defs>
</svg>
