<svg width="468" height="226" viewBox="0 0 468 226" fill="none" xmlns="http://www.w3.org/2000/svg">
<path d="M259.658 142.005C251.826 134.75 237.942 135.597 231.05 143.764C228.338 146.982 226.493 151.197 222.763 153.148C217.067 156.146 210.117 152.365 203.681 152.913C196.134 153.554 189.939 161.215 190.865 168.727C191.285 172.116 192.894 175.725 191.299 178.744C189.27 182.596 183.396 182.753 180.925 186.334C178.697 189.574 180.434 194.351 183.674 196.587C186.913 198.823 191.086 199.1 195.016 198.922C198.946 198.744 202.933 198.21 206.764 199.065C210.986 200.019 214.596 202.625 218.647 204.22C228.309 208.093 239.623 205.936 248.551 200.617C257.48 195.298 264.429 187.167 270.467 178.687" fill="#BA68C8"/>
<g opacity="0.8">
<path opacity="0.8" d="M259.658 142.005C251.826 134.75 237.942 135.597 231.05 143.764C228.338 146.982 226.493 151.197 222.763 153.148C217.067 156.146 210.117 152.365 203.681 152.913C196.134 153.554 189.939 161.215 190.865 168.727C191.285 172.116 192.894 175.725 191.299 178.744C189.27 182.596 183.396 182.753 180.925 186.334C178.697 189.574 180.434 194.351 183.674 196.587C186.913 198.823 191.086 199.1 195.016 198.922C198.946 198.744 202.933 198.21 206.764 199.065C210.986 200.019 214.596 202.625 218.647 204.22C228.309 208.093 239.623 205.936 248.551 200.617C257.48 195.298 264.429 187.167 270.467 178.687" fill="white"/>
</g>
<path d="M257.757 151.888C251.349 145.636 239.537 146.512 234.154 153.639C230.872 157.99 228.985 164.64 223.581 165.366C219.921 165.864 216.461 163.109 212.766 163.394C207.853 163.764 204.884 169.752 206.144 174.508C207.404 179.264 211.591 182.689 215.984 184.924C231.199 192.65 251.477 188.563 262.52 175.547" fill="#BA68C8"/>
<path d="M402.805 167.801L394.567 156.124L405.283 148.527L412.787 163.771L403.297 167.701" fill="#FFBE9D"/>
<path d="M412.339 161.685L418.17 172.201C418.17 172.201 430.815 169.808 432.083 171.645L412.104 183.678L402.35 167.665L412.339 161.685Z" fill="#BA68C8"/>
<g opacity="0.6">
<path opacity="0.6" d="M411.464 175.056C411.307 175.231 411.22 175.458 411.22 175.693C411.22 175.928 411.307 176.155 411.464 176.33C411.635 176.49 411.86 176.578 412.094 176.578C412.328 176.578 412.553 176.49 412.724 176.33C412.891 176.145 412.984 175.904 412.984 175.654C412.984 175.404 412.891 175.163 412.724 174.978C412.53 174.827 412.286 174.758 412.042 174.783C411.798 174.808 411.573 174.926 411.414 175.113" fill="white"/>
</g>
<g opacity="0.6">
<path opacity="0.6" d="M412.104 183.678L411.186 182.026L430.687 171.112C430.687 171.112 431.812 170.962 432.111 171.646L412.104 183.678Z" fill="white"/>
</g>
<path d="M418.434 171.902C418.484 172.002 418.028 172.343 417.722 172.941C417.416 173.539 417.416 174.109 417.309 174.13C417.202 174.152 416.996 173.49 417.366 172.771C417.736 172.051 418.398 171.802 418.434 171.902Z" fill="#263238"/>
<path d="M421.047 171.51C421.125 171.589 420.805 172.009 420.72 172.621C420.634 173.233 420.805 173.732 420.72 173.782C420.634 173.831 420.228 173.326 420.342 172.564C420.456 171.802 420.99 171.432 421.047 171.51Z" fill="#263238"/>
<path d="M423.753 173.305C423.674 173.376 423.247 172.97 423.176 172.286C423.105 171.603 423.432 171.112 423.518 171.169C423.603 171.226 423.518 171.681 423.568 172.244C423.618 172.806 423.838 173.233 423.753 173.305Z" fill="#263238"/>
<path d="M416.839 169.652C416.839 169.766 416.319 169.901 415.792 170.271C415.265 170.642 414.938 171.076 414.838 171.019C414.738 170.962 414.938 170.371 415.55 169.944C416.162 169.517 416.839 169.552 416.839 169.652Z" fill="#263238"/>
<path d="M415.621 167.552C415.621 167.594 415.294 167.886 414.617 168.15C413.981 168.4 413.3 168.518 412.616 168.499C412.467 168.508 412.318 168.491 412.175 168.449C412.069 168.42 411.975 168.355 411.91 168.266C411.846 168.177 411.813 168.068 411.819 167.958C411.826 167.86 411.857 167.765 411.907 167.681C411.958 167.597 412.028 167.526 412.111 167.473C412.236 167.395 412.373 167.337 412.517 167.303C412.749 167.228 412.987 167.173 413.229 167.139C413.658 167.088 414.093 167.105 414.517 167.189C415.229 167.338 415.621 167.609 415.6 167.651C415.578 167.694 415.165 167.538 414.475 167.466C414.076 167.426 413.674 167.438 413.279 167.502C413.037 167.538 412.798 167.595 412.567 167.673C412.317 167.744 412.139 167.851 412.139 167.979C412.139 168.107 412.139 168.043 412.232 168.079C412.341 168.092 412.451 168.092 412.559 168.079C412.802 168.079 413.044 168.079 413.271 168.079C413.676 168.042 414.076 167.971 414.468 167.865C414.845 167.737 415.23 167.632 415.621 167.552Z" fill="#263238"/>
<path d="M415.579 167.772C415.579 167.808 415.152 167.573 414.731 166.96C414.491 166.602 414.315 166.205 414.212 165.786C414.147 165.536 414.109 165.281 414.098 165.024C414.073 164.859 414.091 164.691 414.149 164.535C414.208 164.379 414.305 164.241 414.432 164.134C414.519 164.077 414.621 164.047 414.724 164.047C414.828 164.047 414.929 164.077 415.016 164.134C415.142 164.217 415.252 164.32 415.344 164.44C415.512 164.641 415.649 164.867 415.75 165.109C415.918 165.519 415.984 165.964 415.942 166.405C415.864 167.117 415.529 167.516 415.5 167.487C415.573 167.144 415.627 166.797 415.664 166.448C415.665 166.057 415.58 165.67 415.415 165.316C415.32 165.109 415.195 164.917 415.045 164.746C414.888 164.554 414.703 164.433 414.639 164.504C414.576 164.576 414.53 164.662 414.504 164.754C414.478 164.847 414.473 164.943 414.489 165.038C414.488 165.278 414.514 165.517 414.568 165.75C414.648 166.14 414.784 166.517 414.974 166.868C415.301 167.423 415.621 167.722 415.579 167.772Z" fill="#263238"/>
<path d="M372.296 126.298L397.885 166.512L411.876 156.999L388.309 108.548" fill="#263238"/>
<path d="M374.369 117.477C374.475 117.519 373.706 119.157 373.343 121.314C372.98 123.472 373.13 125.266 373.016 125.28C372.494 122.592 372.975 119.806 374.369 117.448V117.477Z" fill="#455A64"/>
<path d="M371.741 117.591C371.848 117.591 371.741 119.357 372.033 121.493C372.325 123.629 372.859 125.295 372.745 125.33C371.637 122.911 371.285 120.214 371.734 117.591H371.741Z" fill="#455A64"/>
<path d="M272.51 126.177L254.959 120.759C233.784 147.722 235.201 177.349 269.284 194.885L288.216 173.682L272.51 126.177Z" fill="#263238"/>
<path d="M274.226 121.876C262.99 128.434 257.401 142.24 258.768 155.768C260.27 170.591 270.068 185.045 288.024 189.039L408.73 164.91C413.711 163.913 418.432 161.893 422.592 158.976C426.752 156.06 430.261 152.311 432.896 147.968C435.531 143.624 437.236 138.78 437.901 133.744C438.566 128.707 438.178 123.587 436.761 118.708C434.13 109.648 428.108 101.95 419.948 97.2146C411.788 92.4794 402.116 91.0711 392.945 93.2825L274.226 121.876Z" fill="#E0E0E0"/>
<path d="M274.225 121.877L275.343 121.592L278.64 120.78L291.335 117.683L338.056 106.362L370.324 98.5301L388.309 94.1869L392.973 93.0691L395.372 92.6134C395.771 92.5351 396.17 92.4496 396.575 92.3855L397.8 92.2788C398.619 92.2147 399.438 92.115 400.256 92.0723H402.748C403.582 92.076 404.414 92.1331 405.24 92.2431L406.494 92.3713L407.12 92.4425L407.74 92.5635L410.224 93.0691C411.05 93.2613 411.855 93.539 412.674 93.7811C413.08 93.9092 413.493 94.0231 413.898 94.1655L415.087 94.6426L416.276 95.1339C416.683 95.2802 417.078 95.4563 417.458 95.6608L419.758 96.8569C420.52 97.277 421.232 97.7825 421.972 98.2809C422.336 98.523 422.684 98.7437 423.062 98.9929L424.094 99.8046L425.134 100.623L425.653 101.029L426.131 101.485C431.523 106.328 435.377 112.645 437.216 119.655C439.119 126.929 438.741 134.611 436.134 141.663C433.44 148.912 428.545 155.135 422.136 159.463C419.432 161.291 416.494 162.745 413.4 163.785C410.324 164.86 407.127 165.33 404.016 165.985L385.504 169.68L350.16 176.786L288.088 189.168H288.024C284.859 188.422 281.786 187.331 278.86 185.914C273.454 183.198 268.823 179.159 265.396 174.173C263.853 171.893 262.541 169.465 261.48 166.925C261.224 166.312 261.025 165.679 260.768 165.066C260.53 164.464 260.328 163.849 260.163 163.222C259.985 162.603 259.814 161.991 259.644 161.378L259.259 159.548C259.118 158.95 259.011 158.344 258.939 157.733C258.86 157.135 258.775 156.537 258.697 155.946C258.618 155.355 258.611 154.764 258.568 154.18C258.526 153.596 258.49 153.019 258.497 152.45C258.407 148.267 258.999 144.097 260.249 140.104C261.236 136.904 262.674 133.862 264.521 131.069C265.873 129.013 267.481 127.137 269.305 125.486C269.676 125.159 270.017 124.824 270.352 124.554L271.335 123.806L272.16 123.172L272.872 122.71L274.19 121.884L272.894 122.745L272.182 123.215L271.356 123.856L270.416 124.604C270.081 124.881 269.747 125.209 269.377 125.543C267.569 127.2 265.978 129.078 264.642 131.133C262.808 133.92 261.381 136.956 260.405 140.146C259.176 144.126 258.596 148.278 258.689 152.443C258.689 153.012 258.689 153.589 258.761 154.166C258.832 154.742 258.832 155.333 258.903 155.924C258.974 156.515 259.06 157.106 259.145 157.704C259.218 158.31 259.325 158.912 259.466 159.506C259.594 160.104 259.722 160.716 259.85 161.328C259.978 161.941 260.199 162.539 260.37 163.158C260.538 163.781 260.74 164.394 260.975 164.995C261.203 165.6 261.402 166.227 261.687 166.832C262.744 169.356 264.052 171.767 265.589 174.031C267.272 176.399 269.205 178.578 271.356 180.531C273.684 182.532 276.236 184.257 278.96 185.672C281.865 187.077 284.917 188.156 288.059 188.89H288.002L350.053 176.416L385.425 169.338L403.937 165.636C407.056 164.974 410.246 164.511 413.272 163.443C416.334 162.418 419.242 160.981 421.915 159.171C428.265 154.882 433.113 148.712 435.778 141.528C438.361 134.547 438.736 126.942 436.853 119.741C435.036 112.798 431.224 106.54 425.888 101.741L425.411 101.293L424.92 100.944L423.895 100.139L422.87 99.3347C422.528 99.0712 422.158 98.8576 421.787 98.6227C421.075 98.167 420.363 97.6615 419.601 97.2485L417.323 96.0595C416.943 95.8635 416.554 95.6877 416.155 95.5326L414.973 95.0555L413.792 94.5714C413.393 94.4361 412.987 94.3222 412.581 94.2011C411.769 93.9662 410.972 93.6814 410.153 93.4891L407.697 92.9908L407.085 92.8626L406.458 92.7985L405.219 92.6704C404.4 92.558 403.575 92.4985 402.748 92.4924H400.285C399.466 92.5351 398.654 92.6347 397.85 92.6988L396.632 92.8056C396.234 92.8626 395.835 92.948 395.436 93.0264L393.065 93.4749L388.38 94.5358L370.402 98.8576L338.127 106.64L291.384 117.818L278.668 120.88L275.357 121.663L274.225 121.877Z" fill="#263238"/>
<path d="M288.024 189.026L272.104 225.224C272.104 225.224 347.22 217.983 344.016 177.833L288.024 189.026Z" fill="#BA68C8"/>
<path d="M331.071 108.178C331.071 108.178 294.951 73.1333 249.056 87.8931L274.239 121.877L331.071 108.178Z" fill="#BA68C8"/>
<path d="M397.01 92.77C412.51 104.162 421.987 148.705 414.518 162.852C458.448 150.001 467.662 112.3 467.662 112.3C435.906 82.7237 397.01 92.77 397.01 92.77Z" fill="#BA68C8"/>
<path d="M265.432 172.472C265.503 172.536 263.089 175.426 260.035 178.922C256.98 182.418 254.439 185.195 254.339 185.124C254.239 185.053 256.674 182.169 259.736 178.673C262.797 175.177 265.361 172.4 265.432 172.472Z" fill="#455A64"/>
<path d="M467.64 112.286C467.64 112.286 467.555 112.45 467.37 112.763L466.537 114.144L465.177 116.394C464.906 116.836 464.614 117.313 464.308 117.818L463.212 119.385C462.436 120.488 461.588 121.727 460.627 123.052L457.274 127.21C456.64 127.922 455.956 128.634 455.266 129.41C454.575 130.186 453.892 130.969 453.13 131.709C451.549 133.205 449.926 134.835 448.032 136.337C444 139.73 439.59 142.645 434.888 145.024C432.273 146.357 429.571 147.513 426.8 148.484C425.376 149.004 423.909 149.453 422.464 149.979C420.957 150.459 419.423 150.854 417.872 151.161C405.426 153.917 391.706 156.736 377.288 159.705C348.473 165.658 322.378 170.969 303.482 174.785L281.096 179.307L275.009 180.51L273.421 180.809C273.065 180.88 272.88 180.902 272.88 180.902L273.414 180.773L274.995 180.432L281.068 179.164L303.425 174.551L377.216 159.364C391.613 156.373 405.34 153.561 417.8 150.82C419.334 150.517 420.85 150.132 422.343 149.666C423.817 149.125 425.276 148.691 426.693 148.171C429.453 147.209 432.145 146.065 434.753 144.746C439.44 142.386 443.843 139.497 447.875 136.138C449.762 134.643 451.393 133.027 452.966 131.539C453.764 130.827 454.44 129.994 455.145 129.26C455.85 128.527 456.526 127.793 457.16 127.074L460.528 122.945C461.496 121.628 462.35 120.396 463.141 119.306L464.244 117.747L465.127 116.323L466.515 114.095C466.893 113.504 467.178 113.048 467.377 112.728C467.576 112.407 467.64 112.286 467.64 112.286Z" fill="#263238"/>
<path d="M353.336 176.017C353.336 176.017 353.286 175.975 353.208 175.875L352.859 175.434L351.556 173.725L350.616 172.479C350.289 172.016 349.961 171.489 349.591 170.934C348.879 169.823 347.982 168.584 347.177 167.117L345.86 164.839C345.404 164.049 345.006 163.18 344.557 162.304C343.624 160.567 342.82 158.623 341.93 156.608C338.262 147.695 336.152 138.218 335.693 128.591C335.636 126.377 335.536 124.276 335.643 122.304C335.686 121.322 335.643 120.368 335.75 119.456C335.857 118.545 335.906 117.669 335.978 116.836C336.084 115.163 336.362 113.668 336.54 112.35C336.647 111.695 336.718 111.083 336.825 110.521C336.932 109.958 337.046 109.46 337.145 108.997C337.338 108.1 337.487 107.402 337.601 106.861C337.651 106.64 337.694 106.462 337.729 106.313C337.765 106.163 337.779 106.128 337.786 106.135C337.791 106.199 337.791 106.263 337.786 106.327C337.786 106.469 337.729 106.654 337.694 106.875L337.309 109.011C337.224 109.474 337.124 109.979 337.017 110.535C336.91 111.09 336.86 111.71 336.768 112.372C336.611 113.689 336.355 115.177 336.262 116.843C336.198 117.676 336.127 118.552 336.063 119.456C335.999 120.36 336.006 121.314 335.978 122.304C335.885 124.269 335.978 126.363 336.056 128.57C336.537 138.155 338.629 147.59 342.243 156.48C343.119 158.502 343.909 160.446 344.828 162.176C345.276 163.052 345.668 163.913 346.109 164.711L347.405 166.989C348.188 168.463 349.057 169.709 349.762 170.827C350.125 171.389 350.474 171.916 350.766 172.386C351.058 172.856 351.399 173.262 351.67 173.646C352.204 174.358 352.617 174.978 352.923 175.398L353.236 175.861C353.276 175.909 353.309 175.962 353.336 176.017Z" fill="#263238"/>
<path d="M319.431 138.68L243.724 154.344C243.724 154.344 243.389 161.742 245.247 161.799C246.799 161.848 303.083 151.695 321.339 148.392C322.04 148.265 322.706 147.987 323.29 147.578C323.874 147.169 324.362 146.639 324.721 146.023C325.079 145.407 325.3 144.72 325.368 144.011C325.435 143.301 325.348 142.585 325.112 141.912C324.714 140.779 323.919 139.828 322.876 139.235C321.832 138.641 320.608 138.444 319.431 138.68Z" fill="#BA68C8"/>
<path d="M395.499 131.69C395.512 122.402 387.423 114.861 377.431 114.847C367.439 114.833 359.328 122.351 359.315 131.639C359.303 140.927 367.392 148.468 377.384 148.482C387.376 148.496 395.486 140.978 395.499 131.69Z" fill="#FAFAFA"/>
<path d="M395.507 131.695C395.5 131.601 395.5 131.505 395.507 131.411C395.507 131.204 395.464 130.934 395.443 130.585C395.443 130.4 395.443 130.2 395.4 129.972C395.357 129.745 395.322 129.51 395.272 129.26C395.222 129.011 395.179 128.719 395.13 128.42C395.08 128.121 394.959 127.808 394.866 127.473C394.657 126.744 394.398 126.03 394.09 125.337C392.769 122.483 390.693 120.043 388.088 118.281C385.861 116.764 383.329 115.753 380.669 115.319C379.944 115.196 379.211 115.12 378.476 115.092C378.099 115.092 377.721 115.042 377.344 115.049L376.198 115.106H375.621L375.037 115.184L373.869 115.355L372.709 115.633L372.118 115.768L371.548 115.967C368.289 117.003 365.397 118.956 363.218 121.592C360.853 124.413 359.557 127.976 359.557 131.656C359.557 135.337 360.853 138.9 363.218 141.72C365.388 144.361 368.273 146.321 371.527 147.367L372.104 147.566L372.695 147.708L373.855 147.986L375.023 148.157L375.6 148.242H376.183L377.33 148.299C377.707 148.299 378.084 148.299 378.455 148.264C379.19 148.236 379.922 148.16 380.648 148.036C383.291 147.609 385.808 146.602 388.017 145.088C391.329 142.954 393.751 139.686 394.831 135.896C394.916 135.562 395.023 135.255 395.087 134.956C395.151 134.657 395.194 134.373 395.236 134.109C395.279 133.846 395.329 133.611 395.365 133.397C395.4 133.183 395.365 132.97 395.407 132.792C395.436 132.441 395.457 132.163 395.471 131.959C395.477 131.866 395.489 131.773 395.507 131.681C395.515 131.776 395.515 131.871 395.507 131.966V132.792C395.507 132.977 395.507 133.183 395.507 133.411C395.507 133.639 395.436 133.881 395.393 134.123C395.35 134.365 395.308 134.672 395.265 134.978C395.222 135.284 395.101 135.59 395.016 135.932C394.816 136.678 394.561 137.409 394.254 138.118C393.875 138.959 393.43 139.768 392.922 140.538C391.675 142.414 390.077 144.032 388.216 145.302C385.962 146.854 383.392 147.888 380.69 148.328C379.953 148.454 379.209 148.532 378.462 148.563C378.084 148.563 377.7 148.613 377.315 148.605L376.155 148.556H375.564L374.973 148.47L373.784 148.299L372.602 148.022L372.004 147.879L371.42 147.68C368.095 146.622 365.146 144.627 362.926 141.934C360.503 139.052 359.174 135.407 359.174 131.642C359.174 127.877 360.503 124.232 362.926 121.35C365.168 118.67 368.134 116.693 371.47 115.654L372.054 115.462L372.652 115.319L373.841 115.042L375.03 114.871L375.614 114.793H376.205L377.372 114.743C377.757 114.743 378.141 114.778 378.519 114.793C379.266 114.822 380.011 114.903 380.747 115.035C383.422 115.473 385.968 116.497 388.202 118.032C390.061 119.305 391.655 120.928 392.894 122.81C393.848 124.217 394.554 125.777 394.98 127.423C395.066 127.758 395.158 128.071 395.222 128.377C395.286 128.684 395.315 128.968 395.35 129.232C395.386 129.495 395.429 129.737 395.464 129.944C395.5 130.15 395.464 130.371 395.464 130.556C395.464 130.912 395.464 131.183 395.464 131.389C395.488 131.49 395.502 131.592 395.507 131.695Z" fill="#263238"/>
<path d="M163.389 192.457C161.296 193.383 158.91 193.269 156.639 193.02C154.368 192.771 152.068 192.386 149.825 192.828C146.351 193.54 143.289 196.131 139.75 195.946C134.845 195.69 131.918 190.407 127.582 188.114C122.314 185.266 115.243 187.046 111 181.806C109.739 180.246 108.97 178.347 108.789 176.35C108.607 174.352 109.023 172.346 109.982 170.585C113.065 165.024 120.185 164.098 125.738 166.099C130.516 167.815 134.425 171.297 138.148 174.743C139.416 175.918 140.683 177.099 141.993 178.231C144.087 180.035 146.526 181.394 149.161 182.225C151.796 183.056 154.573 183.342 157.323 183.066C159.983 182.791 162.647 183.556 164.756 185.202C165.323 185.653 165.768 186.237 166.052 186.904C166.349 187.544 166.479 188.25 166.429 188.954C166.258 190.699 165.083 191.71 163.389 192.457Z" fill="#BA68C8"/>
<g opacity="0.8">
<path opacity="0.8" d="M163.389 192.457C161.296 193.383 158.91 193.269 156.639 193.02C154.368 192.771 152.068 192.386 149.825 192.828C146.351 193.54 143.289 196.131 139.75 195.946C134.845 195.69 131.918 190.407 127.582 188.114C122.314 185.266 115.243 187.046 111 181.806C109.739 180.246 108.97 178.347 108.789 176.35C108.607 174.352 109.023 172.346 109.982 170.585C113.065 165.024 120.185 164.098 125.738 166.099C130.516 167.815 134.425 171.297 138.148 174.743C139.416 175.918 140.683 177.099 141.993 178.231C144.087 180.035 146.526 181.394 149.161 182.225C151.796 183.056 154.573 183.342 157.323 183.066C159.983 182.791 162.647 183.556 164.756 185.202C165.323 185.653 165.768 186.237 166.052 186.904C166.349 187.544 166.479 188.25 166.429 188.954C166.258 190.699 165.083 191.71 163.389 192.457Z" fill="white"/>
</g>
<path d="M82.8254 190.093C81.4014 187.623 77.1294 187.566 74.552 188.819C71.9745 190.072 70.223 192.464 68.4928 194.721C66.7627 196.978 64.8047 199.278 62.0848 200.204C59.187 201.193 56.0328 200.403 52.9712 200.424C49.9096 200.446 46.3283 201.912 45.8512 204.931C45.7056 205.806 45.7676 206.702 46.0323 207.548C46.297 208.394 46.7569 209.166 47.3749 209.801C48.6028 210.96 50.031 211.887 51.5899 212.536C55.6644 214.176 60.0137 215.027 64.4059 215.042C67.2248 214.993 69.9949 214.298 72.5031 213.01C75.0112 211.723 77.1907 209.877 78.8738 207.616C82.1917 203.073 86.6417 195.17 82.7471 190.093" fill="#BA68C8"/>
<g opacity="0.8">
<path opacity="0.8" d="M82.8254 190.093C81.4014 187.623 77.1294 187.566 74.552 188.819C71.9745 190.072 70.223 192.464 68.4928 194.721C66.7627 196.978 64.8047 199.278 62.0848 200.204C59.187 201.193 56.0328 200.403 52.9712 200.424C49.9096 200.446 46.3283 201.912 45.8512 204.931C45.7056 205.806 45.7676 206.702 46.0323 207.548C46.297 208.394 46.7569 209.166 47.3749 209.801C48.6028 210.96 50.031 211.887 51.5899 212.536C55.6644 214.176 60.0137 215.027 64.4059 215.042C67.2248 214.993 69.9949 214.298 72.5031 213.01C75.0112 211.723 77.1907 209.877 78.8738 207.616C82.1917 203.073 86.6417 195.17 82.7471 190.093" fill="white"/>
</g>
<path d="M5.21759 204.632C3.94071 205.086 2.79767 205.852 1.89254 206.861C1.4433 207.368 1.12996 207.981 0.981788 208.642C0.833618 209.303 0.855456 209.991 1.04526 210.642C1.26556 211.281 1.71778 211.814 2.31242 212.136C2.90707 212.458 3.60082 212.544 4.25639 212.379C4.93279 212.144 5.48815 211.596 6.19303 211.475C7.31799 211.29 8.32903 212.258 9.42551 212.457C11.0987 212.749 12.6722 211.069 12.658 209.367C12.6438 207.666 11.234 206.384 9.88831 205.38C9.21431 204.916 8.44533 204.608 7.63736 204.479C6.82938 204.35 6.00273 204.402 5.21759 204.632Z" fill="#BA68C8"/>
<g opacity="0.8">
<path opacity="0.8" d="M5.21759 204.632C3.94071 205.086 2.79767 205.852 1.89254 206.861C1.4433 207.368 1.12996 207.981 0.981788 208.642C0.833618 209.303 0.855456 209.991 1.04526 210.642C1.26556 211.281 1.71778 211.814 2.31242 212.136C2.90707 212.458 3.60082 212.544 4.25639 212.379C4.93279 212.144 5.48815 211.596 6.19303 211.475C7.31799 211.29 8.32903 212.258 9.42551 212.457C11.0987 212.749 12.6722 211.069 12.658 209.367C12.6438 207.666 11.234 206.384 9.88831 205.38C9.21431 204.916 8.44533 204.608 7.63736 204.479C6.82938 204.35 6.00273 204.402 5.21759 204.632Z" fill="white"/>
</g>
<path d="M316.105 88.4057C310.288 88.1209 307.419 92.5069 304.165 93.3897C300.911 94.2726 297.358 94.4293 294.232 93.1619C290.174 91.5101 287.404 87.7721 283.852 85.216C276.732 80.0825 266.158 80.3886 259.337 85.928C259.181 89.8084 262.499 92.8771 265.71 95.0558C268.921 97.2345 277.814 100.367 278.974 104.084C279.829 106.861 273.834 109.196 275.343 111.681C276.853 114.166 281.844 113.917 284.599 113.44C301.986 110.449 295.884 115.768 301.267 115.277C301.267 115.277 312.538 112.429 321.374 110.962" fill="#455A64"/>
<path d="M374.71 190.777L369.063 177.655L381.118 172.436L385.311 188.897L375.222 190.777" fill="#FFBE9D"/>
<path d="M385.305 186.761L388.865 198.26C388.865 198.26 401.731 198.531 402.592 200.595L380.52 208.235L374.29 190.549L385.305 186.761Z" fill="#BA68C8"/>
<g opacity="0.6">
<path opacity="0.6" d="M381.688 199.663C381.498 199.802 381.366 200.005 381.318 200.235C381.269 200.465 381.307 200.705 381.424 200.909C381.554 201.103 381.753 201.241 381.981 201.292C382.209 201.344 382.448 201.306 382.649 201.186C382.85 201.04 382.99 200.825 383.041 200.581C383.092 200.338 383.052 200.084 382.926 199.869C382.77 199.679 382.546 199.557 382.302 199.529C382.057 199.501 381.811 199.57 381.616 199.72" fill="white"/>
</g>
<g opacity="0.6">
<path opacity="0.6" d="M380.52 208.235L379.965 206.427L401.325 199.777C401.325 199.777 402.457 199.862 402.585 200.596L380.52 208.235Z" fill="white"/>
</g>
<path d="M389.157 198.025C389.157 198.132 388.665 198.367 388.26 198.894C387.854 199.421 387.718 199.976 387.605 199.969C387.491 199.962 387.441 199.257 387.946 198.652C388.452 198.047 389.142 197.918 389.157 198.025Z" fill="#263238"/>
<path d="M391.798 198.175C391.855 198.274 391.456 198.616 391.25 199.2C391.043 199.784 391.1 200.296 390.993 200.332C390.886 200.368 390.602 199.777 390.872 199.057C391.143 198.338 391.762 198.075 391.798 198.175Z" fill="#263238"/>
<path d="M394.069 200.488C393.976 200.545 393.642 200.061 393.713 199.371C393.784 198.68 394.211 198.281 394.283 198.352C394.354 198.424 394.162 198.851 394.112 199.413C394.062 199.976 394.176 200.439 394.069 200.488Z" fill="#263238"/>
<path d="M388.06 195.49C388.06 195.604 387.505 195.626 386.906 195.882C386.308 196.138 385.91 196.487 385.817 196.416C385.725 196.345 386.052 195.804 386.757 195.512C387.462 195.22 388.081 195.391 388.06 195.49Z" fill="#263238"/>
<path d="M387.305 193.183C386.978 193.41 386.593 193.541 386.195 193.561C385.773 193.626 385.345 193.643 384.92 193.611C384.669 193.586 384.419 193.546 384.173 193.49C384.023 193.467 383.878 193.419 383.745 193.347C383.648 193.295 383.571 193.212 383.526 193.112C383.481 193.011 383.47 192.899 383.496 192.792C383.526 192.698 383.576 192.612 383.644 192.54C383.712 192.468 383.795 192.413 383.888 192.379C384.026 192.333 384.169 192.304 384.315 192.293C384.571 192.272 384.828 192.272 385.084 192.293C385.515 192.331 385.938 192.437 386.337 192.607C387.049 192.906 387.327 193.247 387.298 193.283C387.27 193.319 386.892 193.084 386.237 192.87C385.857 192.747 385.462 192.675 385.063 192.656C384.826 192.639 384.588 192.639 384.351 192.656C384.094 192.656 383.895 192.742 383.873 192.863C383.852 192.984 383.873 192.927 383.945 192.984C384.042 193.031 384.145 193.064 384.251 193.084C384.485 193.145 384.723 193.19 384.963 193.219C385.364 193.268 385.77 193.28 386.173 193.255C386.549 193.206 386.927 193.182 387.305 193.183Z" fill="#263238"/>
<path d="M387.22 193.39C387.22 193.39 386.835 193.105 386.557 192.422C386.394 192.021 386.302 191.594 386.287 191.161C386.279 190.904 386.296 190.647 386.337 190.393C386.344 190.226 386.395 190.065 386.485 189.924C386.575 189.784 386.701 189.671 386.849 189.595C386.947 189.562 387.052 189.558 387.152 189.583C387.251 189.608 387.342 189.662 387.412 189.737C387.515 189.848 387.601 189.973 387.668 190.108C387.789 190.331 387.875 190.571 387.925 190.82C388.012 191.253 387.988 191.702 387.853 192.123C387.618 192.835 387.213 193.127 387.191 193.098C387.339 192.756 387.47 192.407 387.583 192.051C387.664 191.671 387.664 191.278 387.583 190.898C387.532 190.677 387.45 190.463 387.341 190.264C387.227 190.044 387.07 189.887 386.992 189.937C386.915 189.996 386.853 190.071 386.808 190.158C386.764 190.244 386.739 190.338 386.735 190.435C386.69 190.67 386.666 190.908 386.664 191.147C386.667 191.545 386.724 191.94 386.835 192.322C387.013 192.991 387.27 193.354 387.22 193.39Z" fill="#263238"/>
<path d="M317.059 88.8398C317.059 88.8398 306.614 109.523 313.635 114.372C320.655 119.221 353.443 143.856 353.443 143.856L370.167 188.52L385.831 182.112L372.781 129.837L339.829 100.232L317.059 88.8398Z" fill="#263238"/>
<path d="M357.28 135.661C357.373 135.732 356.29 137.171 355.486 139.221C354.681 141.272 354.461 143.045 354.347 143.03C354.396 140.299 355.439 137.679 357.28 135.661Z" fill="#455A64"/>
<path d="M354.695 135.234C354.802 135.234 354.332 136.957 354.176 139.107C354.019 141.257 354.176 143.002 354.083 143.016C353.739 141.733 353.645 140.397 353.805 139.079C353.847 137.751 354.15 136.445 354.695 135.234Z" fill="#455A64"/>
<path d="M371.748 187.85C371.705 187.782 371.672 187.707 371.648 187.63C371.577 187.466 371.492 187.245 371.378 186.96C371.136 186.355 370.801 185.494 370.367 184.383C369.505 182.133 368.231 178.858 366.75 174.771C365.269 170.684 363.453 165.778 361.581 160.239C361.111 158.858 360.648 157.427 360.192 155.967C359.737 154.507 359.316 152.991 358.704 151.496C357.508 148.527 356.077 145.522 354.51 142.475L354.56 142.525C352.802 141.036 350.943 139.477 349.035 137.911C347.547 136.686 346.073 135.483 344.585 134.351L340.171 131.004C337.28 128.804 334.475 126.69 331.762 124.76C329.049 122.831 326.372 121.136 323.93 119.449C321.626 117.927 319.464 116.199 317.472 114.287C316.602 113.443 315.833 112.502 315.18 111.481C314.609 110.558 314.186 109.552 313.926 108.498C313.54 106.809 313.518 105.056 313.862 103.357C314.073 102.291 314.378 101.245 314.774 100.232C314.902 99.8828 315.023 99.6265 315.094 99.4485C315.129 99.3569 315.171 99.2687 315.222 99.1851C315.222 99.1851 315.222 99.2847 315.13 99.4627C315.037 99.6407 314.959 99.9042 314.845 100.253C314.482 101.273 314.201 102.321 314.005 103.386C313.692 105.064 313.736 106.788 314.133 108.448C314.394 109.478 314.814 110.461 315.379 111.36C316.034 112.356 316.798 113.275 317.657 114.101C319.653 115.987 321.812 117.693 324.108 119.199C326.557 120.865 329.256 122.546 331.976 124.482C334.695 126.419 337.508 128.512 340.406 130.712L344.82 134.059C346.322 135.198 347.796 136.401 349.284 137.619C351.193 139.192 353.051 140.752 354.809 142.247V142.282C356.376 145.344 357.807 148.356 359.003 151.346C359.574 152.813 360.068 154.307 360.484 155.825C360.933 157.291 361.395 158.715 361.851 160.097C363.702 165.636 365.468 170.542 366.942 174.643L370.459 184.29C370.865 185.408 371.171 186.284 371.406 186.896L371.641 187.608C371.688 187.684 371.724 187.765 371.748 187.85Z" fill="#455A64"/>
<path d="M329.939 95.4614L350.132 98.3237L360.484 100.958L346.308 106.042L329.939 95.4614Z" fill="#263238"/>
<path d="M305.218 94.0021C305.103 94.183 304.961 94.3461 304.798 94.4862C304.392 94.9028 303.959 95.2929 303.503 95.6539C300.486 98.0682 296.852 99.5855 293.015 100.033C292.438 100.104 291.858 100.137 291.278 100.132C291.063 100.154 290.846 100.14 290.637 100.09C290.637 100.026 291.541 99.9971 292.979 99.7693C294.85 99.4812 296.679 98.9672 298.426 98.2385C300.171 97.5046 301.823 96.5652 303.346 95.4403C304.514 94.5788 305.176 93.9594 305.218 94.0021Z" fill="#263238"/>
<path d="M319.715 64.4396L315.82 93.717C315.82 93.717 328.765 92.8697 337.892 95.9028C347.02 98.936 352.631 98.8505 352.631 98.8505L350.723 80.6376L357.536 65.6856L360.534 83.1652L374.532 97.576L383.653 95.5112L374.197 79.6764L367.633 47.4085C367.079 44.7187 365.622 42.2993 363.503 40.552L363.24 40.3384L349.498 32.6772L344.884 32.7698C340.985 32.8549 337.099 33.2549 333.264 33.966C330.871 34.4113 328.674 35.5879 326.977 37.3337C325.45 39.0487 324.35 41.1005 323.766 43.3216L319.715 64.4396Z" fill="#BA68C8"/>
<path d="M363.368 52.1934C363.284 52.5192 363.17 52.8363 363.026 53.1403L361.986 55.6466C361.089 57.7826 359.85 60.6662 358.426 63.8702L354.781 72.0653C354.325 73.055 353.941 73.8809 353.649 74.5359C353.521 74.8429 353.371 75.1403 353.2 75.4259C353.264 75.0983 353.37 74.7801 353.513 74.479C353.748 73.8738 354.097 73.0194 354.539 71.9585C355.422 69.8225 356.675 66.9318 358.099 63.7206C359.523 60.5095 360.811 57.6259 361.766 55.5398L362.919 53.0762C363.037 52.7672 363.188 52.4713 363.368 52.1934Z" fill="#263238"/>
<path d="M324.528 47.0951C327.205 54.5569 332.36 71.595 334.867 78.1668C335.636 80.1608 336.924 81.9133 338.597 83.2434L366.365 102.887L372.773 94.5499L351.962 74.4715L340.741 41.2283C339.16 36.7925 332.602 34.3859 328.53 36.7569C325.44 38.5867 323.325 43.6775 324.528 47.0951Z" fill="#BA68C8"/>
<path d="M341.282 42.6099C341.282 42.6099 341.36 42.8021 341.495 43.1795L342.093 44.874C342.606 46.3763 343.361 48.5479 344.308 51.3176L352.14 74.422L352.097 74.3579L372.944 94.415L373.058 94.5289L372.958 94.6571L368.345 100.659C367.725 101.457 367.113 102.261 366.543 103.002L366.436 103.144L366.287 103.037L344.97 87.6795L340.192 84.2405L339.046 83.4146C338.656 83.1488 338.285 82.8561 337.935 82.5388C337.257 81.9056 336.664 81.1877 336.169 80.4028C335.696 79.6527 335.307 78.8528 335.009 78.0176L334.09 75.6538C333.506 74.1087 332.951 72.6207 332.438 71.1895C330.395 65.4935 328.878 60.8371 327.867 57.6188C327.369 56.0168 326.985 54.7708 326.714 53.9093C326.593 53.4963 326.493 53.1973 326.429 52.941C326.395 52.831 326.366 52.7193 326.344 52.6063C326.344 52.6063 326.386 52.7131 326.465 52.9339C326.543 53.1546 326.643 53.4821 326.785 53.8879C327.063 54.7423 327.497 55.9812 328.003 57.5761C329.064 60.7801 330.602 65.4081 332.681 71.1041C333.2 72.5281 333.763 74.0091 334.354 75.5541C334.66 76.3231 334.966 77.1134 335.279 77.9108C335.576 78.7261 335.96 79.5068 336.426 80.2391C336.912 80.9922 337.491 81.6811 338.149 82.2896C338.488 82.5987 338.85 82.882 339.231 83.1369L340.384 83.9628L345.176 87.416L366.536 102.745H366.287L368.088 100.403L372.702 94.4079V94.6499L351.897 74.6V74.5644C348.693 64.9738 346.038 57.0065 344.172 51.4173L342.036 44.9452L341.488 43.2435C341.331 42.8092 341.282 42.6099 341.282 42.6099Z" fill="#263238"/>
<path d="M338.626 38.5513C338.583 38.5941 338.121 38.1099 337.202 37.5474C336.03 36.8103 334.687 36.3882 333.304 36.3221C331.92 36.256 330.543 36.5481 329.306 37.1701C328.352 37.64 327.846 38.0814 327.804 38.0316C328.178 37.5689 328.65 37.1945 329.185 36.9351C330.443 36.224 331.877 35.8834 333.321 35.9527C334.765 36.022 336.16 36.4983 337.345 37.3267C337.855 37.6379 338.292 38.0556 338.626 38.5513Z" fill="#263238"/>
<path d="M374.809 80.1106C374.809 80.2246 373.492 80.1106 371.961 80.4666C370.43 80.8226 369.327 81.5489 369.263 81.4492C369.979 80.7482 370.889 80.2792 371.876 80.1035C372.831 79.8062 373.855 79.8087 374.809 80.1106Z" fill="#263238"/>
<path d="M328.181 58.3165C328.091 58.3505 327.998 58.3744 327.903 58.3877C327.649 58.4433 327.392 58.4837 327.134 58.5087C326.276 58.598 325.41 58.5426 324.571 58.345C323.481 58.0559 322.469 57.5281 321.609 56.7999C321.533 56.7416 321.463 56.6747 321.402 56.6006C322.369 57.3146 323.454 57.8543 324.606 58.1955C325.783 58.429 326.99 58.4699 328.181 58.3165Z" fill="#FAFAFA"/>
<path d="M330.345 64.6676C329.922 64.3837 329.482 64.1246 329.028 63.8915C327.909 63.3699 326.701 63.0632 325.468 62.9873C324.236 62.911 323 62.9372 321.773 63.0656L320.655 63.1724C320.518 63.182 320.38 63.182 320.242 63.1724C320.374 63.1324 320.51 63.1061 320.648 63.094C320.911 63.0513 321.289 63.0015 321.766 62.9445C322.995 62.7816 324.238 62.7387 325.475 62.8164C326.714 62.8989 327.924 63.2256 329.035 63.7776C329.371 63.9484 329.69 64.1485 329.989 64.3756C330.121 64.4564 330.241 64.5546 330.345 64.6676Z" fill="#FAFAFA"/>
<g opacity="0.4">
<path opacity="0.4" d="M326.757 53.8809C326.757 53.8809 327.469 65.0165 328.302 70.1643C329.135 75.3121 330.758 80.5524 334.446 84.2334C338.135 87.9145 343.432 89.5805 348.58 90.6414C346.914 89.3883 345.29 88.0996 343.688 86.7681C341.63 85.0593 338.612 83.3861 336.953 81.2786C333.763 77.2273 333.072 72.1081 331.428 67.2237C329.918 62.7097 328.273 58.4163 326.757 53.9093" fill="black"/>
</g>
<path d="M346.095 58.224C345.916 58.3506 345.719 58.4491 345.511 58.5159C344.94 58.7179 344.336 58.8097 343.731 58.7865C342.2 58.7865 340.171 58.0745 337.864 58.2809C335.902 58.433 334.002 59.0426 332.318 60.0609C331.81 60.371 331.322 60.7135 330.858 61.0862L330.488 61.3995C330.402 61.4707 330.353 61.5063 330.353 61.4992C330.917 60.9052 331.559 60.3903 332.261 59.9684C333.951 58.9138 335.871 58.2835 337.857 58.1314C340.192 57.9107 342.236 58.6725 343.731 58.6797C344.325 58.7131 344.921 58.6408 345.49 58.4661C345.888 58.3664 346.088 58.224 346.095 58.224Z" fill="#FAFAFA"/>
<path d="M344.03 52.8483C343.985 52.8837 343.938 52.9147 343.887 52.9409L343.481 53.1759C343.125 53.3824 342.598 53.6529 341.936 53.9662C338.46 55.5935 334.687 56.4901 330.85 56.6006C330.138 56.6006 329.519 56.6006 329.113 56.6006H328.643C328.589 56.6058 328.534 56.6058 328.479 56.6006H328.643H329.113C329.519 56.6006 330.117 56.6006 330.843 56.565C332.746 56.4814 334.636 56.2192 336.489 55.7818C338.343 55.3355 340.152 54.7207 341.894 53.9448C342.556 53.6458 343.09 53.3824 343.453 53.2328L343.873 53.0192C343.973 52.8626 344.022 52.8412 344.03 52.8483Z" fill="#FAFAFA"/>
<path d="M359.801 58.687L359.608 58.6442C359.425 58.593 359.244 58.5312 359.067 58.4591C358.427 58.1768 357.839 57.7867 357.33 57.3057C355.977 56.1522 354.731 53.9878 352.631 52.3217C350.293 50.4557 347.473 49.2927 344.5 48.9681L343.937 48.9112C343.874 48.9233 343.809 48.9233 343.745 48.9112C344.705 48.9083 345.661 49.0231 346.593 49.2529C348.841 49.7781 350.943 50.7999 352.745 52.2434C353.721 53.0515 354.607 53.9634 355.386 54.9632C356.008 55.7805 356.689 56.5516 357.423 57.2701C357.92 57.7506 358.493 58.1473 359.117 58.4449C359.537 58.6158 359.808 58.6656 359.801 58.687Z" fill="#FAFAFA"/>
<path d="M358.968 62.0832C358.765 62.0385 358.565 61.9814 358.37 61.9123C357.853 61.6944 357.373 61.3991 356.946 61.0365C356.314 60.4922 355.73 59.8943 355.201 59.2494C354.555 58.4747 353.84 57.7598 353.065 57.1134C352.272 56.4853 351.326 56.0798 350.324 55.9386C349.508 55.8242 348.681 55.8074 347.86 55.8888C347.148 55.9528 346.586 56.0383 346.194 56.0881L345.739 56.1522C345.687 56.1601 345.634 56.1601 345.582 56.1522C345.629 56.1295 345.68 56.115 345.732 56.1095L346.18 56.0169C346.572 55.9457 347.141 55.846 347.846 55.7748C348.676 55.6682 349.516 55.6682 350.345 55.7748C351.387 55.9036 352.372 56.3176 353.193 56.971C353.975 57.6305 354.691 58.365 355.329 59.164C355.854 59.8029 356.426 60.4025 357.038 60.9582C357.467 61.3246 357.946 61.6268 358.462 61.8553C358.761 62.0048 358.968 62.0689 358.968 62.0832Z" fill="#FAFAFA"/>
<path d="M369.875 59.7904C369.361 59.6508 368.827 59.5979 368.295 59.6338C367.718 59.6841 367.15 59.811 366.607 60.0112C365.995 60.2248 365.34 60.5381 364.649 60.8513C364.001 61.1568 363.324 61.3954 362.627 61.5633C362.051 61.6968 361.456 61.7282 360.868 61.6559C360.472 61.6016 360.088 61.4762 359.736 61.2857C359.623 61.2256 359.515 61.154 359.416 61.072C359.872 61.3476 360.382 61.5223 360.911 61.5847C361.484 61.6433 362.062 61.6023 362.62 61.4637C363.306 61.2929 363.974 61.0544 364.614 60.7517C365.326 60.4384 365.966 60.1322 366.593 59.9186C367.149 59.7233 367.728 59.6036 368.316 59.5626C368.714 59.5386 369.112 59.577 369.498 59.6765C369.628 59.7005 369.754 59.7387 369.875 59.7904Z" fill="#FAFAFA"/>
<path d="M371.001 63.6637C370.432 63.2351 369.747 62.9871 369.036 62.9517C368.27 62.9261 367.508 63.0645 366.8 63.3575C365.941 63.7407 365.126 64.2183 364.372 64.7815C363.612 65.3495 362.804 65.8521 361.959 66.2839C361.257 66.6275 360.495 66.833 359.716 66.8891C359.191 66.9198 358.665 66.8423 358.171 66.6612C357.989 66.5927 357.817 66.5018 357.658 66.3907C358.294 66.703 359.002 66.8382 359.709 66.7823C360.472 66.7132 361.215 66.5031 361.902 66.1628C362.734 65.723 363.531 65.2208 364.287 64.6605C365.052 64.095 365.878 63.6173 366.75 63.2365C367.477 62.9424 368.26 62.8112 369.043 62.852C369.571 62.8822 370.085 63.0332 370.545 63.2934C370.714 63.3953 370.867 63.5199 371.001 63.6637Z" fill="#FAFAFA"/>
<g opacity="0.4">
<path opacity="0.4" d="M359.16 75.1269C360.584 69.2956 360.897 62.9802 361.104 56.978C360.598 59.0784 359.31 60.894 358.512 62.909C358.128 63.8631 357.522 65.6003 357.522 65.6003L359.132 74.9845" fill="black"/>
</g>
<path d="M349.761 6.53271C349.682 7.07021 349.456 7.57542 349.108 7.99256C348.76 8.4097 348.304 8.72255 347.789 8.89656C347.205 9.0888 346.564 9.0888 345.988 9.30952C345.691 9.39335 345.432 9.57598 345.253 9.82718C345.074 10.0784 344.987 10.3831 345.005 10.6908C345.105 11.1465 345.525 11.4384 345.866 11.7446C346.208 12.0507 346.522 12.5349 346.322 12.9478C346.123 13.3608 345.446 13.4462 345.105 13.8236C344.949 14.0417 344.871 14.3064 344.885 14.5742C344.9 14.8421 345.005 15.0971 345.183 15.2974C345.551 15.6888 345.976 16.0225 346.443 16.2871C346.913 16.5569 347.26 16.9984 347.412 17.5189" fill="#263238"/>
<path d="M370.88 15.7816C372.446 12.4708 371.307 8.34834 368.865 5.61426C366.423 2.88018 362.919 1.34226 359.402 0.3241C358.897 0.1817 358.27 0.0748978 357.914 0.466498C357.781 0.656006 357.717 0.88571 357.734 1.11669C357.751 1.34766 357.847 1.56571 358.007 1.73386C358.336 2.06449 358.742 2.309 359.189 2.44586C357.768 1.70401 356.204 1.27891 354.603 1.19986C354.043 1.157 353.482 1.2756 352.987 1.54162C352.746 1.68309 352.555 1.89649 352.442 2.15188C352.328 2.40726 352.297 2.69182 352.353 2.96562C352.395 3.09991 352.469 3.22209 352.569 3.3218C352.668 3.42151 352.79 3.49582 352.924 3.53843C353.058 3.58104 353.2 3.5907 353.339 3.5666C353.478 3.54249 353.609 3.48532 353.72 3.39994C352.197 3.23448 350.662 3.59364 349.37 4.4181C348.459 5.00194 347.626 6.01298 347.846 7.07386C348.079 7.6655 348.345 8.24319 348.644 8.80402C349.021 9.90762 348.473 11.0895 348.053 12.1718C347.356 13.8547 347.11 15.6906 347.341 17.4975C347.46 18.4 347.777 19.2651 348.269 20.0307C348.761 20.7964 349.417 21.4436 350.189 21.9262" fill="#263238"/>
<path d="M349.042 43.6993C348.102 43.4474 347.222 43.01 346.454 42.4129C345.686 41.8157 345.046 41.0709 344.57 40.2222C344.094 39.3736 343.793 38.4383 343.684 37.4715C343.576 36.5047 343.662 35.5259 343.937 34.5928L350.473 12.4639C350.833 11.1132 351.46 9.84855 352.318 8.7446C353.175 7.64066 354.245 6.71989 355.465 6.03679C356.684 5.35369 358.028 4.92213 359.418 4.76765C360.807 4.61316 362.213 4.73889 363.553 5.13739L364.065 5.32251C366.552 6.22211 368.609 8.02437 369.828 10.3711C371.047 12.7179 371.338 15.4373 370.644 17.989C369.298 22.9089 367.746 28.3343 366.785 30.8904C364.799 36.1806 359.188 35.0841 359.188 35.0841L357.807 39.0499C357.204 40.789 355.964 42.2351 354.338 43.0977C352.712 43.9602 350.82 44.1752 349.042 43.6993Z" fill="#FFBE9D"/>
<path d="M359.224 35.0129C356.754 34.1719 354.59 32.6155 353.008 30.5415C353.008 30.5415 353.264 34.9559 358.704 36.3941L359.224 35.0129Z" fill="#EB996E"/>
<path d="M358.22 8.38416C357.786 7.43008 357.238 5.35104 356.497 4.60344C355.757 3.85584 354.554 4.10504 353.543 4.38984C353.022 4.54073 352.545 4.81304 352.15 5.18438C351.755 5.55571 351.454 6.01547 351.271 6.52584C349.847 10.3493 349.705 13.9662 348.665 17.7256C348.571 17.9705 348.548 18.2374 348.601 18.4946C348.801 19.1282 349.498 19.3561 350.161 19.4558C351.791 19.6907 352.624 18.5017 353.393 17.0706C353.652 16.2039 353.842 15.3183 353.963 14.4219C354.054 13.1645 354.474 11.9531 355.181 10.9096C355.889 9.866 356.858 9.02695 357.993 8.47672L358.22 8.38416Z" fill="#263238"/>
<path d="M351.392 15.504C351.321 15.4328 348.131 13.1046 346.935 16.7785C345.739 20.4524 349.676 20.901 349.719 20.7942C349.762 20.6874 351.392 15.504 351.392 15.504Z" fill="#FFBE9D"/>
<path d="M349.049 19.0641C349.049 19.0641 348.971 19.0641 348.843 19.1068C348.668 19.118 348.496 19.0648 348.359 18.9573C348.171 18.7293 348.048 18.4553 348.001 18.1636C347.955 17.872 347.987 17.5733 348.095 17.2984C348.189 16.9795 348.352 16.6853 348.572 16.4368C348.645 16.3341 348.741 16.2502 348.852 16.192C348.964 16.1337 349.087 16.103 349.213 16.1022C349.292 16.1092 349.367 16.1424 349.425 16.1966C349.483 16.2507 349.521 16.3228 349.533 16.4012C349.533 16.5223 349.533 16.5864 349.533 16.6006C349.533 16.6148 349.633 16.565 349.654 16.4012C349.662 16.3033 349.637 16.2056 349.583 16.1236C349.545 16.0693 349.496 16.0231 349.44 15.9877C349.384 15.9523 349.321 15.9283 349.256 15.9171C349.095 15.899 348.932 15.9222 348.782 15.9845C348.633 16.0468 348.502 16.1461 348.401 16.2731C348.144 16.5406 347.954 16.8651 347.846 17.22C347.722 17.5421 347.697 17.8934 347.771 18.2302C347.846 18.5669 348.018 18.8743 348.266 19.114C348.355 19.1745 348.456 19.2143 348.562 19.2303C348.668 19.2463 348.776 19.2382 348.878 19.2065C349.014 19.1282 349.056 19.0641 349.049 19.0641Z" fill="#EB996E"/>
<path d="M356.803 9.17429C358.612 7.93541 360.477 8.54773 361.723 9.27397C362.969 10.0002 364.023 11.0255 365.283 11.6876C366.543 12.3498 368.231 12.5777 369.37 11.6876C369.772 11.3284 370.095 10.89 370.319 10.3998C370.543 9.90974 370.664 9.37855 370.673 8.83965C370.754 7.81405 370.631 6.78256 370.311 5.80486C369.991 4.82715 369.48 3.92265 368.808 3.14365C368.459 2.73781 367.918 2.34621 367.426 2.55981C366.821 2.83037 366.921 3.71325 367.113 4.34693C367.113 4.34693 360.933 2.06141 357.145 3.37861C353.357 4.69581 356.803 9.17429 356.803 9.17429Z" fill="#263238"/>
<path d="M359.125 0.25293C359.125 0.25293 359.196 0.52349 359.388 0.96493C359.679 1.57882 360.077 2.13583 360.563 2.60965C361.285 3.31372 362.117 3.89566 363.027 4.33269C363.563 4.58472 364.127 4.77348 364.707 4.89517C365.312 5.03045 365.96 5.12301 366.615 5.30101C367.272 5.46199 367.883 5.77132 368.402 6.20525C368.878 6.61897 369.247 7.14174 369.477 7.72893C369.688 8.26231 369.764 8.83951 369.698 9.40925C369.633 9.90024 369.453 10.3688 369.171 10.7763C368.77 11.3701 368.181 11.8115 367.498 12.0294C367.312 12.0818 367.121 12.1105 366.928 12.1148C366.8 12.1148 366.729 12.1148 366.729 12.1148C366.729 12.1148 367.007 12.1149 367.441 11.9226C368.069 11.6768 368.602 11.238 368.965 10.6695C369.211 10.2819 369.366 9.84386 369.42 9.38789C369.47 8.86605 369.389 8.34007 369.185 7.85709C368.97 7.30893 368.625 6.82058 368.181 6.43309C367.701 6.04154 367.139 5.76185 366.537 5.61429C365.91 5.44341 365.262 5.34373 364.643 5.20133C364.041 5.07189 363.458 4.86862 362.906 4.59613C361.973 4.13607 361.127 3.51685 360.406 2.76629C359.916 2.26269 359.533 1.66427 359.281 1.00765C359.214 0.828744 359.168 0.642237 359.146 0.452289C359.127 0.38778 359.119 0.320136 359.125 0.25293Z" fill="#455A64"/>
<path d="M355.044 1.36377C355.044 1.36377 355.137 1.63433 355.343 2.07577C355.652 2.71521 356.083 3.28836 356.611 3.76321C357.404 4.46065 358.332 4.98666 359.338 5.30825C360.581 5.69731 361.852 5.99243 363.14 6.19113C364.454 6.38022 365.736 6.74917 366.949 7.28761C367.497 7.55167 367.937 7.99682 368.195 8.54785C368.384 9.04127 368.414 9.58161 368.28 10.0929C368.07 10.816 367.601 11.4367 366.963 11.8373C366.797 11.9472 366.621 12.0402 366.436 12.115C366.374 12.1468 366.306 12.1684 366.237 12.1791C366.237 12.1791 366.486 12.0366 366.892 11.7305C367.465 11.3213 367.875 10.7241 368.053 10.0431C368.167 9.58663 368.134 9.1059 367.96 8.66889C367.719 8.18045 367.317 7.79049 366.821 7.56529C365.628 7.05719 364.374 6.70771 363.09 6.52577C361.787 6.32295 360.504 6.01337 359.252 5.60017C358.216 5.25697 357.266 4.69345 356.468 3.94833C355.936 3.43961 355.518 2.82302 355.244 2.13985C355.171 1.95567 355.116 1.76493 355.08 1.57025C355.054 1.50467 355.042 1.43433 355.044 1.36377Z" fill="#455A64"/>
<path d="M367.099 20.5447C367.027 20.7605 366.874 20.9395 366.671 21.0434C366.469 21.1472 366.234 21.1676 366.017 21.1C365.908 21.0728 365.806 21.0241 365.717 20.9566C365.627 20.8891 365.553 20.8043 365.497 20.7073C365.441 20.6103 365.405 20.503 365.392 20.3919C365.378 20.2807 365.387 20.168 365.419 20.0605C365.492 19.8439 365.646 19.6643 365.85 19.5593C366.053 19.4544 366.289 19.4324 366.508 19.498C366.616 19.5268 366.717 19.5769 366.806 19.6454C366.895 19.7139 366.969 19.7994 367.024 19.8969C367.079 19.9944 367.114 20.102 367.127 20.2132C367.14 20.3244 367.13 20.4371 367.099 20.5447Z" fill="#263238"/>
<path d="M368.672 20.0749C368.53 20.1461 368.067 19.4697 367.17 19.1636C366.273 18.8574 365.475 19.071 365.418 18.9286C365.361 18.7862 365.553 18.7079 365.916 18.6011C366.391 18.4688 366.894 18.4853 367.359 18.6483C367.824 18.8113 368.227 19.1129 368.515 19.5124C368.722 19.8186 368.743 20.0464 368.672 20.0749Z" fill="#263238"/>
<path d="M358.299 18.0102C358.225 18.2266 358.07 18.4057 357.867 18.5095C357.663 18.6132 357.427 18.6334 357.209 18.5656C357.101 18.5376 357 18.4883 356.911 18.4205C356.823 18.3527 356.749 18.2678 356.694 18.1708C356.639 18.0739 356.604 17.9669 356.591 17.8561C356.578 17.7454 356.587 17.6331 356.618 17.5261C356.69 17.31 356.843 17.1304 357.045 17.0254C357.247 16.9204 357.482 16.8983 357.7 16.9636C357.809 16.9916 357.911 17.0411 358.001 17.1093C358.09 17.1774 358.165 17.2629 358.221 17.3605C358.277 17.458 358.312 17.5658 358.325 17.6775C358.339 17.7891 358.33 17.9022 358.299 18.0102Z" fill="#263238"/>
<path d="M359.865 17.1983C359.723 17.2767 359.26 16.5932 358.37 16.287C357.48 15.9808 356.668 16.1944 356.611 16.052C356.554 15.9096 356.754 15.8313 357.11 15.7245C357.578 15.5957 358.075 15.613 358.534 15.7744C358.997 15.9329 359.399 16.2346 359.68 16.6359C359.908 16.9278 359.929 17.1699 359.865 17.1983Z" fill="#263238"/>
<path d="M360.84 24.931C361.361 24.9474 361.877 25.0288 362.378 25.1731C362.613 25.23 362.841 25.2585 362.933 25.1161C363.031 24.8924 363.061 24.6447 363.019 24.4041C363.019 23.7776 362.969 23.1225 362.947 22.439C362.831 20.755 362.853 19.0643 363.011 17.3838C363.256 19.0551 363.37 20.7429 363.353 22.4319C363.353 23.1439 363.353 23.7704 363.353 24.397C363.403 24.7209 363.335 25.0519 363.161 25.3297C363.101 25.3984 363.026 25.4526 362.942 25.4883C362.859 25.5241 362.768 25.5405 362.677 25.5362C362.537 25.5342 362.398 25.5126 362.264 25.4721C361.769 25.3507 361.291 25.1689 360.84 24.931Z" fill="#263238"/>
<path d="M357.992 24.6389C358.134 24.6389 357.8 25.6428 358.391 26.6182C358.982 27.5937 360.05 27.8429 360.007 27.9853C359.964 28.1277 359.715 28.0921 359.295 27.9853C358.726 27.797 358.242 27.4137 357.928 26.903C357.623 26.415 357.524 25.8266 357.65 25.2654C357.714 24.8098 357.899 24.6104 357.992 24.6389Z" fill="#263238"/>
<path d="M361.31 13.7881C361.132 14.0017 360.285 13.5816 359.174 13.3395C358.064 13.0975 357.145 13.0975 357.081 12.834C357.081 12.7059 357.28 12.5279 357.701 12.4139C358.253 12.2794 358.83 12.2737 359.385 12.3971C359.941 12.5205 360.461 12.7699 360.905 13.1259C361.261 13.4321 361.389 13.6884 361.31 13.7881Z" fill="#263238"/>
<path d="M369.249 17.3837C369.021 17.5333 368.48 17.1132 367.747 16.8426C367.013 16.5721 366.323 16.508 366.266 16.2445C366.266 16.1235 366.408 15.9526 366.743 15.8529C367.19 15.7532 367.656 15.7871 368.084 15.9504C368.512 16.1137 368.882 16.3992 369.149 16.7714C369.334 17.0705 369.384 17.3125 369.249 17.3837Z" fill="#263238"/>
<path d="M352.467 96.3799C353.262 96.6693 353.928 97.2324 354.346 97.9683C354.763 98.7041 354.905 99.5646 354.746 100.396L349.932 102.297L348.836 97.6686L352.467 96.3799Z" fill="#455A64"/>
<path d="M312.068 96.3657C312.068 96.3657 321.702 95.3688 327.732 97.4977C333.763 99.6266 341.31 101.214 344.635 100.467C346.415 100.033 348.007 99.0335 349.171 97.6188C349.171 97.6188 339.573 96.4653 335.052 95.0057C332.012 94.0232 326.002 87.2093 314.881 88.8541L312.068 96.3657Z" fill="#455A64"/>
<path d="M350.666 99.8546C350.323 98.9754 349.794 98.181 349.114 97.5264L349.199 97.6403C348.19 97.6845 347.189 97.83 346.209 98.0746C345.227 98.3274 344.345 98.8738 343.681 99.641C343.453 99.8842 343.326 100.205 343.325 100.538C343.372 100.754 343.463 100.958 343.593 101.137C343.723 101.316 343.889 101.466 344.08 101.578C344.96 102.372 345.988 102.984 347.106 103.379C347.668 103.567 348.272 103.588 348.845 103.44C349.419 103.293 349.937 102.982 350.338 102.546C350.606 102.157 350.776 101.709 350.833 101.241C350.89 100.772 350.833 100.296 350.666 99.8546Z" fill="#455A64"/>
<path d="M343.674 99.52C343.731 99.3154 343.836 99.1275 343.98 98.9717C344.365 98.5483 344.857 98.236 345.404 98.0675C346.215 97.7974 347.079 97.7242 347.924 97.8539C348.446 97.9322 348.945 98.1215 349.387 98.4089C349.829 98.6963 350.204 99.0752 350.488 99.52C350.78 99.9883 350.922 100.535 350.893 101.086C350.854 101.602 350.669 102.096 350.359 102.51C350.079 102.881 349.695 103.161 349.256 103.315C348.876 103.443 348.474 103.492 348.074 103.457C347.503 103.403 346.944 103.264 346.415 103.044C346.23 102.973 346.087 102.909 345.988 102.859C345.937 102.841 345.889 102.814 345.845 102.781L346.002 102.831L346.436 102.987C346.965 103.185 347.518 103.308 348.081 103.351C348.486 103.388 348.893 103.324 349.266 103.164C349.639 103.003 349.966 102.752 350.217 102.432C350.527 102.027 350.704 101.536 350.725 101.026C350.745 100.516 350.607 100.013 350.331 99.5841C350.058 99.1571 349.697 98.7933 349.272 98.517C348.847 98.2407 348.368 98.0584 347.867 97.9821C347.044 97.8465 346.2 97.9074 345.404 98.1601C344.866 98.3149 344.376 98.604 343.98 99.0002C343.86 99.1626 343.758 99.3367 343.674 99.52Z" fill="#263238"/>
<path d="M345.71 99.6765C345.532 99.4979 345.341 99.3314 345.141 99.1781C344.913 99.0384 344.675 98.917 344.429 98.8149C344.685 98.8647 344.928 98.9669 345.142 99.1152C345.356 99.2634 345.538 99.4546 345.675 99.6765H345.71Z" fill="#FAFAFA"/>
<path d="M347.27 99.7477C347.27 99.7477 347.049 99.527 346.75 99.2778C346.451 99.0286 346.187 98.8648 346.194 98.8506C346.419 98.9325 346.625 99.0584 346.8 99.2208C346.988 99.3652 347.148 99.544 347.27 99.7477Z" fill="#FAFAFA"/>
<path d="M347.903 103.08C347.903 103.08 347.868 102.916 347.789 102.66C347.685 102.333 347.536 102.021 347.348 101.734C347.148 101.45 346.908 101.196 346.636 100.979C346.429 100.808 346.287 100.723 346.294 100.716C346.427 100.776 346.554 100.85 346.672 100.937C346.948 101.151 347.189 101.408 347.384 101.698C347.578 101.988 347.722 102.308 347.811 102.645C347.857 102.786 347.888 102.932 347.903 103.08Z" fill="#FAFAFA"/>
<path d="M349.484 101.834C349.476 101.696 349.476 101.558 349.484 101.421C349.491 101.089 349.467 100.758 349.412 100.431C349.353 100.107 349.26 99.7894 349.135 99.4842C349.042 99.2492 348.971 99.1068 348.978 99.0997C348.985 99.0926 348.978 99.0997 349.042 99.1923C349.094 99.2799 349.142 99.3702 349.184 99.4628C349.323 99.77 349.423 100.093 349.484 100.424C349.543 100.753 349.56 101.088 349.533 101.421C349.54 101.523 349.54 101.625 349.533 101.727C349.52 101.764 349.503 101.8 349.484 101.834Z" fill="#FAFAFA"/>
<path d="M349.491 98.8647C347.937 99.3927 346.571 100.363 345.561 101.656C345.661 101.435 345.796 101.23 345.959 101.051C346.707 100.133 347.692 99.4384 348.807 99.0427C349.025 98.9506 349.256 98.8906 349.491 98.8647Z" fill="#263238"/>
<path d="M347.105 98.0962C346.571 98.4988 346.123 99.0048 345.788 99.5843C345.491 100.183 345.315 100.833 345.268 101.5C345.23 101.302 345.23 101.099 345.268 100.901C345.308 100.415 345.448 99.942 345.681 99.5131C345.916 99.0829 346.233 98.7031 346.614 98.3952C346.757 98.2643 346.924 98.1626 347.105 98.0962Z" fill="#263238"/>
<path d="M349.747 103.08C349.747 103.08 349.704 102.845 349.562 102.503C349.369 102.062 349.08 101.67 348.715 101.357C347.846 100.645 346.97 100.253 347.006 100.196C347.202 100.254 347.39 100.332 347.568 100.431C348.017 100.647 348.436 100.92 348.814 101.243C349.197 101.572 349.488 101.994 349.662 102.468C349.742 102.661 349.772 102.872 349.747 103.08Z" fill="#263238"/>
<path d="M329.513 97.9891C329.192 97.9622 328.874 97.9026 328.566 97.8111C327.96 97.6759 327.092 97.4836 326.01 97.2771C323.19 96.7382 320.334 96.405 317.466 96.2803C315.899 96.1712 314.324 96.2984 312.795 96.6577C311.56 96.9887 310.403 97.5623 309.391 98.3451C308.47 99.0915 307.655 99.9612 306.971 100.93C307.086 100.626 307.244 100.341 307.441 100.082C307.94 99.3524 308.542 98.6978 309.228 98.1387C310.25 97.2999 311.436 96.6839 312.709 96.3302C314.268 95.9428 315.878 95.8011 317.48 95.9101C320.371 96.0312 323.247 96.4028 326.074 97.0208C327.156 97.2629 328.025 97.4979 328.616 97.6759C328.925 97.7466 329.226 97.8517 329.513 97.9891Z" fill="#263238"/>
<path d="M258.732 88.3342C258.883 88.1901 259.048 88.0614 259.224 87.9497C259.712 87.6107 260.235 87.3243 260.783 87.0953C262.825 86.2352 265.091 86.0604 267.241 86.5969C268.728 86.9599 270.107 87.6727 271.264 88.676C272.553 89.8423 273.69 91.1677 274.646 92.6204C275.701 94.1992 276.837 95.7225 278.049 97.1844C279.363 98.7362 280.791 100.188 282.321 101.528C285.468 104.269 288.871 106.512 292.289 107.608C293.909 108.156 295.606 108.437 297.316 108.441C298.798 108.501 300.268 108.138 301.552 107.394C302.582 106.726 303.479 105.874 304.201 104.881C304.863 104.02 305.383 103.229 305.81 102.588L306.785 101.107C306.892 100.931 307.011 100.762 307.141 100.602C307.059 100.794 306.959 100.977 306.842 101.15L305.931 102.667C305.525 103.322 305.02 104.091 304.365 105.002C303.647 106.034 302.741 106.92 301.694 107.615C300.372 108.402 298.854 108.797 297.316 108.754C295.571 108.763 293.837 108.487 292.182 107.936C288.672 106.811 285.226 104.575 282.05 101.812C280.502 100.46 279.06 98.9913 277.736 97.4193C276.52 95.9458 275.384 94.408 274.332 92.8127C273.394 91.3803 272.285 90.0676 271.029 88.9038C269.914 87.9219 268.581 87.2191 267.141 86.8532C265.042 86.3084 262.824 86.4405 260.804 87.2306C260.084 87.5393 259.391 87.9085 258.732 88.3342Z" fill="#263238"/>
<path d="M276.468 82.0189H275.97C275.642 82.0189 275.18 82.0617 274.603 82.1258C271.599 82.4738 268.733 83.5787 266.272 85.3369C265.81 85.6715 265.439 85.9634 265.19 86.1699L264.806 86.4903C265.251 86.058 265.727 85.6582 266.23 85.2942C268.68 83.5015 271.562 82.3909 274.581 82.0759C275.208 82.0146 275.839 81.9956 276.468 82.0189Z" fill="#FAFAFA"/>
<path d="M287.896 88.9395L287.376 89.0107C287.035 89.0534 286.55 89.1317 285.952 89.2527C284.403 89.5698 282.899 90.0767 281.474 90.7622C280.046 91.4487 278.707 92.3071 277.487 93.3182C277.024 93.7027 276.661 94.0303 276.419 94.2723L276.034 94.6355C276.479 94.1515 276.954 93.6972 277.458 93.2755C278.673 92.2525 280.01 91.3843 281.438 90.691C282.872 90.0071 284.386 89.5071 285.945 89.2029C286.589 89.0737 287.241 88.9857 287.896 88.9395Z" fill="#FAFAFA"/>
<path d="M287.547 105.152C287.504 104.971 287.471 104.788 287.447 104.603C287.382 104.103 287.366 103.598 287.397 103.094C287.513 101.425 288 99.8026 288.821 98.345C289.659 96.9039 290.649 95.5575 291.776 94.3293C292.623 93.3681 293.2 92.8057 293.2 92.8057L292.837 93.2257L291.84 94.3578C290.736 95.5968 289.76 96.9446 288.928 98.3806C288.102 99.8268 287.599 101.435 287.454 103.094C287.408 103.596 287.408 104.101 287.454 104.603C287.454 104.781 287.497 104.917 287.504 105.009L287.547 105.152Z" fill="#FAFAFA"/>
<path d="M300.078 97.9749C299.999 97.7978 299.935 97.6144 299.886 97.4266C299.656 96.5171 299.639 95.5669 299.836 94.6498C299.876 94.462 299.933 94.2784 300.007 94.1016C300.007 94.1016 299.957 94.3152 299.886 94.664C299.715 95.5743 299.735 96.51 299.943 97.4124C300.021 97.7612 300.086 97.9677 300.078 97.9749Z" fill="#FAFAFA"/>
<path d="M302.271 106.64C301.869 106.386 301.488 106.1 301.132 105.785C299.37 104.278 298.125 102.256 297.572 100.004C297.453 99.5369 297.375 99.0605 297.337 98.5801C297.337 98.5801 297.337 98.7154 297.408 98.9574C297.479 99.1995 297.515 99.5484 297.622 99.9685C298.198 102.196 299.425 104.201 301.146 105.729C301.403 105.961 301.671 106.179 301.951 106.384C302.164 106.562 302.271 106.64 302.271 106.64Z" fill="#FAFAFA"/>
<path d="M311.876 96.7998C311.876 96.7998 311.513 96.6361 310.95 96.3086C310.225 95.8834 309.53 95.4075 308.871 94.8846C308.211 94.3611 307.588 93.7925 307.006 93.1829C306.565 92.713 306.294 92.3926 306.294 92.3926L306.493 92.5919L307.02 93.1473C307.608 93.7437 308.231 94.3048 308.886 94.8276C309.547 95.3403 310.236 95.8157 310.95 96.2516L311.613 96.6432L311.876 96.7998Z" fill="#FAFAFA"/>
<path d="M318.704 95.8534C318.704 95.8534 318.704 95.7537 318.704 95.5757C318.704 95.3977 318.703 95.063 318.668 94.8067C318.668 94.1588 318.568 93.2688 318.44 92.2934C318.312 91.3179 318.134 90.435 317.992 89.8085L317.821 89.0609C317.778 88.8829 317.764 88.7832 317.764 88.7832C317.764 88.7832 317.764 88.8758 317.849 89.0538C317.935 89.2318 317.97 89.481 318.048 89.7658C318.198 90.3923 318.376 91.2752 318.511 92.2578C318.624 93.0938 318.693 93.9351 318.718 94.7782C318.718 95.0986 318.718 95.3621 318.718 95.5472C318.718 95.7323 318.704 95.8534 318.704 95.8534Z" fill="#FAFAFA"/>
<path d="M327.569 90.9761C327.58 91.054 327.58 91.1331 327.569 91.211C327.569 91.4318 327.526 91.6382 327.512 91.8376C327.448 92.3716 327.341 93.105 327.177 93.9024C327.013 94.6998 326.821 95.419 326.664 95.9316C326.6 96.1238 326.536 96.3232 326.472 96.5368C326.408 96.7504 326.387 96.7504 326.387 96.7504C326.398 96.6727 326.417 96.5963 326.444 96.5226C326.501 96.3161 326.558 96.1096 326.615 95.9174C326.757 95.4047 326.942 94.6856 327.106 93.8882C327.27 93.0907 327.384 92.3645 327.462 91.8305C327.462 91.6311 327.512 91.4246 327.54 91.2039L327.569 90.9761Z" fill="#FAFAFA"/>
<path d="M333.606 96.864C333.65 96.473 333.718 96.0853 333.813 95.7034C333.877 95.3149 333.97 94.9318 334.091 94.5571C334.043 94.9474 333.974 95.3348 333.884 95.7177C333.816 96.1054 333.724 96.4883 333.606 96.864Z" fill="#FAFAFA"/>
<path d="M343.589 100.175C343.589 100.175 343.589 99.997 343.646 99.6979C343.703 99.3989 343.703 98.9859 343.71 98.5303C343.71 98.217 343.71 97.8752 343.71 97.3626V97.0066C343.703 96.9642 343.703 96.9208 343.71 96.8784C343.736 97.0385 343.75 97.2004 343.753 97.3626C343.753 97.6616 343.753 98.0746 343.753 98.5374C343.746 98.9281 343.715 99.3181 343.66 99.7051C343.652 99.8636 343.628 100.021 343.589 100.175Z" fill="#FAFAFA"/>
<path d="M345.504 102.496C344.735 99.3991 341.552 97.4055 338.384 96.9071C335.216 96.4087 332.019 97.0566 328.85 97.4625C325.682 97.8683 322.3 97.968 319.459 96.4941C318.557 98.1657 318.104 100.042 318.142 101.941H319.808C320.157 104.348 322.357 106.213 324.728 106.704C327.099 107.196 328.665 107.238 330.887 106.27C333.222 105.245 336.248 103.7 338.541 102.895C340.833 102.09 343.368 101.692 345.661 102.446" fill="#455A64"/>
<path d="M321.118 97.2344C321.039 97.464 320.944 97.6876 320.833 97.9037C320.607 98.4297 320.414 98.9695 320.256 99.5199C320.095 100.079 319.978 100.651 319.907 101.229C319.898 101.468 319.871 101.705 319.829 101.941C319.795 101.705 319.795 101.465 319.829 101.229C319.866 100.64 319.969 100.057 320.135 99.4914C320.293 98.9241 320.505 98.3733 320.769 97.8467C320.857 97.6277 320.974 97.4216 321.118 97.2344Z" fill="#263238"/>
<path d="M319.943 100.588C319.649 100.592 319.356 100.566 319.067 100.51C318.77 100.5 318.475 100.462 318.185 100.396C318.48 100.328 318.786 100.328 319.082 100.396C319.379 100.396 319.673 100.462 319.943 100.588Z" fill="#263238"/>
<path d="M320.299 98.6654C320.299 98.6654 319.972 98.4661 319.537 98.3094C319.103 98.1528 318.726 98.1457 318.726 98.1029C319.014 98.0513 319.311 98.076 319.587 98.1747C319.863 98.2734 320.109 98.4426 320.299 98.6654Z" fill="#263238"/>
<path d="M323.61 97.6472H324.108C324.429 97.6472 324.906 97.6472 325.532 97.6472C327.277 97.6286 329.017 97.4499 330.73 97.1132C333.307 96.5756 335.959 96.5032 338.562 96.8997C340.111 97.1475 341.585 97.7387 342.877 98.6298C344.272 99.6163 345.311 101.027 345.838 102.653L345.881 102.809L345.732 102.738C345.062 102.412 344.338 102.214 343.596 102.154C341.789 102.114 339.993 102.436 338.313 103.101C336.719 103.648 335.158 104.282 333.635 105.002C332.923 105.344 332.211 105.714 331.499 105.985C330.824 106.299 330.124 106.554 329.405 106.747C328.099 107.054 326.745 107.108 325.418 106.903C324.322 106.748 323.274 106.352 322.35 105.743C321.659 105.271 321.074 104.66 320.634 103.948C320.359 103.505 320.146 103.026 320 102.524C319.907 102.176 319.879 101.99 319.879 101.99C320.047 102.675 320.318 103.331 320.683 103.934C321.127 104.632 321.711 105.228 322.399 105.686C323.316 106.285 324.355 106.672 325.44 106.818C326.751 107.011 328.088 106.951 329.377 106.64C330.09 106.451 330.784 106.196 331.449 105.878C332.161 105.572 332.873 105.237 333.585 104.895C335.112 104.167 336.678 103.525 338.277 102.973C339.977 102.306 341.792 101.982 343.617 102.019C344.383 102.081 345.131 102.284 345.824 102.617L345.725 102.702C345.207 101.109 344.188 99.7254 342.82 98.758C341.54 97.8764 340.081 97.2903 338.548 97.0421C335.967 96.6475 333.338 96.7102 330.78 97.2272C329.063 97.5594 327.317 97.7216 325.568 97.7113C324.286 97.6971 323.61 97.6472 323.61 97.6472Z" fill="#263238"/>
<path d="M323.496 106.312C323.447 106.206 323.407 106.097 323.375 105.985C323.278 105.686 323.197 105.381 323.133 105.073C322.711 103.019 322.861 100.889 323.567 98.9145C323.673 98.6187 323.794 98.3287 323.93 98.0459C323.974 97.9372 324.032 97.8344 324.101 97.7397C324.101 97.7397 323.909 98.2025 323.667 98.9501C323.346 99.9308 323.145 100.947 323.069 101.976C323.002 103.005 323.06 104.037 323.24 105.052C323.375 105.835 323.525 106.305 323.496 106.312Z" fill="#FAFAFA"/>
<path d="M329.662 102.119C329.717 102.314 329.755 102.514 329.776 102.717C329.833 103.087 329.939 103.593 330.082 104.141C330.374 105.244 330.659 106.134 330.616 106.149C330.514 105.972 330.435 105.783 330.381 105.586C330.253 105.23 330.082 104.739 329.939 104.162C329.812 103.695 329.721 103.219 329.669 102.738C329.632 102.533 329.63 102.324 329.662 102.119Z" fill="#FAFAFA"/>
<path d="M328.8 99.7051C328.848 100.09 328.874 100.478 328.879 100.866C328.929 101.499 329.035 102.005 328.993 102.019C328.716 101.28 328.65 100.479 328.8 99.7051Z" fill="#FAFAFA"/>
<path d="M330.31 97.2202C330.353 97.2202 330.161 97.6973 330.054 98.2882C329.947 98.8792 329.954 99.3776 329.911 99.3776C329.819 99.0107 329.819 98.6266 329.911 98.2597C329.954 97.885 330.091 97.5273 330.31 97.2202Z" fill="#FAFAFA"/>
<path d="M335.208 98.6014C334.993 98.3611 334.842 98.0716 334.766 97.7586C334.69 97.4457 334.693 97.1189 334.773 96.8071C334.823 96.8071 334.773 97.2343 334.909 97.7256C335.044 98.2169 335.265 98.58 335.208 98.6014Z" fill="#FAFAFA"/>
<path d="M339.053 102.603C338.896 102.432 338.76 102.243 338.647 102.04C338.347 101.567 338.088 101.069 337.871 100.552C337.651 100.037 337.47 99.5066 337.33 98.9644C337.262 98.7326 337.221 98.4937 337.209 98.2524C337.301 98.4642 337.375 98.6833 337.43 98.9075C337.558 99.3133 337.75 99.8687 338.006 100.467C338.263 101.065 338.526 101.585 338.718 101.962C338.852 102.163 338.964 102.378 339.053 102.603Z" fill="#FAFAFA"/>
<path d="M340.121 97.4339C340.121 97.4695 340.022 97.5905 339.901 97.7543C339.78 97.918 339.708 98.0676 339.666 98.0533C339.623 98.0391 339.666 97.854 339.78 97.6617C339.893 97.4695 340.1 97.384 340.121 97.4339Z" fill="#FAFAFA"/>
<path d="M345.753 102.738C345.681 102.683 345.612 102.623 345.546 102.56C344.623 101.744 343.463 101.245 342.236 101.136C340.819 100.982 339.386 101.137 338.035 101.592C336.388 102.166 334.774 102.831 333.2 103.585C331.63 104.336 329.946 104.817 328.216 105.009C326.782 105.139 325.335 105.014 323.944 104.639C323.012 104.395 322.113 104.039 321.267 103.578C320.968 103.414 320.747 103.272 320.598 103.172L320.37 103.023L320.605 103.165C320.755 103.258 320.982 103.393 321.281 103.55C323.399 104.679 325.797 105.173 328.188 104.974C329.917 104.778 331.601 104.297 333.172 103.55C334.746 102.792 336.362 102.126 338.013 101.556C339.374 101.1 340.817 100.947 342.243 101.108C343.204 101.232 344.125 101.567 344.941 102.09C345.236 102.274 345.509 102.491 345.753 102.738Z" fill="#FAFAFA"/>
<path d="M333.876 99.3848C333.876 99.3848 333.698 99.4702 333.371 99.6055C333.043 99.7408 332.573 99.9259 331.947 100.132C330.385 100.672 328.743 100.944 327.091 100.937C325.442 100.89 323.808 100.614 322.235 100.118C321.025 99.7692 320.284 99.5058 320.284 99.5058L320.818 99.6553L322.242 100.068C323.814 100.548 325.442 100.816 327.084 100.866C328.73 100.871 330.365 100.607 331.925 100.083C332.524 99.8832 333.001 99.7123 333.349 99.577L333.876 99.3848Z" fill="#FAFAFA"/>
<path d="M341.103 98.6299L340.925 98.5159C340.763 98.4054 340.594 98.3055 340.42 98.2169C339.781 97.8766 339.094 97.6364 338.383 97.5049C337.336 97.3154 336.267 97.2747 335.208 97.3839C334.004 97.4978 332.701 97.7683 331.327 98.0246C328.982 98.4935 326.575 98.5609 324.207 98.224C322.385 97.9677 321.288 97.69 321.288 97.69L322.071 97.8324C322.57 97.925 323.303 98.0531 324.207 98.1671C326.576 98.4962 328.983 98.424 331.327 97.9535C332.701 97.6971 334.012 97.4266 335.222 97.3127C336.292 97.1936 337.375 97.2344 338.433 97.4337C339.146 97.5596 339.833 97.8 340.469 98.1457C340.693 98.2899 340.905 98.4518 341.103 98.6299Z" fill="#FAFAFA"/>
<path d="M345.589 102.368C345.022 101.582 344.365 100.865 343.631 100.232C342.82 99.5706 341.889 99.0726 340.89 98.7652C339.665 98.3913 338.371 98.3085 337.109 98.5231C335.845 98.7753 334.638 99.258 333.549 99.9471C332.524 100.545 331.598 101.129 330.765 101.521C330.117 101.856 329.424 102.096 328.707 102.233C328.515 102.268 328.319 102.287 328.123 102.29C327.988 102.29 327.917 102.29 327.917 102.29C328.869 102.098 329.789 101.774 330.651 101.328C331.448 100.915 332.346 100.317 333.378 99.6979C334.488 98.9688 335.728 98.4611 337.031 98.2027C338.225 97.9926 339.451 98.0509 340.619 98.3736C341.788 98.6963 342.87 99.2751 343.787 100.068C344.333 100.548 344.812 101.099 345.211 101.706C345.369 101.907 345.496 102.13 345.589 102.368Z" fill="#263238"/>
<path d="M335.7 98.7366C334.326 99.3298 332.852 99.6583 331.357 99.7049C329.87 99.8744 328.364 99.7584 326.921 99.3631C326.921 99.2564 328.907 99.5127 331.328 99.3631C333.749 99.2136 335.671 98.6298 335.7 98.7366Z" fill="#263238"/>
<path d="M332.175 96.551L331.378 96.2093C330.844 95.9886 330.067 95.6682 329.049 95.2979C326.179 94.2162 323.157 93.5892 320.092 93.4396C317.981 93.3677 315.871 93.6419 313.848 94.2513C311.511 94.9395 309.377 96.1885 307.632 97.8896C305.781 99.6625 304.229 101.905 302.1 103.735C301.022 104.678 299.74 105.358 298.355 105.722C296.911 106.032 295.409 105.943 294.012 105.465C292.619 104.994 291.326 104.27 290.195 103.329C289.106 102.411 288.124 101.372 287.269 100.232C285.56 98.0178 284.2 95.6824 282.641 93.639C281.202 91.6842 279.549 89.8956 277.714 88.3061C276.111 86.9213 274.299 85.7991 272.346 84.981C269.51 83.7697 266.372 83.4566 263.353 84.0839C262.54 84.2666 261.748 84.5314 260.989 84.8742L260.206 85.2658L260.982 84.86C261.74 84.511 262.532 84.2414 263.346 84.0554C266.372 83.4191 269.52 83.7248 272.367 84.9312C274.328 85.7471 276.145 86.8721 277.75 88.2634C279.609 89.8475 281.281 91.6392 282.734 93.6034C284.293 95.6397 285.653 97.9822 287.362 100.189C288.214 101.323 289.19 102.357 290.274 103.272C291.397 104.214 292.687 104.939 294.076 105.408C295.451 105.878 296.927 105.966 298.348 105.665C299.72 105.303 300.99 104.628 302.057 103.692C304.193 101.877 305.731 99.634 307.597 97.854C309.347 96.1473 311.488 94.8956 313.834 94.2085C315.869 93.5962 317.99 93.3243 320.114 93.404C323.173 93.5483 326.19 94.1705 329.056 95.2481C331.093 96.0242 332.175 96.551 332.175 96.551Z" fill="#FAFAFA"/>
<path d="M297.237 98.6297C296.862 98.6626 296.484 98.6483 296.112 98.587C295.088 98.4139 294.115 98.0151 293.264 97.4193C292.029 96.521 290.961 95.4124 290.11 94.1441C289.087 92.593 287.984 91.0958 286.806 89.6585C284.588 87.1042 281.919 84.9802 278.932 83.3929C278.025 82.916 277.093 82.4882 276.141 82.1113L275.115 81.7197C275.115 81.7197 275.5 81.8408 276.183 82.09C277.139 82.4589 278.074 82.882 278.981 83.3573C281.985 84.9325 284.668 87.055 286.892 89.6158C288.071 91.0545 289.174 92.5542 290.195 94.1085C291.039 95.3736 292.097 96.482 293.321 97.3837C294.157 97.976 295.112 98.3793 296.119 98.5656C296.393 98.6072 296.669 98.6309 296.945 98.6368L297.237 98.6297Z" fill="#FAFAFA"/>
<path d="M330.017 92.6134C329.942 92.5768 329.868 92.5364 329.797 92.4923C329.661 92.414 329.455 92.2859 329.184 92.1435C328.424 91.7187 327.636 91.3429 326.828 91.0185C324.157 89.9322 321.288 89.4172 318.407 89.5067C315.525 89.5962 312.694 90.2882 310.096 91.5383C309.31 91.9124 308.549 92.3357 307.817 92.8056C307.554 92.9694 307.362 93.1118 307.219 93.1972L307.013 93.3325C307.013 93.3325 307.283 93.126 307.796 92.7843C308.527 92.3059 309.288 91.8754 310.074 91.4955C312.674 90.2252 315.513 89.5213 318.405 89.4305C321.297 89.3397 324.175 89.8639 326.849 90.9687C327.657 91.297 328.442 91.68 329.199 92.115C329.733 92.3998 330.017 92.6134 330.017 92.6134Z" fill="#FAFAFA"/>
<path d="M315.543 95.7889C315.543 95.7889 315.507 95.6892 315.458 95.5041C315.408 95.319 315.322 95.0626 315.223 94.7422C314.942 93.9093 314.607 93.0958 314.219 92.3072C313.825 91.5214 313.375 90.7647 312.873 90.043C312.681 89.7654 312.524 89.5446 312.41 89.3951C312.296 89.2456 312.239 89.1602 312.239 89.1602C312.481 89.4316 312.707 89.7169 312.916 90.0146C313.947 91.4504 314.742 93.0416 315.272 94.728C315.383 95.0761 315.473 95.4303 315.543 95.7889Z" fill="#FAFAFA"/>
<path d="M323.104 89.1743C323.104 89.1743 323.147 89.5659 323.161 90.2138C323.168 91.05 323.111 91.8855 322.991 92.713C322.872 93.5419 322.691 94.3607 322.449 95.1622C322.257 95.7746 322.101 96.1377 322.101 96.1377C322.101 96.1377 322.101 96.0451 322.179 95.8742C322.257 95.7034 322.328 95.383 322.4 95.1622C322.622 94.3571 322.796 93.5391 322.919 92.713C323.037 91.8898 323.099 91.0596 323.104 90.2281C323.104 89.9718 323.104 89.7226 323.104 89.4662C323.104 89.2099 323.104 89.1743 323.104 89.1743Z" fill="#FAFAFA"/>
<path d="M306.729 101.25C306.442 101.09 306.163 100.914 305.896 100.723C305.248 100.263 304.641 99.7482 304.08 99.1855C303.512 98.6309 302.992 98.0282 302.528 97.3841C302.338 97.1134 302.162 96.8329 302.001 96.5439C302.001 96.5439 302.065 96.6223 302.158 96.7647C302.25 96.9071 302.393 97.1064 302.571 97.3556C303.033 97.995 303.545 98.5973 304.101 99.157C304.659 99.719 305.259 100.238 305.896 100.709L306.487 101.122L306.729 101.25Z" fill="#FAFAFA"/>
<path d="M295.714 99.0359C295.641 98.8027 295.584 98.5648 295.543 98.3239C295.445 97.7193 295.414 97.1056 295.451 96.4941C295.486 95.8814 295.591 95.2747 295.764 94.6856C295.834 94.4423 295.922 94.2043 296.027 93.9736C296.012 94.0411 295.993 94.1077 295.97 94.173C295.928 94.294 295.878 94.472 295.814 94.6999C295.657 95.2892 295.559 95.8926 295.522 96.5012C295.487 97.1073 295.511 97.7153 295.593 98.3168C295.628 98.5518 295.657 98.7369 295.685 98.8651C295.7 98.9211 295.709 98.9783 295.714 99.0359Z" fill="#FAFAFA"/>
<path d="M295.678 108.263C295.482 107.889 295.306 107.504 295.151 107.11C294.776 106.156 294.483 105.173 294.276 104.169C294.074 103.166 293.964 102.145 293.948 101.122C293.941 100.699 293.955 100.276 293.991 99.8545V100.232C293.991 100.445 293.991 100.766 293.991 101.157C294.029 102.176 294.148 103.191 294.347 104.191C294.547 105.19 294.83 106.171 295.194 107.124C295.336 107.487 295.458 107.779 295.543 107.978L295.678 108.263Z" fill="#FAFAFA"/>
<path d="M304.044 93.4321C304.077 93.6193 304.12 93.8046 304.172 93.9875C304.286 94.2794 304.457 94.4788 304.436 94.493C304.281 94.3677 304.167 94.1991 304.108 94.0088C304.027 93.8279 304.005 93.6264 304.044 93.4321Z" fill="#FAFAFA"/>
<path d="M290.145 90.7695L289.683 91.0259C289.384 91.1825 288.971 91.4246 288.437 91.7379C285.724 93.3847 283.345 95.5271 281.423 98.0533C281.06 98.5374 280.775 98.9433 280.59 99.221C280.405 99.4986 280.284 99.6553 280.284 99.6553C280.623 99.0927 280.991 98.5484 281.388 98.0248C283.284 95.469 285.67 93.3171 288.408 91.6951C288.97 91.3562 289.55 91.0472 290.145 90.7695Z" fill="#FAFAFA"/>
<path d="M281.58 83.6279L281.139 83.7347C280.847 83.7988 280.427 83.9056 279.929 84.0409C278.606 84.4126 277.316 84.8888 276.069 85.4649C274.83 86.0389 273.64 86.7128 272.509 87.4799C272.075 87.7789 271.726 88.0281 271.491 88.1919L271.121 88.4553C271.121 88.4553 271.612 88.0281 272.481 87.4229C273.607 86.6407 274.798 85.957 276.041 85.3795C277.293 84.7982 278.591 84.3218 279.921 83.9555C280.932 83.7276 281.58 83.6279 281.58 83.6279Z" fill="#FAFAFA"/>
<path d="M339.686 96.1733C339.682 96.3229 339.658 96.4713 339.615 96.6148C339.593 96.7622 339.545 96.9044 339.473 97.0349C339.473 96.8849 339.497 96.7359 339.544 96.5934C339.566 96.446 339.614 96.3038 339.686 96.1733Z" fill="#FAFAFA"/>
<path d="M372.018 95.853C372.018 95.853 375.237 96.5223 376.604 96.8213C377.052 96.921 377.508 96.8213 377.956 96.9281C379.928 97.251 381.943 97.2149 383.902 96.8213C385.262 96.3229 385.326 98.0602 383.852 98.8078C383.114 99.2177 382.313 99.4994 381.481 99.6409L385.041 102.489C385.224 102.637 385.345 102.847 385.383 103.08L386.287 109.345C386.341 109.603 386.298 109.872 386.166 110.1C386.035 110.329 385.825 110.501 385.575 110.584C385.512 110.616 385.444 110.635 385.374 110.639C385.304 110.644 385.234 110.635 385.168 110.613C385.102 110.59 385.041 110.555 384.988 110.508C384.936 110.462 384.893 110.405 384.863 110.342L384.963 111.182C385.012 111.471 384.944 111.768 384.774 112.007C384.605 112.246 384.347 112.408 384.058 112.457C383.769 112.506 383.473 112.438 383.234 112.269C382.995 112.099 382.833 111.842 382.784 111.553C382.78 111.534 382.78 111.514 382.784 111.496L381.538 112.208C381.538 112.208 380.712 113.062 379.822 111.873C379.11 110.89 376.881 106.989 376.881 106.989C376.881 106.989 367.497 103.037 367.625 101.456L372.018 95.853Z" fill="#FFBE9D"/>
<path d="M382.812 111.546C382.687 111.048 382.601 110.541 382.556 110.029C382.414 109.103 382.143 107.801 381.958 106.377C381.83 105.665 381.666 104.988 381.509 104.426C381.415 104.178 381.236 103.971 381.004 103.842L380.349 103.429C379.898 103.179 379.477 102.878 379.096 102.532C379.598 102.691 380.077 102.916 380.52 103.201L381.196 103.578C381.496 103.729 381.733 103.982 381.865 104.29C382.07 104.951 382.234 105.624 382.357 106.305C382.549 107.729 382.77 109.032 382.855 109.986C382.921 110.505 382.906 111.031 382.812 111.546Z" fill="#EB996E"/>
<path d="M384.891 110.335C384.742 110.335 384.507 108.085 383.93 105.351C383.861 104.726 383.657 104.124 383.332 103.586C382.974 103.198 382.588 102.836 382.179 102.503C381.907 102.275 381.617 102.07 381.31 101.891C381.089 101.77 380.954 101.741 380.954 101.713C380.954 101.684 381.111 101.67 381.367 101.756C381.713 101.891 382.039 102.073 382.335 102.297C382.783 102.61 383.201 102.965 383.581 103.358C383.973 103.928 384.217 104.586 384.293 105.273C384.55 106.447 384.728 107.636 384.827 108.833C384.902 109.33 384.923 109.834 384.891 110.335Z" fill="#EB996E"/>
<path d="M377.216 104.404C377.65 104.535 378.063 104.729 378.44 104.981L379.039 105.309C379.308 105.423 379.551 105.593 379.751 105.807C379.945 106.048 380.081 106.331 380.149 106.633C380.235 106.925 380.327 107.224 380.427 107.523C380.936 108.98 381.329 110.475 381.602 111.994C380.976 110.587 380.464 109.132 380.071 107.644L379.808 106.754C379.753 106.496 379.644 106.253 379.487 106.042C379.327 105.859 379.134 105.709 378.918 105.6L378.348 105.23C377.933 105.011 377.551 104.733 377.216 104.404Z" fill="#EB996E"/>
<path d="M377.466 97.6332C377.509 97.4908 378.84 98.0106 380.314 98.8721C381.788 99.7337 382.898 100.631 382.82 100.723C382.742 100.816 381.617 100.011 380.129 99.1925L378.242 98.096C377.967 97.9714 377.706 97.8162 377.466 97.6332Z" fill="#EB996E"/>
</svg>
