<svg width="463" height="463" viewBox="0 0 463 463" fill="none" xmlns="http://www.w3.org/2000/svg">
<path d="M231.5 462.6C359.354 462.6 463 402.74 463 328.9C463 255.06 359.354 195.2 231.5 195.2C103.646 195.2 0 255.06 0 328.9C0 402.74 103.646 462.6 231.5 462.6Z" fill="white"/>
<path d="M305.6 364.1C305.7 362 304.9 359.6 303.8 357.6C303.6 357.2 303.3 356.8 303 356.4C303 356.4 303 356.4 303 356.3C302.7 355.9 302.4 355.6 302.1 355.2L302 355.1C301.7 354.8 301.4 354.5 301.1 354.2C301.1 354.2 301 354.2 301 354.1C300.7 353.8 300.3 353.6 300 353.3C299.8 353.2 299.6 353.1 299.4 353C299.3 353 299.2 352.9 299.1 352.9C299 352.9 298.9 352.8 298.8 352.8C298.6 352.7 298.5 352.7 298.4 352.7H298.3C298.1 352.7 298 352.6 297.8 352.6C297.1 352.5 296.4 352.6 295.9 352.9C290.6 355.6 260.1 374.9 246.1 383.7L239.1 387.9C238.9 388 238.7 388.2 238.6 388.4C238.6 388.4 238.6 388.4 238.5 388.5C238.4 388.6 238.4 388.7 238.3 388.8C238.3 388.9 238.2 388.9 238.2 389C238.2 389.1 238.1 389.2 238.1 389.3C238.1 389.4 238.1 389.4 238.1 389.5C237.8 389.7 237.4 389.9 237 390.1L236 390.7C233.8 388.6 231.2 386.6 228.1 384.8C218.5 379.2 205.7 376.2 192.2 376.2C178.7 376.2 165.9 379.3 156.3 384.8C146.3 390.6 140.9 398.3 140.9 406.7C140.9 415.1 146.4 422.8 156.3 428.6C165.9 434.2 178.7 437.2 192.2 437.2C205.7 437.2 218.5 434.1 228.1 428.6C238.1 422.8 243.5 415.1 243.5 406.7C243.5 402.9 242.4 399.3 240.2 395.9L241.1 395.4C241.9 395.8 242.5 395.9 243.1 395.6C247.9 393 294.3 373.2 303.7 368.1C304.8 367.4 305.6 366 305.6 364.1ZM223.6 420.8C215.3 425.6 204.1 428.2 192.1 428.2C180.1 428.2 168.9 425.6 160.6 420.8C153.5 416.7 149.5 411.6 149.5 406.5C149.5 401.4 153.4 396.3 160.6 392.2C168.9 387.4 180.1 384.8 192.1 384.8C204.1 384.8 215.3 387.4 223.6 392.2C230.7 396.3 234.7 401.4 234.7 406.5C234.6 411.7 230.7 416.7 223.6 420.8Z" fill="#E0E0E0"/>
<path d="M312.7 246.6L265.6 219.4C263.2 218 259.3 218 256.9 219.4L17.8 357.4C15.4 358.8 15.4 361 17.8 362.4L65 389.7C67.4 391.1 71.3 391.1 73.7 389.7L163.3 338L177.1 346C184.4 350.2 196.2 350.2 203.5 346L244.6 322.5C251.9 318.3 251.9 311.5 244.6 307.3L230.8 299.3L312.8 251.8C315.1 250.3 315.1 248 312.7 246.6Z" fill="#E0E0E0"/>
<path d="M391.7 375.5C417.216 375.5 437.9 363.591 437.9 348.9C437.9 334.209 417.216 322.3 391.7 322.3C366.184 322.3 345.5 334.209 345.5 348.9C345.5 363.591 366.184 375.5 391.7 375.5Z" fill="#E0E0E0"/>
<path d="M404.751 95.0364C404.751 95.0364 413.869 96.8171 419.315 101.328C424.762 105.721 428.433 116.406 425.828 123.172C423.223 129.939 422.512 129.464 425.591 133.382C428.669 137.3 426.065 144.067 426.065 144.067L406.054 137.775C406.054 137.775 406.291 130.414 407.238 123.41C408.303 116.406 407.711 103.347 404.633 99.7851V95.0364H404.751Z" fill="#263238" stroke="#263238" stroke-miterlimit="10" stroke-linecap="round" stroke-linejoin="round"/>
<path d="M376.572 262.428L379.887 280.592C379.887 280.592 379.058 291.989 382.018 302.673C384.86 313.358 386.991 337.339 386.991 337.339C386.991 337.339 382.61 341.019 377.874 344.106C373.256 347.193 370.296 350.042 376.808 350.042C383.321 350.042 386.636 348.261 390.544 346.718C394.451 345.174 397.53 344.343 397.53 342.325C397.53 340.307 395.398 331.641 395.398 331.641C395.398 331.641 396.227 301.249 396.227 291.277C396.227 281.423 394.451 274.419 394.451 274.419V264.565L376.572 262.428Z" fill="white" stroke="#263238" stroke-miterlimit="10" stroke-linecap="round" stroke-linejoin="round"/>
<path d="M390.543 346.718C394.451 345.174 397.529 344.343 397.529 342.325C397.529 341.732 397.293 340.544 397.056 339.239C395.161 340.188 393.148 341.257 391.728 342.088C388.886 343.868 384.978 345.768 382.61 345.768C381.071 345.768 378.94 344.818 377.637 344.225C373.019 347.311 370.177 350.161 376.571 350.161C383.321 350.161 386.636 348.261 390.543 346.718Z" fill="#263238" stroke="#263238" stroke-miterlimit="10" stroke-linecap="round" stroke-linejoin="round"/>
<path d="M391.608 268.127L392.437 280.355C392.437 280.355 390.898 295.194 392.437 305.285C393.976 315.376 393.976 334.727 393.976 337.814C393.976 340.901 391.608 344.343 387.464 347.905C387.464 347.905 384.149 351.823 385.688 354.197C387.227 356.571 398.357 352.06 398.713 349.567C398.95 346.955 401.555 341.257 401.555 339.476C401.555 337.695 401.555 332.947 401.555 331.166C401.555 329.385 408.777 304.929 408.067 296.025C407.238 287.122 407.238 274.181 407.238 274.181L407.475 265.04C407.475 265.04 395.989 268.72 391.608 268.127Z" fill="white" stroke="#263238" stroke-miterlimit="10" stroke-linecap="round" stroke-linejoin="round"/>
<path d="M395.279 349.33C391.49 351.11 389.359 347.668 388.885 346.718C388.411 347.193 387.938 347.549 387.464 348.024C387.464 348.024 384.149 351.941 385.688 354.316C387.227 356.69 398.358 352.179 398.713 349.686C398.95 347.074 401.555 341.376 401.555 339.595C400.252 342.919 398.121 348.024 395.279 349.33Z" fill="#263238" stroke="#263238" stroke-miterlimit="10" stroke-linecap="round" stroke-linejoin="round"/>
<path d="M375.032 187.755C375.032 187.755 365.204 209.599 364.375 221.352C363.546 233.105 370.65 263.972 370.65 263.972C370.65 263.972 383.32 269.907 393.977 269.433C404.633 268.958 412.448 265.752 412.448 265.752C412.448 265.752 421.802 238.447 418.961 222.302C416.119 206.156 409.133 189.536 409.133 189.536L375.86 185.38L375.032 187.755Z" fill="#263238" stroke="#263238" stroke-miterlimit="10" stroke-linecap="round" stroke-linejoin="round"/>
<path d="M390.305 132.551C390.305 132.551 394.686 129.939 398.12 129.939C401.436 129.939 403.33 129.939 403.33 129.939C403.33 129.939 405.698 139.318 405.698 140.386C405.698 141.455 395.87 189.298 395.87 189.298L377.162 187.517C377.162 187.517 377.162 157.363 379.767 148.222C382.254 139.081 390.305 132.551 390.305 132.551Z" fill="white" stroke="#263238" stroke-miterlimit="10" stroke-linecap="round" stroke-linejoin="round"/>
<path d="M375.743 95.2738C375.743 95.2738 373.967 106.196 376.217 113.794C378.585 121.392 385.097 129.465 387.584 129.702C390.189 129.939 393.03 128.159 393.03 128.159L392.083 131.601L389.952 143.829L399.306 144.66C399.306 144.66 403.213 130.889 403.213 130.058C403.213 129.227 403.095 127.328 403.095 127.328L402.029 116.88C402.029 116.88 405.108 111.657 405.937 109.639C406.766 107.62 404.871 104.178 404.871 104.178C404.871 104.178 406.766 92.8995 400.49 87.3198C392.675 80.3154 379.177 86.4887 375.861 89.9316C372.546 93.2556 375.743 95.2738 375.743 95.2738Z" fill="white" stroke="#263238" stroke-miterlimit="10" stroke-linecap="round" stroke-linejoin="round"/>
<path d="M393.03 128.04L396.583 126.971L391.491 136.113L393.03 128.04Z" fill="#263238" stroke="#263238" stroke-miterlimit="10" stroke-linecap="round" stroke-linejoin="round"/>
<path d="M400.61 87.201C392.321 80.1967 379.296 86.37 375.981 89.8128C372.665 93.1369 375.744 95.2738 375.744 95.2738C375.744 95.2738 377.52 93.493 382.256 95.2738C386.874 97.0545 390.545 106.433 393.979 107.502C397.294 108.57 400.491 109.045 400.491 109.045C400.491 109.045 400.491 105.127 402.267 104.652C404.043 104.178 405.109 104.178 405.109 104.178C405.109 104.178 407.122 92.662 400.61 87.201Z" fill="#263238" stroke="#263238" stroke-miterlimit="10" stroke-linecap="round" stroke-linejoin="round"/>
<path d="M381.663 107.027L383.676 110.113L382.729 118.424L386.044 119.017" stroke="#263238" stroke-miterlimit="10" stroke-linecap="round" stroke-linejoin="round"/>
<path d="M384.979 121.867C384.979 121.867 387.347 122.341 388.886 120.561" stroke="#263238" stroke-miterlimit="10" stroke-linecap="round" stroke-linejoin="round"/>
<path d="M377.756 108.57L378.585 112.25C378.585 112.25 381.19 112.488 382.492 111.776" stroke="#263238" stroke-miterlimit="10" stroke-linecap="round" stroke-linejoin="round"/>
<path d="M388.412 107.027L388.886 110.944C388.886 110.944 392.556 112.013 393.859 111.182" stroke="#263238" stroke-miterlimit="10" stroke-linecap="round" stroke-linejoin="round"/>
<path d="M376.69 105.958C376.69 105.958 378.822 104.89 380.835 105.484" stroke="#263238" stroke-miterlimit="10" stroke-linecap="round" stroke-linejoin="round"/>
<path d="M386.281 104.415C386.281 104.415 387.347 103.347 390.189 103.94" stroke="#263238" stroke-miterlimit="10" stroke-linecap="round" stroke-linejoin="round"/>
<path d="M392.083 131.483C392.083 131.483 380.716 136.944 378.111 137.419C375.506 137.893 370.888 140.03 371.125 141.811C371.362 143.592 370.059 171.728 370.888 173.509C371.717 175.289 370.888 189.892 370.415 191.673C369.941 193.453 361.534 217.197 361.534 217.197C361.534 217.197 363.31 219.334 367.218 217.672C371.125 216.128 376.572 199.508 377.638 192.978C378.703 186.449 385.689 157.838 387.465 151.309C389.241 144.779 392.083 131.483 392.083 131.483Z" fill="white" stroke="#263238" stroke-miterlimit="10" stroke-linecap="round" stroke-linejoin="round"/>
<path d="M403.33 129.939C403.33 129.939 398.12 150.003 395.515 158.075C392.91 166.148 390.305 170.778 390.897 177.07C391.371 183.362 390.661 214.822 395.279 219.215C399.896 223.608 405.935 226.457 411.855 226.457C417.776 226.457 424.051 224.676 424.051 224.676C424.051 224.676 416.829 184.906 416.829 183.837C416.829 182.769 428.196 146.085 427.959 142.998C427.722 139.912 403.33 129.939 403.33 129.939Z" fill="white" stroke="#263238" stroke-miterlimit="10" stroke-linecap="round" stroke-linejoin="round"/>
<path d="M382.018 154.751C382.018 160.45 382.61 165.792 383.083 168.997C384.859 161.4 386.635 154.395 387.464 151.665C389.24 145.135 392.082 131.601 392.082 131.601C392.082 131.601 389.24 133.026 386.043 134.451C384.623 138.724 382.018 147.984 382.018 154.751Z" fill="#A871FF" stroke="#263238" stroke-miterlimit="10" stroke-linecap="round" stroke-linejoin="round"/>
<path d="M403.331 129.939C403.331 129.939 398.121 150.003 395.516 158.075C394.095 162.349 392.793 165.792 391.846 168.879C393.859 167.335 397.766 163.893 401.555 158.313C405.818 151.902 408.541 137.419 409.37 132.432C405.818 131.008 403.331 129.939 403.331 129.939Z" fill="#A871FF" stroke="#263238" stroke-miterlimit="10" stroke-linecap="round" stroke-linejoin="round"/>
<path d="M356.797 185.618L354.192 193.216L351.587 183.6C351.587 183.6 355.021 182.769 356.797 185.618Z" fill="#263238" stroke="#263238" stroke-miterlimit="10" stroke-linecap="round" stroke-linejoin="round"/>
<path d="M338.325 156.176L353.126 182.294L372.308 183.244L359.638 156.176H338.325Z" fill="#263238" stroke="#263238" stroke-miterlimit="10" stroke-linecap="round" stroke-linejoin="round"/>
<path d="M351.588 183.6C351.588 183.6 344.365 172.915 343.299 170.303C342.233 167.692 341.76 165.08 341.76 163.536C341.76 161.993 342.233 161.4 343.062 163.299C343.891 165.08 345.43 168.997 345.43 168.997L346.733 161.162C346.733 161.162 347.562 159.856 348.272 161.4C349.101 162.943 348.272 168.997 348.272 168.997L350.403 159.856C350.403 159.856 351.469 158.075 352.18 159.381C353.008 160.687 351.706 167.929 351.706 167.929L354.074 162.468C354.074 162.468 355.377 162.468 355.613 163.774C355.85 165.08 353.837 172.084 353.837 172.084L357.153 168.76C357.153 168.76 358.455 168.285 357.982 169.829C357.508 171.372 354.666 175.29 354.666 175.29C354.666 175.29 356.205 179.207 356.205 179.92C356.205 180.632 355.14 182.769 355.14 182.769L356.916 185.618L355.85 187.755L351.588 183.6Z" fill="white" stroke="#263238" stroke-miterlimit="10" stroke-linecap="round" stroke-linejoin="round"/>
<path d="M370.295 191.91C370.532 191.079 370.887 187.28 371.005 183.481L356.56 184.668L354.191 193.216L369.584 193.928C370.058 192.86 370.295 192.147 370.295 191.91Z" fill="white" stroke="#263238" stroke-miterlimit="10" stroke-linecap="round" stroke-linejoin="round"/>
<path d="M392.437 176.002C392.437 176.002 384.03 169.354 382.372 167.929C380.122 165.911 376.097 166.623 376.097 166.623C376.097 166.623 369.821 170.778 368.874 171.847C367.926 172.915 367.808 173.984 368.874 173.627C369.939 173.39 374.32 170.541 374.32 170.541L374.557 174.458L380.004 176.002L381.543 174.458C381.543 174.458 382.846 175.527 384.148 175.764C385.451 176.002 386.753 175.527 386.753 175.527L391.726 179.919L392.437 176.002Z" fill="white" stroke="#263238" stroke-miterlimit="10" stroke-linecap="round" stroke-linejoin="round"/>
<path d="M419.078 138.25C419.078 138.25 429.143 140.386 430.445 143.711C431.748 147.035 430.682 199.864 429.616 201.526C428.551 203.069 388.647 182.769 388.647 182.769L391.963 174.933L415.052 181.225L413.513 155.701" fill="white"/>
<path d="M419.078 138.25C419.078 138.25 429.143 140.386 430.445 143.711C431.748 147.035 430.682 199.864 429.616 201.526C428.551 203.069 388.647 182.769 388.647 182.769L391.963 174.933L415.052 181.225L413.513 155.701" stroke="#263238" stroke-miterlimit="10" stroke-linecap="round" stroke-linejoin="round"/>
<path d="M376.097 174.696C376.097 174.696 376.452 168.523 376.689 167.692" stroke="#263238" stroke-miterlimit="10" stroke-linecap="round" stroke-linejoin="round"/>
<path d="M378.109 175.052C378.109 175.052 378.701 169.235 378.82 168.285" stroke="#263238" stroke-miterlimit="10" stroke-linecap="round" stroke-linejoin="round"/>
<path d="M381.426 174.459V173.034L380.123 172.797" stroke="#263238" stroke-miterlimit="10" stroke-linecap="round" stroke-linejoin="round"/>
<path d="M417.9 318.8C417.9 312.6 416.7 301 421.9 290.2C425.7 282.4 432.6 274.8 439 275.5C444.9 276.2 445.5 285.3 439.8 291.6C434.1 297.9 426.9 306.5 425.3 320.3L421.2 330.6L417.9 318.8Z" fill="#673FA7"/>
<g opacity="0.2">
<path opacity="0.2" d="M417.9 318.8C417.9 312.6 416.7 301 421.9 290.2C425.7 282.4 432.6 274.8 439 275.5C444.9 276.2 445.5 285.3 439.8 291.6C434.1 297.9 426.9 306.5 425.3 320.3L421.2 330.6L417.9 318.8Z" fill="black"/>
</g>
<path d="M420 323.2C420.2 323.2 420.4 323 420.4 322.8C419.7 305 425.5 290.3 437.1 280.2C437.3 280 437.3 279.8 437.1 279.6C436.9 279.4 436.7 279.4 436.5 279.6C424.6 289.9 418.8 304.9 419.5 322.9C419.5 323 419.7 323.2 420 323.2Z" fill="white"/>
<path d="M416.8 341.1C416.8 341.1 421.1 344 427.8 344.2C434.5 344.4 437 340.8 437 340.8C437 340.8 433.6 335 429.7 333.8C429.7 333.8 436.2 334.2 441.7 336.9C441.7 336.9 445.7 336.4 446.5 330.1C446.5 330.1 443.6 326.7 435.4 325.8C435.4 325.8 440.1 323.9 447.3 324.8C447.9 324.9 449 316.8 449.2 313C449.4 309.3 447.9 309.5 445 309.1C442.1 308.7 432.3 309.5 430.8 311.3C429.2 313.1 429 318.6 429 318.6C429 318.6 426.9 315.8 426.9 313.1C426.9 313.1 423.9 312.5 420.9 314.1C417.9 315.6 416.9 316.9 416.7 319.2C416.5 321.5 416.4 325 417.3 327.7C417.3 327.7 414.5 323.2 414.7 319.4C414.7 319.4 413.2 321.9 411.9 325.3C410.4 328.7 412 337 416.8 341.1Z" fill="#673FA7"/>
<path d="M416.9 341.6C417 341.6 417.2 341.5 417.2 341.3C421 329.6 438.9 314.3 445.8 312C446 311.9 446.1 311.7 446.1 311.5C446 311.3 445.8 311.1 445.6 311.2C438.6 313.6 420.4 329.2 416.5 341.1C416.4 341.3 416.6 341.6 416.8 341.6C416.7 341.6 416.8 341.6 416.9 341.6Z" fill="white"/>
<path d="M203.399 342L238.799 321.5C242.399 319.4 244.299 316.6 244.299 313.9C244.299 311.1 244.299 309 244.299 309L210.999 290.1C209.099 289 207.499 286.2 207.499 284V240.4L145.699 276.1V319.7C145.699 321.9 147.299 324.7 149.199 325.8L176.999 342C184.299 346.2 196.099 346.2 203.399 342Z" fill="#5550F2"/>
<path d="M160.499 327.4V332.3L149.199 325.8C147.299 324.7 145.699 322 145.699 319.7V276.1L157.499 269.3C157.699 272.3 157.999 275.4 158.299 278.4L149.999 283.2V317.3C149.999 319.6 151.599 322.3 153.499 323.4L160.499 327.4Z" fill="#263238"/>
<path d="M149.899 317.2C149.899 319.4 151.499 322.2 153.399 323.3L176.899 337C184.199 341.2 195.999 341.2 203.299 337L238.699 316.5C245.999 312.3 245.999 305.5 238.699 301.3L215.099 287.6C213.199 286.5 211.599 283.7 211.599 281.5V247.4L149.799 283.1V317.2H149.899Z" fill="#A871FF"/>
<path opacity="0.15" d="M222.399 291.8L215.199 287.7C213.299 286.6 211.699 283.8 211.699 281.6V247.5L149.899 283.2V317.3C149.899 319.5 151.499 322.3 153.399 323.4L160.399 327.5L222.399 291.8Z" fill="black"/>
<path d="M244.299 309C244.299 309 244.299 311.2 244.299 313.9C244.299 316.7 242.499 319.4 238.799 321.5L203.399 342C199.899 344 195.399 345 190.799 345.1V340.2C195.399 340.1 199.899 339.1 203.399 337.1L238.799 316.6C242.399 314.5 244.299 311.8 244.299 309Z" fill="#5550F2"/>
<path d="M50.6996 364.3C52.9996 365.6 56.7996 365.5 59.1996 364.1C89.5996 346.6 267.8 243.7 298.1 226.1C300.5 224.7 302.5 221.3 302.5 218.5V9.4C302.5 6.6 300.7 3.2 298.4 1.9C296.1 0.599998 292.3 0.699998 289.9 2.1L50.9996 140.1C48.5996 141.5 46.5996 144.9 46.5996 147.7V356.8C46.5996 359.6 48.3996 363 50.6996 364.3Z" fill="#A871FF"/>
<path d="M59.2994 364.1L298.199 226.1C300.599 224.7 302.599 221.3 302.599 218.5V9.40001C302.599 6.60001 300.599 5.50001 298.199 6.90001L59.2994 144.9C56.8994 146.3 54.8994 149.7 54.8994 152.5V361.6C54.8994 364.4 56.7994 365.5 59.2994 364.1Z" fill="#5550F2"/>
<path d="M63.0996 334V155.2C63.0996 153.5 64.2996 151.5 65.6996 150.6L291.7 20.2C293.2 19.4 294.3 20 294.3 21.7V200.5C294.3 202.2 293.1 204.2 291.7 205.1L65.6996 335.5C64.2996 336.3 63.0996 335.6 63.0996 334Z" fill="#EFE4FE"/>
<path opacity="0.7" d="M63.0996 334V155.2C63.0996 153.5 64.2996 151.5 65.6996 150.6L291.7 20.2C293.2 19.4 294.3 20 294.3 21.7V200.5C294.3 202.2 293.1 204.2 291.7 205.1L65.6996 335.5C64.2996 336.3 63.0996 335.6 63.0996 334Z" fill="white"/>
<path d="M178.3 286.7C177.8 286.7 177.4 286.6 177 286.4C176.1 285.9 175.5 284.8 175.5 283.3C175.5 280.5 177.4 277.1 179.9 275.7C181.2 275 182.4 274.9 183.3 275.4C184.2 275.9 184.8 277 184.8 278.5C184.8 281.3 182.9 284.7 180.4 286.1C179.7 286.5 178.9 286.7 178.3 286.7ZM182 276C181.5 276 181 276.2 180.4 276.5C178.3 277.7 176.5 280.7 176.5 283.2C176.5 284.3 176.8 285.1 177.5 285.4C178.1 285.8 179 285.7 179.9 285.1C182 283.9 183.8 280.8 183.8 278.4C183.8 277.3 183.5 276.5 182.8 276.2C182.6 276.1 182.3 276 182 276Z" fill="#EFE4FE"/>
<path d="M333.599 53.8L100.899 188V359.5C100.899 361.8 103.399 363.2 105.299 362.1L109.399 359.7L329.299 233C331.699 231.6 333.599 228.3 333.599 225.5V53.8Z" fill="#F0F0F0"/>
<path d="M332.599 55.5V225.4C332.599 227.8 330.799 230.8 328.799 232L108.999 358.8L104.899 361.2C104.599 361.4 104.299 361.5 103.899 361.5C103.399 361.5 102.899 361.3 102.499 360.9C102.099 360.5 101.899 360 101.899 359.5V188.6L332.599 55.5ZM333.599 53.8L100.899 188V359.5C100.899 361.2 102.299 362.5 103.899 362.5C104.399 362.5 104.899 362.4 105.399 362.1L109.499 359.7L329.299 233C331.699 231.6 333.599 228.3 333.599 225.5V53.8Z" fill="#E0E0E0"/>
<path opacity="0.8" d="M328.099 50.6L95.3994 184.8L100.899 188L333.599 53.8L328.099 50.6Z" fill="#5550F2"/>
<path d="M102.4 362.1C102.4 362.1 100.8 361.3 100.8 359.5V192.9C100.8 191.5 100.8 188 100.8 188L95.2998 184.8V355.4C95.2998 355.6 95.2998 355.8 95.2998 356C95.4998 357.4 96.2998 358.7 97.5998 359.4L102.2 362L102.4 362.1Z" fill="#EBEBEB"/>
<path d="M95.3994 184.9V173.3C95.3994 171.9 96.3994 170.2 97.5994 169.5L325.899 37.9C327.099 37.2 328.999 37.2 330.199 37.9L331.399 38.6C332.599 39.3 333.599 41 333.599 42.3V53.9L100.899 188.1L95.3994 184.9Z" fill="#A871FF"/>
<path opacity="0.3" d="M95.3994 184.9V173.3C95.3994 171.9 96.3994 170.2 97.5994 169.5L325.899 37.9C327.099 37.2 328.999 37.2 330.199 37.9L331.399 38.6C332.599 39.3 333.599 41 333.599 42.3V53.9L100.899 188.1L95.3994 184.9Z" fill="black"/>
<path d="M100.899 176.5C100.899 175.1 101.899 173.4 103.099 172.7L331.399 41.1C332.599 40.4 333.599 41 333.599 42.3V53.9L100.899 188.1V176.5Z" fill="#A871FF"/>
<path opacity="0.4" d="M100.899 176.5C100.899 175.1 101.899 173.4 103.099 172.7L331.399 41.1C332.599 40.4 333.599 41 333.599 42.3V53.9L100.899 188.1V176.5Z" fill="black"/>
<path d="M101.499 174.4C101.099 175.1 100.899 175.9 100.899 176.5V188.1L95.3994 184.9V173.3C95.3994 172.6 95.5994 171.9 95.9994 171.2L101.499 174.4Z" fill="#A871FF"/>
<path opacity="0.5" d="M101.499 174.4C101.099 175.1 100.899 175.9 100.899 176.5V188.1L95.3994 184.9V173.3C95.3994 172.6 95.5994 171.9 95.9994 171.2L101.499 174.4Z" fill="black"/>
<path d="M323.399 53.4C323.399 54.7 324.299 55.2 325.399 54.6C326.499 54 327.399 52.4 327.399 51.1C327.399 49.8 326.499 49.3 325.399 49.9C324.399 50.5 323.399 52.1 323.399 53.4Z" fill="#FAFAFA"/>
<path d="M315.299 58.1C315.299 59.4 316.199 59.9 317.299 59.3C318.399 58.7 319.299 57.1 319.299 55.8C319.299 54.5 318.399 54 317.299 54.6C316.199 55.2 315.299 56.8 315.299 58.1Z" fill="#FAFAFA"/>
<path d="M307.199 62.7C307.199 64 308.099 64.5 309.199 63.9C310.299 63.3 311.199 61.7 311.199 60.4C311.199 59.1 310.299 58.6 309.199 59.2C308.099 59.9 307.199 61.4 307.199 62.7Z" fill="#FAFAFA"/>
<path d="M100.899 188.1V359.5C100.899 361.8 103.399 363.2 105.299 362.1L109.399 359.7L160.299 330.4V153.8L100.899 188.1Z" fill="#FAFAFA"/>
<path d="M164.399 156.7V323.2L328.699 228.3V61.8L164.399 156.7Z" fill="#FAFAFA"/>
<path d="M146.699 173.9L108.799 195.8C108.099 196.2 107.499 197.2 107.499 198V201.9C107.499 202.7 108.099 203 108.799 202.6L146.699 180.7C147.399 180.3 147.999 179.3 147.999 178.5V174.6C147.999 173.8 147.399 173.5 146.699 173.9Z" fill="#A871FF"/>
<path opacity="0.8" d="M146.699 173.9L108.799 195.8C108.099 196.2 107.499 197.2 107.499 198V201.9C107.499 202.7 108.099 203 108.799 202.6L146.699 180.7C147.399 180.3 147.999 179.3 147.999 178.5V174.6C147.999 173.8 147.399 173.5 146.699 173.9Z" fill="#FAFAFA"/>
<path d="M155.199 175.5L154.099 174.4C154.299 173.8 154.499 173.2 154.499 172.6C154.499 171.7 154.199 171 153.699 170.7C153.299 170.5 152.799 170.5 152.299 170.8C151.299 171.4 150.499 173 150.499 174.4C150.499 175.3 150.799 176 151.299 176.3C151.499 176.4 151.699 176.5 151.899 176.5C152.099 176.5 152.399 176.4 152.699 176.3C153.099 176.1 153.399 175.7 153.699 175.3L154.599 176.2C154.699 176.3 154.799 176.3 154.899 176.3C154.999 176.3 155.099 176.3 155.199 176.2C155.399 175.9 155.399 175.6 155.199 175.5ZM152.199 175.5C151.999 175.6 151.799 175.6 151.699 175.6C151.499 175.5 151.299 175.1 151.299 174.4C151.299 173.3 151.899 171.9 152.599 171.5C152.699 171.4 152.799 171.4 152.899 171.4C152.999 171.4 152.999 171.4 153.099 171.4C153.299 171.5 153.499 171.9 153.499 172.6C153.499 173.8 152.899 175.1 152.199 175.5Z" fill="#5550F2"/>
<path d="M108.499 214.3L107.599 214.8C107.499 214.8 107.499 214.8 107.499 214.7V212.4C107.499 212.3 107.499 212.3 107.599 212.2L108.499 211.7C108.599 211.7 108.599 211.7 108.599 211.8V214.1C108.499 214.2 108.499 214.3 108.499 214.3Z" fill="#5550F2"/>
<path d="M109.699 213.6L108.799 214.1C108.699 214.1 108.699 214.1 108.699 214V211.7C108.699 211.6 108.699 211.6 108.799 211.5L109.699 211C109.799 211 109.799 211 109.799 211.1V213.4C109.799 213.5 109.799 213.5 109.699 213.6Z" fill="#5550F2"/>
<path d="M110.999 212.8L110.099 213.3C109.999 213.3 109.999 213.3 109.999 213.2V210.9C109.999 210.8 109.999 210.8 110.099 210.7L110.999 210.2C111.099 210.2 111.099 210.2 111.099 210.3V212.6C111.099 212.7 111.099 212.8 110.999 212.8Z" fill="#5550F2"/>
<path d="M108.499 217.3L107.599 217.8C107.499 217.8 107.499 217.8 107.499 217.7V215.4C107.499 215.3 107.499 215.3 107.599 215.2L108.499 214.7C108.599 214.7 108.599 214.7 108.599 214.8V217.1C108.499 217.2 108.499 217.2 108.499 217.3Z" fill="#5550F2"/>
<path d="M109.699 216.5L108.799 217C108.699 217 108.699 217 108.699 216.9V214.6C108.699 214.5 108.699 214.5 108.799 214.4L109.699 213.9C109.799 213.9 109.799 213.9 109.799 214V216.3C109.799 216.4 109.799 216.5 109.699 216.5Z" fill="#5550F2"/>
<path d="M110.999 215.8L110.099 216.3C109.999 216.3 109.999 216.3 109.999 216.2V213.9C109.999 213.8 109.999 213.8 110.099 213.7L110.999 213.2C111.099 213.2 111.099 213.2 111.099 213.3V215.6C111.099 215.7 111.099 215.8 110.999 215.8Z" fill="#5550F2"/>
<path d="M108.599 225.1L107.599 224.5C107.599 224.5 107.599 224.4 107.599 224.3L108.599 222.5C108.699 222.4 108.699 222.4 108.699 222.5V225L108.599 225.1Z" fill="#5550F2"/>
<path d="M108.198 223.7L109.598 222.9V223.6L108.198 224.4C108.098 224.5 107.998 224.4 107.998 224.2C107.898 224 107.998 223.8 108.198 223.7Z" fill="#5550F2"/>
<path d="M109.798 222.8L110.298 222.5V223.1L109.798 223.4V222.8Z" fill="#5550F2"/>
<path d="M111.498 222.1V224.5C111.498 224.7 111.398 224.9 111.298 225C111.198 225.1 111.098 225 111.098 224.8V222.7L110.498 223V222.3L111.298 221.8C111.398 221.8 111.498 221.9 111.498 222.1Z" fill="#5550F2"/>
<path d="M108.999 230.5C107.999 231.2 107.399 233 107.499 234.4C107.699 235.7 108.399 235.6 108.499 236.2C108.499 236.3 108.599 236.3 108.599 236.3L109.499 235.8C109.499 235.8 109.599 235.7 109.599 235.6C109.699 234.8 110.599 233.9 110.699 232C110.699 230.6 109.899 229.9 108.999 230.5Z" fill="#5550F2"/>
<path d="M109.599 237.2L108.699 237.7C108.599 237.7 108.599 237.7 108.599 237.6V236.8C108.599 236.7 108.699 236.6 108.699 236.6L109.599 236.1C109.699 236.1 109.699 236.1 109.699 236.2V237C109.699 237.1 109.599 237.2 109.599 237.2Z" fill="#5550F2"/>
<path d="M109.199 211.1C108.399 211.8 107.699 213.2 107.599 214.6C107.499 215.4 107.599 216 107.799 216.5L107.499 218.1C107.499 218.2 107.499 218.3 107.599 218.2L108.499 217.2C108.899 217.3 109.299 217.2 109.799 216.8C110.599 216.1 111.299 214.7 111.399 213.3C111.699 211.1 110.599 210 109.199 211.1ZM109.499 216.2C108.699 216.7 107.999 216 107.999 214.7C107.999 213.4 108.699 212 109.499 211.5C110.299 211 110.999 211.7 110.999 213C111.099 214.3 110.399 215.7 109.499 216.2Z" fill="#5550F2"/>
<path d="M109.199 241.4C108.399 242.1 107.699 243.5 107.599 244.9C107.499 245.7 107.599 246.3 107.799 246.8L107.499 248.4C107.499 248.5 107.499 248.6 107.599 248.5L108.499 247.5C108.899 247.6 109.299 247.5 109.799 247.1C110.599 246.4 111.299 245 111.399 243.6C111.699 241.4 110.599 240.3 109.199 241.4ZM109.499 246.6C108.699 247.1 107.999 246.4 107.999 245.1C107.999 243.8 108.699 242.4 109.499 241.9C110.299 241.4 110.999 242.1 110.999 243.4C111.099 244.6 110.399 246.1 109.499 246.6Z" fill="#5550F2"/>
<path d="M110.499 252.5C110.499 253.2 110.099 253.9 109.699 254.2C109.299 254.5 108.899 254.1 108.899 253.4C108.899 252.7 109.299 252 109.699 251.7C110.099 251.5 110.499 251.9 110.499 252.5Z" fill="#5550F2"/>
<path d="M111.899 252.8C111.899 253.3 111.699 253.8 111.399 253.9C111.099 254.1 110.899 253.8 110.899 253.4C110.899 252.9 111.099 252.4 111.399 252.3C111.599 252.1 111.899 252.3 111.899 252.8Z" fill="#5550F2"/>
<path d="M110.599 257.4L108.699 258.5V256.1C108.699 255.6 108.999 255 109.399 254.8L109.899 254.5C110.299 254.3 110.599 254.5 110.599 255V257.4Z" fill="#5550F2"/>
<path d="M111.399 254.2L110.899 254.5V257.3L111.899 256.7V254.6C111.899 254.2 111.699 254 111.399 254.2Z" fill="#5550F2"/>
<path d="M107.499 255.3C107.499 255.8 107.699 256 107.999 255.8C108.299 255.6 108.499 255.1 108.499 254.7C108.499 254.2 108.299 254 107.999 254.2C107.799 254.3 107.499 254.8 107.499 255.3Z" fill="#5550F2"/>
<path d="M107.999 256.2L108.499 255.9V258.7L107.499 259.3V257C107.499 256.7 107.699 256.3 107.999 256.2Z" fill="#5550F2"/>
<path d="M116.699 208.9L138.899 196.1C139.499 195.8 139.999 196 139.999 196.6C139.999 197.2 139.499 198.1 138.899 198.4L116.699 211.2C116.099 211.5 115.599 211.3 115.599 210.7C115.699 210 116.099 209.2 116.699 208.9Z" fill="#E0E0E0"/>
<path d="M116.699 219.4L138.899 206.6C139.499 206.3 139.999 206.5 139.999 207.1C139.999 207.7 139.499 208.6 138.899 208.9L116.699 221.7C116.099 222 115.599 221.8 115.599 221.2C115.699 220.5 116.099 219.7 116.699 219.4Z" fill="#E0E0E0"/>
<path d="M116.699 229.8L138.899 217C139.499 216.7 139.999 216.9 139.999 217.5C139.999 218.1 139.499 219 138.899 219.3L116.699 232.1C116.099 232.4 115.599 232.2 115.599 231.6C115.699 231 116.099 230.1 116.699 229.8Z" fill="#E0E0E0"/>
<path d="M116.699 240.3L138.899 227.5C139.499 227.2 139.999 227.4 139.999 228C139.999 228.6 139.499 229.5 138.899 229.8L116.699 242.6C116.099 242.9 115.599 242.7 115.599 242.1C115.699 241.4 116.099 240.6 116.699 240.3Z" fill="#E0E0E0"/>
<path d="M116.699 250.7L138.899 237.9C139.499 237.6 139.999 237.8 139.999 238.4C139.999 239 139.499 239.9 138.899 240.2L116.699 253C116.099 253.3 115.599 253.1 115.599 252.5C115.599 251.9 116.099 251.1 116.699 250.7Z" fill="#E0E0E0"/>
<path d="M120.798 259.2L142.998 246.4C143.598 246.1 144.098 246.3 144.098 246.9C144.098 247.5 143.598 248.4 142.998 248.7L120.798 261.5C120.198 261.8 119.698 261.6 119.698 261C119.698 260.4 120.198 259.6 120.798 259.2Z" fill="#5550F2"/>
<path d="M120.798 266.3L142.998 253.5C143.598 253.2 144.098 253.4 144.098 254C144.098 254.6 143.598 255.5 142.998 255.8L120.798 268.6C120.198 268.9 119.698 268.7 119.698 268.1C119.698 267.5 120.198 266.7 120.798 266.3Z" fill="#E0E0E0"/>
<path d="M120.798 273.4L142.998 260.6C143.598 260.3 144.098 260.5 144.098 261.1C144.098 261.7 143.598 262.6 142.998 262.9L120.798 275.7C120.198 276 119.698 275.8 119.698 275.2C119.698 274.5 120.198 273.7 120.798 273.4Z" fill="#E0E0E0"/>
<path d="M125.099 277.9L147.299 265.1C147.899 264.8 148.399 265 148.399 265.6C148.399 266.2 147.899 267.1 147.299 267.4L125.099 280.2C124.499 280.5 123.999 280.3 123.999 279.7C123.999 279.1 124.499 278.2 125.099 277.9Z" fill="#E0E0E0"/>
<path d="M119.898 283.9L121.698 280.7C121.798 280.6 121.798 280.4 121.698 280.4L119.898 279.3C119.798 279.2 119.698 279.4 119.698 279.6V283.9C119.698 284.1 119.798 284.1 119.898 283.9Z" fill="#5550F2"/>
<path d="M125.099 284.9L147.299 272.1C147.899 271.8 148.399 272 148.399 272.6C148.399 273.2 147.899 274.1 147.299 274.4L125.099 287.2C124.499 287.5 123.999 287.3 123.999 286.7C123.999 286.1 124.499 285.2 125.099 284.9Z" fill="#E0E0E0"/>
<path d="M119.898 291L121.698 287.8C121.798 287.7 121.798 287.5 121.698 287.5L119.898 286.4C119.798 286.3 119.698 286.5 119.698 286.7V291C119.698 291.1 119.798 291.1 119.898 291Z" fill="#5550F2"/>
<path d="M125.099 291.9L147.299 279.1C147.899 278.8 148.399 279 148.399 279.6C148.399 280.2 147.899 281.1 147.299 281.4L125.099 294.2C124.499 294.5 123.999 294.3 123.999 293.7C123.999 293.1 124.499 292.3 125.099 291.9Z" fill="#E0E0E0"/>
<path d="M119.898 298L121.698 294.8C121.798 294.7 121.798 294.5 121.698 294.5L119.898 293.4C119.798 293.3 119.698 293.5 119.698 293.7V298C119.698 298.1 119.798 298.2 119.898 298Z" fill="#5550F2"/>
<path d="M125.099 299L147.299 286.2C147.899 285.9 148.399 286.1 148.399 286.7C148.399 287.3 147.899 288.2 147.299 288.5L125.099 301.3C124.499 301.6 123.999 301.4 123.999 300.8C123.999 300.1 124.499 299.3 125.099 299Z" fill="#E0E0E0"/>
<path d="M119.898 305L121.698 301.8C121.798 301.7 121.798 301.5 121.698 301.5L119.898 300.4C119.798 300.3 119.698 300.5 119.698 300.7V305C119.698 305.2 119.798 305.2 119.898 305Z" fill="#5550F2"/>
<path d="M125.099 306L147.299 293.2C147.899 292.9 148.399 293.1 148.399 293.7C148.399 294.3 147.899 295.2 147.299 295.5L125.099 308.3C124.499 308.6 123.999 308.4 123.999 307.8C123.999 307.2 124.499 306.3 125.099 306Z" fill="#E0E0E0"/>
<path d="M119.898 312.1L121.698 308.9C121.798 308.8 121.798 308.6 121.698 308.6L119.898 307.5C119.798 307.4 119.698 307.6 119.698 307.8V312.1C119.698 312.2 119.798 312.2 119.898 312.1Z" fill="#5550F2"/>
<path d="M125.099 313L147.299 300.2C147.899 299.9 148.399 300.1 148.399 300.7C148.399 301.3 147.899 302.2 147.299 302.5L125.099 315.3C124.499 315.6 123.999 315.4 123.999 314.8C123.999 314.2 124.499 313.4 125.099 313Z" fill="#E0E0E0"/>
<path d="M119.898 319.1L121.698 315.9C121.798 315.8 121.798 315.6 121.698 315.6L119.898 314.5C119.798 314.4 119.698 314.6 119.698 314.8V319.1C119.698 319.2 119.798 319.3 119.898 319.1Z" fill="#5550F2"/>
<path d="M125.099 320.1L147.299 307.3C147.899 307 148.399 307.2 148.399 307.8C148.399 308.4 147.899 309.3 147.299 309.6L125.099 322.4C124.499 322.7 123.999 322.5 123.999 321.9C123.999 321.2 124.499 320.4 125.099 320.1Z" fill="#E0E0E0"/>
<path d="M119.898 326.1L121.698 322.9C121.798 322.8 121.798 322.6 121.698 322.6L119.898 321.5C119.798 321.4 119.698 321.6 119.698 321.8V326.1C119.698 326.3 119.798 326.3 119.898 326.1Z" fill="#5550F2"/>
<path d="M125.099 327.1L147.299 314.3C147.899 314 148.399 314.2 148.399 314.8C148.399 315.4 147.899 316.3 147.299 316.6L125.099 329.4C124.499 329.7 123.999 329.5 123.999 328.9C123.999 328.3 124.499 327.5 125.099 327.1Z" fill="#E0E0E0"/>
<path d="M119.898 333.2L121.698 330C121.798 329.9 121.798 329.7 121.698 329.7L119.898 328.6C119.798 328.5 119.698 328.7 119.698 328.9V333.2C119.698 333.3 119.798 333.3 119.898 333.2Z" fill="#5550F2"/>
<path d="M169.499 179.5L242.499 137.4C243.099 137.1 243.599 136.2 243.599 135.5V116.9C243.599 116.2 243.099 115.9 242.499 116.3L169.499 158.4C168.899 158.7 168.399 159.6 168.399 160.3V178.9C168.499 179.6 168.899 179.9 169.499 179.5Z" fill="#F0F0F0"/>
<path d="M175.899 166.4L176.399 164.4L175.699 164.8C175.699 164.8 175.699 164.8 175.699 164.7V164.3V164.2C175.699 164.2 175.699 164.2 175.699 164.1L176.799 163.5C176.799 163.5 176.799 163.5 176.799 163.6V163.9C176.799 163.9 176.799 164 176.799 164.1L176.299 166.1C176.299 166.1 176.299 166.1 176.299 166.2L175.899 166.4C175.999 166.4 175.899 166.4 175.899 166.4Z" fill="#5550F2"/>
<path d="M177.7 163C177.8 162.9 177.9 162.9 178 162.9C178.1 162.9 178.1 162.9 178.2 163C178.3 163.1 178.3 163.1 178.3 163.2C178.3 163.3 178.3 163.4 178.3 163.5C178.3 163.6 178.3 163.7 178.3 163.8C178.3 163.9 178.3 164 178.3 164.1C178.3 164.2 178.3 164.4 178.3 164.5C178.3 164.6 178.2 164.7 178.2 164.9C178.1 165 178.1 165.1 178 165.2C177.9 165.3 177.8 165.4 177.7 165.4C177.6 165.5 177.5 165.5 177.4 165.5C177.3 165.5 177.3 165.5 177.2 165.4C177.1 165.3 177.1 165.3 177.1 165.2C177.1 165.1 177.1 165 177.1 164.9C177.1 164.8 177.1 164.7 177.1 164.6C177.1 164.5 177.1 164.4 177.1 164.3C177.1 164.2 177.1 164 177.1 163.9C177.1 163.8 177.2 163.7 177.2 163.5C177.3 163.4 177.3 163.3 177.4 163.2C177.5 163.2 177.6 163.1 177.7 163ZM177.9 164.4C177.9 164.2 177.9 164 177.9 163.8C177.9 163.7 177.9 163.7 177.9 163.7V163.6C177.9 163.6 177.9 163.6 177.8 163.6H177.7L177.6 163.7L177.5 163.8V163.9C177.5 164 177.5 164 177.5 164.1C177.5 164.3 177.5 164.5 177.5 164.7C177.5 164.8 177.5 164.8 177.5 164.8V164.9C177.5 164.9 177.5 164.9 177.6 164.9H177.7L177.8 164.8L177.9 164.7V164.6C177.9 164.5 177.9 164.5 177.9 164.4Z" fill="#5550F2"/>
<path d="M179.199 162.6C179.199 162.7 179.199 162.8 179.199 162.9C179.199 163 179.199 163 179.199 163.1C179.199 163.2 179.199 163.2 179.099 163.3C179.099 163.4 178.999 163.4 178.999 163.5C178.999 163.5 178.899 163.6 178.799 163.6C178.699 163.6 178.699 163.6 178.599 163.6H178.499C178.499 163.6 178.499 163.5 178.399 163.5C178.399 163.5 178.399 163.4 178.399 163.3V163.2V163.1C178.399 163 178.399 163 178.399 162.9C178.399 162.8 178.399 162.8 178.499 162.7C178.499 162.6 178.599 162.6 178.599 162.5C178.599 162.5 178.699 162.4 178.799 162.4C178.899 162.4 178.899 162.3 178.999 162.3H179.099C179.099 162.3 179.099 162.4 179.199 162.4C179.199 162.5 179.199 162.6 179.199 162.6ZM179.799 161.9C179.799 161.8 179.899 161.8 179.899 161.8L180.099 161.7L178.999 164.6C178.999 164.6 178.999 164.6 178.999 164.7L178.799 164.8L179.799 161.9ZM178.799 163.1C178.799 163.2 178.799 163.2 178.799 163.2C178.799 163.2 178.799 163.2 178.899 163.2C178.899 163.2 178.999 163.2 178.999 163.1V163C178.999 162.9 178.999 162.8 178.999 162.8C178.999 162.7 178.999 162.7 178.999 162.7C178.999 162.7 178.999 162.7 178.899 162.7C178.899 162.7 178.799 162.7 178.799 162.8V162.9C178.799 163 178.799 163.1 178.799 163.1ZM180.199 163.2C180.199 163.3 180.199 163.4 180.199 163.5C180.199 163.6 180.199 163.6 180.199 163.7C180.199 163.8 180.199 163.8 180.099 163.9C180.099 164 179.999 164 179.999 164.1C179.999 164.2 179.899 164.2 179.799 164.2C179.699 164.2 179.699 164.3 179.599 164.3H179.499C179.499 164.3 179.499 164.2 179.399 164.2C179.399 164.1 179.399 164.1 179.399 164V163.9V163.8C179.399 163.7 179.399 163.7 179.399 163.6C179.399 163.5 179.399 163.5 179.499 163.4C179.499 163.3 179.599 163.3 179.599 163.2C179.599 163.1 179.699 163.1 179.799 163.1C179.899 163.1 179.899 163.1 179.999 163.1H180.099C180.099 163.1 180.099 163.2 180.199 163.2C180.199 163.2 180.199 163.1 180.199 163.2ZM179.799 163.7C179.799 163.8 179.799 163.8 179.799 163.8C179.799 163.8 179.799 163.8 179.899 163.8C179.899 163.8 179.999 163.8 179.999 163.7V163.6C179.999 163.5 179.999 163.4 179.999 163.4C179.999 163.3 179.999 163.3 179.999 163.3C179.999 163.3 179.999 163.3 179.899 163.3C179.899 163.3 179.799 163.3 179.799 163.4V163.5C179.799 163.6 179.799 163.7 179.799 163.7Z" fill="#5550F2"/>
<path d="M175.899 160.7L175.199 159.6C174.399 161 173.799 162.6 173.499 164.3L174.699 164.2C174.899 162.9 175.299 161.7 175.899 160.7Z" fill="#5550F2"/>
<path d="M177.999 158.4V156.5C176.999 157.1 175.999 158.2 175.199 159.5L175.899 160.6C176.499 159.7 177.199 158.9 177.999 158.4Z" fill="#5550F2"/>
<path d="M174.399 165.9C174.399 165.3 174.499 164.7 174.599 164.1L173.399 164.2C173.199 165 173.199 165.8 173.199 166.6C173.199 167.4 173.299 168.1 173.399 168.7L174.599 167.4C174.499 167 174.399 166.5 174.399 165.9Z" fill="#5550F2"/>
<path d="M182.499 159C182.199 157.7 181.599 156.8 180.799 156.3C179.999 155.9 178.999 155.9 177.999 156.5V158.4C178.799 158 179.499 157.9 180.099 158.2C180.699 158.5 181.099 159.2 181.399 160.2C181.499 160.7 181.599 161.2 181.599 161.8C181.599 162.4 181.499 163 181.399 163.6C181.199 164.8 180.699 166 180.099 167C179.499 168 178.799 168.8 177.999 169.2C177.199 169.6 176.499 169.7 175.899 169.4C175.299 169.1 174.899 168.4 174.599 167.4L173.399 168.7C173.699 170 174.299 170.9 175.099 171.4C175.899 171.8 176.899 171.8 177.899 171.2C178.899 170.6 179.899 169.5 180.699 168.2C181.499 166.8 182.099 165.2 182.399 163.5C182.599 162.7 182.599 161.9 182.599 161.1C182.699 160.3 182.699 159.6 182.499 159Z" fill="#A871FF"/>
<path d="M189.9 153.7L212.1 140.9C212.7 140.6 213.2 140.8 213.2 141.4C213.2 142 212.7 142.9 212.1 143.2L189.9 156C189.3 156.3 188.8 156.1 188.8 155.5C188.8 154.9 189.3 154.1 189.9 153.7Z" fill="#5550F2"/>
<path d="M189.9 158.4L228.4 136.2C229 135.9 229.5 136.1 229.5 136.7C229.5 137.3 229 138.2 228.4 138.5L189.9 160.7C189.3 161 188.8 160.8 188.8 160.2C188.8 159.6 189.3 158.8 189.9 158.4Z" fill="#E0E0E0"/>
<path d="M248.7 133.8L321.7 91.7C322.3 91.4 322.8 90.5 322.8 89.8V71.2C322.8 70.5 322.3 70.2 321.7 70.6L248.7 112.7C248.1 113 247.6 113.9 247.6 114.6V133.2C247.7 133.8 248.2 134.1 248.7 133.8Z" fill="#F0F0F0"/>
<path d="M255.499 118.9C255.499 118.8 255.499 118.6 255.599 118.5C255.599 118.4 255.699 118.3 255.699 118.1C255.799 118 255.799 117.9 255.899 117.8C255.999 117.7 256.099 117.6 256.099 117.6C256.199 117.6 256.299 117.5 256.299 117.5C256.399 117.5 256.399 117.5 256.499 117.5C256.599 117.5 256.599 117.6 256.599 117.7C256.599 117.8 256.699 117.9 256.699 118C256.699 118.1 256.699 118.1 256.699 118.2C256.699 118.3 256.699 118.3 256.699 118.4C256.699 118.5 256.699 118.5 256.599 118.6C256.599 118.7 256.599 118.7 256.499 118.8L256.099 119.9C256.099 119.9 256.099 119.9 256.099 120C256.099 120 256.099 120 256.099 120.1L255.699 120.3L255.999 119.5C255.899 119.5 255.899 119.5 255.799 119.5C255.699 119.5 255.699 119.5 255.599 119.4C255.599 119.4 255.499 119.3 255.499 119.2C255.499 119.2 255.499 119.1 255.499 118.9ZM256.399 118.4V118.3C256.399 118.3 256.399 118.2 256.299 118.2C256.299 118.2 256.299 118.2 256.199 118.2H256.099C256.099 118.2 255.999 118.2 255.999 118.3L255.899 118.4C255.899 118.4 255.899 118.5 255.799 118.5V118.6V118.7C255.799 118.7 255.799 118.8 255.899 118.8C255.899 118.8 255.899 118.8 255.999 118.8H256.099C256.099 118.8 256.199 118.8 256.199 118.7L256.299 118.6C256.299 118.6 256.299 118.5 256.399 118.5C256.399 118.5 256.399 118.5 256.399 118.4Z" fill="#5550F2"/>
<path d="M257.599 116.9C257.699 116.8 257.799 116.8 257.899 116.8C257.999 116.8 257.999 116.8 258.099 116.9C258.199 117 258.199 117 258.199 117.1C258.199 117.2 258.199 117.3 258.199 117.4C258.199 117.5 258.199 117.6 258.199 117.7C258.199 117.8 258.199 117.9 258.199 118C258.199 118.1 258.199 118.3 258.199 118.4C258.199 118.5 258.099 118.6 258.099 118.8C257.999 118.9 257.999 119 257.899 119.1C257.799 119.2 257.699 119.3 257.599 119.3C257.499 119.4 257.399 119.4 257.299 119.4C257.199 119.4 257.199 119.4 257.099 119.3C256.999 119.2 256.999 119.2 256.999 119.1C256.999 119 256.999 118.9 256.999 118.8C256.999 118.7 256.999 118.6 256.999 118.5C256.999 118.4 256.999 118.3 256.999 118.2C256.999 118.1 256.999 117.9 256.999 117.8C256.999 117.7 257.099 117.6 257.099 117.4C257.199 117.3 257.199 117.2 257.299 117.1C257.399 117 257.499 116.9 257.599 116.9ZM257.799 118.2C257.799 118 257.799 117.8 257.799 117.6C257.799 117.5 257.799 117.5 257.799 117.5V117.4C257.799 117.4 257.799 117.4 257.699 117.4H257.599L257.499 117.5L257.399 117.6V117.7C257.399 117.8 257.399 117.8 257.399 117.9C257.399 118.1 257.399 118.3 257.399 118.5C257.399 118.6 257.399 118.6 257.399 118.6V118.7C257.399 118.7 257.399 118.7 257.499 118.7H257.599L257.699 118.6L257.799 118.5V118.4C257.799 118.4 257.799 118.3 257.799 118.2Z" fill="#5550F2"/>
<path d="M259.099 116.5C259.099 116.6 259.099 116.7 259.099 116.8C259.099 116.9 259.099 116.9 259.099 117C259.099 117.1 259.099 117.1 258.999 117.2C258.999 117.3 258.899 117.3 258.899 117.4C258.899 117.4 258.799 117.5 258.699 117.5C258.599 117.5 258.599 117.5 258.499 117.5H258.399C258.399 117.5 258.399 117.4 258.299 117.4C258.299 117.4 258.299 117.3 258.299 117.2V117.1V117C258.299 116.9 258.299 116.9 258.299 116.8C258.299 116.7 258.299 116.7 258.399 116.6C258.399 116.5 258.499 116.5 258.499 116.4C258.499 116.4 258.599 116.3 258.699 116.3C258.799 116.3 258.799 116.2 258.899 116.2H258.999C258.999 116.2 258.999 116.3 259.099 116.3C259.099 116.4 259.099 116.4 259.099 116.5ZM259.699 115.8C259.699 115.7 259.699 115.7 259.699 115.8C259.699 115.7 259.799 115.7 259.799 115.7L259.999 115.6L258.899 118.5C258.899 118.5 258.899 118.5 258.899 118.6L258.699 118.7L259.699 115.8ZM258.699 117C258.699 117.1 258.699 117.1 258.699 117.1C258.699 117.1 258.699 117.1 258.799 117.1C258.799 117.1 258.899 117.1 258.899 117V116.9C258.899 116.8 258.899 116.7 258.899 116.7C258.899 116.6 258.899 116.6 258.899 116.6C258.899 116.6 258.899 116.6 258.799 116.6C258.799 116.6 258.699 116.6 258.699 116.7V116.8C258.699 116.8 258.699 116.9 258.699 117ZM260.199 117.1C260.199 117.2 260.199 117.3 260.199 117.4C260.199 117.5 260.199 117.5 260.199 117.6C260.199 117.7 260.199 117.7 260.099 117.8C260.099 117.9 259.999 117.9 259.999 118C259.999 118.1 259.899 118.1 259.799 118.1C259.699 118.1 259.699 118.2 259.599 118.2C259.499 118.2 259.499 118.2 259.499 118.2C259.499 118.2 259.499 118.1 259.399 118.1C259.399 118 259.399 118 259.399 117.9V117.8V117.7C259.399 117.6 259.399 117.6 259.399 117.5C259.399 117.4 259.399 117.4 259.499 117.3C259.499 117.2 259.599 117.2 259.599 117.1C259.599 117 259.699 117 259.799 117C259.899 117 259.899 117 259.999 117H260.099C260.099 117 260.099 117.1 260.199 117.1C260.199 117 260.199 117 260.199 117.1ZM259.699 117.6C259.699 117.7 259.699 117.7 259.699 117.7C259.699 117.7 259.699 117.7 259.799 117.7C259.799 117.7 259.899 117.7 259.899 117.6V117.5C259.899 117.4 259.899 117.3 259.899 117.3C259.899 117.2 259.899 117.2 259.899 117.2C259.899 117.2 259.899 117.2 259.799 117.2C259.799 117.2 259.699 117.2 259.699 117.3V117.4C259.699 117.4 259.699 117.5 259.699 117.6Z" fill="#5550F2"/>
<path d="M257.799 112.3V110.4C256.799 111 255.799 112.1 254.999 113.4L255.699 114.5C256.299 113.5 257.099 112.7 257.799 112.3Z" fill="#5550F2"/>
<path d="M262.399 112.8C262.099 111.5 261.499 110.6 260.699 110.1C259.899 109.7 258.899 109.7 257.899 110.3V112.2C258.699 111.8 259.399 111.7 259.999 112C260.599 112.3 260.999 113 261.299 114C261.399 114.5 261.499 115 261.499 115.6C261.499 116.2 261.399 116.8 261.299 117.4C261.099 118.6 260.599 119.8 259.999 120.8C259.399 121.8 258.699 122.6 257.899 123C257.099 123.4 256.399 123.5 255.799 123.2C255.199 122.9 254.799 122.2 254.499 121.2C254.399 120.7 254.299 120.2 254.299 119.6C254.299 119 254.399 118.4 254.499 117.8C254.699 116.6 255.199 115.4 255.799 114.4L255.099 113.3C254.299 114.7 253.699 116.3 253.399 118C253.199 118.8 253.199 119.6 253.199 120.4C253.199 121.2 253.299 121.9 253.399 122.5C253.699 123.8 254.299 124.7 255.099 125.2C255.899 125.6 256.899 125.6 257.899 125C258.899 124.4 259.899 123.3 260.699 122C261.499 120.6 262.099 119 262.399 117.3C262.599 116.5 262.599 115.7 262.599 114.9C262.599 114.2 262.499 113.5 262.399 112.8Z" fill="#A871FF"/>
<path d="M269.7 107.6L291.9 94.8C292.5 94.5 293 94.7 293 95.3C293 95.9 292.5 96.8 291.9 97.1L269.7 109.9C269.1 110.2 268.6 110 268.6 109.4C268.6 108.7 269.1 107.9 269.7 107.6Z" fill="#5550F2"/>
<path d="M269.7 112.3L308.2 90.1C308.8 89.8 309.3 90 309.3 90.6C309.3 91.2 308.8 92.1 308.2 92.4L269.7 114.6C269.1 114.9 268.6 114.7 268.6 114.1C268.6 113.5 269.1 112.7 269.7 112.3Z" fill="#E0E0E0"/>
<path d="M176.999 184.6L192.599 175.6C193.199 175.3 193.699 175.5 193.699 176.1C193.699 176.7 193.199 177.6 192.599 177.9L176.999 186.9C176.399 187.2 175.899 187 175.899 186.4C175.899 185.8 176.399 185 176.999 184.6Z" fill="#5550F2"/>
<path d="M321.799 106.8V225.8C321.799 226.1 321.499 226.6 321.199 226.8L169.399 314.4V195.4C169.399 195.1 169.699 194.6 169.999 194.4L171.899 193.3C172.799 192.8 173.499 191.6 173.499 190.6V183.7C173.499 183.4 173.799 182.9 174.099 182.7L195.899 170.1V176.5C195.899 177.7 196.699 178.3 197.499 178.3C197.799 178.3 198.199 178.2 198.499 178L321.799 106.8ZM322.199 105.6C322.099 105.6 321.899 105.6 321.699 105.7L197.999 177.2C197.799 177.3 197.699 177.3 197.499 177.3C197.099 177.3 196.899 177 196.899 176.5V169.6C196.899 169.1 196.699 168.8 196.299 168.8C196.199 168.8 195.999 168.8 195.799 168.9L173.599 181.7C172.999 182 172.499 182.9 172.499 183.6V190.5C172.499 191.2 171.999 192 171.399 192.4L169.499 193.5C168.899 193.8 168.399 194.7 168.399 195.4V314.9C168.399 315.4 168.599 315.7 168.999 315.7C169.099 315.7 169.299 315.7 169.499 315.6L321.699 227.7C322.299 227.4 322.799 226.5 322.799 225.8V106.3C322.799 105.9 322.599 105.6 322.199 105.6Z" fill="#E0E0E0"/>
<path d="M178.299 200.7C178.099 200.7 177.899 200.7 177.799 200.6C177.399 200.4 177.199 200 177.199 199.5V195C177.199 194.1 177.799 193.1 178.499 192.7L190.599 185.7C190.999 185.4 191.499 185.4 191.899 185.6C192.299 185.8 192.499 186.2 192.499 186.7V191.2C192.499 192.1 191.899 193.1 191.199 193.5L179.099 200.5C178.699 200.6 178.499 200.7 178.299 200.7ZM178.999 193.4C178.599 193.7 178.199 194.3 178.199 194.8V199.3C178.199 199.5 178.199 199.6 178.299 199.6C178.299 199.6 178.399 199.6 178.599 199.5L190.699 192.5C191.099 192.2 191.499 191.6 191.499 191.1V186.6C191.499 186.4 191.499 186.3 191.399 186.3C191.399 186.3 191.299 186.3 191.099 186.4L178.999 193.4Z" fill="#E0E0E0"/>
<path d="M179.699 195.3L187.599 190.7C187.999 190.5 188.299 190.6 188.299 191.1C188.299 191.5 187.999 192.1 187.599 192.3L179.699 196.9C179.299 197.1 178.999 197 178.999 196.5C178.999 196 179.299 195.5 179.699 195.3Z" fill="#E0E0E0"/>
<path d="M189.399 190L190.099 190.9C190.099 190.9 190.199 190.9 190.199 190.8L190.899 189.1C190.899 189 190.899 188.9 190.899 189L189.599 189.8C189.399 189.8 189.399 189.9 189.399 190Z" fill="#5550F2"/>
<path d="M176.6 244.6C177.2 244.3 177.6 244.5 177.6 245.2C177.6 245.9 177.1 246.7 176.6 247C176 247.3 175.6 247.1 175.6 246.4C175.5 245.7 176 244.9 176.6 244.6Z" fill="#A871FF"/>
<path d="M184.699 235.2C185.299 234.9 185.699 235.1 185.699 235.8C185.699 236.5 185.199 237.3 184.699 237.6C184.099 237.9 183.699 237.7 183.699 237C183.699 236.3 184.099 235.5 184.699 235.2Z" fill="#A871FF"/>
<path d="M192.8 230.5C193.4 230.2 193.8 230.4 193.8 231.1C193.8 231.8 193.3 232.6 192.8 232.9C192.2 233.2 191.8 233 191.8 232.3C191.8 231.6 192.3 230.9 192.8 230.5Z" fill="#A871FF"/>
<path d="M201 227.9C201.6 227.6 202 227.8 202 228.5C202 229.2 201.5 230 201 230.3C200.4 230.6 200 230.4 200 229.7C199.9 229 200.4 228.2 201 227.9Z" fill="#A871FF"/>
<path d="M209.1 219.4C209.7 219.1 210.1 219.3 210.1 220C210.1 220.7 209.6 221.5 209.1 221.8C208.5 222.1 208.1 221.9 208.1 221.2C208.1 220.6 208.5 219.8 209.1 219.4Z" fill="#A871FF"/>
<path d="M217.199 216.5C217.799 216.2 218.199 216.4 218.199 217.1C218.199 217.8 217.699 218.6 217.199 218.9C216.599 219.2 216.199 219 216.199 218.3C216.199 217.6 216.599 216.8 217.199 216.5Z" fill="#A871FF"/>
<path d="M225.3 207.1C225.9 206.8 226.3 207 226.3 207.7C226.3 208.4 225.8 209.2 225.3 209.5C224.7 209.8 224.3 209.6 224.3 208.9C224.3 208.2 224.8 207.4 225.3 207.1Z" fill="#A871FF"/>
<path d="M233.5 204.7C234.1 204.4 234.5 204.6 234.5 205.3C234.5 206 234 206.8 233.5 207.1C232.9 207.4 232.5 207.2 232.5 206.5C232.5 205.8 232.9 205.1 233.5 204.7Z" fill="#A871FF"/>
<path d="M241.6 178.9C242.2 178.6 242.6 178.8 242.6 179.5C242.6 180.2 242.1 181 241.6 181.3C241 181.6 240.6 181.4 240.6 180.7C240.6 180 241 179.3 241.6 178.9Z" fill="#A871FF"/>
<path d="M249.699 193C250.299 192.7 250.699 192.9 250.699 193.6C250.699 194.3 250.199 195.1 249.699 195.4C249.099 195.7 248.699 195.5 248.699 194.8C248.699 194.1 249.099 193.3 249.699 193Z" fill="#A871FF"/>
<path d="M257.8 193C258.4 192.7 258.8 192.9 258.8 193.6C258.8 194.3 258.3 195.1 257.8 195.4C257.2 195.7 256.8 195.5 256.8 194.8C256.8 194.1 257.3 193.3 257.8 193Z" fill="#A871FF"/>
<path d="M266 193C266.6 192.7 267 192.9 267 193.6C267 194.3 266.5 195.1 266 195.4C265.5 195.7 265 195.5 265 194.8C264.9 194.1 265.4 193.3 266 193Z" fill="#A871FF"/>
<path d="M274.1 178.9C274.7 178.6 275.1 178.8 275.1 179.5C275.1 180.2 274.6 181 274.1 181.3C273.5 181.6 273.1 181.4 273.1 180.7C273 180.1 273.5 179.3 274.1 178.9Z" fill="#A871FF"/>
<path d="M282.2 176.2C282.8 175.9 283.2 176.1 283.2 176.8C283.2 177.5 282.7 178.3 282.2 178.6C281.6 178.9 281.2 178.7 281.2 178C281.2 177.3 281.6 176.6 282.2 176.2Z" fill="#A871FF"/>
<path d="M290.399 164.9C290.999 164.6 291.399 164.8 291.399 165.5C291.399 166.2 290.899 167 290.399 167.3C289.799 167.6 289.399 167.4 289.399 166.7C289.399 166 289.799 165.2 290.399 164.9Z" fill="#A871FF"/>
<path d="M299.306 166.483C299.72 165.766 299.707 164.983 299.277 164.734C298.846 164.486 298.161 164.866 297.747 165.583C297.333 166.301 297.346 167.084 297.777 167.332C298.207 167.581 298.892 167.201 299.306 166.483Z" fill="#A871FF"/>
<path d="M307.418 166.504C307.833 165.786 307.819 165.003 307.389 164.754C306.958 164.506 306.274 164.886 305.859 165.604C305.445 166.321 305.458 167.104 305.889 167.353C306.319 167.601 307.004 167.221 307.418 166.504Z" fill="#A871FF"/>
<path d="M314.7 160.2C315.3 159.9 315.7 160.1 315.7 160.8C315.7 161.5 315.2 162.3 314.7 162.6C314.1 162.9 313.7 162.7 313.7 162C313.7 161.3 314.1 160.5 314.7 160.2Z" fill="#A871FF"/>
<path d="M176.599 246.1C176.499 246.1 176.499 246.1 176.399 246C176.299 245.9 176.299 245.8 176.399 245.6L184.599 236.2C184.599 236.2 184.599 236.2 184.699 236.1L192.799 231.4L200.899 228.8L208.999 220.4C208.999 220.4 209.099 220.4 209.099 220.3L217.199 217.3L225.299 208L225.399 207.9L233.399 205.6L241.499 179.9C241.499 179.8 241.599 179.7 241.699 179.7C241.799 179.7 241.899 179.7 241.899 179.8L249.999 193.7H257.999H265.999L274.099 179.8C274.099 179.7 274.199 179.7 274.199 179.7L282.199 177L290.299 165.7C290.299 165.6 290.399 165.6 290.499 165.6H306.699L314.799 160.9C314.899 160.8 315.099 160.9 315.099 161C315.199 161.1 315.099 161.3 314.999 161.3L306.899 166H306.799H290.699L282.699 177.3L282.599 177.4L274.599 180.1L266.499 194.1C266.499 194.2 266.399 194.2 266.299 194.2H258.199H250.099C249.999 194.2 249.899 194.2 249.899 194.1L242.099 180.5L234.099 205.8C234.099 205.9 233.999 205.9 233.899 206L225.799 208.3L217.699 217.6L217.599 217.7L209.499 220.7L201.399 229.1L201.299 229.2L193.199 231.8L185.199 236.4L176.999 245.8C176.699 246 176.599 246.1 176.599 246.1Z" fill="#A871FF"/>
<path d="M176.599 251C176.399 251 176.299 250.9 176.199 250.7C176.099 250.5 176.099 250.2 176.399 250L314.499 170.3C314.699 170.2 314.999 170.2 315.199 170.5C315.299 170.7 315.299 171 314.999 171.2L176.899 250.9C176.799 251 176.699 251 176.599 251Z" fill="#E0E0E0"/>
<path d="M176.6 239.9C177.2 239.6 177.6 239.8 177.6 240.5C177.6 241.2 177.1 242 176.6 242.3C176 242.6 175.6 242.4 175.6 241.7C175.5 241 176 240.2 176.6 239.9Z" fill="#A871FF"/>
<path d="M184.699 225.8C185.299 225.5 185.699 225.7 185.699 226.4C185.699 227.1 185.199 227.9 184.699 228.2C184.099 228.5 183.699 228.3 183.699 227.6C183.699 226.9 184.099 226.2 184.699 225.8Z" fill="#A871FF"/>
<path d="M193.63 225.776C194.044 225.059 194.031 224.276 193.601 224.027C193.17 223.779 192.486 224.159 192.071 224.876C191.657 225.594 191.67 226.377 192.101 226.625C192.531 226.874 193.216 226.494 193.63 225.776Z" fill="#A871FF"/>
<path d="M201 207.1C201.6 206.8 202 207 202 207.7C202 208.4 201.5 209.2 201 209.5C200.4 209.8 200 209.6 200 208.9C199.9 208.2 200.4 207.4 201 207.1Z" fill="#A871FF"/>
<path d="M209.1 211.8C209.7 211.5 210.1 211.7 210.1 212.4C210.1 213.1 209.6 213.9 209.1 214.2C208.5 214.5 208.1 214.3 208.1 213.6C208.1 212.9 208.5 212.1 209.1 211.8Z" fill="#A871FF"/>
<path d="M217.199 209.4C217.799 209.1 218.199 209.3 218.199 210C218.199 210.7 217.699 211.5 217.199 211.8C216.599 212.1 216.199 211.9 216.199 211.2C216.199 210.6 216.599 209.8 217.199 209.4Z" fill="#A871FF"/>
<path d="M225.3 202.4C225.9 202.1 226.3 202.3 226.3 203C226.3 203.7 225.8 204.5 225.3 204.8C224.7 205.1 224.3 204.9 224.3 204.2C224.3 203.5 224.8 202.7 225.3 202.4Z" fill="#A871FF"/>
<path d="M233.5 193C234.1 192.7 234.5 192.9 234.5 193.6C234.5 194.3 234 195.1 233.5 195.4C232.9 195.7 232.5 195.5 232.5 194.8C232.5 194.1 232.9 193.3 233.5 193Z" fill="#A871FF"/>
<path d="M241.6 190.7C242.2 190.4 242.6 190.6 242.6 191.3C242.6 192 242.1 192.8 241.6 193.1C241 193.4 240.6 193.2 240.6 192.5C240.6 191.8 241 191 241.6 190.7Z" fill="#A871FF"/>
<path d="M249.699 183.6C250.299 183.3 250.699 183.5 250.699 184.2C250.699 184.9 250.199 185.7 249.699 186C249.099 186.3 248.699 186.1 248.699 185.4C248.699 184.8 249.099 184 249.699 183.6Z" fill="#A871FF"/>
<path d="M257.8 183.6C258.4 183.3 258.8 183.5 258.8 184.2C258.8 184.9 258.3 185.7 257.8 186C257.2 186.3 256.8 186.1 256.8 185.4C256.8 184.7 257.3 184 257.8 183.6Z" fill="#A871FF"/>
<path d="M266 164.9C266.6 164.6 267 164.8 267 165.5C267 166.2 266.5 167 266 167.3C265.5 167.6 265 167.4 265 166.7C264.9 166 265.4 165.2 266 164.9Z" fill="#A871FF"/>
<path d="M274.1 174.2C274.7 173.9 275.1 174.1 275.1 174.8C275.1 175.5 274.6 176.3 274.1 176.6C273.5 176.9 273.1 176.7 273.1 176C273.1 175.3 273.5 174.5 274.1 174.2Z" fill="#A871FF"/>
<path d="M282.2 164.9C282.8 164.6 283.2 164.8 283.2 165.5C283.2 166.2 282.7 167 282.2 167.3C281.6 167.6 281.2 167.4 281.2 166.7C281.2 166 281.6 165.2 282.2 164.9Z" fill="#A871FF"/>
<path d="M290.3 160.2C290.9 159.9 291.3 160.1 291.3 160.8C291.3 161.5 290.8 162.3 290.3 162.6C289.7 162.9 289.3 162.7 289.3 162C289.3 161.3 289.7 160.5 290.3 160.2Z" fill="#A871FF"/>
<path d="M298.5 160.2C299.1 159.9 299.5 160.1 299.5 160.8C299.5 161.5 299 162.3 298.5 162.6C297.9 162.9 297.5 162.7 297.5 162C297.4 161.3 297.9 160.5 298.5 160.2Z" fill="#A871FF"/>
<path d="M306.6 155.5C307.2 155.2 307.6 155.4 307.6 156.1C307.6 156.8 307.1 157.6 306.6 157.9C306 158.2 305.6 158 305.6 157.3C305.5 156.6 306 155.8 306.6 155.5Z" fill="#A871FF"/>
<path d="M314.7 155.5C315.3 155.2 315.7 155.4 315.7 156.1C315.7 156.8 315.2 157.6 314.7 157.9C314.1 158.2 313.7 158 313.7 157.3C313.7 156.6 314.1 155.8 314.7 155.5Z" fill="#A871FF"/>
<path d="M176.6 241.4H176.5C176.4 241.3 176.3 241.2 176.4 241.1L184.6 227C184.6 226.9 184.7 226.9 184.8 226.9L192.7 225.2L200.8 208.3C200.8 208.2 200.9 208.2 201 208.2C201.1 208.2 201.1 208.2 201.2 208.2L209.2 212.8L217.2 210.5L225.3 203.5L233.4 194.1L233.5 194L241.6 191.7L249.7 184.7C249.7 184.7 249.8 184.6 249.9 184.6H257.9L266 166C266 165.9 266.1 165.9 266.2 165.9C266.3 165.9 266.4 165.9 266.4 166L274.3 175.2L282.2 166C282.2 166 282.2 166 282.3 165.9L290.5 161.2H290.6H298.7L306.7 156.6H306.8H314.9C315 156.6 315.2 156.7 315.2 156.9C315.2 157.1 315.1 157.2 314.9 157.2H306.8L298.8 161.8H298.7H290.6L282.5 166.5L274.4 175.8C274.3 175.9 274.1 175.9 274 175.8L266.1 166.7L258.1 185.1C258.1 185.2 258 185.3 257.9 185.3H249.9L241.8 192.3C241.8 192.3 241.7 192.3 241.7 192.4L233.6 194.7L225.5 204L217.4 211.1C217.4 211.1 217.3 211.1 217.3 211.2L209.2 213.6C209.1 213.6 209.1 213.6 209 213.6L201.1 209L193.1 225.8C193.1 225.9 193 225.9 192.9 225.9L184.9 227.6L176.8 241.6C176.8 241.3 176.7 241.4 176.6 241.4Z" fill="#A871FF"/>
<g opacity="0.3">
<g opacity="0.3">
<g opacity="0.3">
<path opacity="0.3" d="M176.6 239.9C177.2 239.6 177.6 239.8 177.6 240.5C177.6 241.2 177.1 242 176.6 242.3C176 242.6 175.6 242.4 175.6 241.7C175.5 241 176 240.2 176.6 239.9Z" fill="black"/>
</g>
<g opacity="0.3">
<path opacity="0.3" d="M184.699 225.8C185.299 225.5 185.699 225.7 185.699 226.4C185.699 227.1 185.199 227.9 184.699 228.2C184.099 228.5 183.699 228.3 183.699 227.6C183.699 226.9 184.099 226.2 184.699 225.8Z" fill="black"/>
</g>
<g opacity="0.3">
<path opacity="0.3" d="M193.63 225.776C194.044 225.059 194.031 224.276 193.601 224.027C193.17 223.779 192.486 224.159 192.071 224.876C191.657 225.594 191.67 226.377 192.101 226.625C192.531 226.874 193.216 226.494 193.63 225.776Z" fill="black"/>
</g>
<g opacity="0.3">
<path opacity="0.3" d="M201 207.1C201.6 206.8 202 207 202 207.7C202 208.4 201.5 209.2 201 209.5C200.4 209.8 200 209.6 200 208.9C199.9 208.2 200.4 207.4 201 207.1Z" fill="black"/>
</g>
<g opacity="0.3">
<path opacity="0.3" d="M209.1 211.8C209.7 211.5 210.1 211.7 210.1 212.4C210.1 213.1 209.6 213.9 209.1 214.2C208.5 214.5 208.1 214.3 208.1 213.6C208.1 212.9 208.5 212.1 209.1 211.8Z" fill="black"/>
</g>
<g opacity="0.3">
<path opacity="0.3" d="M217.199 209.4C217.799 209.1 218.199 209.3 218.199 210C218.199 210.7 217.699 211.5 217.199 211.8C216.599 212.1 216.199 211.9 216.199 211.2C216.199 210.6 216.599 209.8 217.199 209.4Z" fill="black"/>
</g>
<g opacity="0.3">
<path opacity="0.3" d="M225.3 202.4C225.9 202.1 226.3 202.3 226.3 203C226.3 203.7 225.8 204.5 225.3 204.8C224.7 205.1 224.3 204.9 224.3 204.2C224.3 203.5 224.8 202.7 225.3 202.4Z" fill="black"/>
</g>
<g opacity="0.3">
<path opacity="0.3" d="M233.5 193C234.1 192.7 234.5 192.9 234.5 193.6C234.5 194.3 234 195.1 233.5 195.4C232.9 195.7 232.5 195.5 232.5 194.8C232.5 194.1 232.9 193.3 233.5 193Z" fill="black"/>
</g>
<g opacity="0.3">
<path opacity="0.3" d="M241.6 190.7C242.2 190.4 242.6 190.6 242.6 191.3C242.6 192 242.1 192.8 241.6 193.1C241 193.4 240.6 193.2 240.6 192.5C240.6 191.8 241 191 241.6 190.7Z" fill="black"/>
</g>
<g opacity="0.3">
<path opacity="0.3" d="M249.699 183.6C250.299 183.3 250.699 183.5 250.699 184.2C250.699 184.9 250.199 185.7 249.699 186C249.099 186.3 248.699 186.1 248.699 185.4C248.699 184.8 249.099 184 249.699 183.6Z" fill="black"/>
</g>
<g opacity="0.3">
<path opacity="0.3" d="M257.8 183.6C258.4 183.3 258.8 183.5 258.8 184.2C258.8 184.9 258.3 185.7 257.8 186C257.2 186.3 256.8 186.1 256.8 185.4C256.8 184.7 257.3 184 257.8 183.6Z" fill="black"/>
</g>
<g opacity="0.3">
<path opacity="0.3" d="M266 164.9C266.6 164.6 267 164.8 267 165.5C267 166.2 266.5 167 266 167.3C265.5 167.6 265 167.4 265 166.7C264.9 166 265.4 165.2 266 164.9Z" fill="black"/>
</g>
<g opacity="0.3">
<path opacity="0.3" d="M274.1 174.2C274.7 173.9 275.1 174.1 275.1 174.8C275.1 175.5 274.6 176.3 274.1 176.6C273.5 176.9 273.1 176.7 273.1 176C273.1 175.3 273.5 174.5 274.1 174.2Z" fill="black"/>
</g>
<g opacity="0.3">
<path opacity="0.3" d="M282.2 164.9C282.8 164.6 283.2 164.8 283.2 165.5C283.2 166.2 282.7 167 282.2 167.3C281.6 167.6 281.2 167.4 281.2 166.7C281.2 166 281.6 165.2 282.2 164.9Z" fill="black"/>
</g>
<g opacity="0.3">
<path opacity="0.3" d="M290.3 160.2C290.9 159.9 291.3 160.1 291.3 160.8C291.3 161.5 290.8 162.3 290.3 162.6C289.7 162.9 289.3 162.7 289.3 162C289.3 161.3 289.7 160.5 290.3 160.2Z" fill="black"/>
</g>
<g opacity="0.3">
<path opacity="0.3" d="M298.5 160.2C299.1 159.9 299.5 160.1 299.5 160.8C299.5 161.5 299 162.3 298.5 162.6C297.9 162.9 297.5 162.7 297.5 162C297.4 161.3 297.9 160.5 298.5 160.2Z" fill="black"/>
</g>
<g opacity="0.3">
<path opacity="0.3" d="M306.6 155.5C307.2 155.2 307.6 155.4 307.6 156.1C307.6 156.8 307.1 157.6 306.6 157.9C306 158.2 305.6 158 305.6 157.3C305.5 156.6 306 155.8 306.6 155.5Z" fill="black"/>
</g>
<g opacity="0.3">
<path opacity="0.3" d="M314.7 155.5C315.3 155.2 315.7 155.4 315.7 156.1C315.7 156.8 315.2 157.6 314.7 157.9C314.1 158.2 313.7 158 313.7 157.3C313.7 156.6 314.1 155.8 314.7 155.5Z" fill="black"/>
</g>
</g>
<g opacity="0.3">
<path opacity="0.3" d="M176.6 241.4H176.5C176.4 241.3 176.3 241.2 176.4 241.1L184.6 227C184.6 226.9 184.7 226.9 184.8 226.9L192.7 225.2L200.8 208.3C200.8 208.2 200.9 208.2 201 208.2C201.1 208.2 201.1 208.2 201.2 208.2L209.2 212.8L217.2 210.5L225.3 203.5L233.4 194.1L233.5 194L241.6 191.7L249.7 184.7C249.7 184.7 249.8 184.6 249.9 184.6H257.9L266 166C266 165.9 266.1 165.9 266.2 165.9C266.3 165.9 266.4 165.9 266.4 166L274.3 175.2L282.2 166C282.2 166 282.2 166 282.3 165.9L290.5 161.2H290.6H298.7L306.7 156.6H306.8H314.9C315 156.6 315.2 156.7 315.2 156.9C315.2 157.1 315.1 157.2 314.9 157.2H306.8L298.8 161.8H298.7H290.6L282.5 166.5L274.4 175.8C274.3 175.9 274.1 175.9 274 175.8L266.1 166.7L258.1 185.1C258.1 185.2 258 185.3 257.9 185.3H249.9L241.8 192.3C241.8 192.3 241.7 192.3 241.7 192.4L233.6 194.7L225.5 204L217.4 211.1C217.4 211.1 217.3 211.1 217.3 211.2L209.2 213.6C209.1 213.6 209.1 213.6 209 213.6L201.1 209L193.1 225.8C193.1 225.9 193 225.9 192.9 225.9L184.9 227.6L176.8 241.6C176.8 241.3 176.7 241.4 176.6 241.4Z" fill="black"/>
</g>
</g>
<path d="M180.8 205.1L188.7 200.5C189.1 200.3 189.4 200.4 189.4 200.9C189.4 201.4 189.1 201.9 188.7 202.1L180.8 206.7C180.4 206.9 180.1 206.8 180.1 206.3C180.1 205.9 180.4 205.3 180.8 205.1Z" fill="#E0E0E0"/>
<path d="M176.6 207.1C177.2 206.8 177.6 207 177.6 207.7C177.6 208.4 177.1 209.2 176.6 209.5C176 209.8 175.6 209.6 175.6 208.9C175.5 208.2 176 207.4 176.6 207.1Z" fill="#A871FF"/>
<path opacity="0.3" d="M176.6 207.1C177.2 206.8 177.6 207 177.6 207.7C177.6 208.4 177.1 209.2 176.6 209.5C176 209.8 175.6 209.6 175.6 208.9C175.5 208.2 176 207.4 176.6 207.1Z" fill="black"/>
<path d="M180.8 209.8L188.7 205.2C189.1 205 189.4 205.1 189.4 205.6C189.4 206 189.1 206.6 188.7 206.8L180.8 211.4C180.4 211.6 180.1 211.5 180.1 211C180.1 210.5 180.4 210 180.8 209.8Z" fill="#E0E0E0"/>
<path d="M176.6 211.8C177.2 211.5 177.6 211.7 177.6 212.4C177.6 213.1 177.1 213.9 176.6 214.2C176 214.5 175.6 214.3 175.6 213.6C175.5 212.9 176 212.1 176.6 211.8Z" fill="#A871FF"/>
<path d="M176.599 274.3C176.499 274.3 176.499 274.3 176.399 274.2C176.299 274.1 176.299 273.9 176.399 273.8L180.499 269.6L184.499 269.1L188.599 263.8L192.699 264.4L196.699 260.8L200.799 258.4L204.899 252.7L208.999 254L212.899 250.5C212.999 250.4 213.199 250.4 213.299 250.5C213.399 250.6 213.399 250.8 213.299 250.9L209.099 254.6L205.099 253.3L201.099 258.9L196.999 261.3L192.899 265L188.899 264.4L184.899 269.6L180.799 270.1L176.799 274.2C176.699 274.2 176.699 274.3 176.599 274.3Z" fill="#A871FF"/>
<path d="M178.199 260.5L178.299 260.4L178.399 260.3C178.599 260.2 178.799 260.1 178.999 260.1C179.199 260.1 179.399 260.2 179.499 260.3C179.599 260.4 179.699 260.6 179.799 260.8C179.899 261 179.899 261.3 179.899 261.6C179.899 261.9 179.899 262.2 179.799 262.5C179.699 262.8 179.599 263.1 179.499 263.4C179.399 263.7 179.199 263.9 178.999 264.1C178.799 264.3 178.599 264.5 178.399 264.6C178.199 264.7 177.999 264.8 177.799 264.8C177.599 264.8 177.499 264.7 177.299 264.6C177.199 264.5 177.099 264.3 176.999 264.1C176.899 263.9 176.899 263.6 176.899 263.3C176.899 263.1 176.899 263 176.899 262.8C176.899 262.6 176.999 262.5 176.999 262.3C176.999 262.1 177.099 262 177.099 261.8C177.199 261.6 177.199 261.5 177.299 261.4L178.399 258.3C178.399 258.3 178.399 258.2 178.499 258.1C178.499 258 178.599 258 178.599 258L178.899 257.8H178.999V257.9V258C178.999 258 178.999 258 178.999 258.1L178.199 260.5ZM177.399 263.1C177.399 263.3 177.399 263.4 177.499 263.6C177.499 263.7 177.599 263.8 177.699 263.9C177.799 264 177.899 264 177.999 264C178.099 264 178.299 264 178.399 263.9C178.599 263.8 178.699 263.7 178.799 263.6C178.899 263.5 178.999 263.3 179.099 263.1C179.199 262.9 179.199 262.7 179.299 262.5C179.299 262.3 179.399 262.1 179.399 261.9C179.399 261.7 179.399 261.6 179.299 261.4C179.299 261.3 179.199 261.2 179.099 261.1C178.999 261 178.899 261 178.799 261C178.699 261 178.499 261 178.399 261.1C178.299 261.2 178.099 261.3 177.999 261.4C177.899 261.5 177.799 261.7 177.699 261.9C177.599 262.1 177.599 262.3 177.499 262.5C177.499 262.8 177.399 263 177.399 263.1Z" fill="#5550F2"/>
<path d="M180.999 261.7C180.999 261.8 180.999 261.9 181.099 261.9C181.099 262 181.199 262 181.299 262.1C181.399 262.1 181.499 262.1 181.599 262.1C181.699 262.1 181.899 262 182.099 261.9C182.199 261.8 182.299 261.7 182.499 261.6C182.599 261.5 182.699 261.4 182.799 261.2C182.899 261.1 182.899 260.9 182.999 260.7C182.999 260.5 183.099 260.3 183.099 260.1C183.099 259.9 183.099 259.8 182.999 259.6C182.999 259.5 182.899 259.4 182.799 259.4C182.699 259.4 182.599 259.4 182.499 259.4C182.399 259.4 182.299 259.5 182.099 259.6L181.599 259.9H181.499V259.8V259.5C181.499 259.4 181.499 259.4 181.499 259.3C181.499 259.2 181.499 259.2 181.599 259.1L182.699 256.7L180.999 257.7H180.899V257.6V257.3C180.899 257.2 180.899 257.2 180.899 257.1C180.899 257 180.999 257 180.999 257L183.299 255.6H183.399V255.7V256C183.399 256.1 183.399 256.1 183.399 256.2C183.399 256.3 183.399 256.3 183.299 256.4L182.199 258.8C182.399 258.7 182.599 258.6 182.699 258.6C182.899 258.6 182.999 258.6 183.099 258.7C183.199 258.8 183.299 258.9 183.399 259.1C183.499 259.3 183.499 259.5 183.499 259.8C183.499 260.1 183.499 260.4 183.399 260.7C183.299 261 183.199 261.3 183.099 261.5C182.999 261.7 182.799 262 182.599 262.2C182.399 262.4 182.199 262.6 181.999 262.7C181.699 262.9 181.499 262.9 181.299 263C181.099 263 180.899 263 180.799 262.9C180.699 262.8 180.599 262.7 180.499 262.5C180.399 262.3 180.399 262.2 180.399 262C180.399 261.9 180.399 261.9 180.399 261.8C180.399 261.7 180.499 261.7 180.499 261.7L180.799 261.5H180.899C180.899 261.6 180.999 261.6 180.999 261.7Z" fill="#5550F2"/>
<path d="M184.499 259.6C184.499 259.7 184.499 259.8 184.599 259.8C184.599 259.9 184.699 259.9 184.799 260C184.899 260 184.999 260 185.099 260C185.199 260 185.399 259.9 185.599 259.8C185.699 259.7 185.799 259.6 185.999 259.5C186.099 259.4 186.199 259.3 186.299 259.1C186.399 259 186.499 258.8 186.499 258.6C186.499 258.4 186.599 258.2 186.599 258C186.599 257.8 186.599 257.7 186.499 257.5C186.499 257.4 186.399 257.3 186.299 257.3C186.199 257.3 186.099 257.3 185.999 257.3C185.899 257.3 185.799 257.4 185.599 257.5L185.099 257.8H184.999V257.7V257.4C184.999 257.3 184.999 257.3 184.999 257.2C184.999 257.1 184.999 257.1 185.099 257L186.199 254.6L184.499 255.6H184.399V255.5V255.2C184.399 255.1 184.399 255.1 184.399 255C184.399 254.9 184.499 254.9 184.499 254.9L186.799 253.5H186.899V253.6V253.9C186.899 254 186.899 254 186.899 254.1C186.899 254.2 186.899 254.2 186.799 254.3L185.699 256.7C185.899 256.6 186.099 256.5 186.199 256.5C186.399 256.5 186.499 256.5 186.599 256.6C186.699 256.7 186.799 256.8 186.899 257C186.999 257.2 186.999 257.4 186.999 257.7C186.999 258 186.999 258.3 186.899 258.6C186.799 258.9 186.699 259.2 186.599 259.4C186.499 259.6 186.299 259.9 186.099 260.1C185.899 260.3 185.699 260.5 185.499 260.6C185.199 260.8 184.999 260.8 184.799 260.9C184.599 260.9 184.399 260.9 184.299 260.8C184.199 260.7 184.099 260.6 183.999 260.4C183.899 260.2 183.899 260.1 183.899 259.9C183.899 259.8 183.899 259.8 183.899 259.7C183.899 259.6 183.999 259.6 183.999 259.6L184.299 259.4H184.399C184.499 259.6 184.499 259.6 184.499 259.6Z" fill="#5550F2"/>
<path d="M177.3 277.5L212.4 257.2C212.8 257 213.1 257.1 213.1 257.6C213.1 258 212.8 258.6 212.4 258.8L177.3 279.1C176.9 279.3 176.6 279.2 176.6 278.7C176.6 278.3 176.9 277.7 177.3 277.5Z" fill="#E0E0E0"/>
<path d="M177.3 254L185.2 249.4C185.6 249.2 185.9 249.3 185.9 249.8C185.9 250.2 185.6 250.8 185.2 251L177.3 255.6C176.9 255.8 176.6 255.7 176.6 255.2C176.6 254.8 176.9 254.3 177.3 254Z" fill="#E0E0E0"/>
<path d="M176.599 302.4C176.499 302.4 176.499 302.4 176.399 302.3C176.299 302.2 176.299 302 176.399 301.9L180.499 297.7L184.599 297.2L188.699 293.6L192.699 292.5L196.799 284.3L200.899 286.3L204.899 282.8H204.999L208.999 282L212.999 275.1C213.099 275 213.199 274.9 213.299 275C213.399 275.1 213.499 275.2 213.399 275.3L209.299 282.4L205.199 283.2L200.999 287L196.999 285L192.999 293L188.899 294.1L184.799 297.7L180.699 298.2L176.699 302.3C176.699 302.4 176.699 302.4 176.599 302.4Z" fill="#A871FF"/>
<g opacity="0.3">
<path opacity="0.3" d="M176.599 302.4C176.499 302.4 176.499 302.4 176.399 302.3C176.299 302.2 176.299 302 176.399 301.9L180.499 297.7L184.599 297.2L188.699 293.6L192.699 292.5L196.799 284.3L200.899 286.3L204.899 282.8H204.999L208.999 282L212.999 275.1C213.099 275 213.199 274.9 213.299 275C213.399 275.1 213.499 275.2 213.399 275.3L209.299 282.4L205.199 283.2L200.999 287L196.999 285L192.999 293L188.899 294.1L184.799 297.7L180.699 298.2L176.699 302.3C176.699 302.4 176.699 302.4 176.599 302.4Z" fill="black"/>
</g>
<path d="M178.699 292.4C178.699 292.5 178.699 292.5 178.699 292.6C178.699 292.7 178.599 292.7 178.599 292.7L178.399 292.8H178.299V292.7V287.7L177.299 289.4C177.299 289.5 177.199 289.5 177.199 289.5H177.099L176.999 289.3C176.999 289.3 176.999 289.2 176.999 289.1C176.999 289 176.999 289 177.099 288.9L178.399 286.7C178.399 286.6 178.499 286.6 178.499 286.6C178.499 286.6 178.599 286.6 178.599 286.5L178.799 286.4H178.899V286.5V292.4H178.699Z" fill="#5550F2"/>
<path d="M181.299 287.8C181.399 287.6 181.499 287.3 181.599 287.1C181.699 286.9 181.699 286.7 181.699 286.4C181.699 286.1 181.599 285.8 181.499 285.7C181.399 285.6 181.199 285.6 180.899 285.7C180.799 285.8 180.599 285.9 180.499 286C180.399 286.1 180.299 286.2 180.299 286.4C180.199 286.5 180.199 286.7 180.099 286.9C180.099 287.1 179.999 287.2 179.999 287.4C179.999 287.5 179.999 287.5 179.899 287.6C179.899 287.7 179.799 287.7 179.799 287.7L179.499 287.9H179.399V287.8C179.399 287.6 179.399 287.3 179.499 287.1C179.599 286.8 179.699 286.6 179.799 286.3C179.899 286 180.099 285.8 180.199 285.6C180.399 285.4 180.599 285.2 180.799 285.1C180.999 285 181.199 284.9 181.399 284.9C181.599 284.9 181.699 285 181.799 285.1C181.899 285.2 181.999 285.4 182.099 285.6C182.199 285.8 182.199 286 182.199 286.3C182.199 286.5 182.199 286.7 182.199 286.8C182.199 287 182.099 287.1 182.099 287.3C182.099 287.5 181.999 287.6 181.899 287.8C181.799 288 181.699 288.2 181.599 288.4L180.299 291.1L182.099 290.1H182.199V290.2V290.5C182.199 290.6 182.199 290.6 182.199 290.7C182.199 290.8 182.099 290.8 182.099 290.8L179.499 292.3H179.399V292.2V291.9C179.399 291.8 179.399 291.8 179.399 291.7C179.399 291.6 179.499 291.6 179.499 291.5L181.299 287.8Z" fill="#5550F2"/>
<path d="M185.999 284.5C185.999 284.8 185.999 285 185.999 285.3C185.999 285.5 185.999 285.8 185.999 286.1C185.999 286.5 185.999 286.8 185.899 287.1C185.799 287.4 185.699 287.8 185.599 288.1C185.499 288.4 185.299 288.7 185.099 288.9C184.899 289.1 184.699 289.3 184.399 289.5C184.099 289.7 183.899 289.7 183.699 289.7C183.499 289.7 183.399 289.6 183.199 289.4C183.099 289.2 182.999 289 182.899 288.8C182.799 288.5 182.799 288.2 182.799 287.9C182.799 287.6 182.799 287.4 182.799 287.1C182.799 286.9 182.799 286.6 182.799 286.3C182.799 285.9 182.799 285.6 182.899 285.2C182.999 284.9 183.099 284.5 183.199 284.2C183.299 283.9 183.499 283.6 183.699 283.4C183.899 283.2 184.099 283 184.399 282.8C184.699 282.6 184.899 282.6 185.099 282.6C185.299 282.6 185.399 282.7 185.599 282.9C185.699 283.1 185.799 283.3 185.899 283.5C185.899 283.8 185.999 284.1 185.999 284.5ZM183.499 287.5C183.499 288.1 183.599 288.5 183.799 288.6C183.999 288.8 184.199 288.8 184.499 288.6C184.799 288.4 184.999 288.1 185.199 287.8C185.399 287.4 185.399 287 185.499 286.4C185.499 286.1 185.499 285.9 185.499 285.6C185.499 285.4 185.499 285.1 185.499 284.8C185.499 284.2 185.399 283.8 185.199 283.7C184.999 283.5 184.799 283.5 184.499 283.7C184.199 283.9 183.999 284.2 183.799 284.5C183.599 284.9 183.599 285.3 183.499 285.9C183.499 286.2 183.499 286.4 183.499 286.7C183.499 286.9 183.499 287.2 183.499 287.5Z" fill="#5550F2"/>
<path d="M177.3 305.6L212.4 285.3C212.8 285.1 213.1 285.2 213.1 285.7C213.1 286.1 212.8 286.7 212.4 286.9L177.3 307.2C176.9 307.4 176.6 307.3 176.6 306.8C176.6 306.4 176.9 305.8 177.3 305.6Z" fill="#E0E0E0"/>
<path d="M177.3 282.1L185.2 277.5C185.6 277.3 185.9 277.4 185.9 277.9C185.9 278.3 185.6 278.9 185.2 279.1L177.3 283.7C176.9 283.9 176.6 283.8 176.6 283.3C176.6 282.9 176.9 282.4 177.3 282.1Z" fill="#E0E0E0"/>
<path d="M225.299 246.1C225.199 246.1 225.199 246.1 225.099 246C224.999 245.9 224.999 245.7 225.099 245.6L229.199 242.4L233.299 237.7L237.499 237.1L241.499 236.2L245.599 231.4L249.599 232.1L253.599 225.7L257.699 225.8L261.699 222.2C261.799 222.1 261.999 222.1 262.099 222.2C262.199 222.3 262.199 222.5 262.099 222.6L257.999 226.3L253.999 226.2L249.899 232.7L245.799 232L241.799 236.8L237.699 237.7L233.699 238.3L229.699 242.9L225.599 246.2C225.399 246 225.399 246.1 225.299 246.1Z" fill="#A871FF"/>
<path d="M226.9 232.3L227 232.2L227.1 232.1C227.3 232 227.5 231.9 227.7 231.9C227.9 231.9 228.1 232 228.2 232.1C228.3 232.2 228.4 232.4 228.5 232.6C228.6 232.8 228.6 233.1 228.6 233.4C228.6 233.7 228.6 234 228.5 234.3C228.4 234.6 228.3 234.9 228.2 235.2C228.1 235.5 227.9 235.7 227.7 235.9C227.5 236.1 227.3 236.3 227.1 236.4C226.9 236.5 226.7 236.6 226.5 236.6C226.3 236.6 226.2 236.5 226 236.4C225.9 236.3 225.8 236.1 225.7 235.9C225.6 235.7 225.6 235.4 225.6 235.1C225.6 234.9 225.6 234.8 225.6 234.6C225.6 234.4 225.7 234.3 225.7 234.1C225.7 233.9 225.8 233.8 225.8 233.6C225.9 233.4 225.9 233.3 226 233.2L227.1 230.1C227.1 230.1 227.1 230 227.2 229.9C227.2 229.8 227.3 229.8 227.3 229.8L227.6 229.6H227.7V229.7V229.8C227.7 229.8 227.7 229.8 227.7 229.9L226.9 232.3ZM226.2 234.9C226.2 235.1 226.2 235.2 226.3 235.4C226.3 235.5 226.4 235.6 226.5 235.7C226.6 235.8 226.7 235.8 226.8 235.8C226.9 235.8 227.1 235.8 227.2 235.7C227.4 235.6 227.5 235.5 227.6 235.4C227.7 235.3 227.8 235.1 227.9 234.9C228 234.7 228 234.5 228.1 234.3C228.1 234.1 228.2 233.9 228.2 233.7C228.2 233.5 228.2 233.4 228.1 233.2C228.1 233.1 228 233 227.9 232.9C227.8 232.8 227.7 232.8 227.6 232.8C227.5 232.8 227.3 232.8 227.2 232.9C227 233 226.9 233.1 226.8 233.2C226.7 233.3 226.6 233.5 226.5 233.7C226.4 233.9 226.4 234.1 226.3 234.3C226.2 234.6 226.2 234.8 226.2 234.9Z" fill="#5550F2"/>
<path d="M231.099 230.9C231.199 230.7 231.299 230.4 231.399 230.2C231.499 230 231.499 229.8 231.499 229.5C231.499 229.2 231.399 228.9 231.299 228.8C231.199 228.7 230.999 228.7 230.699 228.8C230.599 228.9 230.399 229 230.299 229.1C230.199 229.2 230.099 229.3 230.099 229.5C229.999 229.6 229.999 229.8 229.899 230C229.899 230.2 229.799 230.3 229.799 230.5C229.799 230.6 229.799 230.6 229.699 230.7C229.699 230.8 229.599 230.8 229.599 230.8L229.299 231H229.199V230.9C229.199 230.7 229.199 230.4 229.299 230.2C229.399 229.9 229.499 229.7 229.599 229.4C229.699 229.1 229.899 228.9 229.999 228.7C230.199 228.5 230.399 228.3 230.599 228.2C230.799 228.1 230.999 228 231.199 228C231.399 228 231.499 228.1 231.599 228.2C231.699 228.3 231.799 228.5 231.899 228.7C231.999 228.9 231.999 229.1 231.999 229.4C231.999 229.6 231.999 229.8 231.999 229.9C231.999 230.1 231.899 230.2 231.899 230.4C231.899 230.6 231.799 230.7 231.699 230.9C231.599 231.1 231.499 231.3 231.399 231.5L230.099 234.2L231.899 233.2H231.999V233.3V233.6C231.999 233.7 231.999 233.7 231.999 233.8C231.999 233.9 231.899 233.9 231.899 233.9L229.299 235.4H229.199V235.3V235C229.199 234.9 229.199 234.9 229.199 234.8C229.199 234.7 229.299 234.7 229.299 234.6L231.099 230.9Z" fill="#5550F2"/>
<path d="M235.1 225.5H235.2V225.6V225.9C235.2 226 235.2 226 235.2 226.1C235.2 226.2 235.2 226.2 235.2 226.3L233.9 232.3C233.9 232.4 233.9 232.4 233.8 232.5C233.8 232.6 233.7 232.6 233.7 232.6L233.4 232.8H233.3V232.7C233.3 232.7 233.3 232.7 233.3 232.6L234.6 226.6L232.7 227.7H232.6V227.6V227.3C232.6 227.2 232.6 227.2 232.6 227.1C232.6 227 232.7 227 232.7 227L235.1 225.5Z" fill="#5550F2"/>
<path d="M226.099 249.3L261.199 229C261.599 228.8 261.899 228.9 261.899 229.4C261.899 229.8 261.599 230.4 261.199 230.6L226.099 250.9C225.699 251.1 225.399 251 225.399 250.5C225.299 250.1 225.699 249.5 226.099 249.3Z" fill="#E0E0E0"/>
<path d="M226.099 225.8L233.999 221.2C234.399 221 234.699 221.1 234.699 221.6C234.699 222 234.399 222.6 233.999 222.8L226.099 227.4C225.699 227.6 225.399 227.5 225.399 227C225.299 226.6 225.699 226.1 226.099 225.8Z" fill="#E0E0E0"/>
<path d="M225.299 274.2H225.199C225.099 274.1 224.999 274 225.099 273.9L229.299 267.1L233.499 267.9L237.399 266.8L241.499 261.8L245.499 260.8L249.599 253.5L253.799 254.7L257.699 254L261.699 250.4C261.799 250.3 261.999 250.3 262.099 250.4C262.199 250.5 262.199 250.7 262.099 250.8L257.999 254.5H257.899L253.799 255.3L249.899 254.2L245.899 261.4L241.799 262.4L237.699 267.4H237.599L233.499 268.5H233.399L229.499 267.8L225.499 274.3C225.499 274.1 225.399 274.2 225.299 274.2Z" fill="#A871FF"/>
<g opacity="0.3">
<path opacity="0.3" d="M225.299 274.2H225.199C225.099 274.1 224.999 274 225.099 273.9L229.299 267.1L233.499 267.9L237.399 266.8L241.499 261.8L245.499 260.8L249.599 253.5L253.799 254.7L257.699 254L261.699 250.4C261.799 250.3 261.999 250.3 262.099 250.4C262.199 250.5 262.199 250.7 262.099 250.8L257.999 254.5H257.899L253.799 255.3L249.899 254.2L245.899 261.4L241.799 262.4L237.699 267.4H237.599L233.499 268.5H233.399L229.499 267.8L225.499 274.3C225.499 274.1 225.399 274.2 225.299 274.2Z" fill="black"/>
</g>
<path d="M227.199 262.4C227.099 262.5 227.099 262.5 226.999 262.5C226.799 262.6 226.599 262.7 226.399 262.7C226.199 262.7 226.099 262.7 225.899 262.6C225.799 262.5 225.599 262.3 225.599 262.1C225.499 261.9 225.499 261.6 225.499 261.2C225.499 260.9 225.499 260.6 225.599 260.3C225.699 260 225.799 259.7 225.899 259.4C225.999 259.1 226.199 258.9 226.399 258.7C226.599 258.5 226.799 258.3 226.999 258.2C227.199 258.1 227.399 258 227.599 258C227.799 258 227.899 258.1 228.099 258.2C228.299 258.3 228.299 258.5 228.399 258.7C228.499 258.9 228.499 259.2 228.499 259.5C228.499 259.7 228.499 259.8 228.499 260C228.499 260.2 228.399 260.3 228.399 260.5C228.399 260.7 228.299 260.8 228.199 261C228.099 261.2 228.099 261.3 227.999 261.5L226.899 264.6C226.899 264.6 226.899 264.7 226.799 264.8C226.799 264.9 226.699 264.9 226.699 264.9L226.399 265.1H226.299V265V264.9C226.299 264.9 226.299 264.9 226.299 264.8L227.199 262.4ZM227.999 259.8C227.999 259.6 227.999 259.4 227.899 259.3C227.899 259.2 227.799 259.1 227.699 259C227.599 258.9 227.499 258.9 227.399 258.9C227.299 258.9 227.199 258.9 226.999 259C226.899 259.1 226.699 259.2 226.599 259.3C226.499 259.4 226.399 259.6 226.299 259.7C226.199 259.9 226.199 260 226.099 260.2C226.099 260.4 225.999 260.6 225.999 260.8C225.999 261 225.999 261.2 226.099 261.3C226.099 261.4 226.199 261.5 226.299 261.6C226.399 261.7 226.499 261.7 226.599 261.7C226.699 261.7 226.799 261.7 226.999 261.6C227.099 261.5 227.299 261.4 227.399 261.3C227.499 261.2 227.599 261 227.699 260.9C227.799 260.7 227.799 260.6 227.899 260.4C227.999 260.2 227.999 260 227.999 259.8Z" fill="#5550F2"/>
<path d="M229.499 261.7C229.499 261.8 229.499 261.9 229.599 261.9C229.599 262 229.699 262 229.799 262.1C229.899 262.1 229.999 262.1 230.099 262.1C230.199 262.1 230.399 262 230.599 261.9C230.699 261.8 230.799 261.7 230.899 261.6C230.999 261.5 231.099 261.4 231.199 261.2C231.299 261.1 231.299 260.9 231.399 260.7C231.499 260.5 231.499 260.3 231.499 260.1C231.499 259.9 231.499 259.8 231.399 259.6C231.399 259.5 231.299 259.4 231.199 259.4C231.099 259.4 230.999 259.4 230.899 259.4C230.799 259.4 230.699 259.5 230.499 259.6L229.999 260H229.899V259.9V259.6C229.899 259.5 229.899 259.5 229.899 259.4C229.899 259.3 229.899 259.3 229.999 259.2L231.099 256.8L229.399 257.8H229.299V257.7V257.4C229.299 257.3 229.299 257.3 229.299 257.2C229.299 257.1 229.399 257.1 229.399 257.1L231.699 255.7H231.799V255.8V256.1C231.799 256.2 231.799 256.2 231.799 256.3C231.799 256.4 231.799 256.4 231.699 256.5L230.599 258.9C230.799 258.8 230.999 258.7 231.099 258.7C231.299 258.7 231.399 258.7 231.499 258.8C231.599 258.9 231.699 259 231.799 259.2C231.899 259.4 231.899 259.6 231.899 259.9C231.899 260.2 231.899 260.5 231.799 260.8C231.699 261.1 231.599 261.4 231.499 261.6C231.399 261.8 231.199 262.1 230.999 262.3C230.799 262.5 230.599 262.7 230.399 262.8C230.099 263 229.899 263 229.699 263.1C229.499 263.1 229.299 263.1 229.199 263C229.099 262.9 228.999 262.8 228.899 262.6C228.799 262.4 228.799 262.3 228.799 262.1C228.799 262 228.799 262 228.799 261.9C228.799 261.8 228.899 261.8 228.899 261.8L229.199 261.6H229.299C229.499 261.6 229.499 261.7 229.499 261.7Z" fill="#5550F2"/>
<path d="M226.099 277.4L261.199 257.1C261.599 256.9 261.899 257 261.899 257.5C261.899 257.9 261.599 258.5 261.199 258.7L226.099 279C225.699 279.2 225.399 279.1 225.399 278.6C225.299 278.2 225.699 277.6 226.099 277.4Z" fill="#E0E0E0"/>
<path d="M226.099 253.9L233.999 249.3C234.399 249.1 234.699 249.2 234.699 249.7C234.699 250.1 234.399 250.7 233.999 250.9L226.099 255.5C225.699 255.7 225.399 255.6 225.399 255.1C225.299 254.7 225.699 254.2 226.099 253.9Z" fill="#E0E0E0"/>
<path d="M278.1 200.4C279.8 199.4 281.4 199.3 282.7 200.1L278.1 212.6V200.4Z" fill="#A871FF"/>
<path d="M273.499 205.4C274.799 203.2 276.399 201.4 278.099 200.4V212.5L273.499 205.4Z" fill="#A871FF"/>
<path d="M270.6 213.1C271.1 210.3 272.1 207.6 273.5 205.4L278.1 212.5L270.6 213.1Z" fill="#A871FF"/>
<path opacity="0.3" d="M273.5 205.4C272.2 207.7 271.2 210.4 270.6 213.1L278.1 212.5V200.4C276.4 201.4 274.8 203.2 273.5 205.4Z" fill="black"/>
<path d="M282.799 200.1C284.099 200.8 285.099 202.3 285.699 204.5L278.199 212.6L282.799 200.1Z" fill="#A871FF"/>
<path d="M270.599 220.6C270.399 219.6 270.199 218.4 270.199 217.1C270.199 215.8 270.299 214.5 270.599 213.1L278.099 212.5L270.599 220.6Z" fill="#A871FF"/>
<path d="M285.6 212C285.1 214.8 284.1 217.5 282.7 219.7L278.1 212.6L285.6 212Z" fill="#A871FF"/>
<path d="M278.099 224.7C276.399 225.7 274.799 225.8 273.499 225L278.099 212.5V224.7Z" fill="#A871FF"/>
<path d="M270.6 220.6L278.1 212.5L273.5 225C272.2 224.3 271.2 222.8 270.6 220.6Z" fill="#A871FF"/>
<path d="M285.6 204.5C285.8 205.5 286 206.7 286 208C286 209.3 285.9 210.6 285.6 212L278.1 212.6L285.6 204.5Z" fill="#A871FF"/>
<path d="M282.799 219.7C281.499 221.9 279.899 223.7 278.199 224.7V212.6L282.799 219.7Z" fill="#A871FF"/>
<path d="M274.199 230.9L282.099 226.3C282.499 226.1 282.799 226.2 282.799 226.7C282.799 227.1 282.499 227.7 282.099 227.9L274.199 232.5C273.799 232.7 273.499 232.6 273.499 232.1C273.499 231.7 273.799 231.1 274.199 230.9Z" fill="#5550F2"/>
<path d="M272.499 236.6L283.799 230C284.199 229.8 284.499 229.9 284.499 230.4C284.499 230.8 284.199 231.4 283.799 231.6L272.499 238.2C272.099 238.4 271.799 238.3 271.799 237.8C271.799 237.4 272.099 236.8 272.499 236.6Z" fill="#E0E0E0"/>
<path d="M272.499 241.3L283.799 234.7C284.199 234.5 284.499 234.6 284.499 235.1C284.499 235.5 284.199 236.1 283.799 236.3L272.499 242.9C272.099 243.1 271.799 243 271.799 242.5C271.799 242.1 272.099 241.5 272.499 241.3Z" fill="#E0E0E0"/>
<path d="M272.499 246L283.799 239.4C284.199 239.2 284.499 239.3 284.499 239.8C284.499 240.2 284.199 240.8 283.799 241L272.499 247.6C272.099 247.8 271.799 247.7 271.799 247.2C271.799 246.8 272.099 246.2 272.499 246Z" fill="#E0E0E0"/>
<path d="M306.6 183.9C308.3 182.9 309.9 182.8 311.2 183.6L306.6 196.1V183.9Z" fill="#A871FF"/>
<path d="M301.899 188.9C303.199 186.7 304.799 184.9 306.499 183.9V196L301.899 188.9Z" fill="#A871FF"/>
<path d="M299.1 196.7C299.6 193.9 300.6 191.2 302 189L306.6 196.1L299.1 196.7Z" fill="#A871FF"/>
<path d="M311.2 183.6C312.5 184.3 313.5 185.8 314.1 188L306.6 196.1L311.2 183.6Z" fill="#A871FF"/>
<path d="M299.099 204.2C298.899 203.2 298.699 202 298.699 200.7C298.699 199.4 298.799 198.1 299.099 196.7L306.599 196.1L299.099 204.2Z" fill="#A871FF"/>
<path d="M314.1 195.5C313.6 198.3 312.6 201 311.2 203.2L306.6 196.1L314.1 195.5Z" fill="#A871FF"/>
<path d="M306.6 208.2C304.9 209.2 303.3 209.3 302 208.5L306.6 196V208.2Z" fill="#A871FF"/>
<path d="M299.1 204.2L306.6 196.1L302 208.6C300.6 207.8 299.6 206.3 299.1 204.2Z" fill="#A871FF"/>
<path opacity="0.3" d="M301.9 188.9C300.6 191.2 299.6 193.9 299 196.6C298.8 197.9 298.6 199.3 298.6 200.6C298.6 201.9 298.7 203.1 299 204.1C299.5 206.3 300.5 207.8 301.9 208.5L306.5 196V183.9C304.8 184.9 303.2 186.7 301.9 188.9Z" fill="black"/>
<path d="M314.1 188C314.3 189 314.5 190.2 314.5 191.5C314.5 192.8 314.4 194.1 314.1 195.5L306.6 196.1L314.1 188Z" fill="#A871FF"/>
<path d="M311.2 203.2C309.9 205.4 308.3 207.2 306.6 208.2V196.1L311.2 203.2Z" fill="#A871FF"/>
<path d="M302.599 214.5L310.499 209.9C310.899 209.7 311.199 209.8 311.199 210.3C311.199 210.7 310.899 211.3 310.499 211.5L302.599 216.1C302.199 216.3 301.899 216.2 301.899 215.7C301.899 215.2 302.199 214.7 302.599 214.5Z" fill="#5550F2"/>
<path d="M300.899 220.2L312.199 213.6C312.599 213.4 312.899 213.5 312.899 214C312.899 214.5 312.599 215 312.199 215.2L300.899 221.8C300.499 222 300.199 221.9 300.199 221.4C300.199 220.9 300.499 220.4 300.899 220.2Z" fill="#E0E0E0"/>
<path d="M300.899 224.9L312.199 218.3C312.599 218.1 312.899 218.2 312.899 218.7C312.899 219.2 312.599 219.7 312.199 219.9L300.899 226.5C300.499 226.7 300.199 226.6 300.199 226.1C300.199 225.6 300.499 225.1 300.899 224.9Z" fill="#E0E0E0"/>
<path d="M300.899 229.6L312.199 223C312.599 222.8 312.899 222.9 312.899 223.4C312.899 223.8 312.599 224.4 312.199 224.6L300.899 231.2C300.499 231.4 300.199 231.3 300.199 230.8C300.199 230.3 300.499 229.8 300.899 229.6Z" fill="#E0E0E0"/>
<path d="M306.4 346.7C306.5 342.9 304 338.1 300.7 336C299.1 335 297.6 334.8 296.5 335.4C289.8 338.8 242.8 368.9 239.8 370.4C239.2 370.7 238.9 371.4 238.8 372.3C238.7 374.2 240 376.6 241.7 377.7C242.5 378.2 243.3 378.3 243.8 378C248.6 375.4 295 355.6 304.4 350.5C305.6 350 306.4 348.6 306.4 346.7Z" fill="#5550F2"/>
<path opacity="0.1" d="M304.6 340.2C303.6 338.5 302.3 337 300.8 336C299.2 335 297.7 334.8 296.6 335.4C296.4 335.5 296.3 335.6 296.5 335.5C290.4 338.6 255.4 360.9 243.6 368.2H243.5C243.3 368.3 243.2 368.4 243 368.5L242.9 368.6C242.8 368.7 242.7 368.7 242.6 368.8C242.5 368.9 242.4 368.9 242.3 369C241.1 369.8 240.2 370.3 239.9 370.4C239.8 370.5 239.7 370.5 239.6 370.6C239.2 371 239 371.5 238.9 372.3C238.9 372.5 238.9 372.7 238.9 373C238.9 373.1 238.9 373.2 238.9 373.3C238.9 373.4 238.9 373.6 239 373.7C239 373.8 239.1 373.9 239.1 374C239.1 374.1 239.2 374.3 239.2 374.4C239.2 374.5 239.3 374.6 239.3 374.7L304.6 340.2Z" fill="black"/>
<path d="M241.701 377.8C240.101 376.8 238.801 374.4 238.801 372.5C238.901 370.6 240.201 369.8 241.901 370.9C243.501 371.9 244.801 374.3 244.801 376.2C244.701 378.1 243.301 378.8 241.701 377.8Z" fill="#5550F2"/>
<path d="M227.601 379.1C227.601 380.6 228.501 382.4 229.801 383.2C230.401 383.6 231.001 383.6 231.401 383.4L242.801 377.3C243.201 377.1 243.501 376.6 243.501 375.8C243.501 374.3 242.601 372.5 241.301 371.7C240.701 371.3 240.101 371.3 239.701 371.5L228.301 377.6C227.901 377.8 227.601 378.3 227.601 379.1Z" fill="#37474F"/>
<path d="M228.4 377.6C228 377.8 227.7 378.3 227.7 379.1C227.7 379.7 227.8 380.3 228 380.9L242.7 373.1C242.3 372.6 241.9 372.1 241.4 371.8C240.8 371.4 240.2 371.4 239.8 371.6L228.4 377.6Z" fill="#263238"/>
<path d="M242.201 389.2C242.201 381.9 237.401 374.6 227.801 369.1C208.501 358 177.301 358 158.001 369.1C148.401 374.7 143.601 381.9 143.601 389.2V402.6C143.601 409.9 148.401 417.2 158.001 422.7C177.301 433.8 208.501 433.8 227.801 422.7C237.401 417.1 242.201 409.9 242.201 402.6V389.2ZM160.401 373.2C169.001 368.2 180.501 365.5 192.901 365.5C205.301 365.5 216.801 368.2 225.401 373.2C233.201 377.7 237.501 383.4 237.501 389.2C237.501 395 233.201 400.7 225.401 405.2C216.801 410.2 205.301 412.9 192.901 412.9C180.601 412.9 169.001 410.2 160.401 405.2C152.601 400.7 148.301 395 148.301 389.2C148.301 383.3 152.601 377.7 160.401 373.2Z" fill="#5550F2"/>
<path opacity="0.3" d="M158 409.3C177.3 420.4 208.5 420.4 227.8 409.3C247.1 398.2 247.1 380.1 227.8 369C208.5 357.9 177.3 357.9 158 369C138.7 380.2 138.7 398.2 158 409.3ZM148.3 389.2C148.3 383.4 152.6 377.7 160.4 373.2C169 368.2 180.5 365.5 192.9 365.5C205.3 365.5 216.8 368.2 225.4 373.2C233.2 377.7 237.5 383.4 237.5 389.2C237.5 395 233.2 400.7 225.4 405.2C216.8 410.2 205.3 412.9 192.9 412.9C180.5 412.9 169 410.2 160.4 405.2C152.6 400.7 148.3 395 148.3 389.2Z" fill="white"/>
<path d="M148.301 389.2C148.301 391.5 149.001 393.7 150.201 395.9C152.201 392.5 155.601 389.3 160.301 386.6C168.901 381.6 180.401 378.9 192.801 378.9C205.101 378.9 216.701 381.6 225.301 386.6C230.001 389.3 233.501 392.5 235.501 395.9C236.801 393.7 237.401 391.5 237.401 389.2C237.401 383.4 233.101 377.7 225.301 373.2C216.701 368.2 205.201 365.5 192.801 365.5C180.401 365.5 168.901 368.2 160.301 373.2C152.601 377.7 148.301 383.3 148.301 389.2Z" fill="#5550F2"/>
<path opacity="0.1" d="M148.301 389.2C148.301 391.5 149.001 393.7 150.201 395.9C152.201 392.5 155.601 389.3 160.301 386.6C168.901 381.6 180.401 378.9 192.801 378.9C205.101 378.9 216.701 381.6 225.301 386.6C230.001 389.3 233.501 392.5 235.501 395.9C236.801 393.7 237.401 391.5 237.401 389.2C237.401 383.4 233.101 377.7 225.301 373.2C216.701 368.2 205.201 365.5 192.801 365.5C180.401 365.5 168.901 368.2 160.301 373.2C152.601 377.7 148.301 383.3 148.301 389.2Z" fill="black"/>
<path opacity="0.4" d="M160.4 379.3C169 374.3 180.5 371.6 192.9 371.6C205.3 371.6 216.8 374.3 225.4 379.3C231.8 383 235.8 387.5 237.1 392.3C235.9 397 231.9 401.6 225.4 405.3C216.8 410.3 205.3 413 192.9 413C180.5 413 169 410.3 160.4 405.3C154 401.6 150 397.1 148.7 392.3C149.9 387.5 154 383 160.4 379.3Z" fill="white"/>
<path opacity="0.1" d="M181.301 416.9V430.3C172.801 429.1 164.701 426.6 158.101 422.8C148.501 417.2 143.601 409.9 143.601 402.7V389.3C143.601 387.8 143.801 386.4 144.201 384.9C141.901 393.6 146.501 402.7 158.101 409.4C164.701 413.2 172.701 415.7 181.301 416.9Z" fill="black"/>
</svg>
