<svg width="1440" height="991" viewBox="0 0 1440 991" fill="none" xmlns="http://www.w3.org/2000/svg">
<path d="M631.5 862C389.9 763.6 110.5 809 1 844C-20.6667 790.333 -64 680.8 -64 672C-64 663.2 -89.3333 322.333 -102 153L-82 -111L669.5 -214L1613.5 34.5L1754.5 495C1765 617.333 1722.5 879 1468.5 947C1151 1032 933.5 985 631.5 862Z" fill="#EFE4FE" fill-opacity="0.75"/>
<g opacity="0.4">
<path opacity="0.4" d="M856.279 277.062C862.211 277.952 867.846 279.435 873.184 281.809C878.522 284.182 883.267 287.149 887.123 291.006C890.978 294.863 893.944 299.314 896.02 304.358C898.096 309.401 898.689 315.038 897.799 320.972C897.206 326.016 895.723 330.17 893.647 333.73C891.571 337.291 889.199 340.257 886.233 342.928C883.267 345.598 880.302 347.971 877.336 350.048C874.074 352.125 871.108 353.905 868.142 355.982C865.176 357.762 862.804 359.839 860.431 361.916C858.059 363.993 856.576 366.366 855.983 369.037C855.686 370.52 854.796 371.41 853.907 372.3C853.017 373.19 851.831 373.487 850.348 373.487L836.113 371.41C834.63 371.114 833.443 370.52 832.554 369.333C831.664 368.147 831.367 366.96 831.664 365.476C832.554 360.729 834.037 356.576 836.409 353.015C838.782 349.455 841.451 346.488 844.417 344.114C847.382 341.444 850.348 339.367 853.61 337.291C856.873 335.214 859.838 333.433 862.804 331.653C865.473 329.873 867.846 327.796 869.922 326.016C871.701 323.939 872.887 321.862 873.184 319.192C873.777 314.445 872.294 310.291 868.735 306.731C865.176 303.171 860.135 300.797 853.314 299.907C842.637 298.424 834.037 302.577 827.809 312.665C826.919 313.852 826.326 315.038 825.436 315.632C824.546 316.225 823.36 316.522 821.877 316.225L806.752 314.148C805.566 313.852 804.676 313.555 804.083 312.665C803.49 311.775 803.193 310.885 803.193 309.401C803.786 304.951 805.862 300.797 809.125 296.643C812.387 292.49 816.242 288.633 820.988 285.666C825.733 282.699 831.368 280.325 837.299 278.545C843.23 276.468 849.755 276.172 856.279 277.062ZM849.458 384.465C850.941 384.761 851.831 385.355 852.72 386.542C853.61 387.728 853.907 388.915 853.61 390.399L851.238 407.013C850.941 408.497 850.348 409.387 849.162 410.277C847.975 411.167 846.789 411.464 845.306 411.167L829.291 409.09C827.809 408.794 826.919 408.2 826.029 407.013C825.139 405.827 824.843 404.64 825.14 403.156L827.512 386.542C827.809 385.058 828.402 384.168 829.588 383.278C830.774 382.388 831.961 382.091 833.443 382.388L849.458 384.465Z" stroke="#938FFD" stroke-miterlimit="10" stroke-linecap="round" stroke-linejoin="round"/>
</g>
<path d="M921.523 605.798C921.523 603.425 919.744 601.051 917.372 600.458L891.57 594.524C891.273 589.48 890.384 584.14 888.901 579.392L911.44 565.448C913.516 563.964 914.406 561.294 913.516 559.217C907.881 544.086 899.281 530.438 888.011 518.57C886.232 516.79 883.563 516.493 881.487 517.68L858.947 531.921C855.092 528.658 850.94 525.691 846.491 523.021L852.423 497.208C853.016 494.835 851.829 492.165 849.457 491.274C834.628 484.747 818.91 481.187 802.895 480.594C800.523 480.594 798.15 482.374 797.557 484.747L791.626 510.56C786.584 510.856 781.246 511.746 776.501 513.23L762.265 490.681C760.782 488.604 758.113 487.714 756.037 488.604C740.912 494.241 727.27 502.846 715.407 514.12C713.628 515.9 713.331 518.57 714.518 520.647L728.753 543.196C725.491 547.053 722.525 551.207 719.856 555.657L694.054 549.723C691.682 549.13 689.012 550.316 688.123 552.69C684.861 560.107 682.191 567.821 680.412 575.535C678.633 583.249 677.743 591.26 677.446 599.271C677.446 601.644 679.226 604.018 681.598 604.611L707.4 610.545C707.696 615.589 708.586 620.93 710.069 625.677L687.53 639.621C685.454 641.105 684.564 643.478 685.454 645.852C691.089 660.983 699.689 674.631 710.959 686.499C712.738 688.279 715.407 688.576 717.483 687.389L740.023 673.148C743.878 676.411 748.03 679.378 752.479 682.048L746.547 707.861C745.954 710.234 747.14 712.905 749.513 713.795C756.927 717.058 764.638 719.729 772.349 721.509C780.06 723.289 788.067 724.179 796.074 724.476C798.447 724.476 800.819 722.695 801.413 720.322L807.344 694.51C812.386 694.213 817.724 693.323 822.469 691.839L836.408 714.388C837.891 716.465 840.263 717.355 842.636 716.465C857.761 710.828 871.403 702.224 883.266 690.949C885.045 689.169 885.342 686.499 884.156 684.422L869.92 661.873C873.183 658.016 876.148 653.863 878.817 649.412L904.619 655.346C906.992 655.939 909.661 654.753 910.55 652.379C913.813 644.962 916.482 637.248 918.261 629.534C920.337 621.82 921.523 613.809 921.523 605.798ZM834.332 616.182C828.4 631.017 812.979 640.808 796.964 639.621C784.805 638.731 774.128 632.204 767.604 622.116C761.079 611.732 760.189 599.568 764.638 587.997C770.569 573.162 785.991 563.371 802.006 564.558C804.082 564.558 805.861 565.151 807.937 565.448C817.724 567.821 826.028 573.459 831.366 582.063C837.594 592.447 838.78 604.908 834.332 616.182Z" fill="#C2C2FF"/>
<g opacity="0.2">
<path opacity="0.2" d="M1023.54 776.1C1024.43 774.616 1024.14 772.836 1022.95 771.946L1010.79 760.079C1012.27 757.112 1013.46 754.145 1014.35 750.881L1031.26 750.584C1032.74 750.584 1034.22 749.398 1034.52 747.914C1036.3 737.827 1036.3 727.442 1034.22 717.058C1033.92 715.575 1032.44 714.388 1030.96 714.388L1014.05 714.684C1012.87 711.421 1011.68 708.454 1010.2 705.487L1022.06 693.323C1023.25 692.136 1023.25 690.356 1022.36 689.169C1016.43 680.565 1009.01 673.444 1000.41 667.807C998.929 666.917 997.15 667.213 996.26 668.4L984.397 680.565C981.432 679.081 978.466 677.894 975.204 677.004L974.907 660.093C974.907 658.313 973.721 657.126 972.238 656.829C962.155 655.049 951.775 655.049 941.395 657.126C939.912 657.423 938.726 658.906 938.726 660.39L939.022 677.301C935.76 678.488 932.794 679.675 929.828 681.158L917.669 669.29C916.483 668.104 914.703 668.104 913.22 668.994C909.068 671.961 904.917 675.224 901.358 679.081C897.799 682.642 894.537 686.795 891.867 691.246C890.978 692.729 891.274 694.509 892.461 695.399L904.62 707.267C903.137 710.234 901.951 713.201 901.061 716.465L884.157 716.761C882.674 716.761 881.191 717.948 880.894 719.432C879.115 729.519 879.115 739.903 881.191 750.288C881.488 751.771 882.97 752.958 884.453 752.958L901.358 752.661C902.544 755.925 903.73 758.892 905.213 761.859L893.35 774.023C892.164 775.21 892.164 776.99 893.054 778.474C896.019 782.627 899.282 786.781 903.137 790.341C906.696 793.902 910.848 797.165 915.296 799.835C916.779 800.726 918.559 800.429 919.448 799.242L931.311 787.078C934.277 788.561 937.243 789.748 940.505 790.638L940.802 807.549C940.802 809.033 941.988 810.516 943.471 810.813C953.554 812.593 963.934 812.593 974.314 810.516C975.797 810.22 976.983 808.736 976.983 807.253L976.687 790.341C979.949 789.154 982.914 787.968 985.88 786.484L998.04 798.352C999.226 799.539 1001.01 799.539 1002.49 798.649C1006.64 795.682 1010.79 792.418 1014.35 788.561C1017.32 784.704 1020.58 780.55 1023.54 776.1ZM971.941 752.661C963.934 758.892 952.071 758.892 943.767 752.958C937.243 748.507 933.684 741.387 933.387 733.376C933.387 725.662 936.946 718.541 943.174 713.794C951.181 707.564 963.044 707.564 971.348 713.498C972.535 714.388 973.424 714.981 974.314 715.871C978.762 720.322 981.432 726.256 981.728 732.783C981.728 740.793 978.169 747.914 971.941 752.661Z" fill="#938FFD"/>
</g>
<g opacity="0.4">
<path opacity="0.4" d="M277.375 506.999L387.699 456.858L355.076 531.922L277.375 506.999Z" stroke="#938FFD" stroke-miterlimit="10" stroke-linecap="round" stroke-linejoin="round"/>
<path opacity="0.4" d="M387.699 456.858L418.245 523.911L307.625 574.052L277.375 506.999" stroke="#938FFD" stroke-miterlimit="10" stroke-linecap="round" stroke-linejoin="round"/>
<path opacity="0.4" d="M361.601 516.79L418.246 523.911L387.699 456.858" stroke="#938FFD" stroke-miterlimit="10" stroke-linecap="round" stroke-linejoin="round"/>
<path opacity="0.4" d="M339.654 526.877L307.625 574.052L277.375 506.999" stroke="#938FFD" stroke-miterlimit="10" stroke-linecap="round" stroke-linejoin="round"/>
</g>
<path d="M772.943 256.293C765.825 256.293 760.19 250.656 760.19 243.535L772.943 256.293Z" fill="#938FFD"/>
<path d="M272.629 155.714C274.758 155.714 276.484 153.987 276.484 151.857C276.484 149.727 274.758 148 272.629 148C270.5 148 268.773 149.727 268.773 151.857C268.773 153.987 270.5 155.714 272.629 155.714Z" fill="#938FFD"/>
<path d="M183.064 397.222C183.064 399.299 181.285 401.079 179.209 401.079C177.133 401.079 175.354 399.299 175.354 397.222" fill="#938FFD"/>
<path d="M826.029 208.822C826.029 206.745 827.809 204.965 829.885 204.965C831.961 204.965 833.74 206.745 833.74 208.822" fill="#938FFD"/>
<path d="M929.235 363.696C927.159 363.696 925.38 361.916 925.38 359.839C925.38 357.763 927.159 355.982 929.235 355.982" fill="#938FFD"/>
<path d="M70.4263 324C71.7128 324 72.8155 325.095 72.8155 326.373C72.8155 327.651 71.7128 328.746 70.4263 328.746" fill="#CFCDFF"/>
<path d="M48.373 328.746C48.1892 333.675 44.1459 337.691 39 337.691V337.873C44.1459 337.873 48.1892 341.889 48.1892 347H48.373C48.373 341.889 52.4162 337.873 57.5622 337.873V337.691C52.4162 337.691 48.373 333.675 48.373 328.746Z" fill="#CFCDFF"/>
<path d="M764.427 324C765.713 324 766.816 325.095 766.816 326.373C766.816 327.651 765.713 328.746 764.427 328.746" fill="#CFCDFF"/>
<path d="M742.373 328.746C742.189 333.675 738.146 337.691 733 337.691V337.873C738.146 337.873 742.189 341.889 742.189 347H742.373C742.373 341.889 746.416 337.873 751.562 337.873V337.691C746.416 337.691 742.373 333.675 742.373 328.746Z" fill="#CFCDFF"/>
<path d="M449.426 148C450.713 148 451.815 149.095 451.815 150.373C451.815 151.651 450.713 152.746 449.426 152.746" fill="#CFCDFF"/>
<path d="M427.373 152.746C427.189 157.675 423.146 161.691 418 161.691V161.873C423.146 161.873 427.189 165.889 427.189 171H427.373C427.373 165.889 431.416 161.873 436.562 161.873V161.691C431.416 161.691 427.373 157.675 427.373 152.746Z" fill="#CFCDFF"/>
<path d="M134.534 574C136.767 574 138.68 575.952 138.68 578.23C138.68 580.508 136.767 582.46 134.534 582.46" fill="#CFCDFF"/>
<path d="M96.2649 582.46C95.9459 591.246 88.9297 598.405 80 598.405V598.73C88.9297 598.73 95.9459 605.889 95.9459 615H96.2649C96.2649 605.889 103.281 598.73 112.211 598.73V598.405C103.281 598.405 96.2649 591.246 96.2649 582.46Z" fill="#CFCDFF"/>
</svg>
