<svg width="451" height="281" viewBox="0 0 451 281" fill="none" xmlns="http://www.w3.org/2000/svg">
<path d="M418.693 92.5277C411.059 76.1269 400.904 60.9562 389.249 48.0406C387 45.5121 384.614 43.052 382.161 40.7285C354.352 13.8039 314.753 -1.64014 276.38 3.28009C250.207 6.62859 225.807 18.9975 204.882 35.1933C191.523 45.5121 178.914 57.7443 162.829 62.8696C142.45 69.3616 120.435 63.2113 99.1014 63.1429C66.0449 62.9379 32.5794 78.8604 14.4494 106.605C-1.9766 131.685 -4.63475 165.306 7.7018 192.641C20.0384 219.975 46.8244 240.271 76.473 244.577C95.1482 247.31 114.164 244.03 132.976 245.533C160.375 247.72 185.866 259.884 212.107 268.358C259.817 283.733 313.526 286.467 358.851 265.146C396.201 247.583 426.531 211.228 432.188 169.68C435.664 143.37 429.803 116.377 418.693 92.5277Z" fill="#EFE4FE"/>
<path opacity="0.7" d="M418.693 92.5277C411.059 76.1269 400.904 60.9562 389.249 48.0406C387 45.5121 384.614 43.052 382.161 40.7285C354.352 13.8039 314.753 -1.64014 276.38 3.28009C250.207 6.62859 225.807 18.9975 204.882 35.1933C191.523 45.5121 178.914 57.7443 162.829 62.8696C142.45 69.3616 120.435 63.2113 99.1014 63.1429C66.0449 62.9379 32.5794 78.8604 14.4494 106.605C-1.9766 131.685 -4.63475 165.306 7.7018 192.641C20.0384 219.975 46.8244 240.271 76.473 244.577C95.1482 247.31 114.164 244.03 132.976 245.533C160.375 247.72 185.866 259.884 212.107 268.358C259.817 283.733 313.526 286.467 358.851 265.146C396.201 247.583 426.531 211.228 432.188 169.68C435.664 143.37 429.803 116.377 418.693 92.5277Z" fill="#EFE4FE"/>
<path d="M309.914 268.699H451" stroke="#263238" stroke-miterlimit="10"/>
<path d="M40.6904 268.699H303.779" stroke="#263238" stroke-miterlimit="10"/>
<path d="M28.6943 268.699H34.5559" stroke="#263238" stroke-miterlimit="10"/>
<path d="M411.605 148.085L421.147 239.246" stroke="#263238" stroke-width="2" stroke-miterlimit="10"/>
<path d="M419.58 221.821L415.286 217.242" stroke="#263238" stroke-width="2" stroke-miterlimit="10"/>
<path d="M416.581 218.609C416.581 218.609 416.717 216.627 414.877 214.919C413.786 213.962 407.993 211.502 407.379 213.552C406.834 215.807 412.764 220.18 416.581 218.609Z" fill="#A871FF" stroke="#263238" stroke-miterlimit="10"/>
<path d="M416.581 218.609L411.06 215.124" stroke="#263238" stroke-width="0.5" stroke-miterlimit="10"/>
<path d="M420.67 232.139L416.376 227.629" stroke="#263238" stroke-width="2" stroke-miterlimit="10"/>
<path d="M417.671 228.996C417.671 228.996 417.807 227.014 415.967 225.306C414.877 224.349 409.083 221.889 408.47 223.939C407.924 226.194 413.854 230.568 417.671 228.996Z" fill="#A871FF" stroke="#263238" stroke-miterlimit="10"/>
<path d="M417.671 228.996L412.15 225.511" stroke="#263238" stroke-width="0.5" stroke-miterlimit="10"/>
<path d="M416.989 196.468L412.695 191.958" stroke="#263238" stroke-width="2" stroke-miterlimit="10"/>
<path d="M413.99 193.324C413.99 193.324 414.127 191.342 412.286 189.634C411.196 188.677 405.403 186.217 404.789 188.267C404.176 190.454 410.105 194.896 413.99 193.324Z" fill="#A871FF" stroke="#263238" stroke-miterlimit="10"/>
<path d="M413.991 193.324L408.47 189.839" stroke="#263238" stroke-width="0.5" stroke-miterlimit="10"/>
<path d="M418.012 206.855L413.718 202.276" stroke="#263238" stroke-width="2" stroke-miterlimit="10"/>
<path d="M415.081 203.643C415.081 203.643 415.217 201.661 413.377 199.953C412.286 198.996 406.493 196.536 405.88 198.586C405.266 200.841 411.196 205.215 415.081 203.643Z" fill="#A871FF" stroke="#263238" stroke-miterlimit="10"/>
<path d="M415.081 203.643L409.492 200.226" stroke="#263238" stroke-width="0.5" stroke-miterlimit="10"/>
<path d="M415.217 179.657L410.923 175.078" stroke="#263238" stroke-width="2" stroke-miterlimit="10"/>
<path d="M412.219 176.445C412.219 176.445 412.355 174.463 410.515 172.755C409.424 171.798 403.631 169.338 403.017 171.388C402.404 173.643 408.402 178.017 412.219 176.445Z" fill="#A871FF" stroke="#263238" stroke-miterlimit="10"/>
<path d="M412.219 176.445L406.698 173.028" stroke="#263238" stroke-width="0.5" stroke-miterlimit="10"/>
<path d="M413.445 162.709L409.151 158.199" stroke="#263238" stroke-width="2" stroke-miterlimit="10"/>
<path d="M410.446 159.566C410.446 159.566 410.583 157.584 408.742 155.876C407.652 154.919 401.858 152.459 401.245 154.509C400.7 156.696 406.63 161.138 410.446 159.566Z" fill="#A871FF" stroke="#263238" stroke-miterlimit="10"/>
<path d="M410.447 159.566L404.926 156.081" stroke="#263238" stroke-width="0.5" stroke-miterlimit="10"/>
<path d="M418.898 215.67L422.17 210.34" stroke="#263238" stroke-width="2" stroke-miterlimit="10"/>
<path d="M421.147 211.912C421.147 211.912 420.602 209.998 422.101 207.948C422.987 206.718 428.167 203.165 429.121 205.078C430.144 207.128 425.236 212.663 421.147 211.912Z" fill="#A871FF" stroke="#263238" stroke-miterlimit="10"/>
<path d="M421.147 211.912L426.123 207.128" stroke="#263238" stroke-width="0.5" stroke-miterlimit="10"/>
<path d="M416.035 188.404L419.307 183.005" stroke="#263238" stroke-width="2" stroke-miterlimit="10"/>
<path d="M418.284 184.645C418.284 184.645 417.739 182.732 419.238 180.682C420.124 179.452 425.304 175.898 426.259 177.812C427.281 179.862 422.374 185.397 418.284 184.645Z" fill="#A871FF" stroke="#263238" stroke-miterlimit="10"/>
<path d="M418.284 184.645L423.26 179.862" stroke="#263238" stroke-width="0.5" stroke-miterlimit="10"/>
<path d="M414.809 176.377L418.08 171.047" stroke="#263238" stroke-width="2" stroke-miterlimit="10"/>
<path d="M417.058 172.618C417.058 172.618 416.512 170.705 418.012 168.655C418.898 167.425 424.078 163.871 425.032 165.785C426.054 167.835 421.147 173.37 417.058 172.618Z" fill="#A871FF" stroke="#263238" stroke-miterlimit="10"/>
<path d="M417.058 172.618L422.034 167.835" stroke="#263238" stroke-width="0.5" stroke-miterlimit="10"/>
<path d="M412.968 158.814L416.24 153.484" stroke="#263238" stroke-width="2" stroke-miterlimit="10"/>
<path d="M415.218 155.056C415.218 155.056 414.672 153.142 416.172 151.092C417.058 149.862 422.238 146.309 423.192 148.222C424.215 150.272 419.307 155.807 415.218 155.056Z" fill="#A871FF" stroke="#263238" stroke-miterlimit="10"/>
<path d="M415.218 155.056L420.193 150.272" stroke="#263238" stroke-width="0.5" stroke-miterlimit="10"/>
<path d="M411.537 147.539C411.537 147.539 410.992 145.625 412.491 143.575C413.377 142.345 418.557 138.792 419.512 140.705C420.534 142.755 415.627 148.29 411.537 147.539Z" fill="#A871FF" stroke="#263238" stroke-miterlimit="10"/>
<path d="M411.537 147.539L416.513 142.755" stroke="#263238" stroke-width="0.5" stroke-miterlimit="10"/>
<path d="M411.878 147.744C411.878 147.744 409.901 148.085 408.061 146.445C406.97 145.42 403.903 139.885 405.948 139.133C408.061 138.313 413.037 143.78 411.878 147.744Z" fill="#A871FF" stroke="#263238" stroke-miterlimit="10"/>
<path d="M411.878 147.744L407.652 142.277" stroke="#263238" stroke-width="0.5" stroke-miterlimit="10"/>
<path d="M436.687 160.659L427.213 251.82" stroke="#263238" stroke-width="2" stroke-miterlimit="10"/>
<path d="M429.326 234.394L426.055 229.064" stroke="#263238" stroke-width="2" stroke-miterlimit="10"/>
<path d="M427.009 230.704C427.009 230.704 427.554 228.791 426.055 226.741C425.169 225.579 419.989 221.957 419.034 223.871C418.08 225.921 422.988 231.388 427.009 230.704Z" fill="#A871FF" stroke="#263238" stroke-miterlimit="10"/>
<path d="M427.009 230.704L422.306 226.126" stroke="#263238" stroke-width="0.5" stroke-miterlimit="10"/>
<path d="M431.916 209.11L428.645 203.78" stroke="#263238" stroke-width="2" stroke-miterlimit="10"/>
<path d="M429.667 205.351C429.667 205.351 430.212 203.438 428.713 201.388C427.827 200.226 422.647 196.604 421.693 198.518C420.67 200.568 425.578 206.103 429.667 205.351Z" fill="#A871FF" stroke="#263238" stroke-miterlimit="10"/>
<path d="M429.667 205.351L424.964 200.841" stroke="#263238" stroke-width="0.5" stroke-miterlimit="10"/>
<path d="M430.894 219.497L427.623 214.167" stroke="#263238" stroke-width="2" stroke-miterlimit="10"/>
<path d="M428.577 215.739C428.577 215.739 429.122 213.825 427.622 211.775C426.736 210.613 421.556 206.991 420.602 208.905C419.58 210.955 424.487 216.49 428.577 215.739Z" fill="#A871FF" stroke="#263238" stroke-miterlimit="10"/>
<path d="M428.576 215.738L423.874 211.228" stroke="#263238" stroke-width="0.5" stroke-miterlimit="10"/>
<path d="M433.688 192.299L430.417 186.9" stroke="#263238" stroke-width="2" stroke-miterlimit="10"/>
<path d="M431.371 188.54C431.371 188.54 431.916 186.627 430.417 184.577C429.531 183.415 424.351 179.793 423.396 181.707C422.442 183.757 427.349 189.292 431.371 188.54Z" fill="#A871FF" stroke="#263238" stroke-miterlimit="10"/>
<path d="M431.371 188.54L426.668 184.03" stroke="#263238" stroke-width="0.5" stroke-miterlimit="10"/>
<path d="M435.461 175.352L432.189 170.021" stroke="#263238" stroke-width="2" stroke-miterlimit="10"/>
<path d="M433.143 171.593C433.143 171.593 433.688 169.68 432.189 167.63C431.303 166.468 426.123 162.846 425.169 164.759C424.146 166.81 429.054 172.345 433.143 171.593Z" fill="#A871FF" stroke="#263238" stroke-miterlimit="10"/>
<path d="M433.143 171.593L428.44 167.083" stroke="#263238" stroke-width="0.5" stroke-miterlimit="10"/>
<path d="M429.872 228.244L434.166 223.734" stroke="#263238" stroke-width="2" stroke-miterlimit="10"/>
<path d="M432.87 225.101C432.87 225.101 432.734 223.119 434.574 221.41C435.665 220.454 441.458 217.994 442.072 220.044C442.617 222.23 436.687 226.672 432.87 225.101Z" fill="#A871FF" stroke="#263238" stroke-miterlimit="10"/>
<path d="M432.87 225.101L438.732 221.41" stroke="#263238" stroke-width="0.5" stroke-miterlimit="10"/>
<path d="M432.666 200.978L437.028 196.399" stroke="#263238" stroke-width="2" stroke-miterlimit="10"/>
<path d="M435.665 197.766C435.665 197.766 435.529 195.784 437.369 194.076C438.459 193.119 444.253 190.659 444.866 192.709C445.48 194.964 439.55 199.338 435.665 197.766Z" fill="#A871FF" stroke="#263238" stroke-miterlimit="10"/>
<path d="M435.665 197.766L441.527 194.144" stroke="#263238" stroke-width="0.5" stroke-miterlimit="10"/>
<path d="M433.961 188.951L438.255 184.44" stroke="#263238" stroke-width="2" stroke-miterlimit="10"/>
<path d="M436.96 185.807C436.96 185.807 436.823 183.825 438.664 182.117C439.754 181.16 445.548 178.7 446.161 180.75C446.706 182.937 440.777 187.379 436.96 185.807Z" fill="#A871FF" stroke="#263238" stroke-miterlimit="10"/>
<path d="M436.959 185.807L442.753 182.117" stroke="#263238" stroke-width="0.5" stroke-miterlimit="10"/>
<path d="M435.733 171.388L440.027 166.809" stroke="#263238" stroke-width="2" stroke-miterlimit="10"/>
<path d="M438.732 168.176C438.732 168.176 438.596 166.194 440.436 164.486C441.527 163.529 447.32 161.069 447.934 163.119C448.547 165.374 442.549 169.748 438.732 168.176Z" fill="#A871FF" stroke="#263238" stroke-miterlimit="10"/>
<path d="M438.732 168.176L444.594 164.554" stroke="#263238" stroke-width="0.5" stroke-miterlimit="10"/>
<path d="M436.687 160.113C436.687 160.113 436.551 158.131 438.391 156.422C439.482 155.466 445.275 153.006 445.889 155.056C446.502 157.311 440.504 161.684 436.687 160.113Z" fill="#A871FF" stroke="#263238" stroke-miterlimit="10"/>
<path d="M436.688 160.113L442.549 156.491" stroke="#263238" stroke-width="0.5" stroke-miterlimit="10"/>
<path d="M436.96 160.386C436.96 160.386 434.915 160.318 433.484 158.267C432.598 157.037 430.826 151.024 432.871 150.682C435.188 150.34 438.868 156.696 436.96 160.386Z" fill="#A871FF" stroke="#263238" stroke-miterlimit="10"/>
<path d="M436.96 160.386L433.961 154.167" stroke="#263238" stroke-width="0.5" stroke-miterlimit="10"/>
<path d="M425.85 123.484V238.836" stroke="#263238" stroke-width="2" stroke-miterlimit="10"/>
<path d="M425.918 221.479L422.169 216.49" stroke="#263238" stroke-width="2" stroke-miterlimit="10"/>
<path d="M423.328 217.994C423.328 217.994 423.669 216.012 422.033 214.167C421.011 213.073 415.49 209.998 414.74 211.98C413.854 214.167 419.307 219.155 423.328 217.994Z" fill="#A871FF" stroke="#263238" stroke-miterlimit="10"/>
<path d="M423.328 217.994L418.148 213.962" stroke="#263238" stroke-width="0.5" stroke-miterlimit="10"/>
<path d="M425.918 199.816L422.169 194.828" stroke="#263238" stroke-width="2" stroke-miterlimit="10"/>
<path d="M423.328 196.331C423.328 196.331 423.669 194.349 422.033 192.504C421.011 191.411 415.49 188.336 414.74 190.317C413.854 192.504 419.307 197.493 423.328 196.331Z" fill="#A871FF" stroke="#263238" stroke-miterlimit="10"/>
<path d="M423.328 196.331L418.148 192.299" stroke="#263238" stroke-width="0.5" stroke-miterlimit="10"/>
<path d="M425.918 174.327L422.169 169.406" stroke="#263238" stroke-width="2" stroke-miterlimit="10"/>
<path d="M423.328 170.841C423.328 170.841 423.669 168.86 422.033 167.015C421.011 165.921 415.49 162.846 414.74 164.828C413.854 167.083 419.307 172.003 423.328 170.841Z" fill="#A871FF" stroke="#263238" stroke-miterlimit="10"/>
<path d="M423.328 170.841L418.148 166.878" stroke="#263238" stroke-width="0.5" stroke-miterlimit="10"/>
<path d="M425.918 157.447L422.169 152.459" stroke="#263238" stroke-width="2" stroke-miterlimit="10"/>
<path d="M423.328 153.962C423.328 153.962 423.669 151.981 422.033 150.135C421.011 149.042 415.49 145.967 414.74 147.949C413.854 150.135 419.307 155.124 423.328 153.962Z" fill="#A871FF" stroke="#263238" stroke-miterlimit="10"/>
<path d="M423.328 153.962L418.148 149.93" stroke="#263238" stroke-width="0.5" stroke-miterlimit="10"/>
<path d="M425.918 140.432L422.169 135.443" stroke="#263238" stroke-width="2" stroke-miterlimit="10"/>
<path d="M423.328 136.946C423.328 136.946 423.669 134.965 422.033 133.12C421.011 132.026 415.49 128.951 414.74 130.933C413.854 133.12 419.307 138.108 423.328 136.946Z" fill="#A871FF" stroke="#263238" stroke-miterlimit="10"/>
<path d="M423.328 136.946L418.148 132.915" stroke="#263238" stroke-width="0.5" stroke-miterlimit="10"/>
<path d="M425.85 228.107L429.667 223.119" stroke="#263238" stroke-width="2" stroke-miterlimit="10"/>
<path d="M428.508 224.622C428.508 224.622 428.168 222.641 429.803 220.795C430.826 219.702 436.347 216.627 437.096 218.609C437.914 220.795 432.462 225.784 428.508 224.622Z" fill="#A871FF" stroke="#263238" stroke-miterlimit="10"/>
<path d="M428.508 224.622L433.961 220.385" stroke="#263238" stroke-width="0.5" stroke-miterlimit="10"/>
<path d="M425.85 193.597L429.667 188.609" stroke="#263238" stroke-width="2" stroke-miterlimit="10"/>
<path d="M428.508 190.112C428.508 190.112 428.168 188.131 429.803 186.285C430.826 185.192 436.347 182.117 437.096 184.099C437.914 186.285 432.462 191.274 428.508 190.112Z" fill="#A871FF" stroke="#263238" stroke-miterlimit="10"/>
<path d="M428.508 190.112L433.961 185.875" stroke="#263238" stroke-width="0.5" stroke-miterlimit="10"/>
<path d="M425.85 176.582L429.667 171.661" stroke="#263238" stroke-width="2" stroke-miterlimit="10"/>
<path d="M428.508 173.096C428.508 173.096 428.168 171.115 429.803 169.27C430.826 168.176 436.347 165.101 437.096 167.083C437.914 169.338 432.462 174.258 428.508 173.096Z" fill="#A871FF" stroke="#263238" stroke-miterlimit="10"/>
<path d="M428.508 173.096L433.961 168.86" stroke="#263238" stroke-width="0.5" stroke-miterlimit="10"/>
<path d="M425.85 154.099L429.667 149.179" stroke="#263238" stroke-width="2" stroke-miterlimit="10"/>
<path d="M428.508 150.614C428.508 150.614 428.168 148.632 429.803 146.787C430.826 145.694 436.347 142.618 437.096 144.6C437.914 146.855 432.462 151.776 428.508 150.614Z" fill="#A871FF" stroke="#263238" stroke-miterlimit="10"/>
<path d="M428.508 150.614L433.961 146.377" stroke="#263238" stroke-width="0.5" stroke-miterlimit="10"/>
<path d="M425.85 136.468L429.666 131.479" stroke="#263238" stroke-width="2" stroke-miterlimit="10"/>
<path d="M428.508 132.983C428.508 132.983 428.167 131.001 429.803 129.156C430.825 128.063 436.346 124.988 437.096 126.969C437.914 129.156 432.461 134.145 428.508 132.983Z" fill="#A871FF" stroke="#263238" stroke-miterlimit="10"/>
<path d="M428.508 132.983L433.96 128.746" stroke="#263238" stroke-width="0.5" stroke-miterlimit="10"/>
<path d="M425.645 125.124C425.645 125.124 425.304 123.143 426.94 121.297C427.963 120.204 433.483 117.129 434.233 119.111C435.051 121.297 429.598 126.286 425.645 125.124Z" fill="#A871FF" stroke="#263238" stroke-miterlimit="10"/>
<path d="M425.645 125.124L431.098 120.887" stroke="#263238" stroke-width="0.5" stroke-miterlimit="10"/>
<path d="M425.918 125.329C425.918 125.329 423.941 125.466 422.237 123.621C421.283 122.527 418.829 116.65 420.874 116.104C423.123 115.557 427.486 121.502 425.918 125.329Z" fill="#A871FF" stroke="#263238" stroke-miterlimit="10"/>
<path d="M425.918 125.329L422.306 119.452" stroke="#263238" stroke-width="0.5" stroke-miterlimit="10"/>
<path d="M430.553 268.699H418.421L416.854 237.88H432.121L430.553 268.699Z" fill="#263238" stroke="#263238" stroke-miterlimit="10"/>
<path d="M172.78 27.4713H166.305V30.5465H172.78V27.4713Z" stroke="#263238" stroke-miterlimit="10"/>
<path d="M180.413 27.4713H173.938V30.5465H180.413V27.4713Z" stroke="#263238" stroke-miterlimit="10"/>
<path d="M187.979 27.4713H181.504V30.5465H187.979V27.4713Z" stroke="#263238" stroke-miterlimit="10"/>
<path d="M195.544 27.4713H189.069V30.5465H195.544V27.4713Z" stroke="#263238" stroke-miterlimit="10"/>
<path d="M203.178 27.4713H196.703V30.5465H203.178V27.4713Z" stroke="#263238" stroke-miterlimit="10"/>
<path d="M210.744 27.4713H204.269V30.5465H210.744V27.4713Z" stroke="#263238" stroke-miterlimit="10"/>
<path d="M218.309 27.4713H211.834V30.5465H218.309V27.4713Z" stroke="#263238" stroke-miterlimit="10"/>
<path d="M225.874 27.4713H219.399V30.5465H225.874V27.4713Z" stroke="#263238" stroke-miterlimit="10"/>
<path d="M172.78 32.5966H166.305V35.6717H172.78V32.5966Z" stroke="#263238" stroke-miterlimit="10"/>
<path d="M180.413 32.5966H173.938V35.6717H180.413V32.5966Z" stroke="#263238" stroke-miterlimit="10"/>
<path d="M187.979 32.5966H181.504V35.6717H187.979V32.5966Z" stroke="#263238" stroke-miterlimit="10"/>
<path d="M195.544 32.5966H189.069V35.6717H195.544V32.5966Z" stroke="#263238" stroke-miterlimit="10"/>
<path d="M203.178 32.5966H196.703V35.6717H203.178V32.5966Z" stroke="#263238" stroke-miterlimit="10"/>
<path d="M210.744 32.5966H204.269V35.6717H210.744V32.5966Z" stroke="#263238" stroke-miterlimit="10"/>
<path d="M218.309 32.5966H211.834V35.6717H218.309V32.5966Z" stroke="#263238" stroke-miterlimit="10"/>
<path d="M225.874 32.5966H219.399V35.6717H225.874V32.5966Z" stroke="#263238" stroke-miterlimit="10"/>
<path d="M172.78 37.6534H166.305V40.7286H172.78V37.6534Z" stroke="#263238" stroke-miterlimit="10"/>
<path d="M180.413 37.6534H173.938V40.7286H180.413V37.6534Z" stroke="#263238" stroke-miterlimit="10"/>
<path d="M187.979 37.6534H181.504V40.7286H187.979V37.6534Z" stroke="#263238" stroke-miterlimit="10"/>
<path d="M195.544 37.6534H189.069V40.7286H195.544V37.6534Z" stroke="#263238" stroke-miterlimit="10"/>
<path d="M203.178 37.6534H196.703V40.7286H203.178V37.6534Z" stroke="#263238" stroke-miterlimit="10"/>
<path d="M210.744 37.6534H204.269V40.7286H210.744V37.6534Z" stroke="#263238" stroke-miterlimit="10"/>
<path d="M218.309 37.6534H211.834V40.7286H218.309V37.6534Z" stroke="#263238" stroke-miterlimit="10"/>
<path d="M225.874 37.6534H219.399V40.7286H225.874V37.6534Z" stroke="#263238" stroke-miterlimit="10"/>
<path d="M172.78 42.7103H166.305V45.7855H172.78V42.7103Z" stroke="#263238" stroke-miterlimit="10"/>
<path d="M180.413 42.7103H173.938V45.7855H180.413V42.7103Z" stroke="#263238" stroke-miterlimit="10"/>
<path d="M202.565 42.7103H181.504V45.7855H202.565V42.7103Z" stroke="#263238" stroke-miterlimit="10"/>
<path d="M210.744 42.7103H204.269V45.7855H210.744V42.7103Z" stroke="#263238" stroke-miterlimit="10"/>
<path d="M218.309 42.7103H211.834V45.7855H218.309V42.7103Z" stroke="#263238" stroke-miterlimit="10"/>
<path d="M225.874 42.7103H219.399V45.7855H225.874V42.7103Z" stroke="#263238" stroke-miterlimit="10"/>
<path d="M233.168 80.0221C233.168 80.0221 250.685 55.421 277.47 41.3436" stroke="#263238" stroke-miterlimit="10"/>
<path d="M259 53.5075L260.294 34.0316" stroke="#263238" stroke-miterlimit="10"/>
<path d="M252.661 59.1794L271.2 60.8879" stroke="#263238" stroke-miterlimit="10"/>
<path d="M259.408 43.5304C259.408 43.5304 254.978 41.2069 255.183 34.0316C255.387 26.8562 260.226 22.2094 260.226 22.2094C260.226 22.2094 263.839 27.0612 264.248 33.6216C264.657 40.1819 259.408 43.5304 259.408 43.5304Z" stroke="#263238" stroke-miterlimit="10"/>
<path d="M244.618 57.8811C244.618 57.8811 240.188 55.5576 240.393 48.3823C240.597 41.2069 245.436 36.5601 245.436 36.5601C245.436 36.5601 249.049 41.412 249.458 47.9723C249.867 54.5326 244.618 57.8811 244.618 57.8811Z" stroke="#263238" stroke-miterlimit="10"/>
<path d="M263.157 59.9995C263.157 59.9995 265.884 56.3777 271.2 56.3777C276.448 56.3777 281.764 63.553 281.764 63.553C281.764 63.553 276.721 65.6715 270.382 65.2614C264.043 64.8514 263.157 59.9995 263.157 59.9995Z" stroke="#263238" stroke-miterlimit="10"/>
<path d="M269.496 46.4688C269.496 46.4688 267.383 39.9085 274.131 37.1751C280.878 34.4416 286.331 36.9701 286.331 36.9701C286.331 36.9701 286.331 43.9404 280.197 46.6738C274.131 49.4756 269.496 46.4688 269.496 46.4688Z" stroke="#263238" stroke-miterlimit="10"/>
<path d="M245.232 65.9448L244.823 49.6807" stroke="#263238" stroke-miterlimit="10"/>
<path d="M392.316 36.6284H359.668V57.1977H378.139L377.526 66.6282L384.819 57.1977H392.316V36.6284Z" stroke="#263238" stroke-miterlimit="10"/>
<path d="M409.764 60.3412H387.409V74.4869H400.086L399.677 80.9788L404.653 74.4869H409.764V60.3412Z" stroke="#263238" stroke-miterlimit="10"/>
<path d="M371.051 46.9478C371.051 47.9045 370.233 48.7245 369.279 48.7245C368.325 48.7245 367.507 47.9045 367.507 46.9478C367.507 45.9911 368.325 45.171 369.279 45.171C370.233 45.171 371.051 45.9227 371.051 46.9478Z" stroke="#263238" stroke-miterlimit="10"/>
<path d="M378.685 46.9473C378.685 47.904 377.867 48.724 376.913 48.724C375.958 48.724 375.141 47.904 375.141 46.9473C375.141 45.9906 375.958 45.1705 376.913 45.1705C377.867 45.1705 378.685 45.9222 378.685 46.9473Z" stroke="#263238" stroke-miterlimit="10"/>
<path d="M386.25 46.9472C386.25 47.9039 385.432 48.724 384.478 48.724C383.524 48.724 382.706 47.9039 382.706 46.9472C382.706 45.9905 383.524 45.1705 384.478 45.1705C385.432 45.1021 386.25 45.9222 386.25 46.9472Z" stroke="#263238" stroke-miterlimit="10"/>
<path d="M33.6016 96.7645H58.2747V112.345H44.3023L44.7113 119.452L39.2587 112.345H33.6016V96.7645Z" stroke="#263238" stroke-miterlimit="10"/>
<path d="M20.311 114.737H37.2823V125.466H27.6721L28.0129 130.318L24.2642 125.466H20.311V114.737Z" stroke="#263238" stroke-miterlimit="10"/>
<path d="M50.9823 105.922C51.7351 105.922 52.3455 105.31 52.3455 104.555C52.3455 103.8 51.7351 103.188 50.9823 103.188C50.2294 103.188 49.6191 103.8 49.6191 104.555C49.6191 105.31 50.2294 105.922 50.9823 105.922Z" stroke="#263238" stroke-miterlimit="10"/>
<path d="M45.2567 105.922C46.0096 105.922 46.6199 105.31 46.6199 104.555C46.6199 103.8 46.0096 103.188 45.2567 103.188C44.5039 103.188 43.8936 103.8 43.8936 104.555C43.8936 105.31 44.5039 105.922 45.2567 105.922Z" stroke="#263238" stroke-miterlimit="10"/>
<path d="M39.5316 105.922C40.2845 105.922 40.8948 105.31 40.8948 104.555C40.8948 103.8 40.2845 103.188 39.5316 103.188C38.7788 103.188 38.1685 103.8 38.1685 104.555C38.1685 105.31 38.7788 105.922 39.5316 105.922Z" stroke="#263238" stroke-miterlimit="10"/>
<path d="M64.2725 50.6374C64.2044 50.3641 64.1362 50.0224 64.1362 49.6124C64.1362 45.8539 67.067 45.5122 67.067 41.207C67.067 39.9769 66.5899 39.4986 65.7038 39.4986C64.8178 39.4986 64.3407 39.9769 64.3407 41.207V43.0521H61.8188V41.3437C61.8188 38.6102 63.182 37.0385 65.772 37.0385C68.4302 37.0385 69.7252 38.6102 69.7252 41.3437C69.7252 45.8539 66.5217 46.5372 66.5217 49.6807C66.5217 50.0224 66.5217 50.2957 66.5899 50.6374H64.2725V50.6374ZM66.7262 51.7992V54.3959H64.1362V51.7992H66.7262Z" stroke="#263238" stroke-miterlimit="10"/>
<path d="M153.15 233.984C153.082 233.711 153.014 233.369 153.014 232.959C153.014 229.201 155.945 228.859 155.945 224.554C155.945 223.324 155.468 222.845 154.582 222.845C153.696 222.845 153.219 223.324 153.219 224.554V226.399H150.697V224.691C150.697 221.957 152.06 220.385 154.65 220.385C157.308 220.385 158.603 221.957 158.603 224.691C158.603 229.201 155.4 229.884 155.4 233.028C155.4 233.369 155.4 233.643 155.468 233.984H153.15V233.984ZM155.672 235.146V237.743H153.082V235.146H155.672Z" stroke="#263238" stroke-miterlimit="10"/>
<path d="M124.729 158.746H164.669V186.969H124.729V268.494H93.7852V71.0701H175.643V99.2931H124.729V158.746Z" fill="#D3B3FF" stroke="#263238" stroke-miterlimit="10"/>
<path d="M172.235 78.6554V95.8079H121.321V162.163H145.858" stroke="#263238" stroke-miterlimit="10"/>
<path d="M97.1929 104.76V74.4868H172.235V77.2203" stroke="#263238" stroke-miterlimit="10"/>
<path d="M97.1929 250.249V108.587" stroke="#263238" stroke-miterlimit="10"/>
<path d="M121.321 203.916V265.078H97.1929V254.349" stroke="#263238" stroke-miterlimit="10"/>
<path d="M121.321 193.598V199.475" stroke="#263238" stroke-miterlimit="10"/>
<path d="M149.947 162.163H161.261V183.552H121.321V191.001" stroke="#263238" stroke-miterlimit="10"/>
<path d="M287.081 268.494H255.864L250.548 232.686H212.584L207.268 268.494H178.846L210.267 71.0701H255.592L287.081 268.494ZM216.469 205.898H246.322L231.396 106.058L216.469 205.898Z" fill="#D3B3FF" stroke="#263238" stroke-miterlimit="10"/>
<path d="M247.072 187.515L234.804 103.325H228.056L212.516 209.315H250.276L247.822 192.504M185.798 246.012L202.088 143.985L185.798 246.012ZM256.205 247.925L253.411 229.269H209.585L204.269 265.077H182.799L185.185 249.907L256.205 247.925ZM279.583 243.278L283.059 265.077H258.795L256.682 250.863L279.583 243.278ZM261.658 130.864L279.038 239.656L261.658 130.864ZM202.838 139.065L213.13 74.4185H252.593L260.635 124.714L202.838 139.065Z" stroke="#263238" stroke-miterlimit="10"/>
<path d="M298.599 118.427C298.599 86.8558 315.23 68.7466 345.56 68.7466C375.958 68.7466 392.521 86.7874 392.521 118.427V221.137C392.521 232.139 390.544 241.433 386.591 248.813C388.022 252.504 390.271 253.05 395.315 253.05H398.109V280.727H393.952C380.184 280.727 371.46 275.67 367.234 267.196C361.032 269.451 353.739 270.886 345.56 270.886C315.161 270.886 298.599 252.845 298.599 221.274V118.427ZM329.543 223.119C329.543 237.196 335.745 242.595 345.56 242.595C355.375 242.595 361.577 237.265 361.577 223.119V116.514C361.577 102.437 355.375 97.0379 345.56 97.0379C335.745 97.0379 329.543 102.368 329.543 116.514V223.119Z" fill="#D3B3FF" stroke="#263238" stroke-miterlimit="10"/>
<path d="M365.053 123.553V116.446C365.053 97.5163 354.489 93.5528 345.628 93.5528C336.768 93.5528 326.203 97.5163 326.203 116.446V140.568M378.276 273.825C374.732 271.911 372.073 269.11 370.301 265.556L368.938 262.823L366.076 263.848C359.805 266.171 352.853 267.333 345.56 267.333C331.451 267.333 320.546 263.301 313.185 255.442C312.095 254.28 311.072 252.982 310.118 251.684L378.276 273.825ZM386.864 239.11C386.046 242.048 384.955 244.713 383.66 247.173L382.911 248.54L383.456 249.975C385.637 255.647 389.999 256.331 394.77 256.399V277.242H393.952C389.454 277.242 385.569 276.695 382.161 275.601L386.864 239.11ZM389.181 129.43V221.137C389.181 226.262 388.704 230.978 387.886 235.283L389.181 129.43ZM302.28 111.457C303.302 99.9081 306.915 90.6827 313.185 84.1224C320.614 76.1953 331.52 72.2318 345.56 72.2318C359.669 72.2318 370.574 76.2637 377.935 84.1224C385.364 91.9811 389.113 103.598 389.113 118.427V124.988L302.28 111.457ZM307.324 246.968C303.779 239.998 302.007 231.319 302.007 221.069V118.427C302.007 117.471 302.007 116.514 302.075 115.626L307.324 246.968ZM326.135 221.479V223.119C326.135 242.048 336.7 246.012 345.56 246.012C354.421 246.012 364.985 242.048 364.985 223.119V128.268L326.135 221.479ZM326.135 145.83V217.652V145.83Z" stroke="#263238" stroke-miterlimit="10"/>
<path d="M352.512 127.584C352.512 127.584 357.76 128.609 360.895 131.206C364.031 133.735 366.144 139.885 364.644 143.78C363.145 147.675 362.736 147.402 364.508 149.657C366.28 151.912 364.78 155.807 364.78 155.807L353.262 152.186C353.262 152.186 353.398 147.949 353.943 143.917C354.557 139.885 354.216 132.368 352.444 130.318V127.584H352.512Z" fill="#263238" stroke="#263238" stroke-miterlimit="10" stroke-linecap="round" stroke-linejoin="round"/>
<path d="M336.29 223.939L338.199 234.394C338.199 234.394 337.722 240.955 339.426 247.105C341.061 253.255 342.288 267.059 342.288 267.059C342.288 267.059 339.766 269.178 337.04 270.954C334.382 272.731 332.678 274.371 336.427 274.371C340.175 274.371 342.084 273.346 344.333 272.458C346.582 271.569 348.354 271.091 348.354 269.929C348.354 268.768 347.128 263.779 347.128 263.779C347.128 263.779 347.605 246.285 347.605 240.545C347.605 234.873 346.582 230.841 346.582 230.841V225.169L336.29 223.939Z" fill="white" stroke="#263238" stroke-miterlimit="10" stroke-linecap="round" stroke-linejoin="round"/>
<path d="M344.333 272.458C346.582 271.569 348.354 271.091 348.354 269.929C348.354 269.588 348.218 268.904 348.082 268.153C346.991 268.699 345.832 269.314 345.015 269.793C343.379 270.818 341.13 271.911 339.766 271.911C338.88 271.911 337.653 271.364 336.904 271.023C334.246 272.8 332.61 274.44 336.29 274.44C340.175 274.44 342.084 273.346 344.333 272.458Z" fill="#263238" stroke="#263238" stroke-miterlimit="10" stroke-linecap="round" stroke-linejoin="round"/>
<path d="M344.946 227.219L345.423 234.258C345.423 234.258 344.537 242.8 345.423 248.608C346.309 254.417 346.309 265.556 346.309 267.333C346.309 269.109 344.946 271.091 342.561 273.141C342.561 273.141 340.652 275.396 341.538 276.763C342.424 278.13 348.831 275.533 349.036 274.098C349.172 272.595 350.672 269.314 350.672 268.289C350.672 267.264 350.672 264.531 350.672 263.506C350.672 262.481 354.829 248.403 354.42 243.278C353.943 238.153 353.943 230.704 353.943 230.704L354.079 225.442C354.079 225.442 347.468 227.561 344.946 227.219Z" fill="white" stroke="#263238" stroke-miterlimit="10" stroke-linecap="round" stroke-linejoin="round"/>
<path d="M347.059 273.961C344.878 274.986 343.651 273.005 343.379 272.458C343.106 272.731 342.833 272.936 342.561 273.21C342.561 273.21 340.652 275.465 341.538 276.831C342.424 278.198 348.831 275.601 349.036 274.166C349.172 272.663 350.672 269.383 350.672 268.358C349.922 270.271 348.695 273.21 347.059 273.961Z" fill="#263238" stroke="#263238" stroke-miterlimit="10" stroke-linecap="round" stroke-linejoin="round"/>
<path d="M335.404 180.955C335.404 180.955 329.747 193.529 329.27 200.295C328.793 207.06 332.883 224.827 332.883 224.827C332.883 224.827 340.175 228.244 346.31 227.971C352.444 227.697 356.942 225.852 356.942 225.852C356.942 225.852 362.327 210.135 360.691 200.841C359.055 191.547 355.034 181.98 355.034 181.98L335.881 179.589L335.404 180.955Z" fill="#263238" stroke="#263238" stroke-miterlimit="10" stroke-linecap="round" stroke-linejoin="round"/>
<path d="M344.197 149.179C344.197 149.179 346.719 147.675 348.695 147.675C350.604 147.675 351.694 147.675 351.694 147.675C351.694 147.675 353.057 153.074 353.057 153.689C353.057 154.304 347.4 181.844 347.4 181.844L336.631 180.819C336.631 180.819 336.631 163.461 338.131 158.199C339.562 152.937 344.197 149.179 344.197 149.179Z" fill="white" stroke="#263238" stroke-miterlimit="10" stroke-linecap="round" stroke-linejoin="round"/>
<path d="M335.813 127.721C335.813 127.721 334.791 134.008 336.086 138.382C337.449 142.755 341.198 147.402 342.629 147.539C344.128 147.675 345.764 146.65 345.764 146.65L345.219 148.632L343.992 155.671L349.377 156.149C349.377 156.149 351.626 148.222 351.626 147.744C351.626 147.265 351.558 146.172 351.558 146.172L350.944 140.158C350.944 140.158 352.716 137.151 353.193 135.99C353.671 134.828 352.58 132.846 352.58 132.846C352.58 132.846 353.671 126.354 350.058 123.142C345.56 119.111 337.79 122.664 335.881 124.646C333.973 126.559 335.813 127.721 335.813 127.721Z" fill="white" stroke="#263238" stroke-miterlimit="10" stroke-linecap="round" stroke-linejoin="round"/>
<path d="M345.764 146.582L347.809 145.967L344.878 151.229L345.764 146.582Z" fill="#263238" stroke="#263238" stroke-miterlimit="10" stroke-linecap="round" stroke-linejoin="round"/>
<path d="M350.126 123.074C345.355 119.042 337.858 122.596 335.949 124.578C334.041 126.491 335.813 127.721 335.813 127.721C335.813 127.721 336.836 126.696 339.562 127.721C342.22 128.746 344.333 134.145 346.309 134.76C348.218 135.375 350.058 135.648 350.058 135.648C350.058 135.648 350.058 133.393 351.08 133.12C352.103 132.846 352.716 132.846 352.716 132.846C352.716 132.846 353.875 126.218 350.126 123.074Z" fill="#263238" stroke="#263238" stroke-miterlimit="10" stroke-linecap="round" stroke-linejoin="round"/>
<path d="M339.221 134.486L340.38 136.263L339.835 141.047L341.743 141.388" stroke="#263238" stroke-miterlimit="10" stroke-linecap="round" stroke-linejoin="round"/>
<path d="M341.129 143.028C341.129 143.028 342.493 143.302 343.379 142.277" stroke="#263238" stroke-miterlimit="10" stroke-linecap="round" stroke-linejoin="round"/>
<path d="M336.972 135.375L337.449 137.493C337.449 137.493 338.948 137.63 339.698 137.22" stroke="#263238" stroke-miterlimit="10" stroke-linecap="round" stroke-linejoin="round"/>
<path d="M343.106 134.486L343.379 136.741C343.379 136.741 345.491 137.356 346.241 136.878" stroke="#263238" stroke-miterlimit="10" stroke-linecap="round" stroke-linejoin="round"/>
<path d="M336.358 133.871C336.358 133.871 337.585 133.256 338.744 133.598" stroke="#263238" stroke-miterlimit="10" stroke-linecap="round" stroke-linejoin="round"/>
<path d="M341.879 132.983C341.879 132.983 342.492 132.368 344.128 132.71" stroke="#263238" stroke-miterlimit="10" stroke-linecap="round" stroke-linejoin="round"/>
<path d="M345.219 148.564C345.219 148.564 338.676 151.707 337.176 151.981C335.677 152.254 333.019 153.484 333.155 154.509C333.291 155.534 332.542 171.73 333.019 172.755C333.496 173.78 333.019 182.185 332.746 183.21C332.473 184.235 327.634 197.903 327.634 197.903C327.634 197.903 328.657 199.133 330.906 198.176C333.155 197.288 336.29 187.721 336.904 183.962C337.517 180.204 341.538 163.734 342.561 159.976C343.583 156.217 345.219 148.564 345.219 148.564Z" fill="white" stroke="#263238" stroke-miterlimit="10" stroke-linecap="round" stroke-linejoin="round"/>
<path d="M351.694 147.675C351.694 147.675 348.695 159.224 347.196 163.871C345.696 168.518 344.197 171.183 344.538 174.805C344.81 178.427 344.401 196.536 347.06 199.064C349.718 201.593 353.194 203.233 356.602 203.233C360.009 203.233 363.622 202.208 363.622 202.208C363.622 202.208 359.464 179.315 359.464 178.7C359.464 178.085 366.007 156.969 365.871 155.192C365.735 153.416 351.694 147.675 351.694 147.675Z" fill="white" stroke="#263238" stroke-miterlimit="10" stroke-linecap="round" stroke-linejoin="round"/>
<path d="M339.425 161.958C339.425 165.238 339.766 168.313 340.039 170.158C341.061 165.784 342.083 161.753 342.561 160.181C343.583 156.422 345.219 148.632 345.219 148.632C345.219 148.632 343.583 149.452 341.743 150.272C340.925 152.732 339.425 158.062 339.425 161.958Z" fill="#A871FF" stroke="#263238" stroke-miterlimit="10" stroke-linecap="round" stroke-linejoin="round"/>
<path d="M351.694 147.675C351.694 147.675 348.695 159.224 347.195 163.871C346.378 166.331 345.628 168.313 345.083 170.09C346.241 169.201 348.49 167.22 350.671 164.008C353.125 160.318 354.693 151.98 355.17 149.11C353.125 148.29 351.694 147.675 351.694 147.675Z" fill="#A871FF" stroke="#263238" stroke-miterlimit="10" stroke-linecap="round" stroke-linejoin="round"/>
<path d="M324.908 179.725L323.409 184.099L321.909 178.563C321.909 178.563 323.886 178.085 324.908 179.725Z" fill="#263238" stroke="#263238" stroke-miterlimit="10" stroke-linecap="round" stroke-linejoin="round"/>
<path d="M314.275 162.778L322.795 177.812L333.837 178.358L326.544 162.778H314.275Z" fill="#263238" stroke="#263238" stroke-miterlimit="10" stroke-linecap="round" stroke-linejoin="round"/>
<path d="M321.909 178.564C321.909 178.564 317.751 172.413 317.138 170.91C316.525 169.406 316.252 167.903 316.252 167.015C316.252 166.126 316.525 165.785 317.002 166.878C317.479 167.903 318.365 170.158 318.365 170.158L319.115 165.648C319.115 165.648 319.592 164.896 320.001 165.785C320.478 166.673 320.001 170.158 320.001 170.158L321.227 164.896C321.227 164.896 321.841 163.871 322.25 164.623C322.727 165.375 321.977 169.543 321.977 169.543L323.34 166.4C323.34 166.4 324.09 166.4 324.226 167.151C324.363 167.903 323.204 171.935 323.204 171.935L325.112 170.021C325.112 170.021 325.862 169.748 325.59 170.636C325.317 171.525 323.681 173.78 323.681 173.78C323.681 173.78 324.567 176.035 324.567 176.445C324.567 176.855 323.954 178.085 323.954 178.085L324.976 179.725L324.363 180.955L321.909 178.564Z" fill="white" stroke="#263238" stroke-miterlimit="10" stroke-linecap="round" stroke-linejoin="round"/>
<path d="M332.678 183.347C332.814 182.869 333.018 180.682 333.087 178.495L324.771 179.178L323.408 184.099L332.269 184.509C332.541 183.894 332.678 183.484 332.678 183.347Z" fill="white" stroke="#263238" stroke-miterlimit="10" stroke-linecap="round" stroke-linejoin="round"/>
<path d="M345.424 174.19C345.424 174.19 340.584 170.363 339.63 169.543C338.335 168.381 336.018 168.791 336.018 168.791C336.018 168.791 332.405 171.183 331.86 171.798C331.315 172.413 331.247 173.028 331.86 172.823C332.474 172.686 334.995 171.046 334.995 171.046L335.132 173.301L338.267 174.19L339.153 173.301C339.153 173.301 339.903 173.917 340.653 174.053C341.402 174.19 342.152 173.917 342.152 173.917L345.015 176.445L345.424 174.19Z" fill="white" stroke="#263238" stroke-miterlimit="10" stroke-linecap="round" stroke-linejoin="round"/>
<path d="M360.759 152.459C360.759 152.459 366.553 153.689 367.302 155.602C368.052 157.516 367.439 187.926 366.825 188.882C366.212 189.771 343.243 178.085 343.243 178.085L345.151 173.575L358.442 177.197L357.556 162.504" fill="white"/>
<path d="M360.759 152.459C360.759 152.459 366.553 153.689 367.302 155.602C368.052 157.516 367.439 187.926 366.825 188.882C366.212 189.771 343.243 178.085 343.243 178.085L345.151 173.575L358.442 177.197L357.556 162.504" stroke="#263238" stroke-miterlimit="10" stroke-linecap="round" stroke-linejoin="round"/>
<path d="M336.018 173.438C336.018 173.438 336.222 169.885 336.358 169.406" stroke="#263238" stroke-miterlimit="10" stroke-linecap="round" stroke-linejoin="round"/>
<path d="M337.176 173.643C337.176 173.643 337.517 170.295 337.585 169.748" stroke="#263238" stroke-miterlimit="10" stroke-linecap="round" stroke-linejoin="round"/>
<path d="M339.085 173.302V172.482L338.335 172.345" stroke="#263238" stroke-miterlimit="10" stroke-linecap="round" stroke-linejoin="round"/>
<path d="M211.289 269.861C211.289 269.861 210.403 272.731 211.084 274.166C211.766 275.533 213.265 275.875 215.378 275.67C217.491 275.465 225.534 273.688 226.624 273.483C227.715 273.278 229.01 272.8 229.01 272.8C229.01 272.8 224.511 271.296 220.967 270.681C217.355 270.066 211.97 269.109 211.97 269.109L211.289 269.861Z" fill="white" stroke="#263238" stroke-miterlimit="10" stroke-linecap="round" stroke-linejoin="round"/>
<path d="M211.97 269.041L211.289 269.861C211.289 269.861 210.403 272.731 211.084 274.166C211.63 275.191 212.584 275.67 213.947 275.738C213.402 275.26 212.856 274.508 212.516 273.415C211.902 271.296 213.129 269.588 213.265 269.383C212.447 269.109 211.97 269.041 211.97 269.041Z" fill="white" stroke="#263238" stroke-miterlimit="10" stroke-linecap="round" stroke-linejoin="round"/>
<path d="M218.513 246.763L214.901 257.971L203.246 257.082C203.246 257.082 210.335 263.779 215.514 266.854C220.694 269.929 230.032 272.868 235.962 271.433C241.823 270.066 256.068 256.877 256.068 256.877L243.595 257.082L241.006 246.49L218.513 246.763Z" fill="#263238" stroke="#263238" stroke-miterlimit="10" stroke-linecap="round" stroke-linejoin="round"/>
<path d="M229.01 192.162C229.01 192.162 221.717 193.529 220.763 195.784C219.877 198.039 220.627 203.301 221.24 206.718C221.854 210.135 223.353 210.613 220.763 213.142C218.241 215.67 220.627 218.404 223.012 219.702C225.398 221.069 228.67 219.224 229.419 217.789" fill="#263238"/>
<path d="M229.01 192.162C229.01 192.162 221.717 193.529 220.763 195.784C219.877 198.039 220.627 203.301 221.24 206.718C221.854 210.135 223.353 210.613 220.763 213.142C218.241 215.67 220.627 218.404 223.012 219.702C225.398 221.069 228.67 219.224 229.419 217.789" stroke="#263238" stroke-miterlimit="10" stroke-linecap="round" stroke-linejoin="round"/>
<path d="M209.858 234.599C209.858 234.599 205.973 245.397 206.382 246.285C206.791 247.173 216.674 257.766 216.946 257.766C217.219 257.766 218.855 258.791 219.332 258.791C219.809 258.791 219.945 258.791 220.218 258.722C220.49 258.654 221.922 258.517 221.922 258.517L223.012 259.542L226.625 259.132C226.625 259.132 224.307 256.057 223.353 255.647C222.331 255.237 218.105 254.759 218.105 254.759L212.652 244.577L215.447 238.153L209.858 234.599Z" fill="white" stroke="#263238" stroke-miterlimit="10" stroke-linecap="round" stroke-linejoin="round"/>
<path d="M223.012 220.317C223.012 220.317 215.174 220.932 214.356 221.137C213.539 221.342 213.13 221.616 212.857 222.162C212.584 222.641 207.404 234.053 207.404 234.053L215.856 239.178L216.946 236.376L218.514 246.832H241.142L241.756 236.65L243.937 239.725L253.07 233.164C253.07 233.164 244.209 220.659 241.688 220.385C239.234 219.975 223.012 220.317 223.012 220.317Z" fill="white" stroke="#263238" stroke-miterlimit="10" stroke-linecap="round" stroke-linejoin="round"/>
<path d="M226.216 215.192C226.216 215.192 225.739 217.72 225.398 218.609C225.125 219.497 223.012 220.317 223.012 220.317C223.012 220.317 224.784 225.237 229.555 226.331C233.031 227.151 235.621 223.802 236.098 223.119C236.576 222.436 237.121 219.907 237.121 219.907C237.121 219.907 234.94 217.994 234.803 217.584C234.735 217.174 234.531 215.534 234.531 215.534C234.531 215.534 229.215 216.627 226.216 215.192Z" fill="white" stroke="#263238" stroke-miterlimit="10" stroke-linecap="round" stroke-linejoin="round"/>
<path d="M228.397 197.561L222.603 205.488C222.603 205.488 220.218 202.208 220.218 205.351C220.218 208.495 221.581 209.247 221.99 209.383C222.467 209.52 223.012 209.657 223.012 209.657C223.012 209.657 223.898 213.073 226.284 215.465C228.669 217.857 231.055 218.335 233.168 217.105C235.281 215.875 236.78 212.185 236.78 212.185C236.78 212.185 238.28 207.265 238.007 204.873C237.666 202.55 230.782 196.673 228.397 197.561Z" fill="white" stroke="#263238" stroke-miterlimit="10" stroke-linecap="round" stroke-linejoin="round"/>
<path d="M227.851 207.948C227.919 208.427 227.715 208.837 227.374 208.905C227.033 208.973 226.693 208.632 226.624 208.153C226.556 207.675 226.761 207.265 227.101 207.197C227.442 207.128 227.783 207.47 227.851 207.948Z" fill="#263238"/>
<path d="M232.349 207.948C232.281 208.427 232.486 208.837 232.827 208.905C233.167 208.973 233.508 208.632 233.576 208.153C233.645 207.675 233.44 207.265 233.099 207.197C232.758 207.128 232.418 207.47 232.349 207.948Z" fill="#263238"/>
<path d="M229.283 212.39C229.283 212.39 229.487 213.142 230.373 212.937C231.259 212.732 231.327 212.048 231.327 212.048" stroke="#263238" stroke-miterlimit="10" stroke-linecap="round" stroke-linejoin="round"/>
<path d="M228.465 213.825C228.465 213.825 230.578 214.782 231.941 213.62" stroke="#263238" stroke-miterlimit="10" stroke-linecap="round" stroke-linejoin="round"/>
<path d="M225.534 206.445C225.534 206.445 225.943 205.215 228.329 205.693" stroke="#263238" stroke-miterlimit="10" stroke-linecap="round" stroke-linejoin="round"/>
<path d="M231.259 205.762C231.259 205.762 232.213 205.283 233.1 205.762" stroke="#263238" stroke-miterlimit="10" stroke-linecap="round" stroke-linejoin="round"/>
<path d="M228.26 196.946C228.26 196.946 235.758 210.272 236.167 212.253C236.644 214.167 233.781 216.627 235.28 218.404C236.78 220.18 239.029 222.436 239.029 222.436C239.029 222.436 235.621 223.802 236.78 224.827C238.007 225.852 244.073 224.212 245.913 222.436C247.685 220.659 245.163 217.925 244.55 216.285C243.936 214.645 246.049 210.887 245.436 205.966C244.823 201.046 238.416 193.051 234.667 191.752C230.918 190.386 227.919 192.026 226.761 193.529" fill="#263238"/>
<path d="M228.26 196.946C228.26 196.946 235.758 210.272 236.167 212.253C236.644 214.167 233.781 216.627 235.28 218.404C236.78 220.18 239.029 222.436 239.029 222.436C239.029 222.436 235.621 223.802 236.78 224.827C238.007 225.852 244.073 224.212 245.913 222.436C247.685 220.659 245.163 217.925 244.55 216.285C243.936 214.645 246.049 210.887 245.436 205.966C244.823 201.046 238.416 193.051 234.667 191.752C230.918 190.386 227.919 192.026 226.761 193.529" stroke="#263238" stroke-miterlimit="10" stroke-linecap="round" stroke-linejoin="round"/>
<path d="M227.238 216.695C227.238 216.695 226.147 218.267 226.965 218.745C227.715 219.224 228.601 219.839 228.601 219.839C228.601 219.839 228.328 222.572 228.874 223.392C229.419 224.281 231.941 225.442 231.941 225.442C231.941 225.442 236.439 231.319 239.643 234.599C242.846 237.88 249.117 244.372 250.616 244.372C252.184 244.372 254.297 241.091 254.092 238.495C253.888 235.898 246.254 232.481 244.823 231.319C243.391 230.158 234.531 224.486 234.531 224.486C234.531 224.486 234.122 219.975 234.258 218.95C234.395 217.925 234.19 216.217 234.531 215.534C234.94 214.85 233.781 215.26 233.168 216.217C232.622 217.174 232.622 217.789 232.622 217.789L227.238 216.695Z" fill="white" stroke="#263238" stroke-miterlimit="10" stroke-linecap="round" stroke-linejoin="round"/>
<path d="M245.027 244.577H214.424V263.027H245.027V244.577Z" fill="#B0B0B0" stroke="#263238" stroke-miterlimit="10" stroke-linecap="round" stroke-linejoin="round"/>
<path d="M229.964 268.563C229.964 268.563 244.686 262.481 248.708 259.406C252.661 256.331 256.75 254.827 259.136 255.51C261.521 256.194 262.953 260.772 261.794 263.779C260.704 266.786 252.116 268.153 248.435 269.451C244.755 270.75 233.509 272.663 233.509 272.663L228.329 269.793L229.964 268.563Z" fill="#263238" stroke="#263238" stroke-miterlimit="10" stroke-linecap="round" stroke-linejoin="round"/>
<path d="M230.986 268.699C230.986 268.699 234.871 269.588 238.347 270.613C241.823 271.638 242.437 271.706 242.437 271.706C242.437 271.706 250.82 269.998 252.115 269.725C253.41 269.451 256.068 270.545 256.409 272.39C256.682 274.303 256 275.465 255.046 276.011C254.024 276.49 252.388 276.49 251.161 276.49C249.934 276.49 243.323 275.875 242.301 275.806C241.278 275.738 230.168 273.62 230.168 273.62L230.986 268.699Z" fill="white" stroke="#263238" stroke-miterlimit="10" stroke-linecap="round" stroke-linejoin="round"/>
<path d="M242.165 275.806C242.165 275.806 242.233 275.806 242.165 275.806C243.255 275.943 249.866 276.49 251.093 276.49C252.32 276.49 253.956 276.49 254.978 276.011C256.001 275.533 256.682 274.303 256.341 272.39C256.069 270.476 253.342 269.383 252.047 269.725C250.752 269.998 242.369 271.706 242.369 271.706C242.369 271.706 243.255 274.303 242.165 275.806Z" fill="white" stroke="#263238" stroke-miterlimit="10" stroke-linecap="round" stroke-linejoin="round"/>
<path d="M229.964 268.563C229.964 268.563 223.489 266.581 216.946 262.344C210.403 258.176 201.679 254.827 200.52 254.759C199.293 254.69 196.226 257.561 197.044 260.977C197.862 264.394 204.541 268.153 205.836 268.699C207.131 269.178 224.989 273.961 228.533 273.961L229.964 268.563Z" fill="#263238" stroke="#263238" stroke-miterlimit="10" stroke-linecap="round" stroke-linejoin="round"/>
<path d="M227.579 267.401C227.579 267.401 226.011 272.8 225.875 273.21C225.807 273.62 225.602 274.098 226.352 274.44C227.17 274.713 228.874 274.918 229.419 274.918C230.032 274.918 230.441 273.551 230.646 273.005C230.85 272.458 231.532 269.588 231.532 268.699C231.532 267.811 229.828 267.469 229.215 267.333C228.669 267.128 227.579 267.401 227.579 267.401Z" fill="#D9D9D9" stroke="#263238" stroke-miterlimit="10" stroke-linecap="round" stroke-linejoin="round"/>
<path d="M162.624 65.2615C162.624 65.2615 162.965 65.6031 164.465 65.7398C165.964 65.8765 167.6 66.2865 169.304 65.8765C171.008 65.3981 172.098 65.1931 171.485 66.0132C170.94 66.8332 166.85 69.02 166.305 69.225C165.76 69.43 163.851 69.5667 163.442 70.045C162.965 70.5234 162.624 71.7534 161.466 71.8901C160.307 72.0268 158.126 67.8583 158.126 67.8583L161.738 64.8514L162.624 65.2615Z" fill="#B0B0B0" stroke="#263238" stroke-miterlimit="10" stroke-linecap="round" stroke-linejoin="round"/>
<path d="M126.705 59.7945C126.705 59.7945 136.316 51.5941 142.313 47.9723C148.311 44.3505 149.606 43.3254 150.424 43.5988C151.242 43.8038 164.056 64.6464 164.056 64.6464L157.376 70.1134L148.857 53.4392C148.857 53.4392 136.724 65.1248 133.589 67.2432C130.454 69.2933 124.252 63.2797 123.911 62.3913C123.434 61.4346 126.705 59.7945 126.705 59.7945Z" fill="#263238" stroke="#263238" stroke-miterlimit="10" stroke-linecap="round" stroke-linejoin="round"/>
<path d="M143.745 72.4368L160.171 72.5051L156.217 68.9516L141.563 68.5416L143.745 72.4368Z" fill="white" stroke="#263238" stroke-miterlimit="10" stroke-linecap="round" stroke-linejoin="round"/>
<path d="M160.17 72.5051L169.917 59.6579L164.124 57.8811L156.217 68.9516L160.17 72.5051Z" fill="white" stroke="#263238" stroke-miterlimit="10" stroke-linecap="round" stroke-linejoin="round"/>
<path d="M133.862 41.4803L139.178 54.3276L147.493 65.6715C147.493 65.6715 150.492 65.8082 151.106 65.8765C151.651 66.0132 153.287 66.0815 153.968 66.9016C154.65 67.7216 155.263 69.7717 155.263 69.7717L154.582 69.9084L153.218 68.405L150.697 67.8583C150.697 67.8583 147.698 67.6533 147.016 67.3116C146.335 66.9699 142.995 64.4414 142.995 64.4414L131.885 50.5691L130.181 45.7172L133.862 41.4803Z" fill="#B0B0B0" stroke="#263238" stroke-miterlimit="10" stroke-linecap="round" stroke-linejoin="round"/>
<path d="M146.88 64.2364L144.358 66.2865L131.749 53.0975L130.454 46.2639L134.748 42.0953L139.246 52.7558L146.88 64.2364Z" fill="#EFE4FE" stroke="#263238" stroke-miterlimit="10" stroke-linecap="round" stroke-linejoin="round"/>
<path d="M128.682 105.853C128.682 105.853 124.183 112.824 124.047 113.712C123.911 114.669 124.388 115.421 125.342 115.762C126.296 116.104 128.136 116.787 129.295 117.402C130.454 118.017 132.976 119.384 134.816 119.384C136.656 119.384 137.133 118.837 136.52 118.222C135.974 117.676 132.498 114.6 132.158 113.917C131.817 113.234 130.863 110.705 130.863 110.295C130.863 109.954 131.885 106.673 131.885 106.673L128.682 105.853Z" fill="#B0B0B0" stroke="#263238" stroke-miterlimit="10" stroke-linecap="round" stroke-linejoin="round"/>
<path d="M111.779 57.8127C111.779 57.8127 108.643 61.6396 109.257 66.8332C109.938 72.7101 114.778 74.2135 119.208 75.5119C123.57 76.8103 140.2 81.1839 140.2 81.1839C140.2 81.1839 135.498 86.1724 133.725 90.3409C132.021 94.5095 127.387 106.537 127.387 106.537L135.838 110.5L146.675 88.2909C146.675 88.2909 149.334 83.5756 149.811 81.1155C150.288 78.6554 149.606 77.152 149.334 76.8103C149.129 76.4686 134.816 66.7648 132.158 64.9881C129.5 63.2797 127.319 62.4596 127.319 62.4596L111.779 57.8127Z" fill="#263238" stroke="#263238" stroke-miterlimit="10" stroke-linecap="round" stroke-linejoin="round"/>
<path d="M133.384 34.9884C133.384 34.9884 131.544 28.7698 128.682 27.9497C125.819 27.1297 122.479 29.9998 119.821 33.1433C117.163 36.2868 117.64 43.6672 117.64 45.7856C117.64 47.8357 111.778 56.9928 111.165 58.9746C111.165 58.9746 113.619 60.683 118.322 61.7764C123.024 62.8014 127.932 62.5964 127.932 62.5964C127.932 62.5964 128.886 55.9677 129.091 53.9177C129.295 51.8676 130.931 48.7924 132.226 48.0407C133.521 47.289 134.748 44.8972 134.884 42.1638C134.884 39.2936 133.384 34.9884 133.384 34.9884Z" fill="#EFE4FE" stroke="#263238" stroke-miterlimit="10" stroke-linecap="round" stroke-linejoin="round"/>
<path d="M142.858 65.6031L145.653 66.9015C145.653 66.9015 151.446 67.2432 151.855 67.2432C152.264 67.2432 153.355 70.5917 153.355 70.5917C153.355 70.5917 153.014 70.9334 152.537 70.455C152.06 69.9767 151.583 69.43 151.583 69.43C151.583 69.43 148.72 69.635 147.561 69.635C146.403 69.635 144.358 68.2683 144.358 68.2683L141.563 67.1066L142.858 65.6031Z" fill="#B0B0B0" stroke="#263238" stroke-miterlimit="10" stroke-linecap="round" stroke-linejoin="round"/>
<path d="M122.207 35.9451C122.207 35.9451 125.819 48.314 127.046 51.4575C128.341 54.601 131.544 58.4278 132.703 59.9312C133.862 61.4347 142.518 68.1316 142.518 68.1316L144.358 66.2866L135.157 52.4826C135.157 52.4826 130.522 34.0317 130.59 33.4167C130.726 32.87 129.227 31.2299 128.136 30.9565" fill="#EFE4FE"/>
<path d="M122.207 35.9451C122.207 35.9451 125.819 48.314 127.046 51.4575C128.341 54.601 131.544 58.4278 132.703 59.9312C133.862 61.4347 142.518 68.1316 142.518 68.1316L144.358 66.2866L135.157 52.4826C135.157 52.4826 130.522 34.0317 130.59 33.4167C130.726 32.87 129.227 31.2299 128.136 30.9565" stroke="#263238" stroke-miterlimit="10" stroke-linecap="round" stroke-linejoin="round"/>
<path d="M149.811 15.7175C149.811 15.7175 150.151 19.886 149.606 21.2527C149.061 22.6195 146.403 23.4395 146.403 24.6012C146.403 25.7629 146.539 26.9247 145.926 27.403C145.38 27.8814 144.29 27.403 144.29 27.403C144.29 27.403 144.085 28.3597 143.131 29.0431C142.177 29.7265 142.381 29.7265 142.381 29.7265C142.381 29.7265 141.086 31.0249 139.587 31.0249C138.087 31.0249 136.929 28.9748 136.588 28.7014C136.247 28.4964 135.293 29.1114 134.407 29.7265C133.18 30.5465 132.362 34.92 132.362 34.92C132.362 34.92 129.022 28.5647 128.682 28.4281C128.341 28.2914 126.228 28.1547 126.228 28.1547C126.228 28.1547 129.636 26.4463 130.045 25.0796C130.522 23.7128 130.045 21.4577 130.045 21.0477C130.045 20.5694 130.249 15.8541 132.226 13.394C134.202 10.9339 142.518 10.2505 145.653 10.0455C148.652 9.77218 149.811 15.7175 149.811 15.7175Z" fill="#B0B0B0" stroke="#263238" stroke-miterlimit="10" stroke-linecap="round" stroke-linejoin="round"/>
<path d="M149.811 15.7174C149.811 15.7174 148.652 15.0341 148.447 17.0158C148.243 18.9976 148.584 19.0659 147.152 19.2026C145.789 19.3393 145.176 19.681 145.176 20.501C145.176 21.321 144.154 21.6627 143.336 21.6627C142.518 21.6627 141.836 20.501 141.359 21.6627C140.882 22.8244 139.314 23.3711 138.224 23.3711C137.201 23.3711 137.065 24.0545 135.225 24.3962C133.385 24.7379 133.044 22.7561 133.044 22.7561C133.044 22.7561 130.726 23.2345 130.045 23.2345C129.363 23.2345 129.5 20.3643 129.5 20.3643C129.5 20.3643 127.523 20.706 126.841 20.5693C126.16 20.4327 125.546 18.8609 125.546 18.2459C125.546 17.6309 124.251 16.7425 124.251 15.9224C124.251 15.1024 124.251 14.5557 124.251 14.5557C124.251 14.5557 123.911 12.574 124.115 12.0956C124.32 11.6172 125.819 10.7289 125.819 10.1138C125.819 9.56715 125.342 6.90202 126.16 5.80863C126.978 4.78359 127.796 3.75854 128.614 3.75854C129.431 3.75854 129.636 2.25513 130.931 2.05012C132.226 1.84511 132.635 1.84511 133.589 1.84511C134.543 1.84511 135.089 0.683391 136.111 0.478381C137.133 0.273372 139.723 0.683391 140.132 0.956737C140.541 1.23008 140.95 1.16175 141.836 0.820064C142.79 0.478381 144.631 0.956737 145.312 1.6401C145.994 2.32347 147.289 2.80182 147.834 2.80182C148.379 2.80182 148.993 2.46014 149.811 3.96355C150.629 5.46695 151.992 5.67196 152.81 6.42366C153.627 7.10703 153.764 8.06374 153.627 8.88378C153.491 9.70382 154.105 10.3872 154.582 11.3439C155.059 12.3006 154.922 13.189 154.445 13.804C153.968 14.3507 154.309 15.5124 154.445 15.9908C154.582 16.4691 153.287 17.3575 152.264 17.6992C151.31 17.9042 150.22 18.4509 149.811 15.7174Z" fill="#263238" stroke="#263238" stroke-miterlimit="10" stroke-linecap="round" stroke-linejoin="round"/>
<path d="M145.994 23.7812C145.721 24.2595 145.381 24.5329 145.176 24.3962C144.972 24.2595 145.04 23.8495 145.244 23.3712C145.517 22.8928 145.858 22.6195 146.062 22.7561C146.267 22.8245 146.267 23.3028 145.994 23.7812Z" fill="#263238"/>
<path d="M145.449 21.2527C145.449 21.2527 146.676 20.6377 147.425 22.4828" stroke="#263238" stroke-miterlimit="10" stroke-linecap="round" stroke-linejoin="round"/>
<path d="M55.6163 155.739C55.6163 155.739 57.7292 159.019 58.2744 160.044C58.8879 161.069 58.7516 163.256 58.7516 163.256L61.1371 165.648L58.3426 167.835C58.3426 167.835 55.3437 165.853 54.7302 165.511C54.1168 165.238 53.1626 165.033 52.8218 165.033C52.5492 165.033 49.7547 161.548 49.7547 161.548L48.0508 160.454L49.0731 157.652L53.4352 158.951L55.6163 155.739Z" fill="#CFCFCF" stroke="#263238" stroke-miterlimit="10" stroke-linecap="round" stroke-linejoin="round"/>
<path d="M45.4609 156.149L55.3438 165.58L58.888 162.436L50.0957 154.031L45.4609 156.149Z" fill="#263238" stroke="#263238" stroke-miterlimit="10" stroke-linecap="round" stroke-linejoin="round"/>
<path d="M54.2536 155.329C53.9128 155.329 53.6402 155.602 53.572 155.944C53.3676 157.038 53.0268 159.293 53.7084 159.498C54.5944 159.771 54.9352 159.224 55.0715 158.609C55.2078 157.994 55.9576 156.217 55.6849 155.739C55.4123 155.329 54.9352 155.329 54.2536 155.329Z" fill="#CFCFCF" stroke="#263238" stroke-miterlimit="10" stroke-linecap="round" stroke-linejoin="round"/>
<path d="M47.5739 157.516C47.5739 157.516 46.2107 160.044 47.3013 160.796C48.3236 161.548 48.3236 160.044 48.6644 159.156C48.9371 158.267 48.9371 157.037 47.5739 157.516Z" fill="#CFCFCF" stroke="#263238" stroke-miterlimit="10" stroke-linecap="round" stroke-linejoin="round"/>
<path d="M50.0958 160.044C50.0958 160.044 48.8689 162.436 49.346 163.188C49.8231 163.939 50.3684 163.188 50.7092 162.436C50.9818 161.684 51.1181 161.548 51.1863 160.933C51.1863 159.634 50.0958 160.044 50.0958 160.044Z" fill="#CFCFCF" stroke="#263238" stroke-miterlimit="10" stroke-linecap="round" stroke-linejoin="round"/>
<path d="M51.3228 161.138C51.3228 161.138 50.096 163.529 50.5731 164.281C51.0502 165.033 51.5954 164.281 51.9362 163.529C52.2089 162.778 52.3452 162.641 52.4133 162.026C52.4133 160.728 51.3228 161.138 51.3228 161.138Z" fill="#CFCFCF" stroke="#263238" stroke-miterlimit="10" stroke-linecap="round" stroke-linejoin="round"/>
<path d="M52.754 162.299C52.754 162.299 51.5271 164.691 52.0042 165.443C52.4813 166.195 53.0266 165.443 53.3674 164.691C53.64 163.939 53.7763 163.803 53.8445 163.188C53.8445 161.889 52.754 162.299 52.754 162.299Z" fill="#CFCFCF" stroke="#263238" stroke-miterlimit="10" stroke-linecap="round" stroke-linejoin="round"/>
<path d="M61.001 164.213L56.707 168.586L68.0894 177.88L69.1799 170.158L61.001 164.213Z" fill="#EFE4FE" stroke="#263238" stroke-miterlimit="10" stroke-linecap="round" stroke-linejoin="round"/>
<path d="M66.5218 183.21C66.5218 183.21 64.3408 191.137 64.4771 192.367C64.6134 193.597 64.6134 194.554 64.6134 194.554C64.6134 194.554 58.5474 201.934 55.4803 208.563C52.4132 215.192 52.1405 218.95 53.0948 219.634C54.049 220.317 66.7945 225.989 68.1576 226.262C69.5208 226.536 69.5208 226.536 69.5208 226.536L80.426 230.294L81.5165 231.524L83.6976 230.841C84.6518 230.294 85.1971 226.672 85.4697 225.169C85.7423 223.666 86.4239 222.982 85.7423 222.845C85.0607 222.709 83.8339 222.845 83.8339 222.845C83.8339 222.845 84.2429 222.025 83.5613 222.025C82.8797 222.025 81.6529 222.025 81.6529 222.025C81.6529 222.025 72.7923 218.404 71.2929 217.584C69.7934 216.764 66.0447 214.782 66.0447 214.782L74.7689 208.426C74.7689 208.426 85.4015 202.208 86.8328 199.679C88.3323 197.151 89.1502 192.299 89.1502 190.249C89.1502 188.199 74.4963 181.365 71.9745 181.365C69.3845 181.297 66.6581 181.844 66.5218 183.21Z" fill="#263238" stroke="#263238" stroke-miterlimit="10" stroke-linecap="round" stroke-linejoin="round"/>
<path d="M85.6058 222.777C85.6058 222.777 93.1031 223.051 94.1937 223.597C95.2842 224.144 95.2842 225.989 95.2842 227.356C95.2842 228.722 94.1937 231.798 94.4663 233.301C94.7389 234.804 94.8071 236.513 95.0115 238.7C95.4205 242.731 94.2618 243.141 93.5121 243.005C90.9902 242.458 90.7176 239.383 89.4908 236.376C88.2639 233.438 87.5823 231.798 87.5823 231.798L83.561 230.704C83.6292 230.773 84.3789 224.827 85.6058 222.777Z" fill="white" stroke="#263238" stroke-miterlimit="10" stroke-linecap="round" stroke-linejoin="round"/>
<path d="M94.1936 223.597C93.9209 223.461 93.1712 223.324 92.2852 223.255C92.6259 224.622 93.1031 226.946 93.1031 229.542C93.1031 233.711 93.9209 238.563 93.512 241.638C93.4438 242.116 93.3757 242.526 93.3075 242.936C93.3757 242.936 93.4438 243.005 93.512 243.005C94.1936 243.141 95.4204 242.731 95.0115 238.7C94.807 236.581 94.7388 234.804 94.4662 233.301C94.1936 231.798 95.2841 228.722 95.2841 227.356C95.2841 226.057 95.2841 224.144 94.1936 223.597Z" fill="white" stroke="#263238" stroke-miterlimit="10" stroke-linecap="round" stroke-linejoin="round"/>
<path d="M68.1575 194.486C68.1575 194.486 69.7933 204.668 69.1799 210.682C68.5664 216.695 69.0435 230.021 69.657 233.779C70.2704 237.538 69.7933 248.745 69.7933 250.727C69.7933 252.64 69.657 253.597 69.657 253.597C69.657 253.597 68.0212 253.46 68.1575 254.349C68.2938 255.237 68.2938 256.125 68.2938 256.125C68.2938 256.125 69.657 257.356 71.9062 257.766C74.1554 258.244 76.5409 258.654 77.018 258.039C77.4951 257.424 77.2906 255.51 77.2906 255.51C77.2906 255.51 78.0404 254.895 78.0404 253.734C78.0404 252.504 78.0404 251.957 78.0404 251.957C78.0404 251.957 80.1533 243.278 79.9488 238.016C79.8125 232.754 78.7219 229.748 79.0627 228.449C79.3354 227.082 86.083 206.581 86.083 206.581C86.083 206.581 88.1959 202.071 88.6048 199.269C89.0819 196.399 87.8551 193.461 86.969 192.231C86.083 191.001 72.3151 187.311 72.3151 187.311" fill="#263238"/>
<path d="M68.1575 194.486C68.1575 194.486 69.7933 204.668 69.1799 210.682C68.5664 216.695 69.0435 230.021 69.657 233.779C70.2704 237.538 69.7933 248.745 69.7933 250.727C69.7933 252.64 69.657 253.597 69.657 253.597C69.657 253.597 68.0212 253.46 68.1575 254.349C68.2938 255.237 68.2938 256.125 68.2938 256.125C68.2938 256.125 69.657 257.356 71.9062 257.766C74.1554 258.244 76.5409 258.654 77.018 258.039C77.4951 257.424 77.2906 255.51 77.2906 255.51C77.2906 255.51 78.0404 254.895 78.0404 253.734C78.0404 252.504 78.0404 251.957 78.0404 251.957C78.0404 251.957 80.1533 243.278 79.9488 238.016C79.8125 232.754 78.7219 229.748 79.0627 228.449C79.3354 227.082 86.083 206.581 86.083 206.581C86.083 206.581 88.1959 202.071 88.6048 199.269C89.0819 196.399 87.8551 193.461 86.969 192.231C86.083 191.001 72.3151 187.311 72.3151 187.311" stroke="#263238" stroke-miterlimit="10" stroke-linecap="round" stroke-linejoin="round"/>
<path d="M71.9743 147.88C71.9743 147.88 68.2938 155.534 68.2938 160.318C68.2938 165.101 66.8625 173.233 66.8625 175.42C66.8625 177.675 64.8859 180.955 65.772 182.869C66.658 184.782 71.7698 184.782 72.1788 184.782C72.6559 184.782 75.5185 184.919 76.0638 184.645C76.609 184.44 77.6314 166.058 77.6314 161.821C77.6314 157.584 77.8359 146.787 77.7677 145.489C77.6314 144.19 73.2693 145.42 71.9743 147.88Z" fill="white" stroke="#263238" stroke-miterlimit="10" stroke-linecap="round" stroke-linejoin="round"/>
<path d="M78.0404 140.295C78.0404 140.295 73.6783 146.855 72.656 156.901C71.6336 166.946 68.771 184.782 70.8839 186.695C72.9967 188.609 78.1767 189.976 80.5623 191.206C82.9478 192.436 86.8328 194.349 88.1959 195.101C89.5591 195.853 91.8083 194.964 91.8083 194.964C91.8083 194.964 93.5804 179.11 93.0351 172.071C92.4217 165.033 91.5357 153.211 88.673 147.539C85.8104 141.798 78.7902 139.543 78.0404 140.295Z" fill="#EFE4FE" stroke="#263238" stroke-miterlimit="10" stroke-linecap="round" stroke-linejoin="round"/>
<path d="M78.3131 191.206L76.541 193.119L79.54 197.219L81.3121 193.734L78.3131 191.206Z" fill="#CFCFCF" stroke="#263238" stroke-miterlimit="10" stroke-linecap="round" stroke-linejoin="round"/>
<path d="M78.313 150.477C78.313 150.477 75.7911 157.037 77.0861 162.436C78.4493 167.835 81.9935 179.042 81.9935 179.042L77.4951 191.206L81.9935 195.238C81.9935 195.238 91.3993 179.657 91.3993 177.538C91.3993 175.42 89.2864 154.031 88.4003 151.16C87.5143 148.29 86.0148 145.625 83.7656 145.625" fill="#EFE4FE"/>
<path d="M78.313 150.477C78.313 150.477 75.7911 157.037 77.0861 162.436C78.4493 167.835 81.9935 179.042 81.9935 179.042L77.4951 191.206L81.9935 195.238C81.9935 195.238 91.3993 179.657 91.3993 177.538C91.3993 175.42 89.2864 154.031 88.4003 151.16C87.5143 148.29 86.0148 145.625 83.7656 145.625" stroke="#263238" stroke-miterlimit="10" stroke-linecap="round" stroke-linejoin="round"/>
<path d="M68.9075 256.535C68.9075 256.535 67.8851 257.014 67.8851 257.766C67.8851 258.517 66.9991 262.549 66.9991 262.549C66.9991 262.549 59.7062 265.078 58.3431 265.419C56.9799 265.693 56.571 268.084 56.9799 268.836C57.457 269.588 62.3644 270.203 66.6583 270.339C71.0204 270.476 76.0641 270.476 76.5412 269.724C77.0183 268.973 76.8138 261.661 76.8138 261.661L76.9501 258.039C77.0183 258.039 72.9288 257.697 68.9075 256.535Z" fill="white" stroke="#263238" stroke-miterlimit="10" stroke-linecap="round" stroke-linejoin="round"/>
<path d="M56.8433 268.358C56.8433 268.494 56.9114 268.699 56.9796 268.768C57.4567 269.519 62.364 270.134 66.658 270.271C71.0201 270.408 76.0638 270.408 76.5409 269.656C76.609 269.519 76.6772 269.246 76.7453 268.836C70.2703 269.929 61.069 268.973 56.8433 268.358Z" fill="white" stroke="#263238" stroke-miterlimit="10" stroke-linecap="round" stroke-linejoin="round"/>
<path d="M56.7071 121.844C56.7071 121.844 53.5718 124.714 53.8444 128.746C54.1171 132.778 54.7305 134.281 55.2076 134.76C55.6847 135.238 56.9797 135.99 56.9797 135.99C56.9797 135.99 56.7071 140.363 57.5931 140.637C58.4792 140.91 60.115 140.773 60.115 140.773C60.115 140.773 62.5005 145.147 63.8636 145.284C65.2268 145.42 67.8849 142.755 67.8849 142.755L72.3834 146.787L77.4952 138.997L74.6326 135.853C74.6326 135.853 75.9957 127.448 74.0191 122.937C72.0426 118.427 60.3876 116.172 56.7071 121.844Z" fill="#CFCFCF" stroke="#263238" stroke-miterlimit="10" stroke-linecap="round" stroke-linejoin="round"/>
<path d="M67.8848 142.687L69.9295 140.568L69.6569 143.643L67.8848 142.687Z" fill="#263238" stroke="#263238" stroke-miterlimit="10" stroke-linecap="round" stroke-linejoin="round"/>
<path d="M69.9979 135.17C69.9979 135.17 72.656 135.375 74.7008 135.306C74.9734 133.461 75.7231 126.764 74.0192 122.937C72.1108 118.427 60.4558 116.172 56.7071 121.912C56.7071 121.912 55.0713 123.416 54.2534 125.808C54.4579 126.149 54.7987 126.354 55.2076 126.013C56.23 125.124 59.3653 124.783 59.706 126.491C59.9787 128.131 59.706 129.634 61.4781 129.156C63.2502 128.678 64.3408 129.293 64.3408 129.293C64.3408 129.293 65.5676 131.411 66.2492 130.933C66.9989 130.454 66.3855 129.566 67.2716 128.541C68.1576 127.516 71.6337 129.156 71.77 131.411C71.9063 133.666 69.9979 135.17 69.9979 135.17Z" fill="#263238" stroke="#263238" stroke-miterlimit="10" stroke-linecap="round" stroke-linejoin="round"/>
<path d="M59.7057 134.623C60.0465 135.033 60.1147 135.511 59.9102 135.648C59.7057 135.853 59.2286 135.648 58.8878 135.306C58.5471 134.896 58.4789 134.418 58.6834 134.281C58.956 134.076 59.4331 134.213 59.7057 134.623Z" fill="#263238"/>
<path d="M57.5249 134.076C57.5249 134.076 57.1841 132.71 58.8881 132.71" stroke="#263238" stroke-miterlimit="10" stroke-linecap="round" stroke-linejoin="round"/>
<path d="M77.0858 137.493L70.6108 147.334L73.5416 151.092L79.9485 139.612L77.0858 137.493Z" fill="white" stroke="#263238" stroke-miterlimit="10" stroke-linecap="round" stroke-linejoin="round"/>
</svg>
