<svg width="434" height="287" viewBox="0 0 434 287" fill="none" xmlns="http://www.w3.org/2000/svg">
<path opacity="0.7" d="M418.693 94.5277C411.059 78.1269 400.904 62.9562 389.249 50.0406C387 47.5121 384.614 45.052 382.161 42.7285C354.352 15.8039 314.753 0.359861 276.38 5.28009C250.207 8.62859 225.807 20.9975 204.882 37.1933C191.523 47.5121 178.914 59.7443 162.829 64.8696C142.45 71.3616 120.435 65.2113 99.1014 65.1429C66.0449 64.9379 32.5794 80.8604 14.4494 108.605C-1.9766 133.685 -4.63475 167.306 7.7018 194.641C20.0384 221.975 46.8244 242.271 76.473 246.577C95.1482 249.31 114.164 246.03 132.976 247.533C160.375 249.72 185.866 261.884 212.107 270.358C259.817 285.733 313.526 288.467 358.851 267.146C396.201 249.583 426.531 213.228 432.188 171.68C435.664 145.37 429.803 118.377 418.693 94.5277Z" fill="#EFE4FE"/>
<path d="M140.627 167.707L140.311 167.372L142.337 165.431L142.653 165.767L140.627 167.707ZM144.642 163.845L144.308 163.51C144.958 162.857 145.628 162.185 146.26 161.532L146.594 161.849C145.962 162.521 145.312 163.192 144.642 163.845ZM148.528 159.797L148.193 159.48C148.807 158.808 149.439 158.099 150.034 157.39L150.387 157.689C149.755 158.398 149.141 159.107 148.528 159.797ZM152.172 155.543L151.819 155.245C152.395 154.536 152.99 153.808 153.566 153.062L153.938 153.342C153.343 154.107 152.748 154.834 152.172 155.543ZM155.611 151.14L155.239 150.86C155.779 150.133 156.336 149.368 156.876 148.603L157.247 148.864C156.708 149.629 156.169 150.394 155.611 151.14ZM158.846 146.55L158.456 146.289C158.976 145.524 159.497 144.741 159.999 143.957L160.389 144.218C159.887 145.002 159.367 145.785 158.846 146.55ZM184.317 143.323C183.461 143.323 182.588 143.155 181.807 142.838L181.974 142.409C182.699 142.707 183.499 142.856 184.298 142.856C184.41 142.838 184.502 142.856 184.595 142.856L184.614 143.323C184.521 143.323 184.391 143.323 184.317 143.323ZM187.403 142.521L187.161 142.11C187.923 141.662 188.574 141.009 189.02 140.226L189.429 140.45C188.927 141.326 188.239 142.035 187.403 142.521ZM161.895 141.849L161.505 141.606C161.988 140.823 162.472 140.021 162.955 139.218L163.345 139.461C162.862 140.263 162.379 141.065 161.895 141.849ZM179.446 141.215C178.813 140.543 178.312 139.722 177.921 138.789L178.349 138.603C178.721 139.479 179.204 140.244 179.799 140.879L179.446 141.215ZM190.191 137.707L189.727 137.688V137.558C189.727 136.867 189.578 136.177 189.318 135.58C189.243 135.431 189.169 135.282 189.095 135.132L189.504 134.908C189.597 135.076 189.671 135.226 189.745 135.394C190.043 136.047 190.191 136.793 190.191 137.558V137.707ZM164.926 137.203L164.572 136.905C165.167 136.177 165.837 135.506 166.562 134.89L166.859 135.244C166.153 135.841 165.521 136.513 164.926 137.203ZM177.196 136.028C177.14 135.58 177.122 135.132 177.122 134.685C177.122 134.2 177.159 133.696 177.215 133.192L177.679 133.248C177.624 133.733 177.586 134.218 177.586 134.685C177.586 135.114 177.605 135.561 177.661 135.972L177.196 136.028ZM169.072 133.603L168.83 133.211C169.611 132.726 170.466 132.278 171.34 131.905L171.526 132.334C170.67 132.707 169.834 133.136 169.072 133.603ZM187.31 133.136C186.64 132.614 185.841 132.166 184.93 131.811L185.097 131.382C186.027 131.755 186.864 132.222 187.589 132.763L187.31 133.136ZM174.11 131.42L173.98 130.972C174.891 130.729 175.82 130.543 176.75 130.431L176.806 130.897C175.913 131.009 175.002 131.177 174.11 131.42ZM182.29 131.047C181.416 130.879 180.487 130.785 179.557 130.767L179.576 130.3C180.542 130.319 181.472 130.431 182.383 130.599L182.29 131.047ZM178.33 130.561L177.884 130.412C178.2 129.535 178.609 128.658 179.111 127.856L179.501 128.099C179.018 128.882 178.628 129.722 178.33 130.561ZM181.156 125.897L180.821 125.58C180.951 125.431 181.1 125.282 181.23 125.151C181.751 124.629 182.327 124.143 182.922 123.696L183.201 124.069C182.606 124.498 182.048 124.983 181.546 125.468C181.435 125.617 181.286 125.767 181.156 125.897ZM185.562 122.651L185.358 122.24C186.194 121.83 187.087 121.475 187.979 121.196L188.109 121.643C187.235 121.905 186.38 122.24 185.562 122.651ZM190.805 120.934L190.693 120.487C191.604 120.244 192.497 120.002 193.389 119.759L193.519 120.207C192.627 120.449 191.716 120.711 190.805 120.934ZM196.178 119.405L196.048 118.957C196.94 118.677 197.833 118.378 198.688 118.08L198.836 118.528C197.981 118.826 197.089 119.125 196.178 119.405ZM201.458 117.558L201.291 117.128C202.164 116.793 203.02 116.438 203.856 116.065L204.042 116.494C203.205 116.849 202.332 117.203 201.458 117.558ZM206.589 115.319L206.385 114.89L208.894 113.658L209.099 114.069L206.589 115.319ZM211.609 112.875L211.404 112.464L213.914 111.233L214.119 111.643L211.609 112.875ZM216.629 110.431L216.424 110.02L218.934 108.789L219.138 109.199L216.629 110.431ZM221.648 107.987L221.444 107.576L223.954 106.345L224.158 106.755L221.648 107.987ZM226.668 105.542L226.463 105.132L228.973 103.901L229.178 104.311L226.668 105.542Z" fill="#9192FF"/>
<path d="M218.097 18.8062C218.097 18.8995 218.097 18.9928 218.115 19.0861H279.244C279.077 14.03 274.708 9.98147 269.316 9.98147C267.587 9.98147 265.97 10.3919 264.557 11.1195C264.631 7.18293 262.753 3.41422 259.277 1.39927C254.071 -1.62316 247.248 0.429105 244.069 5.98888C243.102 7.66801 242.582 9.47773 242.47 11.2688C239.923 10.0934 236.781 9.4031 233.36 9.4031C224.92 9.4031 218.097 13.6196 218.097 18.8062Z" fill="#EBEBFF"/>
<path d="M116.402 162.129H66V161.942C66.1301 157.67 69.7741 154.312 74.3104 154.312C75.5932 154.312 76.876 154.591 78.0287 155.151C78.0659 151.868 79.7391 148.882 82.4349 147.315C84.4427 146.14 86.841 145.841 89.1464 146.457C91.6562 147.129 93.7943 148.789 95.1328 151.14C95.8765 152.446 96.3227 153.845 96.4528 155.282C98.5909 154.33 101.119 153.845 103.759 153.845C110.75 153.845 116.42 157.371 116.42 161.718C116.42 161.812 116.42 161.886 116.402 161.98V162.129ZM66.3532 161.793H116.067C116.067 161.774 116.067 161.756 116.067 161.737C116.067 157.595 110.545 154.218 103.759 154.218C101.082 154.218 98.5165 154.741 96.3785 155.73L96.1554 155.842L96.1368 155.58C96.0438 154.088 95.5976 152.67 94.8354 151.327C93.534 149.069 91.4889 147.465 89.072 146.812C86.841 146.215 84.5543 146.494 82.6208 147.632C79.9436 149.2 78.3261 152.185 78.3819 155.45V155.748L78.1216 155.618C76.9504 155.021 75.6304 154.703 74.3104 154.703C70.0344 154.666 66.5949 157.782 66.3532 161.793Z" fill="#9192FF"/>
<path d="M214.955 157.092C214.955 163.043 219.77 167.894 225.72 167.894H345.188C351.119 167.894 355.953 163.062 355.953 157.092V84.1428H214.955V157.092Z" fill="white"/>
<path d="M207.573 102.763C209.228 97.4639 214.434 93.3967 220.123 92.9676C225.812 92.5385 231.631 95.7661 234.122 100.766C237.153 100.729 240.146 102.427 241.614 105.001C243.083 107.576 242.99 110.916 241.354 113.397C244.961 114.031 248.196 116.401 249.795 119.61C251.394 122.819 251.301 126.755 249.572 129.871C253.55 127.837 258.626 128.024 262.437 130.337C266.248 132.651 268.647 136.998 268.516 141.345C270.989 137.446 275.73 135.02 280.452 135.244C285.174 135.468 289.673 138.304 291.756 142.409C293.968 135.767 299.88 130.393 306.852 128.677C313.842 126.961 321.669 128.957 326.912 133.77C334.776 135.002 340.503 143.565 338.458 151.028C342.696 154.554 344.872 160.282 343.979 165.636C343.087 170.991 339.183 175.767 333.996 177.801L198.743 177.708L187.216 125.916L207.573 102.763Z" fill="#D1D1FF"/>
<g opacity="0.8">
<path opacity="0.8" d="M205.436 119.964C207.034 114.666 212.073 110.58 217.576 110.151C223.079 109.721 228.693 112.949 231.092 117.931C234.029 117.893 236.911 119.591 238.324 122.147C239.737 124.703 239.644 128.061 238.064 130.543C241.559 131.158 244.682 133.546 246.225 136.755C247.768 139.964 247.675 143.901 246.002 147.017C249.851 144.983 254.759 145.17 258.421 147.465C262.102 149.778 264.426 154.125 264.278 158.472C266.676 154.573 271.249 152.147 275.804 152.353C280.359 152.558 284.71 155.412 286.736 159.517C288.874 152.875 294.582 147.502 301.33 145.767C308.079 144.05 315.646 146.028 320.703 150.841C328.307 152.073 333.828 160.636 331.839 168.099C335.948 171.625 338.03 177.353 337.175 182.708C336.32 188.062 332.527 192.838 327.526 194.872L196.809 194.89L185.71 143.099L205.436 119.964Z" fill="white"/>
</g>
<path opacity="0.7" d="M309.343 86.4935C270.189 123.453 242.414 133.416 207.443 136.979L205.119 174.293L241.837 186.887C273.908 185.954 304.695 139.367 323.714 99.3855L309.343 86.4935Z" fill="#D3B3FF"/>
<path d="M314.865 86.9786C308.506 94.5347 298.894 101.774 287.572 111.531L303.022 105.206C301.125 108.36 298.374 112.763 296.812 114.666C300.382 113.024 306.108 109.386 308.004 107.464C308.004 110.151 304.788 114.647 303.375 117.091C311.611 110.02 319.122 101.363 321.539 93.7884L314.865 86.9786Z" fill="#A871FF"/>
<path opacity="0.4" d="M316.668 87.3518C312.894 92.3519 307.261 97.184 300.605 103.695L309.622 99.4042C308.488 101.494 306.852 104.404 305.941 105.654C308.023 104.535 311.37 102.109 312.504 100.822C312.467 102.576 310.57 105.542 309.715 107.165C314.568 102.445 318.992 96.7176 320.48 91.7362L316.668 87.3518Z" fill="white"/>
<path d="M258.198 113.024C258.254 114.199 258.198 116.158 257.027 116.848C255.093 117.968 253.55 115.244 252.844 113.863C251.989 112.222 252.212 110.188 254.127 109.442C256.692 108.472 258.105 110.841 258.198 113.024Z" fill="#D1D1FF"/>
<path d="M350.245 148.491C350.301 149.666 350.245 151.625 349.074 152.315C347.14 153.435 345.597 150.711 344.891 149.33C344.036 147.688 344.259 145.655 346.174 144.908C348.739 143.938 350.152 146.308 350.245 148.491Z" fill="#D1D1FF"/>
<path d="M247.88 101.456C248.784 101.456 249.516 100.721 249.516 99.8147C249.516 98.9079 248.784 98.1729 247.88 98.1729C246.977 98.1729 246.244 98.9079 246.244 99.8147C246.244 100.721 246.977 101.456 247.88 101.456Z" fill="#D1D1FF"/>
<path d="M331.717 131.49C332.94 130.88 333.439 129.39 332.831 128.163C332.223 126.936 330.739 126.435 329.516 127.045C328.293 127.655 327.795 129.145 328.402 130.372C329.01 131.599 330.494 132.1 331.717 131.49Z" fill="#D1D1FF"/>
<path d="M345.169 168.118H225.719C219.658 168.118 214.731 163.174 214.731 157.092V83.9189H356.175V157.092C356.157 163.174 351.23 168.118 345.169 168.118ZM215.196 84.3854V157.092C215.196 162.913 219.918 167.651 225.719 167.651H345.188C350.988 167.651 355.711 162.913 355.711 157.092V84.3854H215.196Z" fill="#9192FF"/>
<path d="M345.169 55.8962H225.719C219.788 55.8962 214.954 60.7284 214.954 66.6986V84.1615H355.933V66.6986C355.933 60.7284 351.118 55.8962 345.169 55.8962Z" fill="white"/>
<path d="M356.157 84.3854H214.731V66.68C214.731 60.5978 219.658 55.6537 225.719 55.6537H345.188C351.249 55.6537 356.175 60.5978 356.175 66.68V84.3854H356.157ZM215.196 83.919H355.711V66.68C355.711 60.859 350.988 56.1201 345.188 56.1201H225.719C219.918 56.1201 215.196 60.859 215.196 66.68V83.919Z" fill="#9192FF"/>
<path d="M234.925 71.2079C235.572 68.0068 233.511 64.8852 230.321 64.2355C227.131 63.5859 224.021 65.6541 223.373 68.8552C222.726 72.0562 224.787 75.1778 227.977 75.8275C231.167 76.4771 234.277 74.4089 234.925 71.2079Z" fill="#D1D1FF"/>
<path d="M250.684 74.2088C252.985 71.8992 252.985 68.1545 250.684 65.8449C248.382 63.5352 244.65 63.5352 242.349 65.8449C240.047 68.1545 240.047 71.8992 242.349 74.2088C244.65 76.5185 248.382 76.5185 250.684 74.2088Z" fill="white"/>
<path d="M246.523 76.1764C243.139 76.1764 240.388 73.4152 240.388 70.0196C240.388 66.624 243.139 63.8628 246.523 63.8628C249.907 63.8628 252.658 66.624 252.658 70.0196C252.658 73.4152 249.907 76.1764 246.523 76.1764ZM246.523 64.3479C243.4 64.3479 240.852 66.9039 240.852 70.0383C240.852 73.1726 243.4 75.7286 246.523 75.7286C249.646 75.7286 252.193 73.1726 252.193 70.0383C252.193 66.8852 249.646 64.3479 246.523 64.3479Z" fill="#9192FF"/>
<path d="M291.421 75.6727H267.94C264.835 75.6727 262.307 73.1353 262.307 70.0196C262.307 66.9039 264.835 64.3666 267.94 64.3666H291.421C294.526 64.3666 297.054 66.9039 297.054 70.0196C297.036 73.154 294.526 75.6727 291.421 75.6727Z" fill="white"/>
<path d="M291.421 75.9153H267.94C264.705 75.9153 262.084 73.2846 262.084 70.0383C262.084 66.792 264.705 64.1614 267.94 64.1614H291.421C294.656 64.1614 297.278 66.792 297.278 70.0383C297.278 73.266 294.638 75.9153 291.421 75.9153ZM267.94 64.6091C264.966 64.6091 262.549 67.0345 262.549 70.0197C262.549 73.0048 264.966 75.4302 267.94 75.4302H291.421C294.396 75.4302 296.813 73.0048 296.813 70.0197C296.813 67.0345 294.396 64.6091 291.421 64.6091H267.94Z" fill="#9192FF"/>
<path d="M339.331 43.0228C329.924 51.2879 313.675 45.5975 308.637 52.202L323.064 63.6574L339.331 43.0228Z" fill="#3335CF"/>
<path d="M308.637 52.202C307.912 54.1237 308.302 56.2879 309.66 57.8551L319.885 69.5903L323.064 63.6574L308.637 52.202Z" fill="#D1D1FF"/>
<path d="M360.674 59.9821C354.817 71.0829 364.057 85.6354 358.815 92.072L344.388 80.6167L360.674 59.9821Z" fill="#3335CF"/>
<path d="M358.815 92.0719C357.104 93.21 354.911 93.3406 353.107 92.3705L339.368 85.0756L344.388 80.5979L358.815 92.0719Z" fill="#D1D1FF"/>
<path d="M367.999 28.8063L355.152 33.5451L366.344 42.4258L367.999 28.8063Z" fill="#1B1B43"/>
<path d="M366.345 42.4259C364.561 62.8179 349.539 81.8294 331.319 92.3892L314.717 79.1987C321.689 57.1835 334.665 41.437 355.172 33.5265L366.345 42.4259Z" fill="#C5C5FF"/>
<path d="M314.716 79.2174L307.503 84.2175L328.121 100.598L331.319 92.4079L314.716 79.2174Z" fill="#3335CF"/>
<path d="M351.248 58.8535C355.479 58.3485 358.501 54.4968 357.998 50.2506C357.495 46.0044 353.656 42.9716 349.425 43.4766C345.194 43.9816 342.172 47.8332 342.675 52.0794C343.178 56.3256 347.016 59.3585 351.248 58.8535Z" fill="white"/>
<path d="M350.913 56.6611L350.858 56.1946C351.304 56.1387 351.731 56.0454 352.14 55.8775L352.308 56.3066C351.88 56.4932 351.397 56.6238 350.913 56.6611ZM349.463 56.6238C348.98 56.5491 348.515 56.3999 348.069 56.2133L348.255 55.7842C348.664 55.9708 349.091 56.1014 349.519 56.1573L349.463 56.6238ZM353.609 55.6163L353.33 55.2431C353.683 54.9819 353.999 54.6648 354.278 54.3103L354.65 54.6088C354.334 55.0006 353.999 55.3364 353.609 55.6163ZM346.842 55.4484C346.47 55.1312 346.135 54.7767 345.856 54.3849L346.228 54.1237C346.489 54.4782 346.786 54.814 347.139 55.0939L346.842 55.4484ZM355.208 53.7319L354.799 53.508C355.003 53.1162 355.152 52.6871 355.245 52.258L355.691 52.3513C355.598 52.8364 355.431 53.3028 355.208 53.7319ZM345.187 53.0976C345.02 52.6498 344.908 52.1647 344.871 51.6797L345.336 51.6423C345.373 52.0901 345.466 52.5192 345.633 52.9483L345.187 53.0976ZM355.357 50.9334C355.338 50.4856 355.245 50.0378 355.115 49.6274L355.561 49.4781C355.71 49.9446 355.803 50.4296 355.821 50.9147L355.357 50.9334ZM345.392 50.299L344.927 50.2244C345.02 49.7393 345.169 49.2729 345.373 48.8438L345.801 49.049C345.596 49.4222 345.466 49.8513 345.392 50.299ZM354.539 48.4147C354.297 48.0416 353.999 47.7057 353.665 47.4072L353.981 47.0527C354.353 47.3699 354.669 47.743 354.929 48.1535L354.539 48.4147ZM346.507 47.911L346.154 47.6124C346.47 47.2393 346.842 46.9035 347.232 46.6423L347.492 47.0341C347.139 47.258 346.805 47.5565 346.507 47.911ZM352.568 46.6609C352.178 46.4557 351.75 46.3251 351.304 46.2318L351.397 45.7654C351.88 45.8587 352.345 46.0266 352.772 46.2318L352.568 46.6609ZM348.682 46.4184L348.534 45.9706C348.998 45.8027 349.463 45.7094 349.947 45.6721L349.984 46.1385C349.538 46.1759 349.11 46.2691 348.682 46.4184Z" fill="#9192FF"/>
<path d="M312.355 99.7028L311.983 99.4043C311.444 98.9752 311.351 98.1916 311.779 97.6505L326.243 79.3294C326.67 78.7883 327.451 78.695 327.99 79.1241L328.362 79.4227C328.901 79.8518 328.994 80.6354 328.567 81.1764L314.103 99.4976C313.675 100.039 312.894 100.132 312.355 99.7028Z" fill="#1B1B43"/>
<path d="M337.957 259.425H335.168V258.959H337.957V259.425ZM332.379 259.425H329.591V258.959H332.379V259.425ZM326.802 259.425H324.013V258.959H326.802V259.425ZM321.225 259.425H318.436V258.959H321.225V259.425ZM315.647 259.425H312.858V258.959H315.647V259.425ZM310.07 259.425H307.281V258.959H310.07V259.425ZM304.492 259.425H301.704V258.959H304.492V259.425ZM298.915 259.425H296.126V258.959H298.915V259.425ZM293.337 259.425H290.549V258.959H293.337V259.425ZM287.76 259.425H284.971V258.959H287.76V259.425ZM282.183 259.425C281.216 259.425 280.268 259.257 279.375 258.94L279.524 258.492C280.379 258.791 281.272 258.94 282.183 258.94V259.425ZM338.292 259.425L338.273 258.959C339.184 258.921 340.076 258.753 340.913 258.436L341.08 258.865C340.188 259.201 339.258 259.388 338.292 259.425ZM276.865 257.597C276.103 257.018 275.452 256.309 274.913 255.526L275.304 255.264C275.824 256.011 276.438 256.682 277.163 257.223L276.865 257.597ZM343.572 257.429L343.274 257.074C343.981 256.496 344.594 255.824 345.077 255.059L345.468 255.32C344.947 256.104 344.315 256.832 343.572 257.429ZM273.686 252.932C273.463 252.149 273.352 251.309 273.352 250.488V250.115H273.816V250.488C273.816 251.272 273.928 252.055 274.132 252.802L273.686 252.932ZM346.602 252.69L346.156 252.578C346.323 251.906 346.416 251.197 346.416 250.488V249.854H346.881V250.488C346.881 251.216 346.788 251.962 346.602 252.69ZM273.816 247.298H273.352V244.499H273.816V247.298ZM346.881 247.055H346.416V244.257H346.881V247.055ZM273.816 241.701H273.352V238.902H273.816V241.701ZM346.881 241.458H346.416V238.66H346.881V241.458ZM273.816 236.104H273.352V233.305H273.816V236.104ZM346.881 235.861H346.416V233.063H346.881V235.861ZM273.816 230.507H273.352V227.708H273.816V230.507ZM346.881 230.264H346.416V227.466H346.881V230.264ZM273.816 224.91H273.352V222.111H273.816V224.91ZM346.881 224.667H346.416V221.869H346.881V224.667ZM273.816 219.313H273.352V217.447C273.352 217.13 273.37 216.812 273.407 216.495L273.872 216.551C273.835 216.85 273.816 217.148 273.816 217.465V219.313ZM346.881 219.07H346.416V217.447C346.416 217.055 346.397 216.682 346.342 216.309L346.806 216.253C346.862 216.645 346.881 217.055 346.881 217.465V219.07ZM274.579 213.921L274.151 213.734C274.541 212.857 275.081 212.055 275.731 211.365L276.066 211.682C275.452 212.335 274.95 213.1 274.579 213.921ZM345.542 213.715C345.133 212.895 344.613 212.148 343.981 211.514L344.315 211.178C344.985 211.868 345.542 212.652 345.97 213.51L345.542 213.715ZM278.204 210.003L277.981 209.592C278.817 209.126 279.728 208.809 280.677 208.641L280.751 209.107C279.859 209.256 279.003 209.574 278.204 210.003ZM341.805 209.891C341.006 209.48 340.132 209.2 339.24 209.051L339.314 208.585C340.262 208.734 341.173 209.014 342.028 209.462L341.805 209.891ZM336.488 208.977H333.699V208.51H336.488V208.977ZM330.911 208.977H328.122V208.51H330.911V208.977ZM325.333 208.977H322.545V208.51H325.333V208.977ZM319.756 208.977H316.967V208.51H319.756V208.977ZM314.178 208.977H311.39V208.51H314.178V208.977ZM308.601 208.977H305.812V208.51H308.601V208.977ZM303.024 208.977H300.235V208.51H303.024V208.977ZM297.446 208.977H294.657V208.51H297.446V208.977ZM291.869 208.977H289.08V208.51H291.869V208.977ZM286.291 208.977H283.503V208.51H286.291V208.977Z" fill="#9192FF"/>
<path d="M332.881 251.347H273.556C269.763 251.347 266.695 248.268 266.695 244.462V206.383C266.695 202.577 269.763 199.499 273.556 199.499H332.881C336.674 199.499 339.741 202.577 339.741 206.383V244.462C339.741 248.25 336.655 251.347 332.881 251.347Z" fill="#9192FF"/>
<path d="M287.275 229.779H279.374V245.899H287.275V229.779Z" fill="white"/>
<path d="M300.531 230.302H292.63V245.899H300.531V230.302Z" fill="white"/>
<path d="M313.769 222.148H305.867V245.899H313.769V222.148Z" fill="white"/>
<path d="M327.024 215.171H319.123V245.899H327.024V215.171Z" fill="white"/>
<path d="M324.422 206.794H281.978V208.66H324.422V206.794Z" fill="white"/>
<path d="M152.749 148.882C151.41 144.2 148.566 140.095 144.643 137.203L143.081 136.047L144.42 163.696L154.719 155.692L152.749 148.882Z" fill="#A871FF"/>
<path d="M185.842 182.316L183.555 177.819C182.979 176.681 181.938 175.842 180.711 175.487L173.98 173.622L156.653 162.521L154.701 155.711L144.401 163.715L144.494 165.655C144.68 169.554 147.06 173.006 150.63 174.554L167.455 181.831L175.449 182.017C178.033 182.913 178.907 185.133 180.506 184.331C181.101 184.032 178.777 180.189 178.777 180.189L182.644 184.461L185.842 182.316Z" fill="#FFBC96"/>
<path d="M156.466 162.345L154.203 165.019L154.614 165.369L156.877 162.695L156.466 162.345Z" fill="#D28572"/>
<path d="M155.724 193.51L168.329 192.39C176.527 191.663 183.667 198.305 184.057 207.055L186.902 269.332L169.518 269.873L155.724 193.51Z" fill="#26289C"/>
<path d="M170.913 269.257L171.452 286.459H197.22L184.503 275.862L183.704 267.559L170.913 269.257Z" fill="#1B1B43"/>
<path d="M184.19 275.433L178.77 279.623L179.416 280.466L184.836 276.276L184.19 275.433Z" fill="white"/>
<path d="M165.056 269.257L165.595 286.459H191.344L178.646 275.862L177.847 267.559L165.056 269.257Z" fill="#D1D1FF"/>
<path d="M178.316 275.441L172.896 279.631L173.543 280.474L178.963 276.284L178.316 275.441Z" fill="white"/>
<path d="M184.242 270.955H162.918L147.729 224.051L145.609 217.484L115.231 217.354C113.353 217.335 111.55 216.458 110.044 215.171C106.809 212.447 105.322 208.137 105.917 203.939L108.575 184.853L153.697 190.749C162.249 191.868 169.165 198.286 170.931 206.775L184.242 270.955Z" fill="#3335CF"/>
<path d="M151.875 217.466L147.729 224.033L145.609 217.466H151.875Z" fill="#1B1B43"/>
<path d="M146.279 181.402C146.056 182.278 145.833 183.174 145.591 184.051L143.992 190.599L122.947 189.723L107.795 189.088C103.779 188.92 100.86 185.17 101.678 181.234L108.743 147.11C109.654 141.308 114.339 136.849 120.177 136.233L137.467 134.442L143.063 136.047C148.529 138.994 148.529 144.312 148.789 147.819C149.941 163.099 148.529 172.353 146.279 181.402Z" fill="#A871FF"/>
<path opacity="0.3" d="M132.019 180.301C131.796 181.178 145.851 183.155 145.609 184.051L144.01 190.599L122.965 189.723C115.603 184.163 112.851 172.036 110.174 156.868L132.019 180.301Z" fill="#1B1B43"/>
<path d="M127.836 144.312C128.766 145.3 129.807 146.177 130.978 146.812C132.149 147.465 133.414 147.931 134.734 148.08C136.035 148.248 137.411 148.136 138.564 147.521C139.735 146.942 140.478 145.711 140.627 144.367L140.832 144.386C140.832 145.076 140.646 145.785 140.311 146.42C139.958 147.054 139.419 147.576 138.805 147.931C137.56 148.659 136.072 148.789 134.678 148.621C133.284 148.435 131.945 147.931 130.755 147.222C129.565 146.513 128.524 145.562 127.669 144.461L127.836 144.312Z" fill="#1B1B43"/>
<path d="M149.273 165.17L148.882 165.133C149.273 159.759 148.882 153.136 147.729 145.487L148.12 145.431C149.273 153.118 149.663 159.759 149.273 165.17Z" fill="#1B1B43"/>
<path d="M185.042 184.144H165.242V188.062H185.042V184.144Z" fill="#1B1B43"/>
<path d="M219.325 188.062H179.539L197.833 152.95H237.619L219.325 188.062Z" fill="#9192FF"/>
<path d="M132.224 106.363C127.557 101.755 118.764 103.695 118.894 111.438C109.3 113.975 108.761 124.535 112.628 129.964L115.956 130.225L116.681 126.289L118.615 130.3L127.948 130.897L132.224 106.363Z" fill="#1B1B43"/>
<path d="M140.014 123.621V138.36C140.014 138.491 140.014 138.621 139.995 138.752C139.772 141.793 136.834 143.92 133.841 143.155C129.435 142.017 126.367 138.005 126.405 133.435L126.479 123.621H140.014Z" fill="#FFBC96"/>
<path d="M140.013 129.983V138.341C140.013 138.472 140.013 138.602 139.995 138.733C136.072 138.08 131.535 133.528 130.42 128.565L140.013 129.983Z" fill="#1B1B43"/>
<path d="M147.952 124.703C147.748 125.878 147.469 127.072 147.115 128.211C145.944 131.942 143.843 135.058 140.069 134.517C131.22 133.248 126.274 124.087 126.274 124.087L132.335 117.128L136.407 111.643L148.603 116.923C148.603 116.923 148.659 120.673 147.952 124.703Z" fill="#FFBC96"/>
<path d="M128.915 121.737C132.8 121.606 135.812 119.628 137.095 113.975C137.095 113.975 146.149 121.811 150.592 117.632C154.311 114.125 148.008 106.046 137.56 105.095C133.748 104.74 129.956 105.934 126.981 108.341C121.924 112.408 121.441 121.886 126.163 125.151L128.915 121.737Z" fill="#1B1B43"/>
<path d="M124.36 111.848C124.1 110.934 124.304 109.908 124.713 109.031C125.122 108.154 125.773 107.371 126.535 106.774C127.297 106.177 128.208 105.748 129.138 105.542C130.086 105.356 131.09 105.374 131.945 105.766C131.053 106.065 130.272 106.363 129.528 106.736C128.803 107.109 128.115 107.539 127.483 108.042C126.851 108.527 126.275 109.087 125.736 109.703C125.234 110.318 124.769 110.99 124.36 111.848Z" fill="#FFA121"/>
<path d="M129.104 125.786C130.658 125.162 131.308 123.128 130.556 121.243C129.805 119.359 127.936 118.337 126.382 118.961C124.828 119.585 124.178 121.619 124.929 123.503C125.681 125.388 127.55 126.41 129.104 125.786Z" fill="#FFBC96"/>
<path d="M127.743 124.386C127.818 123.733 127.818 123.117 127.632 122.557C127.446 121.979 127.093 121.494 126.665 120.99L126.795 120.822C127.39 121.14 127.911 121.699 128.134 122.39C128.357 123.08 128.264 123.845 127.948 124.442L127.743 124.386Z" fill="#1B1B43"/>
<path d="M142.3 122.408C142.3 122.968 141.891 123.416 141.408 123.416C140.925 123.416 140.516 122.968 140.516 122.408C140.516 121.849 140.925 121.401 141.408 121.401C141.891 121.401 142.3 121.867 142.3 122.408Z" fill="#1B1B43"/>
<path d="M147.023 123.21C146.967 123.696 146.558 124.05 146.112 123.994C145.665 123.938 145.368 123.509 145.424 123.005C145.479 122.52 145.888 122.166 146.335 122.222C146.781 122.278 147.078 122.707 147.023 123.21Z" fill="#1B1B43"/>
<path d="M142.245 119.908C142.282 120.375 141.538 120.412 140.441 120.449C139.344 120.487 138.582 120.822 138.582 120.524C138.582 120.225 139.381 119.46 140.46 119.293C141.594 119.106 142.207 119.348 142.245 119.908Z" fill="#1B1B43"/>
<path d="M145.758 120.356C145.683 120.822 146.223 120.934 147.041 121.084C147.859 121.233 148.379 121.643 148.416 121.345C148.454 121.046 147.933 120.225 147.152 119.927C146.353 119.628 145.851 119.815 145.758 120.356Z" fill="#1B1B43"/>
<path d="M144.456 124.031C144.661 124.293 144.903 124.516 145.126 124.74L145.479 125.076C145.609 125.188 145.739 125.319 145.851 125.505C145.907 125.599 145.962 125.729 145.962 125.86C145.981 125.99 145.925 126.14 145.869 126.233C145.739 126.438 145.591 126.569 145.442 126.662C145.126 126.867 144.773 126.961 144.438 127.016L144.364 126.83C144.642 126.643 144.94 126.475 145.163 126.289C145.274 126.196 145.367 126.084 145.405 125.99C145.442 125.897 145.442 125.878 145.386 125.766C145.274 125.58 144.958 125.319 144.773 125.039C144.549 124.778 144.364 124.46 144.252 124.125L144.456 124.031Z" fill="#1B1B43"/>
<path d="M139.94 127.334C140.479 127.949 141.055 128.528 141.725 128.901C142.394 129.274 143.175 129.386 143.993 129.293L144.049 129.498C143.658 129.666 143.212 129.759 142.766 129.74C142.319 129.722 141.873 129.591 141.483 129.367C140.702 128.919 140.126 128.229 139.772 127.446L139.94 127.334Z" fill="#1B1B43"/>
<path opacity="0.2" d="M136.742 126.755C137.953 126.755 138.935 125.77 138.935 124.554C138.935 123.338 137.953 122.352 136.742 122.352C135.53 122.352 134.548 123.338 134.548 124.554C134.548 125.77 135.53 126.755 136.742 126.755Z" fill="#FE5B52"/>
<path opacity="0.2" d="M147.953 124.703C147.748 125.878 147.47 127.072 147.116 128.211C146.782 127.819 146.559 127.315 146.559 126.755C146.577 125.822 147.154 125.039 147.953 124.703Z" fill="#FE5B52"/>
<path d="M122.872 150.804L110.174 156.868L114.152 166.345L127.464 160.17L122.872 150.804Z" fill="#A871FF"/>
<path d="M169.908 183.659C169.555 183.491 169.332 183.36 169.332 183.36L169.462 183.118C169.462 183.118 169.704 183.23 170.039 183.416L169.908 183.659Z" fill="#C5C5FF"/>
<path d="M175.188 184.984C174.779 185.805 171.637 184.349 170.168 183.64C171.303 184.275 173.255 185.506 172.399 186.196C171.693 186.737 170.15 185.581 165.093 183.472C165.855 183.827 170.392 185.991 169.239 186.812C167.993 187.708 162.676 185.749 162.676 185.749L158.047 188.249H152.711L133.543 188.379C132.335 188.379 131.145 188.23 129.992 187.931C127.724 187.353 125.568 186.215 123.764 184.685C122.611 183.715 121.626 182.596 120.808 181.346C120.195 180.413 119.655 179.424 119.228 178.379L114.152 166.345L127.464 160.17L134.417 174.331L157.34 179.331L163.736 177.726C165.112 177.372 167.064 177.969 168.272 178.696C171.21 180.506 175.56 184.2 175.188 184.984Z" fill="#FFBC96"/>
<path opacity="0.2" d="M130.327 185.917C130.327 186.626 130.197 187.279 129.974 187.913C127.706 187.335 125.549 186.196 123.746 184.667C122.593 183.696 121.608 182.577 120.79 181.327C121.794 180.506 123.077 180.021 124.471 180.021C127.706 180.04 130.327 182.67 130.327 185.917Z" fill="#FE5B52"/>
<path d="M157.303 179.219C158.883 178.696 160.5 178.23 162.137 177.894C162.955 177.726 163.791 177.577 164.646 177.54C165.074 177.521 165.502 177.521 165.929 177.577C166.152 177.614 166.357 177.67 166.561 177.726C166.766 177.801 166.97 177.875 167.156 177.95C168.718 178.659 170.075 179.666 171.395 180.711C172.715 181.756 173.942 182.894 175.151 184.07L175.206 184.126L175.225 184.2C175.262 184.461 175.244 184.685 175.095 184.928C175.002 185.021 174.927 185.133 174.797 185.189C174.686 185.264 174.574 185.282 174.463 185.301C174.016 185.376 173.626 185.282 173.273 185.189C172.529 184.984 171.878 184.648 171.209 184.312C170.558 183.958 169.908 183.603 169.294 183.211C168.662 182.838 168.067 182.409 167.435 182.017L167.714 181.57C168.811 182.222 169.871 182.894 170.875 183.678C171.376 184.07 171.878 184.461 172.306 185.002C172.418 185.133 172.511 185.282 172.585 185.469C172.622 185.562 172.641 185.674 172.641 185.786C172.622 185.917 172.585 186.047 172.511 186.159C172.343 186.346 172.139 186.42 171.971 186.458C171.786 186.514 171.637 186.514 171.451 186.532H171.395L171.339 186.514L165.557 184.088L165.725 183.678C166.636 184.107 167.528 184.555 168.365 185.114C168.774 185.413 169.22 185.674 169.517 186.196C169.592 186.327 169.629 186.532 169.573 186.7C169.499 186.887 169.35 186.999 169.238 187.055C168.978 187.185 168.699 187.223 168.439 187.241C167.398 187.26 166.431 187.017 165.464 186.775C164.498 186.514 163.549 186.215 162.62 185.879L162.694 185.674C163.624 185.991 164.572 186.271 165.539 186.495C166.487 186.719 167.472 186.924 168.42 186.868C168.867 186.849 169.406 186.644 169.201 186.346C168.997 185.991 168.569 185.693 168.179 185.431C167.361 184.909 166.468 184.461 165.576 184.07L165.743 183.659L171.544 186.047L171.432 186.029C171.581 186.01 171.73 186.01 171.841 185.973C171.971 185.954 172.083 185.879 172.12 185.842C172.195 185.805 172.083 185.525 171.916 185.301C171.544 184.853 171.06 184.461 170.577 184.088C169.592 183.342 168.532 182.67 167.454 182.036L167.733 181.588C168.346 181.98 168.941 182.409 169.573 182.782C170.187 183.174 170.819 183.528 171.451 183.883C172.102 184.2 172.752 184.536 173.422 184.723C173.756 184.816 174.109 184.89 174.388 184.834L174.5 184.816C174.537 184.816 174.556 184.778 174.574 184.778C174.63 184.76 174.649 184.704 174.704 184.685C174.76 184.611 174.779 184.461 174.76 184.349L174.835 184.48C173.663 183.305 172.418 182.185 171.135 181.14C169.852 180.096 168.513 179.069 167.045 178.379L166.487 178.155C166.301 178.118 166.097 178.062 165.911 178.006C165.52 177.95 165.111 177.95 164.702 177.969C163.884 178.006 163.066 178.118 162.248 178.267C160.612 178.566 158.995 178.995 157.414 179.48L157.303 179.219Z" fill="#D28572"/>
<path d="M114.227 166.532L114.06 166.159L127.204 160.077L121.738 147.222L122.091 147.054L127.724 160.282L114.227 166.532Z" fill="#1B1B43"/>
<path d="M116.123 222.82H115.417V283.082H116.123V222.82Z" fill="#1B1B43"/>
<path d="M132.558 225.488H98.9818C96.695 225.488 94.8545 223.641 94.8545 221.346C94.8545 219.051 96.695 217.204 98.9818 217.204H132.558C134.845 217.204 136.685 219.051 136.685 221.346C136.685 223.641 134.826 225.488 132.558 225.488Z" fill="#D1D1FF"/>
<path d="M129.881 287H101.641V286.31C101.641 282.877 104.429 280.078 107.85 280.078H123.672C127.092 280.078 129.881 282.877 129.881 286.31V287Z" fill="#D1D1FF"/>
<path d="M156.391 191.735L155.794 192.114L215.307 286.778L215.904 286.4L156.391 191.735Z" fill="#1B1B43"/>
<path d="M215.302 191.76L155.768 286.403L156.365 286.781L215.9 192.139L215.302 191.76Z" fill="#1B1B43"/>
<path d="M237.991 188.062H133.711V195.954H237.991V188.062Z" fill="#D1D1FF"/>
<path d="M142.448 62.2396C130.42 62.2396 120.659 52.426 120.659 40.3736C120.659 28.3212 130.438 18.5077 142.448 18.5077C154.458 18.5077 164.238 28.3212 164.238 40.3736C164.238 52.426 154.458 62.2396 142.448 62.2396ZM142.448 18.9741C130.68 18.9741 121.124 28.5824 121.124 40.3736C121.124 52.1835 130.699 61.7732 142.448 61.7732C154.198 61.7732 163.773 52.1648 163.773 40.3736C163.773 28.5638 154.198 18.9741 142.448 18.9741Z" fill="#9192FF"/>
<path d="M157.173 55.5977C170.264 55.5977 180.877 44.9476 180.877 31.8101C180.877 18.6725 170.264 8.02246 157.173 8.02246C144.081 8.02246 133.469 18.6725 133.469 31.8101C133.469 44.9476 144.081 55.5977 157.173 55.5977Z" fill="#EBEBFF"/>
<path d="M157.191 32.2578L144.047 21.9219L144.474 21.3622L157.172 31.3623L164.256 25.3361L164.702 25.8772L157.191 32.2578Z" fill="#1B1B43"/>
<path d="M95.6529 83.1167H83.6056C81.6721 83.1167 80.0918 84.6839 80.0918 86.6429V98.7326C80.0918 100.673 81.6535 102.259 83.6056 102.259H92.1948L95.8946 107.389V102.24C97.7165 102.109 99.1481 100.598 99.1481 98.7326V86.6429C99.1667 84.7025 97.5864 83.1167 95.6529 83.1167Z" fill="white"/>
<path d="M96.1367 108.098L92.0837 102.483H83.606C81.5424 102.483 79.8691 100.804 79.8691 98.7326V86.6429C79.8691 84.572 81.5424 82.8928 83.606 82.8928H95.6533C97.717 82.8928 99.3902 84.572 99.3902 86.6429V98.7326C99.3902 100.617 97.9772 102.203 96.1367 102.445V108.098ZM83.606 83.3592C81.8027 83.3592 80.3339 84.8331 80.3339 86.6429V98.7326C80.3339 100.542 81.8027 102.016 83.606 102.016H92.3254L95.6719 106.662V102.016L95.895 101.998C97.6054 101.867 98.9254 100.43 98.9254 98.7139V86.6242C98.9254 84.8145 97.4567 83.3406 95.6533 83.3406H83.606V83.3592Z" fill="#9192FF"/>
<path d="M89.3884 98.9006L84.5732 91.9042L85.7073 91.1206L89.2583 96.2513L94.5941 86.6616L95.8211 87.3519L89.3884 98.9006Z" fill="#9192FF"/>
<path d="M361.01 286.291H75.3701V287H361.01V286.291Z" fill="#1B1B43"/>
</svg>
